<?xml version="1.0" standalone="no"?>
<!DOCTYPE svg PUBLIC "-//W3C//DTD SVG 1.1//EN" "http://www.w3.org/Graphics/SVG/1.1/DTD/svg11.dtd" >
<svg xmlns="http://www.w3.org/2000/svg">
<metadata></metadata>
<defs>
<font id="chsans-regularregular" horiz-adv-x="1118" >
<font-face units-per-em="2048" ascent="1638" descent="-410" />
<missing-glyph horiz-adv-x="520" />
<glyph unicode="ff" horiz-adv-x="1339" d="M35 887v131h166v127q0 51 2 88t9 64.5t20.5 50t35.5 45.5q72 72 228 71q51 0 95 -11t56 -15v-125q-12 4 -44 9t-58 5q-41 0 -76 -8t-61 -35q-23 -23 -29 -64.5t-6 -95.5v-106h274v-131h-274v-887h-172v887h-166zM705 887v131h166v127q0 51 2 88t9 64.5t20.5 50t35.5 45.5 q72 72 228 71q51 0 95 -11t56 -15v-125q-12 4 -44 9t-58 5q-41 0 -76 -8t-61 -35q-23 -23 -29 -64.5t-6 -95.5v-106h274v-131h-274v-887h-172v887h-166z" />
<glyph unicode="fi" horiz-adv-x="1079" d="M35 887v131h166v127q0 51 2 88t9 64.5t20.5 50t35.5 45.5q72 72 228 71q51 0 95 -11t56 -15v-125q-12 4 -44 9t-58 5q-41 0 -76 -8t-61 -35q-23 -23 -29 -64.5t-6 -95.5v-106h274v-131h-274v-887h-172v887h-166zM759 0v1018h172v-1018h-172zM759 1178v174h172v-174h-172z " />
<glyph unicode="fl" horiz-adv-x="1079" d="M35 887v131h166v127q0 51 2 88t9 64.5t20.5 50t35.5 45.5q72 72 228 71q51 0 95 -11t56 -15v-125q-12 4 -44 9t-58 5q-41 0 -76 -8t-61 -35q-23 -23 -29 -64.5t-6 -95.5v-106h274v-131h-274v-887h-172v887h-166zM759 0v1444h172v-1444h-172z" />
<glyph unicode="ffi" horiz-adv-x="1806" d="M35 887v131h166v127q0 51 2 88t9 64.5t20.5 50t35.5 45.5q72 72 228 71q51 0 95 -11t56 -15v-125q-12 4 -44 9t-58 5q-41 0 -76 -8t-61 -35q-23 -23 -29 -64.5t-6 -95.5v-106h274v-131h-274v-887h-172v887h-166zM705 887v131h166v127q0 51 2 88t9 64.5t20.5 50t35.5 45.5 q72 72 228 71q51 0 95 -11t56 -15v-125q-12 4 -44 9t-58 5q-41 0 -76 -8t-61 -35q-23 -23 -29 -64.5t-6 -95.5v-106h274v-131h-274v-887h-172v887h-166zM1486 0v1018h172v-1018h-172zM1486 1178v174h172v-174h-172z" />
<glyph unicode="ffl" horiz-adv-x="1806" d="M35 887v131h166v127q0 51 2 88t9 64.5t20.5 50t35.5 45.5q72 72 228 71q51 0 95 -11t56 -15v-125q-12 4 -44 9t-58 5q-41 0 -76 -8t-61 -35q-23 -23 -29 -64.5t-6 -95.5v-106h274v-131h-274v-887h-172v887h-166zM705 887v131h166v127q0 51 2 88t9 64.5t20.5 50t35.5 45.5 q72 72 228 71q51 0 95 -11t56 -15v-125q-12 4 -44 9t-58 5q-41 0 -76 -8t-61 -35q-23 -23 -29 -64.5t-6 -95.5v-106h274v-131h-274v-887h-172v887h-166zM1486 0v1444h172v-1444h-172z" />
<glyph unicode="&#xd;" horiz-adv-x="0" />
<glyph unicode=" "  horiz-adv-x="520" />
<glyph unicode="&#x09;" horiz-adv-x="520" />
<glyph unicode="&#xa0;" horiz-adv-x="520" />
<glyph unicode="!" horiz-adv-x="606" d="M199 1427h209l-15 -978h-180zM203 0v201h200v-201h-200z" />
<glyph unicode="&#x22;" horiz-adv-x="878" d="M197 1427h176l-19 -452h-139zM506 1427h176l-18 -452h-140z" />
<glyph unicode="#" d="M68 430l24 133h180l68 359h-180l24 131h178l68 374h139l-67 -374h227l68 374h139l-68 -374h183l-23 -131h-182l-68 -359h183l-25 -133h-182l-64 -356h-139l63 356h-227l-63 -356h-140l64 356h-180zM412 563h227l68 359h-228z" />
<glyph unicode="$" d="M96 350h183q0 -6 6 -41t32.5 -73.5t80 -70.5t147.5 -32q45 0 93 10.5t88 36t65.5 70.5t25.5 115q0 88 -51 139t-129 88t-168 69.5t-168 82t-129 125t-51 200.5q0 109 39 177.5t95 109.5t117.5 58.5t106.5 21.5v211h139v-211q147 -16 243.5 -96t101.5 -228h-181 q-2 10 -9 40t-30.5 61.5t-70.5 56t-129 24.5q-35 0 -76 -9t-78 -32.5t-61.5 -64.5t-24.5 -103q0 -88 52.5 -140t130 -88t167.5 -67.5t168 -79.5t130.5 -125t52.5 -204q0 -106 -38 -178t-94.5 -117t-124 -67.5t-129.5 -28.5v-236h-139v236q-182 14 -282.5 110.5t-100.5 249.5 z" />
<glyph unicode="%" horiz-adv-x="1572" d="M111 1071q0 80 14 147.5t45 116.5t81 78t122 29q76 0 126 -31t79.5 -83t42 -118.5t12.5 -140.5q0 -78 -13.5 -146.5t-44 -120.5t-80.5 -82t-124 -30q-80 0 -130.5 35t-80 89t-39.5 122t-10 135zM240 1059q0 -47 5 -94t18 -84t39 -60.5t69 -23.5t69.5 21.5t40 57t18.5 84 t5 101.5t-4 103t-17.5 88t-39 61.5t-68.5 23.5q-45 0 -72 -22.5t-41 -60t-18 -89t-4 -106.5zM385 0l696 1466h127l-696 -1466h-127zM940 358q0 80 14.5 147.5t45 117t80.5 78t122 28.5q76 0 126 -30.5t80 -83t42 -119t12 -140.5q0 -78 -13 -146.5t-44 -120.5t-81 -82 t-124 -30q-80 0 -130 35t-79.5 89.5t-40 122t-10.5 134.5zM1069 346q0 -47 5 -94t18.5 -84t39 -60.5t68.5 -23.5t69.5 21.5t40 57.5t18.5 84t5 101t-4 103.5t-17.5 88.5t-39 61.5t-68.5 23.5q-45 0 -71.5 -22.5t-41 -60.5t-18.5 -89.5t-4 -106.5z" />
<glyph unicode="&#x26;" horiz-adv-x="1316" d="M88 397q0 117 38 188.5t88 111.5t101.5 56.5t75.5 24.5q-39 39 -71.5 75t-57 75t-38 84t-13.5 102q0 164 97.5 253t269.5 89q84 0 154.5 -19.5t121.5 -60.5t81 -104.5t30 -151.5h-174q-2 10 -7.5 42t-26 66t-61.5 59.5t-114 25.5q-59 0 -96 -19.5t-58.5 -47t-30 -59.5 t-8.5 -54q0 -66 22.5 -116t75.5 -108l482 -516q12 14 29.5 47t35 71t32.5 76t24 64l141 -53q-8 -31 -22.5 -72t-34 -84t-44 -86t-53.5 -80l170 -178l-119 -114l-155 166q-14 -16 -44 -46t-79 -60t-121 -52.5t-172 -22.5q-104 0 -191 21.5t-148.5 72t-95.5 132t-34 202.5z M268 418q0 -147 74.5 -226t230.5 -79q61 0 108.5 15t84.5 37.5t62.5 48.5t41.5 46l-407 438q-16 -4 -53 -19t-66 -44q-23 -23 -49.5 -70t-26.5 -147z" />
<glyph unicode="'" horiz-adv-x="569" d="M197 1427h176l-19 -452h-139z" />
<glyph unicode="(" horiz-adv-x="876" d="M170 606q0 160 34 298t94 255t143 213t182 174l77 -80q-168 -188 -262 -393t-94 -467q0 -145 27.5 -269t75 -228.5t112 -192.5t135.5 -164l-80 -78q-238 184 -341 418t-103 514z" />
<glyph unicode=")" horiz-adv-x="876" d="M176 1466l78 80q98 -78 181 -174t143.5 -213t94.5 -255t34 -298q0 -281 -103.5 -514.5t-341.5 -417.5l-80 78q72 76 135.5 164t111.5 192.5t75.5 228.5t27.5 269q0 262 -94 467t-262 393z" />
<glyph unicode="*" horiz-adv-x="1253" d="M291 1010v118l270 -12l-160 252l99 55l127 -264l129 264l96 -55l-166 -252l277 12v-118l-271 20l160 -262l-98 -51l-127 260l-127 -260l-99 51l154 262z" />
<glyph unicode="+" d="M127 586v143h358v385h148v-385h358v-143h-358v-381h-148v381h-358z" />
<glyph unicode="," horiz-adv-x="507" d="M86 -211l96 412h211l-164 -412h-143z" />
<glyph unicode="-" horiz-adv-x="702" d="M61 586v147h580v-147h-580z" />
<glyph unicode="." horiz-adv-x="573" d="M186 0v201h201v-201h-201z" />
<glyph unicode="/" horiz-adv-x="657" d="M-33 -246l486 1690h155l-485 -1690h-156z" />
<glyph unicode="0" d="M68 723q0 160 27.5 295t87 231.5t152.5 150.5t226 54q141 0 236.5 -58.5t152 -158.5t80 -233.5t23.5 -282.5q0 -158 -26 -295t-84 -237.5t-152.5 -158t-233.5 -57.5q-150 0 -245 65.5t-149 172t-74.5 241t-20.5 271.5zM252 700q0 -94 10 -196.5t42 -186.5t92.5 -139 t160.5 -55q102 0 163.5 51t94.5 134t43 187.5t10 209.5q0 104 -9 211.5t-41 193.5t-92 141.5t-161 55.5q-106 0 -168.5 -53.5t-94.5 -139.5t-41 -194.5t-9 -219.5z" />
<glyph unicode="1" d="M236 1067v156l346 204h155v-1427h-176v1260z" />
<glyph unicode="2" d="M113 0v37q0 127 49 226t122.5 181t158.5 153t159 142.5t123 149.5t49 176q0 117 -57.5 181.5t-171.5 64.5q-80 0 -127 -28t-73 -64.5t-34 -72.5t-10 -50h-184q2 94 39 162.5t98 111.5t138 63.5t159 20.5q86 0 161.5 -24.5t131 -73.5t87.5 -122t32 -167q0 -72 -15.5 -129 t-44.5 -106.5t-68.5 -95.5t-89.5 -95q-55 -55 -126.5 -116.5t-136 -123t-109.5 -124t-47 -121.5h645v-156h-858z" />
<glyph unicode="3" d="M98 309h185q2 -10 10 -40.5t31.5 -63.5t68.5 -58.5t123 -25.5q123 0 203 67.5t80 206.5q0 84 -29 136.5t-73 80t-96 36.5t-99 9h-53v152h43q35 0 84 6t93 31.5t75.5 79t31.5 147.5q0 121 -65.5 178.5t-175.5 57.5q-80 0 -125 -29t-69 -65.5t-30 -71.5t-8 -47h-184 q0 86 30.5 152.5t85 112.5t129 69.5t164.5 23.5q82 0 159 -20.5t135.5 -63.5t94 -111.5t35.5 -162.5q0 -119 -36.5 -187.5t-83 -105.5t-91.5 -49.5t-59 -16.5q12 -2 60.5 -12t100.5 -46t94 -105.5t42 -192.5q0 -92 -34 -167t-94 -129t-144.5 -83t-184.5 -29t-187 30t-149 91 q-49 49 -67.5 106.5t-20.5 108.5z" />
<glyph unicode="4" d="M59 303v127l662 997h176v-976h188v-148h-188v-303h-170v303h-668zM244 451h483v739z" />
<glyph unicode="5" d="M127 285h184q2 -10 9.5 -38t32 -56.5t70.5 -51t126 -22.5q78 0 130 29.5t85 76.5t46 105.5t13 117.5q0 68 -13 127.5t-44 103.5t-82 69.5t-127 25.5q-55 0 -98 -11t-75 -27.5t-52.5 -34t-32.5 -27.5l-127 53l27 702h727v-149h-580l-18 -463q10 12 33.5 30.5t59.5 35 t82 28t101 11.5q106 0 183 -35t124 -97.5t70 -147.5t23 -185q0 -127 -38 -217.5t-100.5 -149.5t-143.5 -87t-169 -28q-90 0 -167 18.5t-134 56.5t-90 96.5t-35 140.5z" />
<glyph unicode="6" d="M106 688q0 88 9.5 179t31 176t58.5 160t93 130.5t133 88t181 32.5q70 0 139.5 -19.5t125 -58.5t91.5 -95t40 -130h-183q-4 12 -13 37.5t-32.5 53.5t-66.5 48.5t-113 20.5q-106 0 -168.5 -58.5t-95.5 -147.5t-43 -192.5t-12 -193.5q6 14 27.5 47t63.5 66.5t105.5 60.5 t153.5 27q205 0 306 -121t101 -336q0 -111 -28.5 -201t-85 -154.5t-139.5 -99.5t-189 -35q-154 0 -249 62.5t-148.5 164t-73 229.5t-19.5 259zM317 444q0 -63 14.5 -121.5t47.5 -103.5t85 -72.5t128 -27.5q74 0 126 25.5t84 69.5t46 104.5t14 130.5q0 63 -13 122.5 t-45 105.5t-83 72.5t-125 26.5q-76 0 -128 -25.5t-86 -70.5t-49.5 -105.5t-15.5 -130.5z" />
<glyph unicode="7" d="M111 1276v151h866v-137l-506 -1290h-178l514 1276h-696z" />
<glyph unicode="8" d="M100 387q0 115 38 185.5t85 110.5t91 54.5t57 16.5q-6 2 -44 15t-79 50t-75 100.5t-34 163.5q0 111 41 182.5t104.5 113.5t136.5 58.5t138 16.5q80 0 156 -19.5t136 -62.5t97 -113.5t37 -175.5q0 -113 -36 -177t-79 -98t-80.5 -44t-39.5 -10q16 -4 60 -18.5t90 -53.5 t82 -109.5t36 -185.5q0 -104 -35 -182t-96.5 -129t-145.5 -77t-182 -26q-96 0 -180 26t-145.5 77t-97.5 129t-36 182zM276 393q0 -141 79 -209.5t202 -68.5q59 0 111.5 17.5t90.5 51t60.5 86t22.5 123.5q0 141 -81 214t-204 73t-202 -74t-79 -213zM305 1069 q0 -125 71.5 -188.5t182.5 -63.5q113 0 186.5 67.5t73.5 184.5q0 125 -74.5 186.5t-183.5 61.5q-113 0 -184.5 -62.5t-71.5 -185.5z" />
<glyph unicode="9" d="M80 967q0 111 27.5 199.5t83 153t137.5 99.5t190 35q150 0 245 -61.5t150.5 -160.5t77 -228.5t21.5 -264.5q0 -152 -23.5 -290t-82 -243.5t-155 -168t-243.5 -62.5q-90 0 -162 24t-124 64.5t-80.5 95t-30.5 117.5h178q2 -8 11 -34.5t33.5 -54t67.5 -49t113 -21.5 q74 0 127 28.5t90 75.5t58.5 108.5t34 127t15.5 129t5 116.5q-6 -12 -25.5 -48t-59.5 -73.5t-106.5 -66.5t-165.5 -29q-102 0 -179 37t-127 101.5t-75.5 152.5t-25.5 191zM252 981q0 -70 13.5 -133.5t44 -112.5t80.5 -77.5t126 -28.5q74 0 129 27.5t90 74.5t52.5 112.5 t17.5 141.5q0 70 -16.5 129.5t-51.5 103.5t-88 68.5t-127 24.5q-72 0 -123 -25.5t-83.5 -70t-48 -104.5t-15.5 -130z" />
<glyph unicode=":" horiz-adv-x="573" d="M186 0v201h201v-201h-201zM186 817v201h201v-201h-201z" />
<glyph unicode=";" horiz-adv-x="501" d="M86 -211l96 412h211l-164 -412h-143zM172 817v201h201v-201h-201z" />
<glyph unicode="&#x3c;" d="M127 582v143l864 395v-151l-721 -314l721 -311v-151z" />
<glyph unicode="=" d="M127 424v143h864v-143h-864zM127 748v143h864v-143h-864z" />
<glyph unicode="&#x3e;" d="M127 193v151l721 311l-721 314v151l864 -395v-143z" />
<glyph unicode="?" horiz-adv-x="987" d="M82 1096q0 55 19.5 117.5t66.5 115.5t128 89t204 36q96 0 172 -27.5t128 -74.5t78.5 -111.5t26.5 -138.5q0 -61 -11 -107.5t-29.5 -82t-41 -63.5t-47.5 -52q-49 -49 -85 -72t-62.5 -48.5t-42 -68.5t-21.5 -129l-2 -30h-188v30q0 57 2 95t10 66t21.5 49.5t37.5 45.5 q39 39 86.5 78t88.5 81t67.5 91t26.5 109q0 100 -55.5 158.5t-159.5 58.5q-82 0 -128 -30t-68.5 -68.5t-29 -73.5t-8.5 -43h-184zM369 0v201h200v-201h-200z" />
<glyph unicode="@" horiz-adv-x="1523" d="M57 643q0 193 48.5 346.5t144.5 261t239.5 163.5t331.5 56q139 0 257 -26.5t204 -90t135 -167t49 -256.5q0 -162 -37.5 -269.5t-97 -172t-131.5 -92t-139 -27.5q-61 0 -107.5 25.5t-68.5 80.5l-2 6q-29 -37 -78 -74.5t-133 -37.5q-129 0 -192.5 75.5t-63.5 196.5 q0 88 26.5 168t73.5 139.5t111.5 94t140.5 34.5q68 0 107.5 -27.5t62.5 -80.5l33 94h135l-59 -350q-8 -41 -17.5 -82t-9.5 -82q0 -16 14.5 -33.5t50.5 -17.5q20 0 57.5 13t72 59t61.5 132t27 234q0 123 -37 199.5t-104.5 122t-161 61.5t-205.5 16q-160 0 -269.5 -54 t-177 -149.5t-97.5 -222.5t-30 -270q0 -276 132 -399t411 -123q129 0 265 44t247 136l84 -107q-27 -29 -77 -64.5t-126 -68t-178 -54t-231 -21.5q-70 0 -141.5 7t-141.5 25.5t-132.5 51t-111.5 86.5q-45 47 -76.5 106t-51 123.5t-28 131.5t-8.5 130zM584 647q0 -31 6 -60.5 t21.5 -51t41 -35t64.5 -13.5q49 0 84 31t57.5 77t33.5 99.5t11 100.5q0 25 -4 53.5t-16.5 54t-35 43t-61.5 17.5q-55 0 -94 -36t-62.5 -85t-34.5 -103.5t-11 -91.5z" />
<glyph unicode="A" horiz-adv-x="1181" d="M-2 0l487 1427h213l486 -1427h-207l-109 338h-569l-111 -338h-190zM346 485h475l-237 736z" />
<glyph unicode="B" horiz-adv-x="1208" d="M178 0v1427h393q145 0 240.5 -22.5t167.5 -91.5q29 -29 57.5 -86.5t28.5 -169.5q0 -129 -55.5 -216t-173.5 -112q135 -25 204.5 -103.5t69.5 -232.5q0 -61 -8 -104t-21.5 -75t-30 -53.5t-34.5 -39.5q-74 -74 -187.5 -97.5t-273.5 -23.5h-377zM358 147h224q63 0 123.5 7.5 t107.5 33t77 74.5t30 133q0 82 -24 131t-64.5 75t-97 34t-122.5 8h-254v-496zM358 788h150q63 0 130 6.5t120 31t87 75.5t34 141q0 76 -22.5 123t-62.5 74t-95.5 36t-123.5 9h-217v-496z" />
<glyph unicode="C" horiz-adv-x="1241" d="M98 702q0 190 42 332t118 235t183.5 139t236.5 46q141 0 226 -39t140 -94q53 -53 80 -117.5t27 -107.5h-188q-4 23 -20.5 59.5t-51.5 71.5q-31 31 -82 53.5t-129 22.5q-117 0 -193.5 -55.5t-120.5 -141.5t-61.5 -192.5t-17.5 -208.5q0 -98 17.5 -201t61.5 -187 t117.5 -137t186.5 -53q94 0 150.5 27.5t88 62.5t43 68.5t15.5 44.5h190q0 -31 -20.5 -91.5t-74.5 -120t-148 -103.5t-244 -44q-121 0 -225.5 42t-181.5 131t-121 227.5t-44 330.5z" />
<glyph unicode="D" horiz-adv-x="1339" d="M178 0v1427h291q57 0 132 -3t156 -18t159.5 -51t144.5 -100q55 -55 91 -121.5t55.5 -135t26.5 -139.5t7 -134q0 -199 -47 -331t-131 -216q-109 -109 -260.5 -143.5t-364.5 -34.5h-260zM358 150h115q98 0 200.5 15t187.5 72.5t138.5 170t53.5 309.5q0 139 -28 235.5 t-73 159t-103 97t-120.5 50t-124 18.5t-112.5 3h-134v-1130z" />
<glyph unicode="E" horiz-adv-x="1089" d="M178 0v1427h803v-151h-623v-473h590v-148h-590v-499h641v-156h-821z" />
<glyph unicode="F" horiz-adv-x="1044" d="M178 0v1427h801v-151h-621v-475h586v-148h-586v-653h-180z" />
<glyph unicode="G" horiz-adv-x="1249" d="M98 702q0 190 42 332t118 235t183.5 139t236.5 46q141 0 226 -39t140 -94q53 -53 80 -117.5t27 -107.5h-188q-4 23 -20.5 59.5t-51.5 71.5q-31 31 -82 53.5t-129 22.5q-117 0 -193.5 -55.5t-120.5 -141.5t-61.5 -192.5t-17.5 -208.5q0 -109 17.5 -213.5t64.5 -185.5 t129 -131t209 -50q113 0 179 20.5t89 28.5v379h-293v141h461v-633q-12 -4 -47 -19t-90.5 -30.5t-129 -28t-165.5 -12.5q-311 0 -462 188.5t-151 542.5z" />
<glyph unicode="H" horiz-adv-x="1411" d="M178 0v1427h180v-616h695v616h180v-1427h-180v657h-695v-657h-180z" />
<glyph unicode="I" horiz-adv-x="536" d="M178 0v1427h180v-1427h-180z" />
<glyph unicode="J" horiz-adv-x="995" d="M27 330h178q2 -10 8 -44t27.5 -71t63.5 -66.5t116 -29.5q51 0 86 14t61 41q49 49 59.5 123t10.5 154v976h180v-1003q0 -41 -2 -86t-12 -90t-31.5 -89t-60.5 -83q-49 -49 -123 -76t-168 -27q-104 0 -178 27t-121 74q-35 35 -54.5 71.5t-28.5 71.5t-10 63.5t-1 49.5z" />
<glyph unicode="K" horiz-adv-x="1198" d="M178 0v1427h180v-665l576 665h211l-602 -688l651 -739h-238l-598 694v-694h-180z" />
<glyph unicode="L" horiz-adv-x="1036" d="M178 0v1427h180v-1271h637v-156h-817z" />
<glyph unicode="M" horiz-adv-x="1722" d="M178 0v1427h275l411 -1218l406 1218h274v-1427h-172v1247l-418 -1247h-188l-416 1247v-1247h-172z" />
<glyph unicode="N" horiz-adv-x="1411" d="M178 0v1427h207l682 -1167v1167h166v-1427h-205l-684 1171v-1171h-166z" />
<glyph unicode="O" horiz-adv-x="1392" d="M98 709q0 160 35 297t108.5 236t187.5 155.5t269 56.5q147 0 259 -50t187 -145.5t112.5 -234.5t37.5 -315q0 -172 -38.5 -309.5t-114.5 -232.5t-188 -145.5t-259 -50.5t-257.5 50.5t-186.5 145.5t-114 232.5t-38 309.5zM287 717q0 -96 15 -200.5t60.5 -190.5t125 -142.5 t206.5 -56.5q125 0 206 55.5t126 141.5t62.5 190t17.5 203q0 102 -18.5 206.5t-64.5 188.5t-126 137.5t-203 53.5t-201.5 -55.5t-124.5 -141.5t-63.5 -189.5t-17.5 -199.5z" />
<glyph unicode="P" horiz-adv-x="1150" d="M178 0v1427h385q57 0 113.5 -2t110 -12t101.5 -31.5t89 -62.5q49 -49 79.5 -122t30.5 -165q0 -141 -44 -227t-116.5 -134t-165.5 -63.5t-192 -15.5h-209v-592h-182zM360 745h162q111 0 188.5 16.5t129.5 72.5q61 68 61 194q0 88 -31.5 137t-81 74t-108.5 30t-115 5h-205 v-529z" />
<glyph unicode="Q" horiz-adv-x="1392" d="M98 709q0 160 35 297t108.5 236t187.5 155.5t269 56.5q147 0 259 -50t187 -145.5t112.5 -234.5t37.5 -315q0 -150 -28.5 -275t-87 -216t-147.5 -145.5t-210 -62.5l361 -176l-82 -137l-584 309q-143 37 -237 131q-76 76 -128.5 218.5t-52.5 353.5zM287 717 q0 -96 15 -200.5t60.5 -190.5t125 -142.5t206.5 -56.5q125 0 206 55.5t126 141.5t62.5 190t17.5 203q0 102 -18.5 206.5t-64.5 188.5t-126 137.5t-203 53.5t-201.5 -55.5t-124.5 -141.5t-63.5 -189.5t-17.5 -199.5z" />
<glyph unicode="R" horiz-adv-x="1236" d="M178 0v1427h344q92 0 188.5 -10t175.5 -49t128 -113.5t49 -205.5q0 -129 -41 -202t-93 -109t-103.5 -46t-71.5 -12q49 -8 81.5 -32.5t59.5 -65.5t51.5 -97.5t52.5 -126.5l146 -358h-201l-129 342q-29 72 -51.5 122t-56.5 85q-33 33 -85.5 48t-132.5 15h-131v-612h-180z M358 756h150q98 0 178 20.5t131 71.5q29 29 45.5 74t16.5 110q0 53 -12.5 99.5t-41.5 74.5q-53 53 -132 65.5t-171 12.5h-164v-528z" />
<glyph unicode="S" horiz-adv-x="1136" d="M98 342h189q0 -6 7 -42t34.5 -76t82 -71.5t152.5 -31.5q45 0 95.5 11t91.5 38t68.5 73t27.5 115q0 63 -24.5 105.5t-67.5 74t-103.5 56t-132.5 55.5q-59 25 -127.5 52.5t-127 73.5t-98.5 119t-40 183q0 109 41 181.5t105.5 115.5t140 61.5t147.5 18.5q92 0 171 -20.5 t138.5 -61.5t93 -101.5t33.5 -137.5h-184q-2 10 -10 38.5t-34 58.5t-74 53.5t-132 23.5q-37 0 -80 -10.5t-82 -35t-64.5 -65.5t-25.5 -102q0 -68 26.5 -112t68.5 -72.5t93.5 -49t100.5 -39.5q88 -35 169 -68.5t140.5 -81.5t95 -118t35.5 -178q0 -109 -41 -184.5t-107.5 -125 t-151.5 -72t-173 -22.5q-115 0 -202 28t-145 78t-89 117.5t-31 147.5z" />
<glyph unicode="T" horiz-adv-x="1091" d="M45 1276v151h1002v-151h-410v-1276h-180v1276h-412z" />
<glyph unicode="U" horiz-adv-x="1376" d="M178 590v837h180v-843q0 -76 9.5 -157t43 -146.5t100.5 -108.5t179 -43q82 0 136.5 23.5t91.5 60.5t57 83t30.5 95t12.5 98.5t2 90.5v847h178v-837q0 -45 -2 -106.5t-14.5 -127t-38 -129t-74.5 -112.5q-23 -23 -53.5 -47.5t-75.5 -46t-105.5 -35t-142.5 -13.5 q-129 0 -222 37t-153 96q-49 49 -77.5 107.5t-42 121t-16.5 127t-3 128.5z" />
<glyph unicode="V" horiz-adv-x="1161" d="M16 1427h201l373 -1245l379 1245h188l-450 -1427h-246z" />
<glyph unicode="W" horiz-adv-x="1759" d="M16 1427h191l262 -1185l305 1185h211l307 -1185l264 1185h187l-340 -1427h-223l-306 1192l-301 -1192h-223z" />
<glyph unicode="X" horiz-adv-x="1089" d="M2 0l436 741l-397 686h207l303 -550l311 550h193l-404 -686l436 -741h-208l-338 588l-338 -588h-201z" />
<glyph unicode="Y" horiz-adv-x="1011" d="M-23 1427h203l336 -704l332 704h186l-434 -876v-551h-180v551z" />
<glyph unicode="Z" horiz-adv-x="1060" d="M49 0v129l725 1147h-686v151h909v-131l-718 -1140h733v-156h-963z" />
<glyph unicode="[" horiz-adv-x="716" d="M147 -246v1690h396v-129h-234v-1432h234v-129h-396z" />
<glyph unicode="\" horiz-adv-x="657" d="M49 1444h156l485 -1690h-155z" />
<glyph unicode="]" horiz-adv-x="716" d="M174 -117h234v1432h-234v129h395v-1690h-395v129z" />
<glyph unicode="^" d="M150 657l331 770h152l336 -770h-146l-268 648l-258 -648h-147z" />
<glyph unicode="_" horiz-adv-x="946" d="M8 -106h930v-140h-930v140z" />
<glyph unicode="`" horiz-adv-x="522" d="M47 1444h191l184 -266h-160z" />
<glyph unicode="a" horiz-adv-x="1009" d="M86 283q0 123 50 194.5t129 108.5t173 47t185 10h82v45q0 104 -46.5 160.5t-160.5 56.5q-61 0 -97 -14t-55.5 -32.5t-27 -38t-9.5 -32.5h-180q0 16 9 57.5t46 84.5t112 76.5t208 33.5q203 0 286.5 -93t83.5 -288v-659h-143l-10 135q-4 -6 -21.5 -31.5t-54.5 -53t-94 -49 t-139 -21.5q-63 0 -123 18t-105 56t-71.5 95.5t-26.5 133.5zM262 299q0 -178 197 -178q63 0 109 24.5t77 65.5t45.5 95t14.5 114v96h-91q-61 0 -123.5 -6t-112.5 -27.5t-83 -65.5t-33 -118z" />
<glyph unicode="b" horiz-adv-x="1112" d="M147 0v1466h172v-569q8 14 31 39t58.5 47.5t86 39.5t117.5 17q106 0 185.5 -45t129.5 -118.5t74.5 -169t24.5 -195.5q0 -96 -21.5 -191.5t-69.5 -172t-127 -125t-192 -48.5q-80 0 -136 19.5t-92 47.5t-56.5 55.5t-30.5 43.5l-10 -141h-144zM317 498q0 -55 11.5 -121 t41 -122t81 -94t129.5 -38q80 0 131 36t80.5 91t42 122.5t12.5 133.5q0 63 -12.5 132t-43 126t-82 94t-128.5 37q-80 0 -131.5 -38t-80 -96.5t-40 -129t-11.5 -133.5z" />
<glyph unicode="c" horiz-adv-x="1009" d="M86 498q0 115 27.5 214t84 171.5t141.5 114.5t200 42q125 0 199.5 -38.5t114.5 -90t53.5 -102.5t13.5 -76h-172q-2 12 -9.5 40t-28 56.5t-61.5 50t-110 21.5q-84 0 -136.5 -33.5t-83 -89t-42 -125t-11.5 -141.5q0 -68 10.5 -138.5t40 -128t81 -93t130.5 -35.5 q72 0 115 20.5t65.5 47t31 53t12.5 38.5h172q0 -23 -14.5 -72.5t-56.5 -100t-119 -89.5t-206 -39q-205 0 -323.5 130.5t-118.5 392.5z" />
<glyph unicode="d" horiz-adv-x="1112" d="M86 512q0 94 22.5 189.5t71.5 170t127 121.5t189 47q74 0 127 -19.5t89 -44t55 -48t26 -33.5v571h172v-1466h-144l-10 145q-4 -10 -22.5 -37.5t-55.5 -57.5t-93 -52.5t-136 -22.5q-117 0 -197 48.5t-129 125t-70.5 172t-21.5 191.5zM266 506q0 -66 12.5 -133.5t42 -122.5 t80.5 -91t131 -36q78 0 129.5 37t81 93t41 121.5t11.5 123.5q0 63 -11.5 133.5t-40 129t-80 96.5t-131.5 38q-78 0 -129 -37t-81.5 -94t-43 -126t-12.5 -132z" />
<glyph unicode="e" horiz-adv-x="1019" d="M86 492q0 115 23.5 215t77 173.5t137.5 116.5t206 43q123 0 201 -42t123 -113.5t62.5 -164.5t17.5 -198v-35.5t-2 -35.5h-666q2 -68 14.5 -129.5t43 -109.5t82 -77t129.5 -29q63 0 103 16.5t64.5 37t35 41t14.5 30.5h161q-2 -8 -14 -49t-52 -88t-116 -85t-201 -38 q-127 0 -212 41t-136 112t-73.5 165t-22.5 203zM268 580h494q0 61 -8.5 119.5t-34 104.5t-71.5 73.5t-120 27.5q-70 0 -118 -26.5t-79.5 -70.5t-46 -103t-16.5 -125z" />
<glyph unicode="f" horiz-adv-x="669" d="M35 887v131h166v127q0 51 2 88t9 64.5t20.5 50t35.5 45.5q71 71 224 71h4q51 0 95 -11t56 -15v-125q-12 4 -44 9t-58 5q-41 0 -76 -8t-61 -35q-23 -23 -29 -64.5t-6 -95.5v-106h274v-131h-274v-887h-172v887h-166z" />
<glyph unicode="g" horiz-adv-x="1112" d="M86 504q0 96 21.5 192.5t70.5 173t127 123.5t191 47q86 0 142 -20.5t91 -48t53.5 -55t28.5 -42.5l10 144h144v-901q0 -51 -2 -102.5t-12.5 -101.5t-33 -97t-63.5 -88q-70 -70 -157 -92.5t-177 -22.5q-96 0 -163.5 17.5t-110.5 44t-67.5 58t-37 62.5t-14.5 54.5t-2 33.5 h172q2 -8 7 -29.5t26.5 -44t65.5 -40t124 -17.5q104 0 159.5 33t81 87t29 124t3.5 143q-6 -10 -27 -32.5t-55.5 -46t-88 -42t-124.5 -18.5q-109 0 -187 43t-128 113.5t-73.5 161t-23.5 186.5zM266 512q0 -66 13.5 -130.5t44 -116.5t82 -85t129.5 -33q80 0 130 34t79.5 88.5 t41 120t11.5 130.5q0 61 -13.5 128t-44 121t-82 90t-125.5 36q-80 0 -131 -36t-80.5 -91t-42 -124t-12.5 -132z" />
<glyph unicode="h" horiz-adv-x="1093" d="M147 0v1466h172v-598q6 14 27 43t58.5 57.5t96 51t142.5 22.5q82 0 138.5 -20.5t97.5 -60.5q57 -57 68 -129t11 -142v-690h-172v633q0 55 -4 102t-22.5 81t-56 53.5t-105.5 19.5q-94 0 -149.5 -41t-84 -103.5t-37 -139.5t-8.5 -148v-457h-172z" />
<glyph unicode="i" horiz-adv-x="466" d="M147 0v1018h172v-1018h-172zM147 1178v174h172v-174h-172z" />
<glyph unicode="j" horiz-adv-x="528" d="M-29 -225q12 -2 27 -4q12 -2 25.5 -3t29.5 -1q51 0 83 13t47.5 38.5t20.5 62.5t5 84v1053h172v-1063q0 -96 -11.5 -154.5t-54.5 -101.5q-37 -37 -84.5 -54.5t-121.5 -17.5q-53 0 -84 7.5t-54 13.5v127zM209 1178v174h172v-174h-172z" />
<glyph unicode="k" horiz-adv-x="960" d="M147 0v1444h172v-899l388 473h188l-399 -486l440 -532h-209l-408 504v-504h-172z" />
<glyph unicode="l" horiz-adv-x="466" d="M147 0v1444h172v-1444h-172z" />
<glyph unicode="m" horiz-adv-x="1675" d="M147 0v1018h144l12 -166q4 10 22.5 42t57.5 64.5t98.5 58t147.5 25.5q51 0 88 -8t60.5 -19t36.5 -23.5t20 -18.5q33 -33 45 -73t16 -58q6 12 25.5 46t59.5 67.5t103.5 60t159.5 26.5q63 0 122.5 -18t96.5 -55q55 -55 66.5 -125t11.5 -154v-690h-172v629q0 51 -2 99 t-17.5 83t-51 56.5t-101.5 21.5q-92 0 -145.5 -41t-80 -103.5t-33.5 -139.5t-7 -148v-457h-172v629q0 51 -2 99t-17.5 83t-51.5 56.5t-101 21.5q-92 0 -145.5 -41t-80 -103.5t-34 -139.5t-7.5 -148v-457h-172z" />
<glyph unicode="n" horiz-adv-x="1093" d="M147 0v1018h144l12 -166q4 8 23.5 40t59.5 64.5t102.5 59t154.5 26.5q82 0 138.5 -20.5t97.5 -60.5q57 -57 68 -129t11 -142v-690h-172v633q0 55 -4 102t-22.5 81t-56 53.5t-105.5 19.5q-94 0 -149.5 -41t-84 -103.5t-37 -139.5t-8.5 -148v-457h-172z" />
<glyph unicode="o" horiz-adv-x="1081" d="M86 510q0 156 40 258t105.5 162.5t147.5 85t168 24.5t166 -24.5t143.5 -85t101 -162.5t37.5 -258t-38.5 -259.5t-103.5 -164.5t-146.5 -86t-167.5 -25t-168 25t-144.5 86t-101.5 164.5t-39 259.5zM266 510q0 -88 14.5 -161t46 -124t84 -79.5t128.5 -28.5q78 0 131 28.5 t84.5 79.5t46 124t14.5 161t-14.5 160.5t-46 124t-85 79t-130.5 27.5q-76 0 -128.5 -27.5t-84 -79t-46 -124t-14.5 -160.5z" />
<glyph unicode="p" horiz-adv-x="1112" d="M147 -377v1395h144l10 -154q4 8 21.5 38t54.5 60.5t94 55t139 24.5q92 0 160 -29.5t114 -77.5t73.5 -107.5t43 -117t20.5 -107.5t5 -81q0 -47 -6 -105.5t-24.5 -119.5t-48 -118.5t-77 -102.5t-114 -73t-154.5 -28q-74 0 -126 21.5t-86 48.5t-51 51.5t-20 30.5v-504h-172z M324 528q0 -84 10 -143t24.5 -99t31 -63.5t30.5 -38.5q31 -31 73 -46t85 -15q76 0 128 39t82.5 97t44 128t13.5 129q0 45 -9.5 110.5t-38 126t-80.5 102.5t-140 42q-45 0 -90.5 -15.5t-82 -55.5t-59 -112.5t-22.5 -185.5z" />
<glyph unicode="q" horiz-adv-x="1112" d="M86 504q0 94 21.5 190.5t70.5 173t128 125.5t196 49q78 0 134 -22.5t94 -52t57.5 -58t23.5 -41.5l10 150h144v-1395h-172v504q-4 -6 -18.5 -30.5t-48.5 -51.5t-88 -48.5t-136 -21.5q-111 0 -190 47.5t-129 123t-73.5 170t-23.5 188.5zM266 504q0 -47 13.5 -112.5t44 -125 t82 -101.5t129.5 -42q61 0 101 18.5t62 40.5q12 12 27.5 36t30 65t23.5 102t9 147q0 119 -24.5 191t-62 110.5t-85 51t-90.5 12.5q-82 0 -132 -34t-78.5 -89t-39 -125.5t-10.5 -144.5z" />
<glyph unicode="r" horiz-adv-x="702" d="M147 0v1018h144l10 -197q6 18 22.5 54t52.5 72t94 62.5t151 26.5q35 0 57 -6v-170q-20 4 -41 4q-133 0 -205 -71q-37 -37 -58.5 -78t-33.5 -96.5t-16.5 -126t-4.5 -164.5v-328h-172z" />
<glyph unicode="s" horiz-adv-x="913" d="M86 248h184q2 -6 6.5 -27.5t22.5 -46t54 -43t102 -18.5q184 0 184 135q0 55 -39 87t-96.5 55.5t-126 47t-125.5 61.5t-96 99t-39 160q0 59 22.5 108t50.5 78q41 41 108 68.5t157 27.5q86 0 154.5 -21.5t115.5 -68.5q41 -41 58.5 -81t19.5 -87h-172q0 18 -10.5 41 t-31 41.5t-53 30.5t-81.5 12q-68 0 -113 -33.5t-45 -101.5q0 -59 39 -94t98.5 -59.5t128 -48t128 -59.5t98 -92.5t38.5 -146.5q0 -88 -32.5 -145t-86 -91t-118.5 -47.5t-133 -13.5q-63 0 -129 14.5t-120 46.5t-88 84t-34 128z" />
<glyph unicode="t" horiz-adv-x="688" d="M27 887v131h172v293h172v-293h272v-131h-272v-574q0 -53 6 -93t31 -64q29 -29 68.5 -35t74.5 -6q16 0 44 3t48 7v-127q-29 -8 -66 -15.5t-90 -7.5q-72 0 -128 16.5t-91 51.5q-27 27 -41 54.5t-20 58t-7 65.5t-1 78v588h-172z" />
<glyph unicode="u" horiz-adv-x="1083" d="M135 338v680h172v-615q0 -45 4 -93t22.5 -88t55.5 -65.5t105 -25.5q92 0 145 40t81 103.5t36 140.5t8 148v455h172v-1018h-143l-13 170q-4 -10 -20.5 -41t-53 -63.5t-98 -59t-155.5 -26.5q-82 0 -141.5 25.5t-88.5 53.5q-51 51 -69.5 119t-18.5 160z" />
<glyph unicode="v" horiz-adv-x="948" d="M10 1018h178l289 -834l289 834h172l-365 -1018h-198z" />
<glyph unicode="w" horiz-adv-x="1413" d="M23 1018h174l209 -830l215 830h174l225 -830l199 830h172l-256 -1018h-222l-213 766l-190 -766h-221z" />
<glyph unicode="x" horiz-adv-x="892" d="M10 0l348 518l-323 500h194l224 -371l227 371h172l-317 -496l348 -522h-195l-246 393l-256 -393h-176z" />
<glyph unicode="y" horiz-adv-x="940" d="M8 1018h182l289 -776l281 776h172l-434 -1157q-23 -63 -48.5 -105.5t-52.5 -68.5q-20 -20 -66 -47t-130 -27q-43 0 -77 5t-50 9v125q14 -2 37.5 -6t58.5 -4q66 0 104.5 41t67.5 125l45 129z" />
<glyph unicode="z" horiz-adv-x="882" d="M68 0v123l532 764h-510v131h717v-115l-533 -766h545v-137h-751z" />
<glyph unicode="{" horiz-adv-x="724" d="M55 582v137q37 4 58.5 17.5t31 41t11.5 70.5t2 104v154q0 102 12 164.5t59 109.5t108.5 55.5t135.5 8.5h78v-129h-100q-47 0 -74 -16.5t-39 -48t-14 -78t-2 -107.5v-207q0 -72 -14.5 -112.5t-34 -62t-39 -28t-29.5 -6.5q14 -2 33.5 -8t38 -22.5t32 -49t13.5 -86.5v-428 q0 -45 6 -76.5t24.5 -53t51 -32t88.5 -10.5h59v-129h-74q-102 0 -158.5 15.5t-95.5 54.5q-23 23 -36 47.5t-19 57t-8 76.5t-2 108v252q0 63 -3 104t-14.5 63.5t-32 32.5t-53.5 17z" />
<glyph unicode="|" horiz-adv-x="458" d="M143 -246v1690h172v-1690h-172z" />
<glyph unicode="}" horiz-adv-x="724" d="M174 -117h59q55 0 88 10.5t51.5 32t24.5 53t6 76.5v428q0 53 13.5 86t32 49.5t38 22.5t33.5 8q-10 0 -29.5 6.5t-39 28t-34 62t-14.5 112.5v207q0 61 -2 107.5t-14 78t-38.5 48t-74.5 16.5h-100v129h78q74 0 135.5 -8.5t108.5 -55.5t59 -109.5t12 -164.5v-154 q0 -61 2 -104t11.5 -70.5t31 -41t58.5 -17.5v-137q-35 -6 -54.5 -16.5t-31 -33t-14.5 -63.5t-3 -104v-252q0 -63 -2 -107.5t-8 -77t-19.5 -57.5t-35.5 -47q-39 -39 -95.5 -54.5t-158.5 -15.5h-74v129z" />
<glyph unicode="~" d="M127 502q0 74 17.5 123t48 78.5t72.5 43t89 13.5q63 0 116.5 -17.5t100.5 -38t89 -38t79 -17.5q41 0 62.5 13.5t32 32t12.5 37t2 28.5h143q0 -41 -10 -86t-36.5 -84t-72 -63.5t-116.5 -24.5q-57 0 -112.5 17.5t-106 36.5t-94.5 36.5t-78 17.5q-33 0 -51.5 -14t-28 -32.5 t-12.5 -37t-3 -24.5h-143z" />
<glyph unicode="&#xa1;" horiz-adv-x="606" d="M199 -410l14 979h180l15 -979h-209zM203 817v201h200v-201h-200z" />
<glyph unicode="&#xa2;" d="M139 522q0 119 28 213t77 162t116.5 109t145.5 53v233h139v-229q104 -8 169 -47t99.5 -88t47 -97.5t12.5 -72.5h-172q-2 12 -9.5 39.5t-28 56.5t-61 50.5t-110.5 21.5q-84 0 -136.5 -34t-83 -89t-42 -125t-11.5 -141q0 -68 10.5 -138.5t40 -128t81 -93.5t131.5 -36 q72 0 114.5 20.5t65 47.5t31 53.5t12.5 38.5h172q0 -12 -10.5 -57t-44 -95.5t-100 -92.5t-177.5 -50v-252h-139v250q-74 10 -140.5 43t-116.5 94.5t-80 154.5t-30 226z" />
<glyph unicode="&#xa3;" d="M88 633v135h164q-10 47 -26.5 118.5t-16.5 149.5q0 100 31.5 178t89 131.5t135.5 81t170 27.5t168 -27.5t131 -77t86 -115t31 -138.5h-185q-2 12 -9 47t-30.5 71.5t-68.5 66.5t-123 30q-68 0 -114 -27t-73.5 -67.5t-40 -91t-12.5 -99.5q0 -78 13.5 -149.5t21.5 -108.5 h371v-135h-352q0 -23 2 -45q2 -18 3 -35.5t1 -28.5q0 -82 -22.5 -144.5t-52.5 -107.5t-59.5 -73.5t-46.5 -42.5h756v-156h-924v137q4 2 31 22.5t57.5 65.5t55 118t24.5 181q0 41 -2 65.5t-6 43.5h-178z" />
<glyph unicode="&#xa4;" d="M61 1098l78 78l150 -150q37 29 67.5 47.5t60 28.5t63.5 14t79 4t79 -4t64.5 -15t60.5 -29.5t66 -47.5l152 152l74 -78l-152 -150q27 -37 44.5 -65.5t26.5 -58t13 -62.5t4 -76q0 -45 -4 -78t-13 -62.5t-27.5 -60t-45.5 -67.5l156 -156l-76 -76l-156 156 q-37 -29 -66.5 -47.5t-59 -28.5t-63.5 -14t-79 -4q-43 0 -77 4t-62.5 13t-58 26.5t-66.5 44.5l-152 -150l-78 76l154 150q-29 37 -48 66.5t-29.5 60t-14.5 64.5t-4 79t4 78t13 62.5t26.5 59t46.5 66.5zM260 682q0 -61 23.5 -116.5t65.5 -96.5t97.5 -64.5t118.5 -23.5 q59 0 111.5 23.5t91.5 64.5t61.5 96.5t22.5 116.5t-21.5 116.5t-60.5 97.5t-90 66.5t-111 24.5q-63 0 -119.5 -23.5t-98.5 -65.5t-66.5 -97.5t-24.5 -118.5z" />
<glyph unicode="&#xa5;" d="M57 1427h181l329 -706l336 706h160l-262 -512h215v-143h-289l-72 -141h336v-144h-352v-487h-164v487h-350v144h334l-72 141h-291v143h219z" />
<glyph unicode="&#xa6;" horiz-adv-x="538" d="M143 -246v672h172v-672h-172zM143 770v674h172v-674h-172z" />
<glyph unicode="&#xa7;" d="M176 33h184q0 -10 5.5 -33t25 -46.5t58 -41.5t108.5 -18q53 0 90 14t59.5 37.5t32 52.5t9.5 59q0 57 -41 93t-102.5 65t-134.5 57.5t-134.5 68.5t-102 99.5t-40.5 151.5q0 86 29.5 142.5t69.5 90t78 50t56 22.5q-14 6 -47 21.5t-66.5 46t-60.5 76.5t-27 114 q0 80 31 137.5t81 93t111.5 52t122.5 16.5q49 0 109.5 -12t113 -42t87 -78t37.5 -122h-173q-2 8 -8 27.5t-23.5 40t-51 35t-91.5 14.5q-98 0 -142 -46t-44 -106q0 -55 41 -90t103.5 -63.5t135 -57t135 -67.5t103.5 -95.5t41 -142.5q0 -102 -30.5 -163.5t-70.5 -96.5t-77 -47 t-49 -16q18 -10 52 -27.5t66.5 -49.5t56 -78t23.5 -110q0 -57 -19 -111t-62 -97t-112 -70t-165 -27q-92 0 -178 29t-137 80q-27 27 -45.5 63.5t-20.5 104.5zM350 616q0 -49 24.5 -85.5t61.5 -63.5t78 -46.5t72 -33.5q29 6 62.5 21.5t63 43t49 66.5t19.5 90t-22.5 87 t-56 61.5t-74.5 44t-76 35.5q-8 -2 -41 -11.5t-67.5 -33t-63.5 -65.5t-29 -110z" />
<glyph unicode="&#xa8;" horiz-adv-x="722" d="M49 1210v195h195v-195h-195zM444 1210v195h195v-195h-195z" />
<glyph unicode="&#xa9;" horiz-adv-x="1622" d="M61 725q0 156 58.5 292t160 237.5t238.5 161t293 59.5t293 -58.5t238.5 -160t160 -238.5t58.5 -293t-59.5 -293t-161 -238.5t-237.5 -160t-292 -58.5t-292 59.5t-237.5 161t-161 237.5t-59.5 292zM221 725q0 -123 46 -230.5t126 -189.5t187.5 -129t230.5 -47 q121 0 228.5 47t187.5 129t127 190.5t47 229.5t-46 229.5t-126 189.5t-187.5 129t-230.5 48t-230.5 -47t-187.5 -129t-126 -189.5t-46 -230.5zM469 705q0 176 93 277t259 101q59 0 112.5 -13t93.5 -42t65.5 -73t31.5 -105h-166q-8 45 -40.5 81t-96.5 36q-55 0 -88 -24.5 t-51 -61.5t-23.5 -82t-5.5 -84t5.5 -84t21.5 -83t48 -63.5t87 -25.5q102 0 133 90q2 8 6 20h176q-2 -18 -13 -56t-45 -76t-95.5 -66.5t-161.5 -28.5q-166 0 -256 93t-90 270z" />
<glyph unicode="&#xaa;" horiz-adv-x="733" d="M70 889q0 92 37.5 145t97 81t131.5 35t137 7h62v35q0 78 -35 120t-121 42q-47 0 -73.5 -10.5t-41 -24.5t-18.5 -29.5t-6 -23.5h-140q0 12 7.5 42.5t36 63.5t86 57.5t155.5 24.5q152 0 215.5 -68.5t63.5 -216.5v-491h-111l-8 104q-2 -4 -15.5 -23.5t-41 -41t-70 -37.5 t-103.5 -16q-47 0 -92 14t-78.5 43t-54 71t-20.5 97zM205 901q0 -133 145 -133q47 0 82 18.5t57.5 49t34 71.5t11.5 84v72h-68q-45 0 -92 -4t-85 -21.5t-61.5 -49.5t-23.5 -87z" />
<glyph unicode="&#xab;" horiz-adv-x="890" d="M80 526l231 369h172l-239 -369l239 -372h-172zM408 526l231 369h172l-239 -369l239 -372h-172z" />
<glyph unicode="&#xac;" d="M141 664v145h838v-496h-148v351h-690z" />
<glyph unicode="&#xad;" horiz-adv-x="702" d="M61 586v147h580v-147h-580z" />
<glyph unicode="&#xae;" horiz-adv-x="1617" d="M61 725q0 156 58.5 292t160 237.5t237.5 161t292 59.5t292 -58.5t237.5 -160t159.5 -238.5t58 -293t-58 -293t-159.5 -238.5t-237.5 -160t-292 -58.5t-292 59.5t-237.5 161t-160 237.5t-58.5 292zM219 725q0 -123 46 -230.5t126 -189.5t187.5 -129t230.5 -47 q121 0 228.5 47t187.5 129t127 190.5t47 229.5t-46 229.5t-126 189.5t-187.5 129t-230.5 48t-230.5 -47t-187.5 -129t-126 -189.5t-46 -230.5zM563 377v702h211q41 0 90 -4t92 -22.5t72 -57.5t29 -106q0 -68 -40 -114t-134 -62q41 -10 62.5 -25.5t35.5 -38.5q25 -37 43 -80 l80 -192h-162l-65 174q-18 51 -41 76.5t-86 25.5h-33v-276h-154zM717 772h41q27 0 52.5 3t46 13.5t33.5 30t13 53.5q0 25 -7 40.5t-15 23.5q-16 18 -47 24.5t-68 6.5h-49v-195z" />
<glyph unicode="&#xaf;" horiz-adv-x="765" d="M49 1274v125h647v-125h-647z" />
<glyph unicode="&#xb0;" d="M260 1155q0 61 23.5 116.5t63.5 95.5t95.5 63.5t116.5 23.5t116.5 -23.5t96.5 -63.5t64.5 -95t23.5 -117q0 -61 -23.5 -116.5t-64.5 -96.5t-96.5 -64.5t-116.5 -23.5t-116.5 23.5t-95.5 64.5t-63.5 96.5t-23.5 116.5zM385 1155q0 -39 13.5 -72.5t37 -58.5t55 -39 t68.5 -14t68.5 14t55.5 39t37 58.5t13 72.5t-13 73t-37 59.5t-55.5 39.5t-68.5 14t-68.5 -14t-55 -39.5t-37 -59.5t-13.5 -73z" />
<glyph unicode="&#xb1;" d="M127 0v143h864v-143h-864zM127 717v143h358v385h148v-385h358v-143h-358v-381h-148v381h-358z" />
<glyph unicode="&#xb2;" horiz-adv-x="798" d="M172 694v27q0 59 20.5 107.5t53.5 88t73.5 74.5t79.5 72q35 33 70 75t35 95q0 109 -105 108q-41 0 -68.5 -17t-37.5 -54q-4 -8 -4 -17.5t-2 -17.5h-115q2 55 22.5 93t53.5 62.5t73.5 35t81.5 10.5q92 0 155 -51.5t63 -151.5q0 -61 -28 -110.5t-69 -91.5t-87 -80t-83 -77 q-37 -37 -51 -79h322v-101h-453z" />
<glyph unicode="&#xb3;" horiz-adv-x="796" d="M166 877h113q6 -37 29.5 -67t80.5 -30t94 32t37 93q0 39 -13 63.5t-32.5 37t-44 16.5t-47.5 4h-45v94h39q16 0 38.5 2t44 14.5t36 37t14.5 67.5q0 53 -29.5 81t-79.5 28q-33 0 -53 -13.5t-32.5 -32t-18.5 -37t-8 -28.5h-113q2 102 64.5 152.5t154.5 50.5q43 0 83 -10.5 t71 -34t50 -59t19 -85.5q0 -53 -13 -85.5t-31.5 -52t-38 -28t-33.5 -10.5q10 -2 32.5 -8t44 -25.5t38 -53.5t16.5 -91q0 -98 -68 -155.5t-172 -57.5q-51 0 -98 15.5t-80 48.5q-29 29 -39 62.5t-10 64.5z" />
<glyph unicode="&#xb4;" horiz-adv-x="522" d="M18 1178l185 266h190l-215 -266h-160z" />
<glyph unicode="&#xb5;" horiz-adv-x="1083" d="M135 -246v1264h172v-615q0 -45 4 -93t22.5 -88t55.5 -65.5t105 -25.5q92 0 145 40t81 103.5t36 140.5t8 148v455h172v-1018h-143l-13 170q-4 -10 -21.5 -41t-54 -63.5t-95 -59t-144.5 -26.5q-45 0 -77 9t-52.5 20t-32.5 23.5t-16 18.5v-297h-152z" />
<glyph unicode="&#xb6;" d="M94 1028q0 96 35 169t84 122q72 72 168 90t225 18h410v-1673h-144v1530h-159v-1530h-144v848q-104 2 -191 21.5t-149.5 68.5t-98.5 130t-36 206z" />
<glyph unicode="&#xb7;" horiz-adv-x="573" d="M186 557v201h201v-201h-201z" />
<glyph unicode="&#xb8;" horiz-adv-x="425" d="M41 -381l31 76q10 -4 39.5 -15.5t70.5 -11.5q35 0 57.5 18.5t22.5 61.5q0 39 -33.5 62.5t-124.5 27.5l31 164h88l-20 -98q35 -2 66.5 -8.5t55 -21.5t38 -43t14.5 -73q0 -90 -53 -133t-131 -43q-66 0 -101 13.5t-51 23.5z" />
<glyph unicode="&#xb9;" horiz-adv-x="698" d="M180 1204v109l174 114h90v-727h-112v603z" />
<glyph unicode="&#xba;" horiz-adv-x="817" d="M70 1057q0 115 29.5 191.5t77.5 122.5t109.5 64.5t125.5 18.5q63 0 123.5 -18.5t107.5 -64.5t76 -121.5t29 -192.5t-30 -193t-77 -122t-109.5 -64.5t-125.5 -18.5q-66 0 -126.5 18.5t-106.5 64.5t-74.5 122t-28.5 193zM215 1057q0 -129 42.5 -207t148.5 -78 q111 0 153.5 78t42.5 207q0 131 -44 208.5t-152 77.5q-53 0 -90 -20t-60 -58t-32 -91.5t-9 -116.5z" />
<glyph unicode="&#xbb;" horiz-adv-x="890" d="M80 154l239 372l-239 369h172l231 -369l-231 -372h-172zM408 154l239 372l-239 369h172l231 -369l-231 -372h-172z" />
<glyph unicode="&#xbc;" horiz-adv-x="1550" d="M180 1204v109l174 114h90v-727h-112v603zM334 0l696 1466h127l-696 -1466h-127zM821 146v86l352 497h101v-487h92v-96h-92v-144h-113v144h-340zM929 242h232v334z" />
<glyph unicode="&#xbd;" horiz-adv-x="1579" d="M180 1204v109l174 114h90v-727h-112v603zM301 0l696 1466h127l-696 -1466h-127zM965 2v27q0 59 20.5 107.5t53.5 88t73.5 74.5t79.5 72q35 33 70 75t35 95q0 109 -105 108q-41 0 -68.5 -17t-37.5 -54q-4 -8 -4 -17.5t-2 -17.5h-115q2 55 22.5 93t53.5 62.5t73.5 35 t81.5 10.5q92 0 155 -51.5t63 -151.5q0 -61 -28 -110.5t-69 -91.5t-87 -80t-83 -77q-37 -37 -51 -79h322v-101h-453z" />
<glyph unicode="&#xbe;" horiz-adv-x="1617" d="M166 877h113q6 -37 29.5 -67t80.5 -30t94 32t37 93q0 39 -13 63.5t-32.5 37t-44 16.5t-47.5 4h-45v94h39q16 0 38.5 2t44 14.5t36 37t14.5 67.5q0 53 -29.5 81t-79.5 28q-33 0 -53 -13.5t-32.5 -32t-18.5 -37t-8 -28.5h-113q2 102 64.5 152.5t154.5 50.5q43 0 83 -10.5 t71 -34t50 -59t19 -85.5q0 -53 -13 -85.5t-31.5 -52t-38 -28t-33.5 -10.5q10 -2 32.5 -8t44 -25.5t38 -53.5t16.5 -91q0 -98 -68 -155.5t-172 -57.5q-51 0 -98 15.5t-80 48.5q-29 29 -39 62.5t-10 64.5zM412 0l696 1466h127l-696 -1466h-127zM883 146v86l352 497h101v-487 h92v-96h-92v-144h-113v144h-340zM991 242h232v334z" />
<glyph unicode="&#xbf;" horiz-adv-x="987" d="M82 -84q0 61 11 107.5t29.5 82t41 63.5t47.5 52q49 49 85 71.5t62.5 48.5t42 69t21.5 129l2 30h188v-30q0 -57 -2 -96.5t-10 -67t-21.5 -48t-37.5 -44.5q-41 -41 -87 -79t-87 -80t-68 -91t-27 -109q0 -100 55.5 -158.5t159.5 -58.5q82 0 128.5 30t69 68.5t28.5 72.5t8 44 h184q0 -55 -19.5 -117.5t-66.5 -116t-128 -89t-204 -35.5q-96 0 -171.5 27.5t-128 74.5t-79 111.5t-26.5 138.5zM418 817v201h200v-201h-200z" />
<glyph unicode="&#xc0;" horiz-adv-x="1181" d="M-2 0l487 1427h213l486 -1427h-207l-109 338h-569l-111 -338h-190zM336 1833h191l184 -266h-160zM346 485h475l-237 736z" />
<glyph unicode="&#xc1;" horiz-adv-x="1181" d="M-2 0l487 1427h213l486 -1427h-207l-109 338h-569l-111 -338h-190zM346 485h475l-237 736zM450 1567l185 266h190l-215 -266h-160z" />
<glyph unicode="&#xc2;" horiz-adv-x="1181" d="M-2 0l487 1427h213l486 -1427h-207l-109 338h-569l-111 -338h-190zM254 1567l236 266h200l234 -266h-172l-164 186l-166 -186h-168zM346 485h475l-237 736z" />
<glyph unicode="&#xc3;" horiz-adv-x="1181" d="M-2 0l487 1427h213l486 -1427h-207l-109 338h-569l-111 -338h-190zM246 1583q2 113 41 176.5t125 63.5q53 0 99 -15.5t87 -35t76 -35t66 -15.5q33 0 52 14.5t28.5 34t11.5 39t2 27.5h102q-2 -117 -43 -182.5t-137 -65.5q-45 0 -92 16.5t-90 35t-81 35t-65 16.5 q-41 0 -58 -30t-21 -79h-103zM346 485h475l-237 736z" />
<glyph unicode="&#xc4;" horiz-adv-x="1181" d="M-2 0l487 1427h213l486 -1427h-207l-109 338h-569l-111 -338h-190zM278 1599v195h195v-195h-195zM346 485h475l-237 736zM673 1599v195h195v-195h-195z" />
<glyph unicode="&#xc5;" horiz-adv-x="1181" d="M-2 0l487 1427h213l486 -1427h-207l-109 338h-569l-111 -338h-190zM346 485h475l-237 736zM383 1755q0 43 16.5 79t44 62.5t63.5 42t77 15.5q82 0 140 -56.5t58 -142.5q0 -43 -15 -80t-42 -63.5t-63.5 -42t-77.5 -15.5q-84 0 -142.5 57.5t-58.5 143.5zM479 1755 q0 -47 31 -76.5t74 -29.5t73.5 28.5t30.5 77.5q0 47 -30.5 77t-73.5 30t-74 -30t-31 -77z" />
<glyph unicode="&#xc6;" horiz-adv-x="1941" d="M135 0l807 1427h891v-151h-639v-473h606v-148h-606v-499h657v-156h-821v350h-502l-188 -350h-205zM604 489h426v795z" />
<glyph unicode="&#xc7;" horiz-adv-x="1241" d="M98 702q0 190 42 332t118 235t183.5 139t236.5 46q141 0 226 -39t140 -94q53 -53 80 -117.5t27 -107.5h-188q-4 23 -20.5 59.5t-51.5 71.5q-31 31 -82 53.5t-129 22.5q-117 0 -193.5 -55.5t-120.5 -141.5t-61.5 -192.5t-17.5 -208.5q0 -98 17.5 -201t61.5 -187 t117.5 -137t186.5 -53q94 0 150.5 27.5t88 62.5t43 68.5t15.5 44.5h190q0 -29 -19.5 -89.5t-72.5 -120t-147.5 -104.5t-243.5 -45l-15 -67q35 -2 67 -8.5t55.5 -21.5t38 -43t14.5 -73q0 -90 -53.5 -133t-131.5 -43q-66 0 -100.5 13.5t-50.5 23.5l30 76q10 -4 40 -15.5 t71 -11.5q35 0 57.5 18.5t22.5 61.5q0 39 -34 62.5t-124 27.5l27 137q-106 12 -195.5 61.5t-155 138.5t-102.5 220t-37 307z" />
<glyph unicode="&#xc8;" horiz-adv-x="1089" d="M178 0v1427h803v-151h-623v-473h590v-148h-590v-499h641v-156h-821zM332 1833h191l184 -266h-160z" />
<glyph unicode="&#xc9;" horiz-adv-x="1089" d="M178 0v1427h803v-151h-623v-473h590v-148h-590v-499h641v-156h-821zM446 1567l185 266h190l-215 -266h-160z" />
<glyph unicode="&#xca;" horiz-adv-x="1089" d="M178 0v1427h803v-151h-623v-473h590v-148h-590v-499h641v-156h-821zM209 1567l236 266h200l234 -266h-172l-164 186l-166 -186h-168z" />
<glyph unicode="&#xcb;" horiz-adv-x="1089" d="M178 0v1427h803v-151h-623v-473h590v-148h-590v-499h641v-156h-821zM233 1599v195h195v-195h-195zM628 1599v195h195v-195h-195z" />
<glyph unicode="&#xcc;" horiz-adv-x="536" d="M-4 1833h191l184 -266h-160zM178 0v1427h180v-1427h-180z" />
<glyph unicode="&#xcd;" horiz-adv-x="536" d="M149 1567l185 266h190l-215 -266h-160zM178 0v1427h180v-1427h-180z" />
<glyph unicode="&#xce;" horiz-adv-x="536" d="M-66 1567l236 266h200l234 -266h-172l-164 186l-166 -186h-168zM178 0v1427h180v-1427h-180z" />
<glyph unicode="&#xcf;" horiz-adv-x="536" d="M-41 1599v195h195v-195h-195zM178 0v1427h180v-1427h-180zM354 1599v195h195v-195h-195z" />
<glyph unicode="&#xd0;" horiz-adv-x="1341" d="M-16 664v147h196v616h291q57 0 132 -3t156 -18t159.5 -51t144.5 -100q55 -55 91 -121.5t55.5 -135t26.5 -139.5t7 -134q0 -199 -47 -331t-131 -216q-109 -109 -260.5 -143.5t-364.5 -34.5h-260v664h-196zM360 150h115q98 0 200.5 15t187.5 72.5t138.5 170t53.5 309.5 q0 139 -28 235.5t-73 159t-103 97t-120.5 50t-124 18.5t-112.5 3h-134v-469h330v-147h-330v-514z" />
<glyph unicode="&#xd1;" horiz-adv-x="1411" d="M178 0v1427h207l682 -1167v1167h166v-1427h-205l-684 1171v-1171h-166zM360 1583q2 113 41 176.5t125 63.5q53 0 99 -15.5t87 -35t76 -35t66 -15.5q33 0 52 14.5t28.5 34t11.5 39t2 27.5h102q-2 -117 -43 -182.5t-137 -65.5q-45 0 -92 16.5t-90 35t-81 35t-65 16.5 q-41 0 -58 -30t-21 -79h-103z" />
<glyph unicode="&#xd2;" horiz-adv-x="1392" d="M98 709q0 160 35 297t108.5 236t187.5 155.5t269 56.5q147 0 259 -50t187 -145.5t112.5 -234.5t37.5 -315q0 -172 -38.5 -309.5t-114.5 -232.5t-188 -145.5t-259 -50.5t-257.5 50.5t-186.5 145.5t-114 232.5t-38 309.5zM287 717q0 -96 15 -200.5t60.5 -190.5t125 -142.5 t206.5 -56.5q125 0 206 55.5t126 141.5t62.5 190t17.5 203q0 102 -18.5 206.5t-64.5 188.5t-126 137.5t-203 53.5t-201.5 -55.5t-124.5 -141.5t-63.5 -189.5t-17.5 -199.5zM483 1833h191l184 -266h-160z" />
<glyph unicode="&#xd3;" horiz-adv-x="1392" d="M98 709q0 160 35 297t108.5 236t187.5 155.5t269 56.5q147 0 259 -50t187 -145.5t112.5 -234.5t37.5 -315q0 -172 -38.5 -309.5t-114.5 -232.5t-188 -145.5t-259 -50.5t-257.5 50.5t-186.5 145.5t-114 232.5t-38 309.5zM287 717q0 -96 15 -200.5t60.5 -190.5t125 -142.5 t206.5 -56.5q125 0 206 55.5t126 141.5t62.5 190t17.5 203q0 102 -18.5 206.5t-64.5 188.5t-126 137.5t-203 53.5t-201.5 -55.5t-124.5 -141.5t-63.5 -189.5t-17.5 -199.5zM557 1567l185 266h190l-215 -266h-160z" />
<glyph unicode="&#xd4;" horiz-adv-x="1392" d="M98 709q0 160 35 297t108.5 236t187.5 155.5t269 56.5q147 0 259 -50t187 -145.5t112.5 -234.5t37.5 -315q0 -172 -38.5 -309.5t-114.5 -232.5t-188 -145.5t-259 -50.5t-257.5 50.5t-186.5 145.5t-114 232.5t-38 309.5zM287 717q0 -96 15 -200.5t60.5 -190.5t125 -142.5 t206.5 -56.5q125 0 206 55.5t126 141.5t62.5 190t17.5 203q0 102 -18.5 206.5t-64.5 188.5t-126 137.5t-203 53.5t-201.5 -55.5t-124.5 -141.5t-63.5 -189.5t-17.5 -199.5zM360 1567l236 266h200l234 -266h-172l-164 186l-166 -186h-168z" />
<glyph unicode="&#xd5;" horiz-adv-x="1392" d="M98 709q0 160 35 297t108.5 236t187.5 155.5t269 56.5q147 0 259 -50t187 -145.5t112.5 -234.5t37.5 -315q0 -172 -38.5 -309.5t-114.5 -232.5t-188 -145.5t-259 -50.5t-257.5 50.5t-186.5 145.5t-114 232.5t-38 309.5zM287 717q0 -96 15 -200.5t60.5 -190.5t125 -142.5 t206.5 -56.5q125 0 206 55.5t126 141.5t62.5 190t17.5 203q0 102 -18.5 206.5t-64.5 188.5t-126 137.5t-203 53.5t-201.5 -55.5t-124.5 -141.5t-63.5 -189.5t-17.5 -199.5zM352 1583q2 113 41 176.5t125 63.5q53 0 99 -15.5t87 -35t76 -35t66 -15.5q33 0 52 14.5t28.5 34 t11.5 39t2 27.5h102q-2 -117 -43 -182.5t-137 -65.5q-45 0 -92 16.5t-90 35t-81 35t-65 16.5q-41 0 -58 -30t-21 -79h-103z" />
<glyph unicode="&#xd6;" horiz-adv-x="1392" d="M98 709q0 160 35 297t108.5 236t187.5 155.5t269 56.5q147 0 259 -50t187 -145.5t112.5 -234.5t37.5 -315q0 -172 -38.5 -309.5t-114.5 -232.5t-188 -145.5t-259 -50.5t-257.5 50.5t-186.5 145.5t-114 232.5t-38 309.5zM287 717q0 -96 15 -200.5t60.5 -190.5t125 -142.5 t206.5 -56.5q125 0 206 55.5t126 141.5t62.5 190t17.5 203q0 102 -18.5 206.5t-64.5 188.5t-126 137.5t-203 53.5t-201.5 -55.5t-124.5 -141.5t-63.5 -189.5t-17.5 -199.5zM385 1599v195h195v-195h-195zM780 1599v195h195v-195h-195z" />
<glyph unicode="&#xd7;" d="M127 289l328 327l-328 328l104 105l328 -328l328 328l104 -105l-327 -328l327 -327l-104 -105l-328 328l-328 -328z" />
<glyph unicode="&#xd8;" horiz-adv-x="1392" d="M98 709q0 160 35 297t108.5 236t187.5 155.5t269 56.5q68 0 120 -9t88 -20.5t55.5 -22.5t23.5 -13l78 143l106 -62l-84 -151l47 -47t71 -104.5t63.5 -181.5t27.5 -277q0 -172 -38.5 -309.5t-114.5 -232.5t-187.5 -145.5t-259.5 -50.5q-68 0 -121 10.5t-91 22.5 t-61.5 24.5t-29.5 16.5l-88 -164l-108 60l98 178q-6 6 -38 40t-66.5 103.5t-62.5 179t-28 267.5zM287 717q0 -111 12 -189.5t29.5 -130t34 -78t22.5 -32.5l520 956q-12 10 -66.5 35t-144.5 25q-123 0 -201.5 -55.5t-124.5 -141.5t-63.5 -189.5t-17.5 -199.5zM471 195 q35 -29 87 -48.5t136 -19.5q125 0 206 55.5t126 141.5t62.5 190t17.5 203q0 111 -14.5 188.5t-33 128.5t-36.5 80t-27 41z" />
<glyph unicode="&#xd9;" horiz-adv-x="1376" d="M178 590v837h180v-843q0 -76 9.5 -157t43 -146.5t100.5 -108.5t179 -43q82 0 136.5 23.5t91.5 60.5t57 83t30.5 95t12.5 98.5t2 90.5v847h178v-837q0 -45 -2 -106.5t-14.5 -127t-38 -129t-74.5 -112.5q-23 -23 -53.5 -47.5t-75.5 -46t-105.5 -35t-142.5 -13.5 q-129 0 -222 37t-153 96q-49 49 -77.5 107.5t-42 121t-16.5 127t-3 128.5zM475 1833h191l184 -266h-160z" />
<glyph unicode="&#xda;" horiz-adv-x="1376" d="M178 590v837h180v-843q0 -76 9.5 -157t43 -146.5t100.5 -108.5t179 -43q82 0 136.5 23.5t91.5 60.5t57 83t30.5 95t12.5 98.5t2 90.5v847h178v-837q0 -45 -2 -106.5t-14.5 -127t-38 -129t-74.5 -112.5q-23 -23 -53.5 -47.5t-75.5 -46t-105.5 -35t-142.5 -13.5 q-129 0 -222 37t-153 96q-49 49 -77.5 107.5t-42 121t-16.5 127t-3 128.5zM569 1567l185 266h190l-215 -266h-160z" />
<glyph unicode="&#xdb;" horiz-adv-x="1376" d="M178 590v837h180v-843q0 -76 9.5 -157t43 -146.5t100.5 -108.5t179 -43q82 0 136.5 23.5t91.5 60.5t57 83t30.5 95t12.5 98.5t2 90.5v847h178v-837q0 -45 -2 -106.5t-14.5 -127t-38 -129t-74.5 -112.5q-23 -23 -53.5 -47.5t-75.5 -46t-105.5 -35t-142.5 -13.5 q-129 0 -222 37t-153 96q-49 49 -77.5 107.5t-42 121t-16.5 127t-3 128.5zM352 1567l236 266h200l234 -266h-172l-164 186l-166 -186h-168z" />
<glyph unicode="&#xdc;" horiz-adv-x="1376" d="M178 590v837h180v-843q0 -76 9.5 -157t43 -146.5t100.5 -108.5t179 -43q82 0 136.5 23.5t91.5 60.5t57 83t30.5 95t12.5 98.5t2 90.5v847h178v-837q0 -45 -2 -106.5t-14.5 -127t-38 -129t-74.5 -112.5q-23 -23 -53.5 -47.5t-75.5 -46t-105.5 -35t-142.5 -13.5 q-129 0 -222 37t-153 96q-49 49 -77.5 107.5t-42 121t-16.5 127t-3 128.5zM377 1599v195h195v-195h-195zM772 1599v195h195v-195h-195z" />
<glyph unicode="&#xdd;" horiz-adv-x="1011" d="M-23 1427h203l336 -704l332 704h186l-434 -876v-551h-180v551zM366 1567l185 266h190l-215 -266h-160z" />
<glyph unicode="&#xde;" horiz-adv-x="1150" d="M178 0v1427h182v-278h203q57 0 113.5 -2t110 -12.5t101.5 -32t89 -62.5q49 -49 79.5 -121.5t30.5 -164.5q0 -141 -44 -227.5t-116.5 -134.5t-165.5 -63.5t-192 -15.5h-209v-313h-182zM360 467h162q111 0 188.5 16.5t129.5 71.5q61 68 61 195q0 88 -31.5 137t-81 73.5 t-108.5 29.5t-115 5h-205v-528z" />
<glyph unicode="&#xdf;" horiz-adv-x="1171" d="M147 0v1006q0 86 13.5 167.5t55.5 146t119 104.5t204 40q96 0 162.5 -27.5t107.5 -68.5t59.5 -92t18.5 -96q0 -78 -29 -126t-62.5 -86t-62 -74t-28.5 -87q0 -45 28.5 -78t70.5 -63.5t91 -62.5t91 -75t70.5 -99t28.5 -136q0 -82 -29.5 -141.5t-76.5 -98.5t-106.5 -57.5 t-118.5 -18.5q-88 0 -145.5 24t-94.5 60q-29 29 -44 68t-15 84h166q0 -8 5 -26.5t19 -37t40 -33t69 -14.5q59 0 103 43t44 138q0 61 -27.5 103t-70.5 74t-91 59.5t-91 61t-71 81t-28 118.5q0 70 28 112t61.5 78t62 76.5t28.5 112.5q0 31 -7 61.5t-26.5 57.5t-53 43t-85.5 16 q-70 0 -110.5 -28.5t-63 -76.5t-30 -109.5t-7.5 -127.5v-995h-172z" />
<glyph unicode="&#xe0;" horiz-adv-x="1009" d="M86 283q0 123 50 194.5t129 108.5t173 47t185 10h82v45q0 104 -46.5 160.5t-160.5 56.5q-61 0 -97 -14t-55.5 -32.5t-27 -38t-9.5 -32.5h-180q0 16 9 57.5t46 84.5t112 76.5t208 33.5q203 0 286.5 -93t83.5 -288v-659h-143l-10 135q-4 -6 -21.5 -31.5t-54.5 -53t-94 -49 t-139 -21.5q-63 0 -123 18t-105 56t-71.5 95.5t-26.5 133.5zM262 299q0 -178 197 -178q63 0 109 24.5t77 65.5t45.5 95t14.5 114v96h-91q-61 0 -123.5 -6t-112.5 -27.5t-83 -65.5t-33 -118zM291 1444h191l184 -266h-160z" />
<glyph unicode="&#xe1;" horiz-adv-x="1009" d="M86 283q0 123 50 194.5t129 108.5t173 47t185 10h82v45q0 104 -46.5 160.5t-160.5 56.5q-61 0 -97 -14t-55.5 -32.5t-27 -38t-9.5 -32.5h-180q0 16 9 57.5t46 84.5t112 76.5t208 33.5q203 0 286.5 -93t83.5 -288v-659h-143l-10 135q-4 -6 -21.5 -31.5t-54.5 -53t-94 -49 t-139 -21.5q-63 0 -123 18t-105 56t-71.5 95.5t-26.5 133.5zM262 299q0 -178 197 -178q63 0 109 24.5t77 65.5t45.5 95t14.5 114v96h-91q-61 0 -123.5 -6t-112.5 -27.5t-83 -65.5t-33 -118zM344 1178l185 266h190l-215 -266h-160z" />
<glyph unicode="&#xe2;" horiz-adv-x="1009" d="M86 283q0 123 50 194.5t129 108.5t173 47t185 10h82v45q0 104 -46.5 160.5t-160.5 56.5q-61 0 -97 -14t-55.5 -32.5t-27 -38t-9.5 -32.5h-180q0 16 9 57.5t46 84.5t112 76.5t208 33.5q203 0 286.5 -93t83.5 -288v-659h-143l-10 135q-4 -6 -21.5 -31.5t-54.5 -53t-94 -49 t-139 -21.5q-63 0 -123 18t-105 56t-71.5 95.5t-26.5 133.5zM168 1178l236 266h200l234 -266h-172l-164 186l-166 -186h-168zM262 299q0 -178 197 -178q63 0 109 24.5t77 65.5t45.5 95t14.5 114v96h-91q-61 0 -123.5 -6t-112.5 -27.5t-83 -65.5t-33 -118z" />
<glyph unicode="&#xe3;" horiz-adv-x="1009" d="M86 283q0 123 50 194.5t129 108.5t173 47t185 10h82v45q0 104 -46.5 160.5t-160.5 56.5q-61 0 -97 -14t-55.5 -32.5t-27 -38t-9.5 -32.5h-180q0 16 9 57.5t46 84.5t112 76.5t208 33.5q203 0 286.5 -93t83.5 -288v-659h-143l-10 135q-4 -6 -21.5 -31.5t-54.5 -53t-94 -49 t-139 -21.5q-63 0 -123 18t-105 56t-71.5 95.5t-26.5 133.5zM160 1194q2 113 41 176.5t125 63.5q53 0 99 -15.5t87 -35t76 -35t66 -15.5q33 0 52 14.5t28.5 34t11.5 39t2 27.5h102q-2 -117 -43 -182.5t-137 -65.5q-45 0 -92 16.5t-90 35t-81 35t-65 16.5q-41 0 -58 -30 t-21 -79h-103zM262 299q0 -178 197 -178q63 0 109 24.5t77 65.5t45.5 95t14.5 114v96h-91q-61 0 -123.5 -6t-112.5 -27.5t-83 -65.5t-33 -118z" />
<glyph unicode="&#xe4;" horiz-adv-x="1009" d="M86 283q0 123 50 194.5t129 108.5t173 47t185 10h82v45q0 104 -46.5 160.5t-160.5 56.5q-61 0 -97 -14t-55.5 -32.5t-27 -38t-9.5 -32.5h-180q0 16 9 57.5t46 84.5t112 76.5t208 33.5q203 0 286.5 -93t83.5 -288v-659h-143l-10 135q-4 -6 -21.5 -31.5t-54.5 -53t-94 -49 t-139 -21.5q-63 0 -123 18t-105 56t-71.5 95.5t-26.5 133.5zM192 1210v195h195v-195h-195zM262 299q0 -178 197 -178q63 0 109 24.5t77 65.5t45.5 95t14.5 114v96h-91q-61 0 -123.5 -6t-112.5 -27.5t-83 -65.5t-33 -118zM587 1210v195h195v-195h-195z" />
<glyph unicode="&#xe5;" horiz-adv-x="1009" d="M86 283q0 123 50 194.5t129 108.5t173 47t185 10h82v45q0 104 -46.5 160.5t-160.5 56.5q-61 0 -97 -14t-55.5 -32.5t-27 -38t-9.5 -32.5h-180q0 16 9 57.5t46 84.5t112 76.5t208 33.5q203 0 286.5 -93t83.5 -288v-659h-143l-10 135q-4 -6 -21.5 -31.5t-54.5 -53t-94 -49 t-139 -21.5q-63 0 -123 18t-105 56t-71.5 95.5t-26.5 133.5zM262 299q0 -178 197 -178q63 0 109 24.5t77 65.5t45.5 95t14.5 114v96h-91q-61 0 -123.5 -6t-112.5 -27.5t-83 -65.5t-33 -118zM297 1366q0 43 16.5 79t44 62.5t63.5 42t77 15.5q82 0 140 -56.5t58 -142.5 q0 -43 -15 -80t-42 -63.5t-63.5 -42t-77.5 -15.5q-84 0 -142.5 57.5t-58.5 143.5zM393 1366q0 -47 31 -76.5t74 -29.5t73.5 28.5t30.5 77.5q0 47 -30.5 77t-73.5 30t-74 -30t-31 -77z" />
<glyph unicode="&#xe6;" horiz-adv-x="1619" d="M86 266q0 123 50 190.5t129 99.5t173 37t185 5h82v90q0 104 -46.5 160.5t-160.5 56.5q-61 0 -97 -14t-55.5 -32.5t-27 -38t-9.5 -32.5h-180q0 16 9 57.5t46 84.5t112 76.5t208 33.5q86 0 142 -18t90 -42t49.5 -46.5t19.5 -30.5q8 10 29.5 32.5t59.5 46.5t96.5 41 t139.5 17q123 0 201 -42t123 -113.5t62.5 -164.5t17.5 -198v-35.5t-2 -35.5h-666q2 -68 14.5 -129.5t43 -109.5t82 -77t129.5 -29q63 0 103 16.5t64.5 37t35 41t14.5 30.5h161q-2 -8 -14 -49t-52 -88t-116 -85t-201 -38q-98 0 -163.5 23.5t-105.5 55.5t-59.5 62.5 t-25.5 43.5q-4 -8 -23.5 -37t-60.5 -59.5t-106.5 -55t-159.5 -24.5q-49 0 -108.5 14t-110.5 48t-86 89t-35 135zM262 276q0 -78 50.5 -116.5t146.5 -38.5q63 0 109 24.5t77 65.5t45.5 95t14.5 114v53h-91q-61 0 -123.5 -3t-112.5 -21.5t-83 -58.5t-33 -114zM868 580h494 q0 61 -8 119.5t-34 104.5t-72 73.5t-120 27.5q-70 0 -117.5 -26.5t-79.5 -70.5t-46.5 -103t-16.5 -125z" />
<glyph unicode="&#xe7;" horiz-adv-x="1009" d="M86 498q0 115 27.5 214t84 171.5t141.5 114.5t200 42q125 0 199.5 -38.5t114.5 -90t53.5 -102.5t13.5 -76h-172q-2 12 -9.5 40t-28 56.5t-61.5 50t-110 21.5q-84 0 -136.5 -33.5t-83 -89t-42 -125t-11.5 -141.5q0 -68 10.5 -138.5t40 -128t81 -93t130.5 -35.5 q72 0 115 20.5t65.5 47t31 53t12.5 38.5h172q0 -23 -14.5 -72.5t-56.5 -100t-119 -89.5t-206 -39h-4l-14 -71q35 -2 66.5 -8.5t55 -21.5t38 -43t14.5 -73q0 -90 -53 -133t-131 -43q-66 0 -100.5 13.5t-51.5 23.5l31 76q10 -4 40 -15.5t70 -11.5q35 0 57.5 18.5t22.5 61.5 q0 39 -33.5 62.5t-123.5 27.5l26 144q-166 27 -259 155.5t-93 360.5z" />
<glyph unicode="&#xe8;" horiz-adv-x="1019" d="M86 492q0 115 23.5 215t77 173.5t137.5 116.5t206 43q123 0 201 -42t123 -113.5t62.5 -164.5t17.5 -198v-35.5t-2 -35.5h-666q2 -68 14.5 -129.5t43 -109.5t82 -77t129.5 -29q63 0 103 16.5t64.5 37t35 41t14.5 30.5h161q-2 -8 -14 -49t-52 -88t-116 -85t-201 -38 q-127 0 -212 41t-136 112t-73.5 165t-22.5 203zM268 580h494q0 61 -8.5 119.5t-34 104.5t-71.5 73.5t-120 27.5q-70 0 -118 -26.5t-79.5 -70.5t-46 -103t-16.5 -125zM297 1444h191l184 -266h-160z" />
<glyph unicode="&#xe9;" horiz-adv-x="1019" d="M86 492q0 115 23.5 215t77 173.5t137.5 116.5t206 43q123 0 201 -42t123 -113.5t62.5 -164.5t17.5 -198v-35.5t-2 -35.5h-666q2 -68 14.5 -129.5t43 -109.5t82 -77t129.5 -29q63 0 103 16.5t64.5 37t35 41t14.5 30.5h161q-2 -8 -14 -49t-52 -88t-116 -85t-201 -38 q-127 0 -212 41t-136 112t-73.5 165t-22.5 203zM268 580h494q0 61 -8.5 119.5t-34 104.5t-71.5 73.5t-120 27.5q-70 0 -118 -26.5t-79.5 -70.5t-46 -103t-16.5 -125zM391 1178l185 266h190l-215 -266h-160z" />
<glyph unicode="&#xea;" horiz-adv-x="1019" d="M86 492q0 115 23.5 215t77 173.5t137.5 116.5t206 43q123 0 201 -42t123 -113.5t62.5 -164.5t17.5 -198v-35.5t-2 -35.5h-666q2 -68 14.5 -129.5t43 -109.5t82 -77t129.5 -29q63 0 103 16.5t64.5 37t35 41t14.5 30.5h161q-2 -8 -14 -49t-52 -88t-116 -85t-201 -38 q-127 0 -212 41t-136 112t-73.5 165t-22.5 203zM174 1178l236 266h200l234 -266h-172l-164 186l-166 -186h-168zM268 580h494q0 61 -8.5 119.5t-34 104.5t-71.5 73.5t-120 27.5q-70 0 -118 -26.5t-79.5 -70.5t-46 -103t-16.5 -125z" />
<glyph unicode="&#xeb;" horiz-adv-x="1019" d="M86 492q0 115 23.5 215t77 173.5t137.5 116.5t206 43q123 0 201 -42t123 -113.5t62.5 -164.5t17.5 -198v-35.5t-2 -35.5h-666q2 -68 14.5 -129.5t43 -109.5t82 -77t129.5 -29q63 0 103 16.5t64.5 37t35 41t14.5 30.5h161q-2 -8 -14 -49t-52 -88t-116 -85t-201 -38 q-127 0 -212 41t-136 112t-73.5 165t-22.5 203zM199 1210v195h195v-195h-195zM268 580h494q0 61 -8.5 119.5t-34 104.5t-71.5 73.5t-120 27.5q-70 0 -118 -26.5t-79.5 -70.5t-46 -103t-16.5 -125zM594 1210v195h195v-195h-195z" />
<glyph unicode="&#xec;" horiz-adv-x="466" d="M-39 1444h191l184 -266h-160zM147 0v1018h172v-1018h-172z" />
<glyph unicode="&#xed;" horiz-adv-x="466" d="M114 1178l185 266h190l-215 -266h-160zM147 0v1018h172v-1018h-172z" />
<glyph unicode="&#xee;" horiz-adv-x="466" d="M-101 1178l236 266h200l234 -266h-172l-164 186l-166 -186h-168zM147 0v1018h172v-1018h-172z" />
<glyph unicode="&#xef;" horiz-adv-x="466" d="M-76 1210v195h195v-195h-195zM147 0v1018h172v-1018h-172zM319 1210v195h195v-195h-195z" />
<glyph unicode="&#xf0;" horiz-adv-x="1032" d="M86 473q0 100 29.5 188.5t82 155t124 104t157.5 37.5q72 0 120 -16t78 -37.5t45 -43t19 -30.5q-10 63 -49 129t-86 121.5t-90 94t-61 51.5l-109 -113l-70 64l103 110q-37 29 -67.5 45.5t-59.5 34.5l72 109q41 -23 70.5 -39.5t70.5 -46.5l82 90l71 -64l-75 -84 q29 -23 55.5 -44t60.5 -56q72 -72 125.5 -143.5t89 -153.5t54 -178t18.5 -217q0 -129 -31.5 -233.5t-89 -178.5t-137.5 -114t-176 -40q-100 0 -179 38t-134.5 103.5t-84 157t-28.5 199.5zM266 473q0 -76 12.5 -140.5t41 -110.5t76.5 -72.5t120 -26.5q78 0 127 35t77 86 t37 109.5t9 107.5q0 55 -8 116.5t-35 113.5t-76 87t-129 35q-74 0 -123 -34t-77.5 -85t-40 -110.5t-11.5 -110.5z" />
<glyph unicode="&#xf1;" horiz-adv-x="1093" d="M147 0v1018h144l12 -166q4 8 23.5 40t59.5 64.5t102.5 59t154.5 26.5q82 0 138.5 -20.5t97.5 -60.5q57 -57 68 -129t11 -142v-690h-172v633q0 55 -4 102t-22.5 81t-56 53.5t-105.5 19.5q-94 0 -149.5 -41t-84 -103.5t-37 -139.5t-8.5 -148v-457h-172zM203 1194 q2 113 41 176.5t125 63.5q53 0 99 -15.5t87 -35t76 -35t66 -15.5q33 0 52 14.5t28.5 34t11.5 39t2 27.5h102q-2 -117 -43 -182.5t-137 -65.5q-45 0 -92 16.5t-90 35t-81 35t-65 16.5q-41 0 -58 -30t-21 -79h-103z" />
<glyph unicode="&#xf2;" horiz-adv-x="1081" d="M86 510q0 156 40 258t105.5 162.5t147.5 85t168 24.5t166 -24.5t143.5 -85t101 -162.5t37.5 -258t-38.5 -259.5t-103.5 -164.5t-146.5 -86t-167.5 -25t-168 25t-144.5 86t-101.5 164.5t-39 259.5zM266 510q0 -88 14.5 -161t46 -124t84 -79.5t128.5 -28.5q78 0 131 28.5 t84.5 79.5t46 124t14.5 161t-14.5 160.5t-46 124t-85 79t-130.5 27.5q-76 0 -128.5 -27.5t-84 -79t-46 -124t-14.5 -160.5zM328 1444h191l184 -266h-160z" />
<glyph unicode="&#xf3;" horiz-adv-x="1081" d="M86 510q0 156 40 258t105.5 162.5t147.5 85t168 24.5t166 -24.5t143.5 -85t101 -162.5t37.5 -258t-38.5 -259.5t-103.5 -164.5t-146.5 -86t-167.5 -25t-168 25t-144.5 86t-101.5 164.5t-39 259.5zM266 510q0 -88 14.5 -161t46 -124t84 -79.5t128.5 -28.5q78 0 131 28.5 t84.5 79.5t46 124t14.5 161t-14.5 160.5t-46 124t-85 79t-130.5 27.5q-76 0 -128.5 -27.5t-84 -79t-46 -124t-14.5 -160.5zM401 1178l185 266h190l-215 -266h-160z" />
<glyph unicode="&#xf4;" horiz-adv-x="1081" d="M86 510q0 156 40 258t105.5 162.5t147.5 85t168 24.5t166 -24.5t143.5 -85t101 -162.5t37.5 -258t-38.5 -259.5t-103.5 -164.5t-146.5 -86t-167.5 -25t-168 25t-144.5 86t-101.5 164.5t-39 259.5zM205 1178l236 266h200l234 -266h-172l-164 186l-166 -186h-168zM266 510 q0 -88 14.5 -161t46 -124t84 -79.5t128.5 -28.5q78 0 131 28.5t84.5 79.5t46 124t14.5 161t-14.5 160.5t-46 124t-85 79t-130.5 27.5q-76 0 -128.5 -27.5t-84 -79t-46 -124t-14.5 -160.5z" />
<glyph unicode="&#xf5;" horiz-adv-x="1081" d="M86 510q0 156 40 258t105.5 162.5t147.5 85t168 24.5t166 -24.5t143.5 -85t101 -162.5t37.5 -258t-38.5 -259.5t-103.5 -164.5t-146.5 -86t-167.5 -25t-168 25t-144.5 86t-101.5 164.5t-39 259.5zM196 1194q2 113 41 176.5t125 63.5q53 0 99 -15.5t87 -35t76 -35 t66 -15.5q33 0 52 14.5t28.5 34t11.5 39t2 27.5h102q-2 -117 -43 -182.5t-137 -65.5q-45 0 -92 16.5t-90 35t-81 35t-65 16.5q-41 0 -58 -30t-21 -79h-103zM266 510q0 -88 14.5 -161t46 -124t84 -79.5t128.5 -28.5q78 0 131 28.5t84.5 79.5t46 124t14.5 161t-14.5 160.5 t-46 124t-85 79t-130.5 27.5q-76 0 -128.5 -27.5t-84 -79t-46 -124t-14.5 -160.5z" />
<glyph unicode="&#xf6;" horiz-adv-x="1081" d="M86 510q0 156 40 258t105.5 162.5t147.5 85t168 24.5t166 -24.5t143.5 -85t101 -162.5t37.5 -258t-38.5 -259.5t-103.5 -164.5t-146.5 -86t-167.5 -25t-168 25t-144.5 86t-101.5 164.5t-39 259.5zM229 1210v195h195v-195h-195zM266 510q0 -88 14.5 -161t46 -124t84 -79.5 t128.5 -28.5q78 0 131 28.5t84.5 79.5t46 124t14.5 161t-14.5 160.5t-46 124t-85 79t-130.5 27.5q-76 0 -128.5 -27.5t-84 -79t-46 -124t-14.5 -160.5zM624 1210v195h195v-195h-195z" />
<glyph unicode="&#xf7;" d="M127 586v143h864v-143h-864zM475 199v163h168v-163h-168zM475 950v164h168v-164h-168z" />
<glyph unicode="&#xf8;" horiz-adv-x="1081" d="M86 510q0 156 40 258t105.5 162.5t147.5 85t168 24.5q61 0 105 -9t63 -17l65 133l103 -53l-66 -131q12 -8 41 -33t59.5 -77t54 -135t23.5 -208q0 -156 -38.5 -259.5t-103.5 -164.5t-146.5 -86t-167.5 -25t-136.5 16.5t-60.5 20.5l-63 -127l-99 45l68 138 q-74 57 -118 169.5t-44 272.5zM266 510q0 -72 8.5 -123t18.5 -85t20.5 -52.5t14.5 -22.5l321 656q-10 4 -46 11t-64 7q-76 0 -128.5 -27.5t-84 -79t-46 -124t-14.5 -160.5zM414 145q10 -6 42 -17t83 -11q78 0 131 28.5t84.5 79.5t46 124t14.5 161q0 133 -24.5 204.5 t-49.5 96.5z" />
<glyph unicode="&#xf9;" horiz-adv-x="1083" d="M135 338v680h172v-615q0 -45 4 -93t22.5 -88t55.5 -65.5t105 -25.5q92 0 145 40t81 103.5t36 140.5t8 148v455h172v-1018h-143l-13 170q-4 -10 -20.5 -41t-53 -63.5t-98 -59t-155.5 -26.5q-82 0 -141.5 25.5t-88.5 53.5q-51 51 -69.5 119t-18.5 160zM328 1444h191 l184 -266h-160z" />
<glyph unicode="&#xfa;" horiz-adv-x="1083" d="M135 338v680h172v-615q0 -45 4 -93t22.5 -88t55.5 -65.5t105 -25.5q92 0 145 40t81 103.5t36 140.5t8 148v455h172v-1018h-143l-13 170q-4 -10 -20.5 -41t-53 -63.5t-98 -59t-155.5 -26.5q-82 0 -141.5 25.5t-88.5 53.5q-51 51 -69.5 119t-18.5 160zM380 1178l185 266 h190l-215 -266h-160z" />
<glyph unicode="&#xfb;" horiz-adv-x="1083" d="M135 338v680h172v-615q0 -45 4 -93t22.5 -88t55.5 -65.5t105 -25.5q92 0 145 40t81 103.5t36 140.5t8 148v455h172v-1018h-143l-13 170q-4 -10 -20.5 -41t-53 -63.5t-98 -59t-155.5 -26.5q-82 0 -141.5 25.5t-88.5 53.5q-51 51 -69.5 119t-18.5 160zM205 1178l236 266 h200l234 -266h-172l-164 186l-166 -186h-168z" />
<glyph unicode="&#xfc;" horiz-adv-x="1083" d="M135 338v680h172v-615q0 -45 4 -93t22.5 -88t55.5 -65.5t105 -25.5q92 0 145 40t81 103.5t36 140.5t8 148v455h172v-1018h-143l-13 170q-4 -10 -20.5 -41t-53 -63.5t-98 -59t-155.5 -26.5q-82 0 -141.5 25.5t-88.5 53.5q-51 51 -69.5 119t-18.5 160zM229 1210v195h195 v-195h-195zM624 1210v195h195v-195h-195z" />
<glyph unicode="&#xfd;" horiz-adv-x="940" d="M8 1018h182l289 -776l281 776h172l-434 -1157q-23 -63 -48.5 -105.5t-52.5 -68.5q-20 -20 -66 -47t-130 -27q-43 0 -77 5t-50 9v125q14 -2 37.5 -6t58.5 -4q66 0 104.5 41t67.5 125l45 129zM329 1178l185 266h190l-215 -266h-160z" />
<glyph unicode="&#xfe;" horiz-adv-x="1112" d="M147 -377v1821h172v-549q8 12 28 36.5t53.5 49.5t86 43t123.5 18q92 0 160 -29.5t114 -77.5t73.5 -107.5t43 -117t20.5 -107.5t5 -81q0 -47 -6 -105.5t-24.5 -119.5t-48 -118.5t-77 -102.5t-114 -73t-154.5 -28q-74 0 -126 21.5t-86 48.5t-51 51.5t-20 30.5v-504h-172z M324 528q0 -84 10 -143t24.5 -99t31 -63.5t30.5 -38.5q31 -31 73 -46t85 -15q76 0 128 39t82.5 97t44 128t13.5 129q0 45 -9.5 110.5t-38 126t-80.5 102.5t-140 42q-45 0 -90.5 -15.5t-82 -55.5t-59 -112.5t-22.5 -185.5z" />
<glyph unicode="&#xff;" horiz-adv-x="940" d="M8 1018h182l289 -776l281 776h172l-434 -1157q-23 -63 -48.5 -105.5t-52.5 -68.5q-20 -20 -66 -47t-130 -27q-43 0 -77 5t-50 9v125q14 -2 37.5 -6t58.5 -4q66 0 104.5 41t67.5 125l45 129zM158 1210v195h195v-195h-195zM553 1210v195h195v-195h-195z" />
<glyph unicode="&#x100;" horiz-adv-x="1181" d="M-2 0l487 1427h213l486 -1427h-207l-109 338h-569l-111 -338h-190zM256 1663v125h647v-125h-647zM346 485h475l-237 736z" />
<glyph unicode="&#x101;" horiz-adv-x="1009" d="M86 283q0 123 50 194.5t129 108.5t173 47t185 10h82v45q0 104 -46.5 160.5t-160.5 56.5q-61 0 -97 -14t-55.5 -32.5t-27 -38t-9.5 -32.5h-180q0 16 9 57.5t46 84.5t112 76.5t208 33.5q203 0 286.5 -93t83.5 -288v-659h-143l-10 135q-4 -6 -21.5 -31.5t-54.5 -53t-94 -49 t-139 -21.5q-63 0 -123 18t-105 56t-71.5 95.5t-26.5 133.5zM190 1274v125h647v-125h-647zM262 299q0 -178 197 -178q63 0 109 24.5t77 65.5t45.5 95t14.5 114v96h-91q-61 0 -123.5 -6t-112.5 -27.5t-83 -65.5t-33 -118z" />
<glyph unicode="&#x102;" horiz-adv-x="1181" d="M-2 0l487 1427h213l486 -1427h-207l-109 338h-569l-111 -338h-190zM258 1843h135q0 -59 19.5 -96t49.5 -57.5t63.5 -28.5t62.5 -8t62.5 8t63.5 28.5t49.5 57.5t19.5 96h135q-4 -147 -86 -232t-244 -85t-244 85t-86 232zM346 485h475l-237 736z" />
<glyph unicode="&#x103;" horiz-adv-x="1009" d="M86 283q0 123 50 194.5t129 108.5t173 47t185 10h82v45q0 104 -46.5 160.5t-160.5 56.5q-61 0 -97 -14t-55.5 -32.5t-27 -38t-9.5 -32.5h-180q0 16 9 57.5t46 84.5t112 76.5t208 33.5q203 0 286.5 -93t83.5 -288v-659h-143l-10 135q-4 -6 -21.5 -31.5t-54.5 -53t-94 -49 t-139 -21.5q-63 0 -123 18t-105 56t-71.5 95.5t-26.5 133.5zM172 1454h135q0 -59 19.5 -96t49.5 -57.5t63.5 -28.5t62.5 -8t62.5 8t63.5 28.5t49.5 57.5t19.5 96h135q-4 -147 -86 -232t-244 -85t-244 85t-86 232zM262 299q0 -178 197 -178q63 0 109 24.5t77 65.5t45.5 95 t14.5 114v96h-91q-61 0 -123.5 -6t-112.5 -27.5t-83 -65.5t-33 -118z" />
<glyph unicode="&#x104;" horiz-adv-x="1181" d="M-2 0l487 1427h213l486 -1427h-80q-16 -14 -42 -35.5t-49.5 -49.5t-41 -60.5t-17.5 -67.5q0 -70 39 -93.5t86 -23.5q41 0 77 17.5t44 21.5l37 -76q-23 -14 -65.5 -32.5t-114.5 -18.5q-88 0 -148.5 56.5t-60.5 148.5q0 43 16.5 78t39 60.5t46 44t39.5 30.5h-12l-109 338 h-569l-111 -338h-190zM346 485h475l-237 736z" />
<glyph unicode="&#x105;" horiz-adv-x="1009" d="M86 283q0 123 50 194.5t129 108.5t173 47t185 10h82v45q0 104 -46.5 160.5t-160.5 56.5q-61 0 -97 -14t-55.5 -32.5t-27 -38t-9.5 -32.5h-180q0 16 9 57.5t46 84.5t112 76.5t208 33.5q203 0 286.5 -93t83.5 -288v-659h-40q-16 -14 -42 -35.5t-49.5 -49.5t-41 -60.5 t-17.5 -67.5q0 -70 39 -93.5t86 -23.5q41 0 77 17.5t44 21.5l37 -76q-23 -14 -66 -32.5t-115 -18.5q-88 0 -148 56.5t-60 148.5q0 43 17 78t39.5 61.5t47.5 45t39 30.5h10l-10 133q-4 -6 -21.5 -31.5t-54.5 -53t-94 -49t-139 -21.5q-63 0 -123 18t-105 56t-71.5 95.5 t-26.5 133.5zM262 299q0 -178 197 -178q63 0 109 24.5t77 65.5t45.5 95t14.5 114v96h-91q-61 0 -123.5 -6t-112.5 -27.5t-83 -65.5t-33 -118z" />
<glyph unicode="&#x106;" horiz-adv-x="1241" d="M98 702q0 190 42 332t118 235t183.5 139t236.5 46q141 0 226 -39t140 -94q53 -53 80 -117.5t27 -107.5h-188q-4 23 -20.5 59.5t-51.5 71.5q-31 31 -82 53.5t-129 22.5q-117 0 -193.5 -55.5t-120.5 -141.5t-61.5 -192.5t-17.5 -208.5q0 -98 17.5 -201t61.5 -187 t117.5 -137t186.5 -53q94 0 150.5 27.5t88 62.5t43 68.5t15.5 44.5h190q0 -31 -20.5 -91.5t-74.5 -120t-148 -103.5t-244 -44q-121 0 -225.5 42t-181.5 131t-121 227.5t-44 330.5zM563 1567l185 266h190l-215 -266h-160z" />
<glyph unicode="&#x107;" horiz-adv-x="1009" d="M86 498q0 115 27.5 214t84 171.5t141.5 114.5t200 42q125 0 199.5 -38.5t114.5 -90t53.5 -102.5t13.5 -76h-172q-2 12 -9.5 40t-28 56.5t-61.5 50t-110 21.5q-84 0 -136.5 -33.5t-83 -89t-42 -125t-11.5 -141.5q0 -68 10.5 -138.5t40 -128t81 -93t130.5 -35.5 q72 0 115 20.5t65.5 47t31 53t12.5 38.5h172q0 -23 -14.5 -72.5t-56.5 -100t-119 -89.5t-206 -39q-205 0 -323.5 130.5t-118.5 392.5zM426 1178l185 266h190l-215 -266h-160z" />
<glyph unicode="&#x108;" horiz-adv-x="1241" d="M98 702q0 190 42 332t118 235t183.5 139t236.5 46q141 0 226 -39t140 -94q53 -53 80 -117.5t27 -107.5h-188q-4 23 -20.5 59.5t-51.5 71.5q-31 31 -82 53.5t-129 22.5q-117 0 -193.5 -55.5t-120.5 -141.5t-61.5 -192.5t-17.5 -208.5q0 -98 17.5 -201t61.5 -187 t117.5 -137t186.5 -53q94 0 150.5 27.5t88 62.5t43 68.5t15.5 44.5h190q0 -31 -20.5 -91.5t-74.5 -120t-148 -103.5t-244 -44q-121 0 -225.5 42t-181.5 131t-121 227.5t-44 330.5zM346 1567l236 266h200l234 -266h-172l-164 186l-166 -186h-168z" />
<glyph unicode="&#x109;" horiz-adv-x="1009" d="M86 498q0 115 27.5 214t84 171.5t141.5 114.5t200 42q125 0 199.5 -38.5t114.5 -90t53.5 -102.5t13.5 -76h-172q-2 12 -9.5 40t-28 56.5t-61.5 50t-110 21.5q-84 0 -136.5 -33.5t-83 -89t-42 -125t-11.5 -141.5q0 -68 10.5 -138.5t40 -128t81 -93t130.5 -35.5 q72 0 115 20.5t65.5 47t31 53t12.5 38.5h172q0 -23 -14.5 -72.5t-56.5 -100t-119 -89.5t-206 -39q-205 0 -323.5 130.5t-118.5 392.5zM188 1178l236 266h200l234 -266h-172l-164 186l-166 -186h-168z" />
<glyph unicode="&#x10a;" horiz-adv-x="1241" d="M98 702q0 190 42 332t118 235t183.5 139t236.5 46q141 0 226 -39t140 -94q53 -53 80 -117.5t27 -107.5h-188q-4 23 -20.5 59.5t-51.5 71.5q-31 31 -82 53.5t-129 22.5q-117 0 -193.5 -55.5t-120.5 -141.5t-61.5 -192.5t-17.5 -208.5q0 -98 17.5 -201t61.5 -187 t117.5 -137t186.5 -53q94 0 150.5 27.5t88 62.5t43 68.5t15.5 44.5h190q0 -31 -20.5 -91.5t-74.5 -120t-148 -103.5t-244 -44q-121 0 -225.5 42t-181.5 131t-121 227.5t-44 330.5zM532 1599v195h195v-195h-195z" />
<glyph unicode="&#x10b;" horiz-adv-x="1009" d="M86 498q0 115 27.5 214t84 171.5t141.5 114.5t200 42q125 0 199.5 -38.5t114.5 -90t53.5 -102.5t13.5 -76h-172q-2 12 -9.5 40t-28 56.5t-61.5 50t-110 21.5q-84 0 -136.5 -33.5t-83 -89t-42 -125t-11.5 -141.5q0 -68 10.5 -138.5t40 -128t81 -93t130.5 -35.5 q72 0 115 20.5t65.5 47t31 53t12.5 38.5h172q0 -23 -14.5 -72.5t-56.5 -100t-119 -89.5t-206 -39q-205 0 -323.5 130.5t-118.5 392.5zM415 1210v195h195v-195h-195z" />
<glyph unicode="&#x10c;" horiz-adv-x="1241" d="M98 702q0 190 42 332t118 235t183.5 139t236.5 46q141 0 226 -39t140 -94q53 -53 80 -117.5t27 -107.5h-188q-4 23 -20.5 59.5t-51.5 71.5q-31 31 -82 53.5t-129 22.5q-117 0 -193.5 -55.5t-120.5 -141.5t-61.5 -192.5t-17.5 -208.5q0 -98 17.5 -201t61.5 -187 t117.5 -137t186.5 -53q94 0 150.5 27.5t88 62.5t43 68.5t15.5 44.5h190q0 -31 -20.5 -91.5t-74.5 -120t-148 -103.5t-244 -44q-121 0 -225.5 42t-181.5 131t-121 227.5t-44 330.5zM325 1833h172l164 -187l166 187h168l-236 -266h-200z" />
<glyph unicode="&#x10d;" horiz-adv-x="1009" d="M86 498q0 115 27.5 214t84 171.5t141.5 114.5t200 42q125 0 199.5 -38.5t114.5 -90t53.5 -102.5t13.5 -76h-172q-2 12 -9.5 40t-28 56.5t-61.5 50t-110 21.5q-84 0 -136.5 -33.5t-83 -89t-42 -125t-11.5 -141.5q0 -68 10.5 -138.5t40 -128t81 -93t130.5 -35.5 q72 0 115 20.5t65.5 47t31 53t12.5 38.5h172q0 -23 -14.5 -72.5t-56.5 -100t-119 -89.5t-206 -39q-205 0 -323.5 130.5t-118.5 392.5zM207 1444h172l164 -187l166 187h168l-236 -266h-200z" />
<glyph unicode="&#x10e;" horiz-adv-x="1339" d="M178 0v1427h291q57 0 132 -3t156 -18t159.5 -51t144.5 -100q55 -55 91 -121.5t55.5 -135t26.5 -139.5t7 -134q0 -199 -47 -331t-131 -216q-109 -109 -260.5 -143.5t-364.5 -34.5h-260zM252 1833h172l164 -187l166 187h168l-236 -266h-200zM358 150h115q98 0 200.5 15 t187.5 72.5t138.5 170t53.5 309.5q0 139 -28 235.5t-73 159t-103 97t-120.5 50t-124 18.5t-112.5 3h-134v-1130z" />
<glyph unicode="&#x10f;" horiz-adv-x="1296" d="M86 512q0 94 22.5 189.5t71.5 170t127 121.5t189 47q74 0 127 -19.5t89 -44t55 -48t26 -33.5v571h172v-1466h-144l-10 145q-4 -10 -22.5 -37.5t-55.5 -57.5t-93 -52.5t-136 -22.5q-117 0 -197 48.5t-129 125t-70.5 172t-21.5 191.5zM266 506q0 -66 12.5 -133.5t42 -122.5 t80.5 -91t131 -36q78 0 129.5 37t81 93t41 121.5t11.5 123.5q0 63 -11.5 133.5t-40 129t-80 96.5t-131.5 38q-78 0 -129 -37t-81.5 -94t-43 -126t-12.5 -132zM1118 975v452h176l-45 -452h-131z" />
<glyph unicode="&#x110;" horiz-adv-x="1341" d="M-16 664v147h196v616h291q57 0 132 -3t156 -18t159.5 -51t144.5 -100q55 -55 91 -121.5t55.5 -135t26.5 -139.5t7 -134q0 -199 -47 -331t-131 -216q-109 -109 -260.5 -143.5t-364.5 -34.5h-260v664h-196zM360 150h115q98 0 200.5 15t187.5 72.5t138.5 170t53.5 309.5 q0 139 -28 235.5t-73 159t-103 97t-120.5 50t-124 18.5t-112.5 3h-134v-469h330v-147h-330v-514z" />
<glyph unicode="&#x111;" horiz-adv-x="1112" d="M86 512q0 94 22.5 189.5t71.5 170t127 121.5t189 47q74 0 127 -19.5t89 -44t55 -48t26 -33.5v281h-367v124h367v166h172v-166h108v-124h-108v-1176h-144l-10 145q-4 -10 -22.5 -37.5t-55.5 -57.5t-93 -52.5t-136 -22.5q-117 0 -197 48.5t-129 125t-70.5 172t-21.5 191.5z M266 506q0 -66 12.5 -133.5t42 -122.5t80.5 -91t131 -36q78 0 129.5 37t81 93t41 121.5t11.5 123.5q0 63 -11.5 133.5t-40 129t-80 96.5t-131.5 38q-78 0 -129 -37t-81.5 -94t-43 -126t-12.5 -132z" />
<glyph unicode="&#x112;" horiz-adv-x="1089" d="M178 0v1427h803v-151h-623v-473h590v-148h-590v-499h641v-156h-821zM252 1663v125h647v-125h-647z" />
<glyph unicode="&#x113;" horiz-adv-x="1019" d="M86 492q0 115 23.5 215t77 173.5t137.5 116.5t206 43q123 0 201 -42t123 -113.5t62.5 -164.5t17.5 -198v-35.5t-2 -35.5h-666q2 -68 14.5 -129.5t43 -109.5t82 -77t129.5 -29q63 0 103 16.5t64.5 37t35 41t14.5 30.5h161q-2 -8 -14 -49t-52 -88t-116 -85t-201 -38 q-127 0 -212 41t-136 112t-73.5 165t-22.5 203zM196 1274v125h647v-125h-647zM268 580h494q0 61 -8.5 119.5t-34 104.5t-71.5 73.5t-120 27.5q-70 0 -118 -26.5t-79.5 -70.5t-46 -103t-16.5 -125z" />
<glyph unicode="&#x114;" horiz-adv-x="1089" d="M178 0v1427h803v-151h-623v-473h590v-148h-590v-499h641v-156h-821zM254 1843h135q0 -59 19.5 -96t49.5 -57.5t63.5 -28.5t62.5 -8t62.5 8t63.5 28.5t49.5 57.5t19.5 96h135q-4 -147 -86 -232t-244 -85t-244 85t-86 232z" />
<glyph unicode="&#x115;" horiz-adv-x="1019" d="M86 492q0 115 23.5 215t77 173.5t137.5 116.5t206 43q123 0 201 -42t123 -113.5t62.5 -164.5t17.5 -198v-35.5t-2 -35.5h-666q2 -68 14.5 -129.5t43 -109.5t82 -77t129.5 -29q63 0 103 16.5t64.5 37t35 41t14.5 30.5h161q-2 -8 -14 -49t-52 -88t-116 -85t-201 -38 q-127 0 -212 41t-136 112t-73.5 165t-22.5 203zM198 1454h135q0 -59 19.5 -96t49.5 -57.5t63.5 -28.5t62.5 -8t62.5 8t63.5 28.5t49.5 57.5t19.5 96h135q-4 -147 -86 -232t-244 -85t-244 85t-86 232zM268 580h494q0 61 -8.5 119.5t-34 104.5t-71.5 73.5t-120 27.5 q-70 0 -118 -26.5t-79.5 -70.5t-46 -103t-16.5 -125z" />
<glyph unicode="&#x116;" horiz-adv-x="1089" d="M178 0v1427h803v-151h-623v-473h590v-148h-590v-499h641v-156h-821zM477 1599v195h195v-195h-195z" />
<glyph unicode="&#x117;" horiz-adv-x="1019" d="M86 492q0 115 23.5 215t77 173.5t137.5 116.5t206 43q123 0 201 -42t123 -113.5t62.5 -164.5t17.5 -198v-35.5t-2 -35.5h-666q2 -68 14.5 -129.5t43 -109.5t82 -77t129.5 -29q63 0 103 16.5t64.5 37t35 41t14.5 30.5h161q-2 -8 -14 -49t-52 -88t-116 -85t-201 -38 q-127 0 -212 41t-136 112t-73.5 165t-22.5 203zM268 580h494q0 61 -8.5 119.5t-34 104.5t-71.5 73.5t-120 27.5q-70 0 -118 -26.5t-79.5 -70.5t-46 -103t-16.5 -125zM442 1210v195h195v-195h-195z" />
<glyph unicode="&#x118;" horiz-adv-x="1089" d="M178 0v1427h803v-151h-623v-473h590v-148h-590v-499h641v-156h-104q-20 -16 -46 -39.5t-49.5 -51.5t-39 -59.5t-15.5 -62.5q0 -70 39 -93.5t86 -23.5q41 0 77 17.5t44 21.5l37 -76q-23 -14 -65.5 -32.5t-114.5 -18.5q-88 0 -148.5 56.5t-60.5 148.5q0 41 15.5 75t37 60.5 t45 46t39.5 31.5h-598z" />
<glyph unicode="&#x119;" horiz-adv-x="1019" d="M86 492q0 115 23.5 215t77 173.5t137.5 116.5t206 43q123 0 201 -42t123 -113.5t62.5 -164.5t17.5 -198v-35.5t-2 -35.5h-666q2 -68 14.5 -129.5t43 -109.5t82 -77t129.5 -29q63 0 103 16.5t64.5 37t35 41t14.5 30.5h161q-2 -6 -12 -40.5t-38.5 -75.5t-84 -80t-145.5 -53 q-18 -16 -41 -38t-42.5 -47.5t-31.5 -53t-12 -56.5q0 -70 39 -93.5t86 -23.5q41 0 76.5 17.5t44.5 21.5l36 -76q-23 -14 -65.5 -32.5t-114.5 -18.5q-88 0 -148.5 56.5t-60.5 148.5q0 68 35 112t70 72q-119 4 -199 47t-129 114t-69.5 163t-20.5 197zM268 580h494 q0 61 -8.5 119.5t-34 104.5t-71.5 73.5t-120 27.5q-70 0 -118 -26.5t-79.5 -70.5t-46 -103t-16.5 -125z" />
<glyph unicode="&#x11a;" horiz-adv-x="1089" d="M178 0v1427h803v-151h-623v-473h590v-148h-590v-499h641v-156h-821zM250 1833h172l164 -187l166 187h168l-236 -266h-200z" />
<glyph unicode="&#x11b;" horiz-adv-x="1019" d="M86 492q0 115 23.5 215t77 173.5t137.5 116.5t206 43q123 0 201 -42t123 -113.5t62.5 -164.5t17.5 -198v-35.5t-2 -35.5h-666q2 -68 14.5 -129.5t43 -109.5t82 -77t129.5 -29q63 0 103 16.5t64.5 37t35 41t14.5 30.5h161q-2 -8 -14 -49t-52 -88t-116 -85t-201 -38 q-127 0 -212 41t-136 112t-73.5 165t-22.5 203zM194 1444h172l164 -187l166 187h168l-236 -266h-200zM268 580h494q0 61 -8.5 119.5t-34 104.5t-71.5 73.5t-120 27.5q-70 0 -118 -26.5t-79.5 -70.5t-46 -103t-16.5 -125z" />
<glyph unicode="&#x11c;" horiz-adv-x="1249" d="M98 702q0 190 42 332t118 235t183.5 139t236.5 46q141 0 226 -39t140 -94q53 -53 80 -117.5t27 -107.5h-188q-4 23 -20.5 59.5t-51.5 71.5q-31 31 -82 53.5t-129 22.5q-117 0 -193.5 -55.5t-120.5 -141.5t-61.5 -192.5t-17.5 -208.5q0 -109 17.5 -213.5t64.5 -185.5 t129 -131t209 -50q113 0 179 20.5t89 28.5v379h-293v141h461v-633q-12 -4 -47 -19t-90.5 -30.5t-129 -28t-165.5 -12.5q-311 0 -462 188.5t-151 542.5zM350 1567l236 266h200l234 -266h-172l-164 186l-166 -186h-168z" />
<glyph unicode="&#x11d;" horiz-adv-x="1112" d="M86 504q0 96 21.5 192.5t70.5 173t127 123.5t191 47q86 0 142 -20.5t91 -48t53.5 -55t28.5 -42.5l10 144h144v-901q0 -51 -2 -102.5t-12.5 -101.5t-33 -97t-63.5 -88q-70 -70 -157 -92.5t-177 -22.5q-96 0 -163.5 17.5t-110.5 44t-67.5 58t-37 62.5t-14.5 54.5t-2 33.5 h172q2 -8 7 -29.5t26.5 -44t65.5 -40t124 -17.5q104 0 159.5 33t81 87t29 124t3.5 143q-6 -10 -27 -32.5t-55.5 -46t-88 -42t-124.5 -18.5q-109 0 -187 43t-128 113.5t-73.5 161t-23.5 186.5zM219 1178l236 266h200l234 -266h-172l-164 186l-166 -186h-168zM266 512 q0 -66 13.5 -130.5t44 -116.5t82 -85t129.5 -33q80 0 130 34t79.5 88.5t41 120t11.5 130.5q0 61 -13.5 128t-44 121t-82 90t-125.5 36q-80 0 -131 -36t-80.5 -91t-42 -124t-12.5 -132z" />
<glyph unicode="&#x11e;" horiz-adv-x="1249" d="M98 702q0 190 42 332t118 235t183.5 139t236.5 46q141 0 226 -39t140 -94q53 -53 80 -117.5t27 -107.5h-188q-4 23 -20.5 59.5t-51.5 71.5q-31 31 -82 53.5t-129 22.5q-117 0 -193.5 -55.5t-120.5 -141.5t-61.5 -192.5t-17.5 -208.5q0 -109 17.5 -213.5t64.5 -185.5 t129 -131t209 -50q113 0 179 20.5t89 28.5v379h-293v141h461v-633q-12 -4 -47 -19t-90.5 -30.5t-129 -28t-165.5 -12.5q-311 0 -462 188.5t-151 542.5zM354 1843h135q0 -59 19.5 -96t49.5 -57.5t63.5 -28.5t62.5 -8t62.5 8t63.5 28.5t49.5 57.5t19.5 96h135 q-4 -147 -86 -232t-244 -85t-244 85t-86 232z" />
<glyph unicode="&#x11f;" horiz-adv-x="1112" d="M86 504q0 96 21.5 192.5t70.5 173t127 123.5t191 47q86 0 142 -20.5t91 -48t53.5 -55t28.5 -42.5l10 144h144v-901q0 -51 -2 -102.5t-12.5 -101.5t-33 -97t-63.5 -88q-70 -70 -157 -92.5t-177 -22.5q-96 0 -163.5 17.5t-110.5 44t-67.5 58t-37 62.5t-14.5 54.5t-2 33.5 h172q2 -8 7 -29.5t26.5 -44t65.5 -40t124 -17.5q104 0 159.5 33t81 87t29 124t3.5 143q-6 -10 -27 -32.5t-55.5 -46t-88 -42t-124.5 -18.5q-109 0 -187 43t-128 113.5t-73.5 161t-23.5 186.5zM223 1454h135q0 -59 19.5 -96t49.5 -57.5t63.5 -28.5t62.5 -8t62.5 8t63.5 28.5 t49.5 57.5t19.5 96h135q-4 -147 -86 -232t-244 -85t-244 85t-86 232zM266 512q0 -66 13.5 -130.5t44 -116.5t82 -85t129.5 -33q80 0 130 34t79.5 88.5t41 120t11.5 130.5q0 61 -13.5 128t-44 121t-82 90t-125.5 36q-80 0 -131 -36t-80.5 -91t-42 -124t-12.5 -132z" />
<glyph unicode="&#x120;" horiz-adv-x="1249" d="M98 702q0 190 42 332t118 235t183.5 139t236.5 46q141 0 226 -39t140 -94q53 -53 80 -117.5t27 -107.5h-188q-4 23 -20.5 59.5t-51.5 71.5q-31 31 -82 53.5t-129 22.5q-117 0 -193.5 -55.5t-120.5 -141.5t-61.5 -192.5t-17.5 -208.5q0 -109 17.5 -213.5t64.5 -185.5 t129 -131t209 -50q113 0 179 20.5t89 28.5v379h-293v141h461v-633q-12 -4 -47 -19t-90.5 -30.5t-129 -28t-165.5 -12.5q-311 0 -462 188.5t-151 542.5zM536 1599v195h195v-195h-195z" />
<glyph unicode="&#x121;" horiz-adv-x="1112" d="M86 504q0 96 21.5 192.5t70.5 173t127 123.5t191 47q86 0 142 -20.5t91 -48t53.5 -55t28.5 -42.5l10 144h144v-901q0 -51 -2 -102.5t-12.5 -101.5t-33 -97t-63.5 -88q-70 -70 -157 -92.5t-177 -22.5q-96 0 -163.5 17.5t-110.5 44t-67.5 58t-37 62.5t-14.5 54.5t-2 33.5 h172q2 -8 7 -29.5t26.5 -44t65.5 -40t124 -17.5q104 0 159.5 33t81 87t29 124t3.5 143q-6 -10 -27 -32.5t-55.5 -46t-88 -42t-124.5 -18.5q-109 0 -187 43t-128 113.5t-73.5 161t-23.5 186.5zM266 512q0 -66 13.5 -130.5t44 -116.5t82 -85t129.5 -33q80 0 130 34t79.5 88.5 t41 120t11.5 130.5q0 61 -13.5 128t-44 121t-82 90t-125.5 36q-80 0 -131 -36t-80.5 -91t-42 -124t-12.5 -132zM466 1210v195h195v-195h-195z" />
<glyph unicode="&#x122;" horiz-adv-x="1249" d="M98 702q0 190 42 332t118 235t183.5 139t236.5 46q141 0 226 -39t140 -94q53 -53 80 -117.5t27 -107.5h-188q-4 23 -20.5 59.5t-51.5 71.5q-31 31 -82 53.5t-129 22.5q-117 0 -193.5 -55.5t-120.5 -141.5t-61.5 -192.5t-17.5 -208.5q0 -109 17.5 -213.5t64.5 -185.5 t129 -131t209 -50q113 0 179 20.5t89 28.5v379h-293v141h461v-633q-12 -4 -47 -19t-90.5 -30.5t-129 -28t-165.5 -12.5q-311 0 -462 188.5t-151 542.5zM471 -557l97 412h211l-164 -412h-144z" />
<glyph unicode="&#x123;" horiz-adv-x="1112" d="M86 504q0 96 21.5 192.5t70.5 173t127 123.5t191 47q86 0 142 -20.5t91 -48t53.5 -55t28.5 -42.5l10 144h144v-901q0 -51 -2 -102.5t-12.5 -101.5t-33 -97t-63.5 -88q-70 -70 -157 -92.5t-177 -22.5q-96 0 -163.5 17.5t-110.5 44t-67.5 58t-37 62.5t-14.5 54.5t-2 33.5 h172q2 -8 7 -29.5t26.5 -44t65.5 -40t124 -17.5q104 0 159.5 33t81 87t29 124t3.5 143q-6 -10 -27 -32.5t-55.5 -46t-88 -42t-124.5 -18.5q-109 0 -187 43t-128 113.5t-73.5 161t-23.5 186.5zM266 512q0 -66 13.5 -130.5t44 -116.5t82 -85t129.5 -33q80 0 130 34t79.5 88.5 t41 120t11.5 130.5q0 61 -13.5 128t-44 121t-82 90t-125.5 36q-80 0 -131 -36t-80.5 -91t-42 -124t-12.5 -132zM424 1233l154 440h143l-98 -440h-199z" />
<glyph unicode="&#x124;" horiz-adv-x="1411" d="M178 0v1427h180v-616h695v616h180v-1427h-180v657h-695v-657h-180zM368 1567l236 266h200l234 -266h-172l-164 186l-166 -186h-168z" />
<glyph unicode="&#x125;" horiz-adv-x="1093" d="M-94 1567l236 266h200l234 -266h-172l-164 186l-166 -186h-168zM147 0v1466h172v-598q6 14 27 43t58.5 57.5t96 51t142.5 22.5q82 0 138.5 -20.5t97.5 -60.5q57 -57 68 -129t11 -142v-690h-172v633q0 55 -4 102t-22.5 81t-56 53.5t-105.5 19.5q-94 0 -149.5 -41 t-84 -103.5t-37 -139.5t-8.5 -148v-457h-172z" />
<glyph unicode="&#x126;" horiz-adv-x="1411" d="M45 1028v125h133v274h180v-274h695v274h180v-274h133v-125h-133v-1028h-180v657h-695v-657h-180v1028h-133zM358 811h695v217h-695v-217z" />
<glyph unicode="&#x127;" horiz-adv-x="1093" d="M45 1153v125h102v188h172v-188h373v-125h-373v-285q6 14 27 43t58.5 57.5t96 51t142.5 22.5q82 0 138.5 -20.5t97.5 -60.5q57 -57 68 -129t11 -142v-690h-172v633q0 55 -4 102t-22.5 81t-56 53.5t-105.5 19.5q-94 0 -149.5 -41t-84 -103.5t-37 -139.5t-8.5 -148v-457 h-172v1153h-102z" />
<glyph unicode="&#x128;" horiz-adv-x="536" d="M-74 1583q2 113 41 176.5t125 63.5q53 0 99 -15.5t87 -35t76 -35t66 -15.5q33 0 52 14.5t28.5 34t11.5 39t2 27.5h102q-2 -117 -43 -182.5t-137 -65.5q-45 0 -92 16.5t-90 35t-81 35t-65 16.5q-41 0 -58 -30t-21 -79h-103zM178 0v1427h180v-1427h-180z" />
<glyph unicode="&#x129;" horiz-adv-x="466" d="M-109 1194q2 113 41 176.5t125 63.5q53 0 99 -15.5t87 -35t76 -35t66 -15.5q33 0 52 14.5t28.5 34t11.5 39t2 27.5h102q-2 -117 -43 -182.5t-137 -65.5q-45 0 -92 16.5t-90 35t-81 35t-65 16.5q-41 0 -58 -30t-21 -79h-103zM147 0v1018h172v-1018h-172z" />
<glyph unicode="&#x12a;" horiz-adv-x="536" d="M-64 1663v125h647v-125h-647zM178 0v1427h180v-1427h-180z" />
<glyph unicode="&#x12b;" horiz-adv-x="466" d="M-98 1274v125h647v-125h-647zM147 0v1018h172v-1018h-172z" />
<glyph unicode="&#x12c;" horiz-adv-x="536" d="M-62 1843h135q0 -59 19.5 -96t49.5 -57.5t63.5 -28.5t62.5 -8t62.5 8t63.5 28.5t49.5 57.5t19.5 96h135q-4 -147 -86 -232t-244 -85t-244 85t-86 232zM178 0v1427h180v-1427h-180z" />
<glyph unicode="&#x12d;" horiz-adv-x="466" d="M-97 1454h135q0 -59 19.5 -96t49.5 -57.5t63.5 -28.5t62.5 -8t62.5 8t63.5 28.5t49.5 57.5t19.5 96h135q-4 -147 -86 -232t-244 -85t-244 85t-86 232zM147 0v1018h172v-1018h-172z" />
<glyph unicode="&#x12e;" horiz-adv-x="536" d="M76 -213q0 43 16.5 78t40 60.5t47 44t37.5 30.5h-39v1427h180v-1427h-28q-20 -16 -46 -39.5t-48.5 -51.5t-38 -58.5t-15.5 -63.5q0 -70 39 -93.5t86 -23.5q41 0 77 17.5t44 21.5l37 -76q-23 -14 -65.5 -32.5t-114.5 -18.5q-88 0 -148.5 56.5t-60.5 148.5z" />
<glyph unicode="&#x12f;" horiz-adv-x="466" d="M41 -213q0 43 16.5 78t40 60.5t47 44t37.5 30.5h-35v1018h172v-1018h-22q-18 -16 -44 -37.5t-49.5 -49.5t-40 -59.5t-16.5 -66.5q0 -70 39 -93.5t86 -23.5q41 0 77 17.5t44 21.5l37 -76q-23 -14 -65.5 -32.5t-114.5 -18.5q-88 0 -148.5 56.5t-60.5 148.5zM147 1178v174 h172v-174h-172z" />
<glyph unicode="&#x130;" horiz-adv-x="536" d="M178 0v1427h180v-1427h-180zM180 1599v195h195v-195h-195z" />
<glyph unicode="&#x131;" horiz-adv-x="466" d="M147 0v1018h172v-1018h-172z" />
<glyph unicode="&#x132;" horiz-adv-x="1531" d="M178 0v1427h180v-1427h-180zM564 330h178q2 -10 8 -44t27.5 -71t63.5 -66.5t116 -29.5q51 0 86 14t61 41q49 49 59.5 123t10.5 154v976h180v-1003q0 -41 -2 -86t-12 -90t-31.5 -89t-60.5 -83q-49 -49 -123 -76t-168 -27q-104 0 -178 27t-121 74q-35 35 -54.5 71.5 t-28.5 71.5t-10 63.5t-1 49.5z" />
<glyph unicode="&#x133;" horiz-adv-x="995" d="M147 0v1018h172v-1018h-172zM147 1178v174h172v-174h-172zM438 -225q12 -2 27 -4q12 -2 25.5 -3t29.5 -1q51 0 83 13t47.5 38.5t20.5 62.5t5 84v1053h172v-1063q0 -96 -11.5 -154.5t-54.5 -101.5q-37 -37 -84.5 -54.5t-121.5 -17.5q-53 0 -84 7.5t-54 13.5v127zM676 1178 v174h172v-174h-172z" />
<glyph unicode="&#x134;" horiz-adv-x="995" d="M27 330h178q2 -10 8 -44t27.5 -71t63.5 -66.5t116 -29.5q51 0 86 14t61 41q49 49 59.5 123t10.5 154v976h180v-1003q0 -41 -2 -86t-12 -90t-31.5 -89t-60.5 -83q-49 -49 -123 -76t-168 -27q-104 0 -178 27t-121 74q-35 35 -54.5 71.5t-28.5 71.5t-10 63.5t-1 49.5z M387 1567l236 266h200l234 -266h-172l-164 186l-166 -186h-168z" />
<glyph unicode="&#x135;" horiz-adv-x="528" d="M-49 1178l236 266h200l234 -266h-172l-164 186l-166 -186h-168zM-29 -225q12 -2 27 -4q12 -2 25.5 -3t29.5 -1q51 0 83 13t47.5 38.5t20.5 62.5t5 84v1053h172v-1063q0 -96 -11.5 -154.5t-54.5 -101.5q-37 -37 -84.5 -54.5t-121.5 -17.5q-53 0 -84 7.5t-54 13.5v127z" />
<glyph unicode="&#x136;" horiz-adv-x="1198" d="M178 0v1427h180v-665l576 665h211l-602 -688l651 -739h-238l-598 694v-694h-180zM423 -557l97 412h211l-164 -412h-144z" />
<glyph unicode="&#x137;" horiz-adv-x="960" d="M147 0v1444h172v-899l388 473h188l-399 -486l440 -532h-209l-408 504v-504h-172zM305 -557l97 412h211l-164 -412h-144z" />
<glyph unicode="&#x138;" horiz-adv-x="960" d="M147 0v1018h172v-473l388 473h188l-399 -486l440 -532h-209l-408 504v-504h-172z" />
<glyph unicode="&#x139;" horiz-adv-x="1036" d="M178 0v1427h180v-1271h637v-156h-817zM194 1567l185 266h190l-215 -266h-160z" />
<glyph unicode="&#x13a;" horiz-adv-x="466" d="M135 1567l185 266h190l-215 -266h-160zM147 0v1444h172v-1444h-172z" />
<glyph unicode="&#x13b;" horiz-adv-x="1036" d="M178 0v1427h180v-1271h637v-156h-817zM364 -557l97 412h211l-164 -412h-144z" />
<glyph unicode="&#x13c;" horiz-adv-x="466" d="M20 -557l97 412h211l-164 -412h-144zM147 0v1444h172v-1444h-172z" />
<glyph unicode="&#x13d;" horiz-adv-x="1036" d="M178 0v1427h180v-1271h637v-156h-817zM604 975v452h176l-45 -452h-131z" />
<glyph unicode="&#x13e;" horiz-adv-x="645" d="M147 0v1444h172v-1444h-172zM467 957v452h176l-45 -452h-131z" />
<glyph unicode="&#x13f;" horiz-adv-x="1036" d="M178 0v1427h180v-1271h637v-156h-817zM643 618v201h201v-201h-201z" />
<glyph unicode="&#x140;" horiz-adv-x="665" d="M147 0v1444h172v-1444h-172zM465 623v201h201v-201h-201z" />
<glyph unicode="&#x141;" horiz-adv-x="1083" d="M-33 422l258 266v739h181v-565l256 268l88 -86l-344 -362v-526h636v-156h-817v512l-170 -176z" />
<glyph unicode="&#x142;" horiz-adv-x="641" d="M-33 434l258 266v744h172v-572l197 203l80 -80l-277 -286v-709h-172v537l-176 -185z" />
<glyph unicode="&#x143;" horiz-adv-x="1411" d="M178 0v1427h207l682 -1167v1167h166v-1427h-205l-684 1171v-1171h-166zM544 1567l185 266h190l-215 -266h-160z" />
<glyph unicode="&#x144;" horiz-adv-x="1093" d="M147 0v1018h144l12 -166q4 8 23.5 40t59.5 64.5t102.5 59t154.5 26.5q82 0 138.5 -20.5t97.5 -60.5q57 -57 68 -129t11 -142v-690h-172v633q0 55 -4 102t-22.5 81t-56 53.5t-105.5 19.5q-94 0 -149.5 -41t-84 -103.5t-37 -139.5t-8.5 -148v-457h-172zM448 1178l185 266 h190l-215 -266h-160z" />
<glyph unicode="&#x145;" horiz-adv-x="1411" d="M178 0v1427h207l682 -1167v1167h166v-1427h-205l-684 1171v-1171h-166zM509 -557l97 412h211l-164 -412h-144z" />
<glyph unicode="&#x146;" horiz-adv-x="1093" d="M147 0v1018h144l12 -166q4 8 23.5 40t59.5 64.5t102.5 59t154.5 26.5q82 0 138.5 -20.5t97.5 -60.5q57 -57 68 -129t11 -142v-690h-172v633q0 55 -4 102t-22.5 81t-56 53.5t-105.5 19.5q-94 0 -149.5 -41t-84 -103.5t-37 -139.5t-8.5 -148v-457h-172zM372 -557l97 412 h211l-164 -412h-144z" />
<glyph unicode="&#x147;" horiz-adv-x="1411" d="M178 0v1427h207l682 -1167v1167h166v-1427h-205l-684 1171v-1171h-166zM389 1833h172l164 -187l166 187h168l-236 -266h-200z" />
<glyph unicode="&#x148;" horiz-adv-x="1093" d="M147 0v1018h144l12 -166q4 8 23.5 40t59.5 64.5t102.5 59t154.5 26.5q82 0 138.5 -20.5t97.5 -60.5q57 -57 68 -129t11 -142v-690h-172v633q0 55 -4 102t-22.5 81t-56 53.5t-105.5 19.5q-94 0 -149.5 -41t-84 -103.5t-37 -139.5t-8.5 -148v-457h-172zM231 1444h172 l164 -187l166 187h168l-236 -266h-200z" />
<glyph unicode="&#x149;" horiz-adv-x="1476" d="M86 987l98 440h199l-154 -440h-143zM530 0v1018h144l12 -166q4 8 23.5 40t59.5 64.5t102.5 59t154.5 26.5q82 0 138.5 -20.5t97.5 -60.5q57 -57 68 -129t11 -142v-690h-172v633q0 55 -4 102t-22.5 81t-56 53.5t-105.5 19.5q-94 0 -149.5 -41t-84 -103.5t-37 -139.5 t-8.5 -148v-457h-172z" />
<glyph unicode="&#x14a;" horiz-adv-x="1411" d="M178 0v1427h207l682 -1167v1167h166v-1427q0 -195 -111 -295t-340 -100q-66 0 -123 10t-86 18v146q35 -16 91.5 -22.5t121.5 -6.5q78 0 126.5 22.5t75 57.5t35.5 80t9 90l-688 1171v-1171h-166z" />
<glyph unicode="&#x14b;" horiz-adv-x="1093" d="M147 0v1018h144l12 -166q4 8 23.5 40t59.5 64.5t102.5 59t154.5 26.5q82 0 138.5 -20.5t97.5 -60.5q57 -57 68 -129t11 -142v-735q0 -96 -11 -154.5t-54 -101.5q-37 -37 -85 -54.5t-122 -17.5q-53 0 -84 7.5t-53 13.5v127q12 -2 26 -4q12 -2 25.5 -3t30.5 -1 q51 0 81.5 13t46 38.5t20.5 62.5t7 84v668q0 55 -4 102t-22.5 81t-56 53.5t-105.5 19.5q-94 0 -149.5 -41t-84 -103.5t-37 -139.5t-8.5 -148v-457h-172z" />
<glyph unicode="&#x14c;" horiz-adv-x="1392" d="M98 709q0 160 35 297t108.5 236t187.5 155.5t269 56.5q147 0 259 -50t187 -145.5t112.5 -234.5t37.5 -315q0 -172 -38.5 -309.5t-114.5 -232.5t-188 -145.5t-259 -50.5t-257.5 50.5t-186.5 145.5t-114 232.5t-38 309.5zM287 717q0 -96 15 -200.5t60.5 -190.5t125 -142.5 t206.5 -56.5q125 0 206 55.5t126 141.5t62.5 190t17.5 203q0 102 -18.5 206.5t-64.5 188.5t-126 137.5t-203 53.5t-201.5 -55.5t-124.5 -141.5t-63.5 -189.5t-17.5 -199.5zM362 1663v125h647v-125h-647z" />
<glyph unicode="&#x14d;" horiz-adv-x="1081" d="M86 510q0 156 40 258t105.5 162.5t147.5 85t168 24.5t166 -24.5t143.5 -85t101 -162.5t37.5 -258t-38.5 -259.5t-103.5 -164.5t-146.5 -86t-167.5 -25t-168 25t-144.5 86t-101.5 164.5t-39 259.5zM223 1274v125h647v-125h-647zM266 510q0 -88 14.5 -161t46 -124t84 -79.5 t128.5 -28.5q78 0 131 28.5t84.5 79.5t46 124t14.5 161t-14.5 160.5t-46 124t-85 79t-130.5 27.5q-76 0 -128.5 -27.5t-84 -79t-46 -124t-14.5 -160.5z" />
<glyph unicode="&#x14e;" horiz-adv-x="1392" d="M98 709q0 160 35 297t108.5 236t187.5 155.5t269 56.5q147 0 259 -50t187 -145.5t112.5 -234.5t37.5 -315q0 -172 -38.5 -309.5t-114.5 -232.5t-188 -145.5t-259 -50.5t-257.5 50.5t-186.5 145.5t-114 232.5t-38 309.5zM287 717q0 -96 15 -200.5t60.5 -190.5t125 -142.5 t206.5 -56.5q125 0 206 55.5t126 141.5t62.5 190t17.5 203q0 102 -18.5 206.5t-64.5 188.5t-126 137.5t-203 53.5t-201.5 -55.5t-124.5 -141.5t-63.5 -189.5t-17.5 -199.5zM364 1843h135q0 -59 19.5 -96t49.5 -57.5t63.5 -28.5t62.5 -8t62.5 8t63.5 28.5t49.5 57.5t19.5 96 h135q-4 -147 -86 -232t-244 -85t-244 85t-86 232z" />
<glyph unicode="&#x14f;" horiz-adv-x="1081" d="M86 510q0 156 40 258t105.5 162.5t147.5 85t168 24.5t166 -24.5t143.5 -85t101 -162.5t37.5 -258t-38.5 -259.5t-103.5 -164.5t-146.5 -86t-167.5 -25t-168 25t-144.5 86t-101.5 164.5t-39 259.5zM209 1454h135q0 -59 19.5 -96t49.5 -57.5t63.5 -28.5t62.5 -8t62.5 8 t63.5 28.5t49.5 57.5t19.5 96h135q-4 -147 -86 -232t-244 -85t-244 85t-86 232zM266 510q0 -88 14.5 -161t46 -124t84 -79.5t128.5 -28.5q78 0 131 28.5t84.5 79.5t46 124t14.5 161t-14.5 160.5t-46 124t-85 79t-130.5 27.5q-76 0 -128.5 -27.5t-84 -79t-46 -124 t-14.5 -160.5z" />
<glyph unicode="&#x150;" horiz-adv-x="1392" d="M98 709q0 160 35 297t108.5 236t187.5 155.5t269 56.5q147 0 259 -50t187 -145.5t112.5 -234.5t37.5 -315q0 -172 -38.5 -309.5t-114.5 -232.5t-188 -145.5t-259 -50.5t-257.5 50.5t-186.5 145.5t-114 232.5t-38 309.5zM287 717q0 -96 15 -200.5t60.5 -190.5t125 -142.5 t206.5 -56.5q125 0 206 55.5t126 141.5t62.5 190t17.5 203q0 102 -18.5 206.5t-64.5 188.5t-126 137.5t-203 53.5t-201.5 -55.5t-124.5 -141.5t-63.5 -189.5t-17.5 -199.5zM401 1597l166 269h172l-199 -269h-139zM684 1597l166 269h172l-199 -269h-139z" />
<glyph unicode="&#x151;" horiz-adv-x="1081" d="M86 510q0 156 40 258t105.5 162.5t147.5 85t168 24.5t166 -24.5t143.5 -85t101 -162.5t37.5 -258t-38.5 -259.5t-103.5 -164.5t-146.5 -86t-167.5 -25t-168 25t-144.5 86t-101.5 164.5t-39 259.5zM266 510q0 -88 14.5 -161t46 -124t84 -79.5t128.5 -28.5q78 0 131 28.5 t84.5 79.5t46 124t14.5 161t-14.5 160.5t-46 124t-85 79t-130.5 27.5q-76 0 -128.5 -27.5t-84 -79t-46 -124t-14.5 -160.5zM287 1208l166 269h172l-199 -269h-139zM570 1208l166 269h172l-199 -269h-139z" />
<glyph unicode="&#x152;" horiz-adv-x="1886" d="M98 702q0 199 47.5 331t130.5 216q55 55 119 89t138.5 54.5t164.5 27.5t197 7h883v-151h-623v-473h590v-148h-590v-499h641v-156h-932q-57 0 -131 3t-153.5 18.5t-158.5 50t-142 100.5q-55 55 -90 121.5t-55.5 135.5t-28 138.5t-7.5 134.5zM287 711q0 -139 26.5 -235.5 t70.5 -159t101.5 -97.5t120 -50t123 -18.5t113.5 -3.5h133v1131h-115q-98 0 -200.5 -15.5t-185.5 -72.5t-135 -170t-52 -309z" />
<glyph unicode="&#x153;" horiz-adv-x="1751" d="M86 510q0 156 40 258t105.5 162.5t147.5 85t168 24.5q96 0 162.5 -23.5t108.5 -53t63.5 -58t27.5 -39.5q6 8 26.5 37t61.5 59.5t105.5 54t159.5 23.5q123 0 200.5 -42t122.5 -113.5t62.5 -164.5t17.5 -198v-35.5t-2 -35.5h-666q2 -68 14.5 -129.5t43 -109.5t82 -77 t129.5 -29q63 0 103 16.5t64.5 37t35 41t14.5 30.5h162q-2 -8 -14.5 -49t-52.5 -88t-115.5 -85t-200.5 -38q-96 0 -162 22.5t-108 52.5t-63.5 57.5t-27.5 39.5q-4 -6 -24.5 -32.5t-63.5 -57t-109.5 -54.5t-164.5 -24q-86 0 -168 25t-144.5 86t-101.5 164.5t-39 259.5z M266 510q0 -88 14.5 -161t46 -124t84 -79.5t128.5 -28.5q78 0 131 28.5t84.5 79.5t46 124t14.5 161t-14.5 160.5t-46 124t-85 79t-130.5 27.5q-76 0 -128.5 -27.5t-84 -79t-46 -124t-14.5 -160.5zM999 580h494q0 61 -8 119.5t-34 104.5t-72 73.5t-119 27.5q-70 0 -118 -26.5 t-80 -70.5t-46.5 -103t-16.5 -125z" />
<glyph unicode="&#x154;" horiz-adv-x="1236" d="M178 0v1427h344q92 0 188.5 -10t175.5 -49t128 -113.5t49 -205.5q0 -129 -41 -202t-93 -109t-103.5 -46t-71.5 -12q49 -8 81.5 -32.5t59.5 -65.5t51.5 -97.5t52.5 -126.5l146 -358h-201l-129 342q-29 72 -51.5 122t-56.5 85q-33 33 -85.5 48t-132.5 15h-131v-612h-180z M358 756h150q98 0 178 20.5t131 71.5q29 29 45.5 74t16.5 110q0 53 -12.5 99.5t-41.5 74.5q-53 53 -132 65.5t-171 12.5h-164v-528zM438 1567l185 266h190l-215 -266h-160z" />
<glyph unicode="&#x155;" horiz-adv-x="702" d="M147 0v1018h144l10 -197q6 18 22.5 54t52.5 72t94 62.5t151 26.5q35 0 57 -6v-170q-20 4 -41 4q-133 0 -205 -71q-37 -37 -58.5 -78t-33.5 -96.5t-16.5 -126t-4.5 -164.5v-328h-172zM292 1178l185 266h190l-215 -266h-160z" />
<glyph unicode="&#x156;" horiz-adv-x="1236" d="M178 0v1427h344q92 0 188.5 -10t175.5 -49t128 -113.5t49 -205.5q0 -129 -41 -202t-93 -109t-103.5 -46t-71.5 -12q49 -8 81.5 -32.5t59.5 -65.5t51.5 -97.5t52.5 -126.5l146 -358h-201l-129 342q-29 72 -51.5 122t-56.5 85q-33 33 -85.5 48t-132.5 15h-131v-612h-180z M358 756h150q98 0 178 20.5t131 71.5q29 29 45.5 74t16.5 110q0 53 -12.5 99.5t-41.5 74.5q-53 53 -132 65.5t-171 12.5h-164v-528zM464 -557l97 412h211l-164 -412h-144z" />
<glyph unicode="&#x157;" horiz-adv-x="702" d="M55 -557l97 412h211l-164 -412h-144zM147 0v1018h144l10 -197q6 18 22.5 54t52.5 72t94 62.5t151 26.5q35 0 57 -6v-170q-20 4 -41 4q-133 0 -205 -71q-37 -37 -58.5 -78t-33.5 -96.5t-16.5 -126t-4.5 -164.5v-328h-172z" />
<glyph unicode="&#x158;" horiz-adv-x="1236" d="M178 0v1427h344q92 0 188.5 -10t175.5 -49t128 -113.5t49 -205.5q0 -129 -41 -202t-93 -109t-103.5 -46t-71.5 -12q49 -8 81.5 -32.5t59.5 -65.5t51.5 -97.5t52.5 -126.5l146 -358h-201l-129 342q-29 72 -51.5 122t-56.5 85q-33 33 -85.5 48t-132.5 15h-131v-612h-180z M282 1833h172l164 -187l166 187h168l-236 -266h-200zM358 756h150q98 0 178 20.5t131 71.5q29 29 45.5 74t16.5 110q0 53 -12.5 99.5t-41.5 74.5q-53 53 -132 65.5t-171 12.5h-164v-528z" />
<glyph unicode="&#x159;" horiz-adv-x="702" d="M96 1444h172l164 -187l166 187h168l-236 -266h-200zM147 0v1018h144l10 -197q6 18 22.5 54t52.5 72t94 62.5t151 26.5q35 0 57 -6v-170q-20 4 -41 4q-133 0 -205 -71q-37 -37 -58.5 -78t-33.5 -96.5t-16.5 -126t-4.5 -164.5v-328h-172z" />
<glyph unicode="&#x15a;" horiz-adv-x="1136" d="M98 342h189q0 -6 7 -42t34.5 -76t82 -71.5t152.5 -31.5q45 0 95.5 11t91.5 38t68.5 73t27.5 115q0 63 -24.5 105.5t-67.5 74t-103.5 56t-132.5 55.5q-59 25 -127.5 52.5t-127 73.5t-98.5 119t-40 183q0 109 41 181.5t105.5 115.5t140 61.5t147.5 18.5q92 0 171 -20.5 t138.5 -61.5t93 -101.5t33.5 -137.5h-184q-2 10 -10 38.5t-34 58.5t-74 53.5t-132 23.5q-37 0 -80 -10.5t-82 -35t-64.5 -65.5t-25.5 -102q0 -68 26.5 -112t68.5 -72.5t93.5 -49t100.5 -39.5q88 -35 169 -68.5t140.5 -81.5t95 -118t35.5 -178q0 -109 -41 -184.5t-107.5 -125 t-151.5 -72t-173 -22.5q-115 0 -202 28t-145 78t-89 117.5t-31 147.5zM450 1567l185 266h190l-215 -266h-160z" />
<glyph unicode="&#x15b;" horiz-adv-x="913" d="M86 248h184q2 -6 6.5 -27.5t22.5 -46t54 -43t102 -18.5q184 0 184 135q0 55 -39 87t-96.5 55.5t-126 47t-125.5 61.5t-96 99t-39 160q0 59 22.5 108t50.5 78q41 41 108 68.5t157 27.5q86 0 154.5 -21.5t115.5 -68.5q41 -41 58.5 -81t19.5 -87h-172q0 18 -10.5 41 t-31 41.5t-53 30.5t-81.5 12q-68 0 -113 -33.5t-45 -101.5q0 -59 39 -94t98.5 -59.5t128 -48t128 -59.5t98 -92.5t38.5 -146.5q0 -88 -32.5 -145t-86 -91t-118.5 -47.5t-133 -13.5q-63 0 -129 14.5t-120 46.5t-88 84t-34 128zM297 1178l185 266h190l-215 -266h-160z" />
<glyph unicode="&#x15c;" horiz-adv-x="1136" d="M98 342h189q0 -6 7 -42t34.5 -76t82 -71.5t152.5 -31.5q45 0 95.5 11t91.5 38t68.5 73t27.5 115q0 63 -24.5 105.5t-67.5 74t-103.5 56t-132.5 55.5q-59 25 -127.5 52.5t-127 73.5t-98.5 119t-40 183q0 109 41 181.5t105.5 115.5t140 61.5t147.5 18.5q92 0 171 -20.5 t138.5 -61.5t93 -101.5t33.5 -137.5h-184q-2 10 -10 38.5t-34 58.5t-74 53.5t-132 23.5q-37 0 -80 -10.5t-82 -35t-64.5 -65.5t-25.5 -102q0 -68 26.5 -112t68.5 -72.5t93.5 -49t100.5 -39.5q88 -35 169 -68.5t140.5 -81.5t95 -118t35.5 -178q0 -109 -41 -184.5t-107.5 -125 t-151.5 -72t-173 -22.5q-115 0 -202 28t-145 78t-89 117.5t-31 147.5zM231 1567l236 266h200l234 -266h-172l-164 186l-166 -186h-168z" />
<glyph unicode="&#x15d;" horiz-adv-x="913" d="M86 248h184q2 -6 6.5 -27.5t22.5 -46t54 -43t102 -18.5q184 0 184 135q0 55 -39 87t-96.5 55.5t-126 47t-125.5 61.5t-96 99t-39 160q0 59 22.5 108t50.5 78q41 41 108 68.5t157 27.5q86 0 154.5 -21.5t115.5 -68.5q41 -41 58.5 -81t19.5 -87h-172q0 18 -10.5 41 t-31 41.5t-53 30.5t-81.5 12q-68 0 -113 -33.5t-45 -101.5q0 -59 39 -94t98.5 -59.5t128 -48t128 -59.5t98 -92.5t38.5 -146.5q0 -88 -32.5 -145t-86 -91t-118.5 -47.5t-133 -13.5q-63 0 -129 14.5t-120 46.5t-88 84t-34 128zM121 1178l236 266h200l234 -266h-172l-164 186 l-166 -186h-168z" />
<glyph unicode="&#x15e;" horiz-adv-x="1136" d="M98 342h189q0 -6 7 -42t34.5 -76t82 -71.5t152.5 -31.5q45 0 95.5 11t91.5 38t68.5 73t27.5 115q0 63 -24.5 105.5t-67.5 74t-103.5 56t-132.5 55.5q-59 25 -127.5 52.5t-127 73.5t-98.5 119t-40 183q0 109 41 181.5t105.5 115.5t140 61.5t147.5 18.5q92 0 171 -20.5 t138.5 -61.5t93 -101.5t33.5 -137.5h-184q-2 10 -10 38.5t-34 58.5t-74 53.5t-132 23.5q-37 0 -80 -10.5t-82 -35t-64.5 -65.5t-25.5 -102q0 -68 26.5 -112t68.5 -72.5t93.5 -49t100.5 -39.5q88 -35 169 -68.5t140.5 -81.5t95 -118t35.5 -178q0 -106 -40 -182t-105.5 -125.5 t-149.5 -73t-172 -23.5l-14 -67q35 -2 66.5 -8.5t55 -21.5t38 -43t14.5 -73q0 -90 -53 -133t-131 -43q-66 0 -100.5 13.5t-51.5 23.5l31 76q10 -4 40 -15.5t71 -11.5q35 0 57 18.5t22 61.5q0 39 -33.5 62.5t-123.5 27.5l24 137q-190 18 -286.5 119t-98.5 248z" />
<glyph unicode="&#x15f;" horiz-adv-x="913" d="M86 248h184q2 -6 6.5 -27.5t22.5 -46t54 -43t102 -18.5q184 0 184 135q0 55 -39 87t-96.5 55.5t-126 47t-125.5 61.5t-96 99t-39 160q0 59 22.5 108t50.5 78q41 41 108 68.5t157 27.5q86 0 154.5 -21.5t115.5 -68.5q41 -41 58.5 -81t19.5 -87h-172q0 18 -10.5 41 t-31 41.5t-53 30.5t-81.5 12q-68 0 -113 -33.5t-45 -101.5q0 -59 39 -94t98.5 -59.5t128 -48t128 -59.5t98 -92.5t38.5 -146.5q0 -88 -31.5 -144t-84 -90t-118 -48.5t-132.5 -14.5l-15 -71q35 -2 67 -8.5t55.5 -21.5t38 -43t14.5 -73q0 -90 -53.5 -133t-131.5 -43 q-66 0 -100.5 13.5t-50.5 23.5l30 76q10 -4 40 -15.5t71 -11.5q35 0 57.5 18.5t22.5 61.5q0 39 -34 62.5t-124 27.5l27 144q-55 6 -106.5 24.5t-92.5 51t-65.5 78.5t-24.5 112z" />
<glyph unicode="&#x160;" horiz-adv-x="1136" d="M98 342h189q0 -6 7 -42t34.5 -76t82 -71.5t152.5 -31.5q45 0 95.5 11t91.5 38t68.5 73t27.5 115q0 63 -24.5 105.5t-67.5 74t-103.5 56t-132.5 55.5q-59 25 -127.5 52.5t-127 73.5t-98.5 119t-40 183q0 109 41 181.5t105.5 115.5t140 61.5t147.5 18.5q92 0 171 -20.5 t138.5 -61.5t93 -101.5t33.5 -137.5h-184q-2 10 -10 38.5t-34 58.5t-74 53.5t-132 23.5q-37 0 -80 -10.5t-82 -35t-64.5 -65.5t-25.5 -102q0 -68 26.5 -112t68.5 -72.5t93.5 -49t100.5 -39.5q88 -35 169 -68.5t140.5 -81.5t95 -118t35.5 -178q0 -109 -41 -184.5t-107.5 -125 t-151.5 -72t-173 -22.5q-115 0 -202 28t-145 78t-89 117.5t-31 147.5zM231 1833h172l164 -187l166 187h168l-236 -266h-200z" />
<glyph unicode="&#x161;" horiz-adv-x="913" d="M86 248h184q2 -6 6.5 -27.5t22.5 -46t54 -43t102 -18.5q184 0 184 135q0 55 -39 87t-96.5 55.5t-126 47t-125.5 61.5t-96 99t-39 160q0 59 22.5 108t50.5 78q41 41 108 68.5t157 27.5q86 0 154.5 -21.5t115.5 -68.5q41 -41 58.5 -81t19.5 -87h-172q0 18 -10.5 41 t-31 41.5t-53 30.5t-81.5 12q-68 0 -113 -33.5t-45 -101.5q0 -59 39 -94t98.5 -59.5t128 -48t128 -59.5t98 -92.5t38.5 -146.5q0 -88 -32.5 -145t-86 -91t-118.5 -47.5t-133 -13.5q-63 0 -129 14.5t-120 46.5t-88 84t-34 128zM121 1444h172l164 -187l166 187h168l-236 -266 h-200z" />
<glyph unicode="&#x162;" horiz-adv-x="1091" d="M45 1276v151h1002v-151h-410v-1276h-180v1276h-412zM391 -557l97 412h211l-164 -412h-144z" />
<glyph unicode="&#x163;" horiz-adv-x="688" d="M27 887v131h172v293h172v-293h272v-131h-272v-574q0 -53 6 -93t31 -64q29 -29 68.5 -35t74.5 -6q16 0 44 3t48 7v-127q-29 -8 -66 -15.5t-90 -7.5q-72 0 -128 16.5t-91 51.5q-27 27 -41 54.5t-20 58t-7 65.5t-1 78v588h-172zM210 -557l97 412h211l-164 -412h-144z" />
<glyph unicode="&#x164;" horiz-adv-x="1091" d="M45 1276v151h1002v-151h-410v-1276h-180v1276h-412zM209 1833h172l164 -187l166 187h168l-236 -266h-200z" />
<glyph unicode="&#x165;" horiz-adv-x="688" d="M27 887v131h172v293h172v-293h272v-131h-272v-574q0 -53 6 -93t31 -64q29 -29 68.5 -35t74.5 -6q16 0 44 3t48 7v-127q-29 -8 -66 -15.5t-90 -7.5q-72 0 -128 16.5t-91 51.5q-27 27 -41 54.5t-20 58t-7 65.5t-1 78v588h-172zM518 1159v452h176l-45 -452h-131z" />
<glyph unicode="&#x166;" horiz-adv-x="1091" d="M45 1276v151h1002v-151h-410v-471h283v-125h-283v-680h-180v680h-307v125h307v471h-412z" />
<glyph unicode="&#x167;" horiz-adv-x="688" d="M27 887v131h172v293h172v-293h272v-131h-272v-266h225v-125h-225v-183q0 -53 6 -93t31 -64q29 -29 68.5 -35t74.5 -6q16 0 44 3t48 7v-127q-29 -8 -66 -15.5t-90 -7.5q-72 0 -128 16.5t-91 51.5q-27 27 -41 54.5t-20 58t-7 65.5t-1 78v197h-148v125h148v266h-172z" />
<glyph unicode="&#x168;" horiz-adv-x="1376" d="M178 590v837h180v-843q0 -76 9.5 -157t43 -146.5t100.5 -108.5t179 -43q82 0 136.5 23.5t91.5 60.5t57 83t30.5 95t12.5 98.5t2 90.5v847h178v-837q0 -45 -2 -106.5t-14.5 -127t-38 -129t-74.5 -112.5q-23 -23 -53.5 -47.5t-75.5 -46t-105.5 -35t-142.5 -13.5 q-129 0 -222 37t-153 96q-49 49 -77.5 107.5t-42 121t-16.5 127t-3 128.5zM344 1583q2 113 41 176.5t125 63.5q53 0 99 -15.5t87 -35t76 -35t66 -15.5q33 0 52 14.5t28.5 34t11.5 39t2 27.5h102q-2 -117 -43 -182.5t-137 -65.5q-45 0 -92 16.5t-90 35t-81 35t-65 16.5 q-41 0 -58 -30t-21 -79h-103z" />
<glyph unicode="&#x169;" horiz-adv-x="1083" d="M135 338v680h172v-615q0 -45 4 -93t22.5 -88t55.5 -65.5t105 -25.5q92 0 145 40t81 103.5t36 140.5t8 148v455h172v-1018h-143l-13 170q-4 -10 -20.5 -41t-53 -63.5t-98 -59t-155.5 -26.5q-82 0 -141.5 25.5t-88.5 53.5q-51 51 -69.5 119t-18.5 160zM196 1194 q2 113 41 176.5t125 63.5q53 0 99 -15.5t87 -35t76 -35t66 -15.5q33 0 52 14.5t28.5 34t11.5 39t2 27.5h102q-2 -117 -43 -182.5t-137 -65.5q-45 0 -92 16.5t-90 35t-81 35t-65 16.5q-41 0 -58 -30t-21 -79h-103z" />
<glyph unicode="&#x16a;" horiz-adv-x="1376" d="M178 590v837h180v-843q0 -76 9.5 -157t43 -146.5t100.5 -108.5t179 -43q82 0 136.5 23.5t91.5 60.5t57 83t30.5 95t12.5 98.5t2 90.5v847h178v-837q0 -45 -2 -106.5t-14.5 -127t-38 -129t-74.5 -112.5q-23 -23 -53.5 -47.5t-75.5 -46t-105.5 -35t-142.5 -13.5 q-129 0 -222 37t-153 96q-49 49 -77.5 107.5t-42 121t-16.5 127t-3 128.5zM354 1663v125h647v-125h-647z" />
<glyph unicode="&#x16b;" horiz-adv-x="1083" d="M135 338v680h172v-615q0 -45 4 -93t22.5 -88t55.5 -65.5t105 -25.5q92 0 145 40t81 103.5t36 140.5t8 148v455h172v-1018h-143l-13 170q-4 -10 -20.5 -41t-53 -63.5t-98 -59t-155.5 -26.5q-82 0 -141.5 25.5t-88.5 53.5q-51 51 -69.5 119t-18.5 160zM207 1274v125h647 v-125h-647z" />
<glyph unicode="&#x16c;" horiz-adv-x="1376" d="M178 590v837h180v-843q0 -76 9.5 -157t43 -146.5t100.5 -108.5t179 -43q82 0 136.5 23.5t91.5 60.5t57 83t30.5 95t12.5 98.5t2 90.5v847h178v-837q0 -45 -2 -106.5t-14.5 -127t-38 -129t-74.5 -112.5q-23 -23 -53.5 -47.5t-75.5 -46t-105.5 -35t-142.5 -13.5 q-129 0 -222 37t-153 96q-49 49 -77.5 107.5t-42 121t-16.5 127t-3 128.5zM356 1843h135q0 -59 19.5 -96t49.5 -57.5t63.5 -28.5t62.5 -8t62.5 8t63.5 28.5t49.5 57.5t19.5 96h135q-4 -147 -86 -232t-244 -85t-244 85t-86 232z" />
<glyph unicode="&#x16d;" horiz-adv-x="1083" d="M135 338v680h172v-615q0 -45 4 -93t22.5 -88t55.5 -65.5t105 -25.5q92 0 145 40t81 103.5t36 140.5t8 148v455h172v-1018h-143l-13 170q-4 -10 -20.5 -41t-53 -63.5t-98 -59t-155.5 -26.5q-82 0 -141.5 25.5t-88.5 53.5q-51 51 -69.5 119t-18.5 160zM209 1454h135 q0 -59 19.5 -96t49.5 -57.5t63.5 -28.5t62.5 -8t62.5 8t63.5 28.5t49.5 57.5t19.5 96h135q-4 -147 -86 -232t-244 -85t-244 85t-86 232z" />
<glyph unicode="&#x16e;" horiz-adv-x="1376" d="M178 590v837h180v-843q0 -76 9.5 -157t43 -146.5t100.5 -108.5t179 -43q82 0 136.5 23.5t91.5 60.5t57 83t30.5 95t12.5 98.5t2 90.5v847h178v-837q0 -45 -2 -106.5t-14.5 -127t-38 -129t-74.5 -112.5q-23 -23 -53.5 -47.5t-75.5 -46t-105.5 -35t-142.5 -13.5 q-129 0 -222 37t-153 96q-49 49 -77.5 107.5t-42 121t-16.5 127t-3 128.5zM481 1755q0 43 16.5 79t44 62.5t63.5 42t77 15.5q82 0 140 -56.5t58 -142.5q0 -43 -15 -80t-42 -63.5t-63.5 -42t-77.5 -15.5q-84 0 -142.5 57.5t-58.5 143.5zM577 1755q0 -47 31 -76.5t74 -29.5 t73.5 28.5t30.5 77.5q0 47 -30.5 77t-73.5 30t-74 -30t-31 -77z" />
<glyph unicode="&#x16f;" horiz-adv-x="1083" d="M135 338v680h172v-615q0 -45 4 -93t22.5 -88t55.5 -65.5t105 -25.5q92 0 145 40t81 103.5t36 140.5t8 148v455h172v-1018h-143l-13 170q-4 -10 -20.5 -41t-53 -63.5t-98 -59t-155.5 -26.5q-82 0 -141.5 25.5t-88.5 53.5q-51 51 -69.5 119t-18.5 160zM334 1366 q0 43 16.5 79t44 62.5t63.5 42t77 15.5q82 0 140 -56.5t58 -142.5q0 -43 -15 -80t-42 -63.5t-63.5 -42t-77.5 -15.5q-84 0 -142.5 57.5t-58.5 143.5zM430 1366q0 -47 31 -76.5t74 -29.5t73.5 28.5t30.5 77.5q0 47 -30.5 77t-73.5 30t-74 -30t-31 -77z" />
<glyph unicode="&#x170;" horiz-adv-x="1376" d="M178 590v837h180v-843q0 -76 9.5 -157t43 -146.5t100.5 -108.5t179 -43q82 0 136.5 23.5t91.5 60.5t57 83t30.5 95t12.5 98.5t2 90.5v847h178v-837q0 -45 -2 -106.5t-14.5 -127t-38 -129t-74.5 -112.5q-23 -23 -53.5 -47.5t-75.5 -46t-105.5 -35t-142.5 -13.5 q-129 0 -222 37t-153 96q-49 49 -77.5 107.5t-42 121t-16.5 127t-3 128.5zM414 1597l166 269h172l-199 -269h-139zM697 1597l166 269h172l-199 -269h-139z" />
<glyph unicode="&#x171;" horiz-adv-x="1083" d="M135 338v680h172v-615q0 -45 4 -93t22.5 -88t55.5 -65.5t105 -25.5q92 0 145 40t81 103.5t36 140.5t8 148v455h172v-1018h-143l-13 170q-4 -10 -20.5 -41t-53 -63.5t-98 -59t-155.5 -26.5q-82 0 -141.5 25.5t-88.5 53.5q-51 51 -69.5 119t-18.5 160zM266 1208l166 269 h172l-199 -269h-139zM549 1208l166 269h172l-199 -269h-139z" />
<glyph unicode="&#x172;" horiz-adv-x="1376" d="M178 590v837h180v-843q0 -76 9.5 -157t43 -146.5t100.5 -108.5t179 -43q82 0 136.5 23.5t91.5 60.5t57 83t30.5 95t12.5 98.5t2 90.5v847h178v-837q0 -45 -2 -106.5t-14.5 -127t-38 -129t-74.5 -112.5q-39 -39 -102.5 -79t-180.5 -56q-18 -16 -39.5 -38t-40 -46.5 t-30.5 -51t-12 -57.5q0 -70 38.5 -93.5t85.5 -23.5q41 0 77 17.5t44 21.5l37 -76q-23 -14 -65.5 -32.5t-114.5 -18.5q-88 0 -148.5 56.5t-60.5 148.5q0 68 36 113t71 73q-117 4 -203 40t-144 93q-49 49 -77.5 107.5t-42 121t-16.5 127t-3 128.5z" />
<glyph unicode="&#x173;" horiz-adv-x="1083" d="M135 338v680h172v-615q0 -45 4 -93t22.5 -88t55.5 -65.5t105 -25.5q92 0 145 40t81 103.5t36 140.5t8 148v455h172v-1018h-31q-18 -14 -43.5 -36.5t-49.5 -51.5t-39 -60.5t-15 -64.5q0 -70 39 -93.5t86 -23.5q41 0 76.5 17.5t44.5 21.5l36 -76q-23 -14 -65.5 -32.5 t-114.5 -18.5q-88 0 -148.5 56.5t-60.5 148.5q0 43 16.5 78t40 60.5t47 44t38.5 30.5l-13 170q-4 -10 -20.5 -41t-53 -63.5t-98 -59t-155.5 -26.5q-82 0 -141.5 25.5t-88.5 53.5q-51 51 -69.5 119t-18.5 160z" />
<glyph unicode="&#x174;" horiz-adv-x="1759" d="M16 1427h191l262 -1185l305 1185h211l307 -1185l264 1185h187l-340 -1427h-223l-306 1192l-301 -1192h-223zM542 1567l236 266h200l234 -266h-172l-164 186l-166 -186h-168z" />
<glyph unicode="&#x175;" horiz-adv-x="1413" d="M23 1018h174l209 -830l215 830h174l225 -830l199 830h172l-256 -1018h-222l-213 766l-190 -766h-221zM370 1178l236 266h200l234 -266h-172l-164 186l-166 -186h-168z" />
<glyph unicode="&#x176;" horiz-adv-x="1011" d="M-23 1427h203l336 -704l332 704h186l-434 -876v-551h-180v551zM170 1567l236 266h200l234 -266h-172l-164 186l-166 -186h-168z" />
<glyph unicode="&#x177;" horiz-adv-x="940" d="M8 1018h182l289 -776l281 776h172l-434 -1157q-23 -63 -48.5 -105.5t-52.5 -68.5q-20 -20 -66 -47t-130 -27q-43 0 -77 5t-50 9v125q14 -2 37.5 -6t58.5 -4q66 0 104.5 41t67.5 125l45 129zM137 1178l236 266h200l234 -266h-172l-164 186l-166 -186h-168z" />
<glyph unicode="&#x178;" horiz-adv-x="1011" d="M-23 1427h203l336 -704l332 704h186l-434 -876v-551h-180v551zM215 1599v195h195v-195h-195zM610 1599v195h195v-195h-195z" />
<glyph unicode="&#x179;" horiz-adv-x="1060" d="M49 0v129l725 1147h-686v151h909v-131l-718 -1140h733v-156h-963zM432 1567l185 266h190l-215 -266h-160z" />
<glyph unicode="&#x17a;" horiz-adv-x="882" d="M68 0v123l532 764h-510v131h717v-115l-533 -766h545v-137h-751zM321 1178l185 266h190l-215 -266h-160z" />
<glyph unicode="&#x17b;" horiz-adv-x="1060" d="M49 0v129l725 1147h-686v151h909v-131l-718 -1140h733v-156h-963zM442 1599v195h195v-195h-195z" />
<glyph unicode="&#x17c;" horiz-adv-x="882" d="M68 0v123l532 764h-510v131h717v-115l-533 -766h545v-137h-751zM352 1210v195h195v-195h-195z" />
<glyph unicode="&#x17d;" horiz-adv-x="1060" d="M49 0v129l725 1147h-686v151h909v-131l-718 -1140h733v-156h-963zM194 1833h172l164 -187l166 187h168l-236 -266h-200z" />
<glyph unicode="&#x17e;" horiz-adv-x="882" d="M68 0v123l532 764h-510v131h717v-115l-533 -766h545v-137h-751zM104 1444h172l164 -187l166 187h168l-236 -266h-200z" />
<glyph unicode="&#x17f;" horiz-adv-x="669" d="M201 0v1145q0 51 2 88t9 64.5t20.5 50t35.5 45.5q72 72 228 71q51 0 95 -11t56 -15v-125q-12 4 -44 9t-58 5q-41 0 -76 -8t-61 -35q-23 -23 -29 -64.5t-6 -95.5v-1124h-172z" />
<glyph unicode="&#x192;" d="M123 -389l20 133q6 -2 17.5 -2h17.5q20 0 56 7t73 44q20 20 35.5 51t25 63t14.5 63.5t9 54.5l115 725h-189v131h205l35 194q12 63 21.5 110.5t20.5 81t26.5 59.5t38.5 48q41 41 96 60.5t114 19.5q61 0 89 -7t32 -9l-26 -117q-6 2 -22.5 3t-24.5 1q-51 0 -83 -15.5 t-50.5 -43t-28.5 -64.5t-19 -80l-43 -241h195v-131h-209l-88 -527q-12 -70 -24.5 -148.5t-31 -152.5t-43 -136t-59.5 -97q-29 -29 -79 -57.5t-146 -28.5q-33 0 -56.5 3t-33.5 5z" />
<glyph unicode="&#x218;" horiz-adv-x="1136" d="M98 342h189q0 -6 7 -42t34.5 -76t82 -71.5t152.5 -31.5q45 0 95.5 11t91.5 38t68.5 73t27.5 115q0 63 -24.5 105.5t-67.5 74t-103.5 56t-132.5 55.5q-59 25 -127.5 52.5t-127 73.5t-98.5 119t-40 183q0 109 41 181.5t105.5 115.5t140 61.5t147.5 18.5q92 0 171 -20.5 t138.5 -61.5t93 -101.5t33.5 -137.5h-184q-2 10 -10 38.5t-34 58.5t-74 53.5t-132 23.5q-37 0 -80 -10.5t-82 -35t-64.5 -65.5t-25.5 -102q0 -68 26.5 -112t68.5 -72.5t93.5 -49t100.5 -39.5q88 -35 169 -68.5t140.5 -81.5t95 -118t35.5 -178q0 -109 -41 -184.5t-107.5 -125 t-151.5 -72t-173 -22.5q-115 0 -202 28t-145 78t-89 117.5t-31 147.5zM393 -557l97 412h211l-164 -412h-144z" />
<glyph unicode="&#x219;" horiz-adv-x="913" d="M86 248h184q2 -6 6.5 -27.5t22.5 -46t54 -43t102 -18.5q184 0 184 135q0 55 -39 87t-96.5 55.5t-126 47t-125.5 61.5t-96 99t-39 160q0 59 22.5 108t50.5 78q41 41 108 68.5t157 27.5q86 0 154.5 -21.5t115.5 -68.5q41 -41 58.5 -81t19.5 -87h-172q0 18 -10.5 41 t-31 41.5t-53 30.5t-81.5 12q-68 0 -113 -33.5t-45 -101.5q0 -59 39 -94t98.5 -59.5t128 -48t128 -59.5t98 -92.5t38.5 -146.5q0 -88 -32.5 -145t-86 -91t-118.5 -47.5t-133 -13.5q-63 0 -129 14.5t-120 46.5t-88 84t-34 128zM282 -557l97 412h211l-164 -412h-144z" />
<glyph unicode="&#x21a;" horiz-adv-x="1091" d="M45 1276v151h1002v-151h-410v-1276h-180v1276h-412zM350 -557l97 412h211l-164 -412h-144z" />
<glyph unicode="&#x21b;" horiz-adv-x="688" d="M27 887v131h172v293h172v-293h272v-131h-272v-574q0 -53 6 -93t31 -64q29 -29 68.5 -35t74.5 -6q16 0 44 3t48 7v-127q-29 -8 -66 -15.5t-90 -7.5q-72 0 -128 16.5t-91 51.5q-27 27 -41 54.5t-20 58t-7 65.5t-1 78v588h-172zM210 -557l97 412h211l-164 -412h-144z" />
<glyph unicode="&#x237;" horiz-adv-x="528" d="M-29 -225q12 -2 27 -4q12 -2 25.5 -3t29.5 -1q51 0 83 13t47.5 38.5t20.5 62.5t5 84v1053h172v-1063q0 -96 -11.5 -154.5t-54.5 -101.5q-37 -37 -84.5 -54.5t-121.5 -17.5q-53 0 -84 7.5t-54 13.5v127z" />
<glyph unicode="&#x2bc;" horiz-adv-x="593" d="M115 987l98 440h199l-154 -440h-143z" />
<glyph unicode="&#x2c6;" horiz-adv-x="778" d="M53 1178l236 266h200l234 -266h-172l-164 186l-166 -186h-168z" />
<glyph unicode="&#x2c7;" horiz-adv-x="778" d="M53 1444h172l164 -187l166 187h168l-236 -266h-200z" />
<glyph unicode="&#x2c9;" horiz-adv-x="765" d="M49 1274v125h647v-125h-647z" />
<glyph unicode="&#x2d8;" horiz-adv-x="776" d="M55 1454h135q0 -59 19.5 -96t49.5 -57.5t63.5 -28.5t62.5 -8t62.5 8t63.5 28.5t49.5 57.5t19.5 96h135q-4 -147 -86 -232t-244 -85t-244 85t-86 232z" />
<glyph unicode="&#x2d9;" horiz-adv-x="305" d="M63 1210v195h195v-195h-195z" />
<glyph unicode="&#x2da;" horiz-adv-x="583" d="M84 1366q0 43 16.5 79t44 62.5t63.5 42t77 15.5q82 0 140 -56.5t58 -142.5q0 -43 -15 -80t-42 -63.5t-63.5 -42t-77.5 -15.5q-84 0 -142.5 57.5t-58.5 143.5zM180 1366q0 -47 31 -76.5t74 -29.5t73.5 28.5t30.5 77.5q0 47 -30.5 77t-73.5 30t-74 -30t-31 -77z" />
<glyph unicode="&#x2db;" horiz-adv-x="555" d="M84 -213q0 43 17.5 78t40 61.5t47 45t38.5 30.5h115q-16 -14 -42 -35.5t-50.5 -50.5t-42 -61.5t-17.5 -67.5q0 -70 39 -93.5t86 -23.5q41 0 77 17.5t44 21.5l37 -76q-23 -14 -65.5 -32.5t-114.5 -18.5q-88 0 -148.5 56.5t-60.5 148.5z" />
<glyph unicode="&#x2dc;" horiz-adv-x="788" d="M49 1194q2 113 41 176.5t125 63.5q53 0 99 -15.5t87 -35t76 -35t66 -15.5q33 0 52 14.5t28.5 34t11.5 39t2 27.5h102q-2 -117 -43 -182.5t-137 -65.5q-45 0 -92 16.5t-90 35t-81 35t-65 16.5q-41 0 -58 -30t-21 -79h-103z" />
<glyph unicode="&#x2dd;" horiz-adv-x="681" d="M45 1208l166 269h172l-199 -269h-139zM328 1208l166 269h172l-199 -269h-139z" />
<glyph unicode="&#x3c0;" horiz-adv-x="1089" d="M31 887v131h1018v-131h-158v-615q0 -27 2 -53t12 -46.5t29.5 -34t54.5 -13.5q18 0 33.5 2t26.5 4v-119q-12 -4 -46.5 -14t-93.5 -10q-66 0 -103.5 21.5t-57 55t-24.5 72.5t-5 76v674h-359v-887h-172v887h-157z" />
<glyph unicode="&#x1e80;" horiz-adv-x="1759" d="M16 1427h191l262 -1185l305 1185h211l307 -1185l264 1185h187l-340 -1427h-223l-306 1192l-301 -1192h-223zM665 1833h191l184 -266h-160z" />
<glyph unicode="&#x1e81;" horiz-adv-x="1413" d="M23 1018h174l209 -830l215 830h174l225 -830l199 830h172l-256 -1018h-222l-213 766l-190 -766h-221zM493 1444h191l184 -266h-160z" />
<glyph unicode="&#x1e82;" horiz-adv-x="1759" d="M16 1427h191l262 -1185l305 1185h211l307 -1185l264 1185h187l-340 -1427h-223l-306 1192l-301 -1192h-223zM636 1567l185 266h190l-215 -266h-160z" />
<glyph unicode="&#x1e83;" horiz-adv-x="1413" d="M23 1018h174l209 -830l215 830h174l225 -830l199 830h172l-256 -1018h-222l-213 766l-190 -766h-221zM464 1178l185 266h190l-215 -266h-160z" />
<glyph unicode="&#x1e84;" horiz-adv-x="1759" d="M16 1427h191l262 -1185l305 1185h211l307 -1185l264 1185h187l-340 -1427h-223l-306 1192l-301 -1192h-223zM567 1599v195h195v-195h-195zM962 1599v195h195v-195h-195z" />
<glyph unicode="&#x1e85;" horiz-adv-x="1413" d="M23 1018h174l209 -830l215 830h174l225 -830l199 830h172l-256 -1018h-222l-213 766l-190 -766h-221zM395 1210v195h195v-195h-195zM790 1210v195h195v-195h-195z" />
<glyph unicode="&#x1ef2;" horiz-adv-x="1011" d="M-23 1427h203l336 -704l332 704h186l-434 -876v-551h-180v551zM293 1833h191l184 -266h-160z" />
<glyph unicode="&#x1ef3;" horiz-adv-x="940" d="M8 1018h182l289 -776l281 776h172l-434 -1157q-23 -63 -48.5 -105.5t-52.5 -68.5q-20 -20 -66 -47t-130 -27q-43 0 -77 5t-50 9v125q14 -2 37.5 -6t58.5 -4q66 0 104.5 41t67.5 125l45 129zM256 1444h191l184 -266h-160z" />
<glyph unicode="&#x2013;" horiz-adv-x="950" d="M39 582v153h872v-153h-872z" />
<glyph unicode="&#x2014;" horiz-adv-x="1716" d="M39 582v153h1638v-153h-1638z" />
<glyph unicode="&#x2018;" horiz-adv-x="593" d="M182 987l154 440h143l-98 -440h-199z" />
<glyph unicode="&#x2019;" horiz-adv-x="593" d="M115 987l98 440h199l-154 -440h-143z" />
<glyph unicode="&#x201a;" horiz-adv-x="593" d="M115 -178l98 440h199l-154 -440h-143z" />
<glyph unicode="&#x201c;" horiz-adv-x="944" d="M182 987l154 440h143l-98 -440h-199zM532 987l154 440h143l-98 -440h-199z" />
<glyph unicode="&#x201d;" horiz-adv-x="944" d="M115 987l98 440h199l-154 -440h-143zM465 987l98 440h199l-154 -440h-143z" />
<glyph unicode="&#x201e;" horiz-adv-x="944" d="M115 -178l98 440h199l-154 -440h-143zM465 -178l98 440h199l-154 -440h-143z" />
<glyph unicode="&#x2020;" d="M127 868v150h346l-10 448h190l-10 -448h346v-150h-350l-8 -1114h-146l-8 1114h-350z" />
<glyph unicode="&#x2021;" d="M127 868v150h346l-10 448h190l-10 -448h348v-150h-352l-4 -325h336v-150h-338l-4 -639h-142l-4 639h-336v150h334l-4 325h-350z" />
<glyph unicode="&#x2022;" d="M309 741q0 51 19.5 96.5t53.5 79t80 53t97 19.5t96 -19.5t79 -53t53.5 -78.5t19.5 -97q0 -51 -19.5 -97t-53.5 -80t-79 -53t-96 -19t-97 19t-80 53t-53.5 80t-19.5 97z" />
<glyph unicode="&#x2026;" horiz-adv-x="1814" d="M186 0v201h201v-201h-201zM807 0v201h201v-201h-201zM1427 0v201h201v-201h-201z" />
<glyph unicode="&#x2030;" horiz-adv-x="2205" d="M111 1071q0 80 14 147.5t45 116.5t81 78t122 29q76 0 126 -31t79.5 -83t42 -118.5t12.5 -140.5q0 -78 -13.5 -146.5t-44 -120.5t-80.5 -82t-124 -30q-80 0 -130.5 35t-80 89t-39.5 122t-10 135zM240 1059q0 -47 5 -94t18 -84t39 -60.5t69 -23.5t69.5 21.5t40 57t18.5 84 t5 101.5t-4 103t-17.5 88t-39 61.5t-68.5 23.5q-45 0 -72 -22.5t-41 -60t-18 -89t-4 -106.5zM385 0l696 1466h127l-696 -1466h-127zM940 358q0 80 14.5 147.5t45 117t80.5 78t122 28.5q76 0 126 -30.5t80 -83t42 -119t12 -140.5q0 -78 -13 -146.5t-44 -120.5t-81 -82 t-124 -30q-80 0 -130 35t-79.5 89.5t-40 122t-10.5 134.5zM1069 346q0 -47 5 -94t18.5 -84t39 -60.5t68.5 -23.5t69.5 21.5t40 57.5t18.5 84t5 101t-4 103.5t-17.5 88.5t-39 61.5t-68.5 23.5q-45 0 -71.5 -22.5t-41 -60.5t-18.5 -89.5t-4 -106.5zM1573 358q0 80 14.5 147.5 t45 117t80.5 78t122 28.5q76 0 126 -30.5t80 -83t42 -119t12 -140.5q0 -78 -13.5 -146.5t-44 -120.5t-80.5 -82t-124 -30q-80 0 -130 35t-80 89.5t-40 122t-10 134.5zM1702 346q0 -47 5 -94t18.5 -84t39 -60.5t68.5 -23.5t69.5 21.5t40 57.5t18.5 84t5 101t-4 103.5 t-17.5 88.5t-39 61.5t-68.5 23.5q-45 0 -71.5 -22.5t-41 -60.5t-18.5 -89.5t-4 -106.5z" />
<glyph unicode="&#x2039;" horiz-adv-x="563" d="M80 526l231 369h172l-239 -369l239 -372h-172z" />
<glyph unicode="&#x203a;" horiz-adv-x="563" d="M80 154l239 372l-239 369h172l231 -369l-231 -372h-172z" />
<glyph unicode="&#x2044;" horiz-adv-x="471" d="M-182 0l696 1466h127l-696 -1466h-127z" />
<glyph unicode="&#x2070;" horiz-adv-x="796" d="M137 1063q0 82 17.5 150.5t51.5 117.5t83 77t110 28q70 0 119 -30t81 -81t46 -118.5t14 -143.5q0 -82 -17 -151.5t-51 -121t-83.5 -81t-110.5 -29.5q-72 0 -122 34t-80.5 88t-44 122.5t-13.5 138.5zM256 1053q0 -45 6 -93.5t21.5 -89.5t43 -67.5t70.5 -26.5t71 24.5 t44 64.5t22.5 90.5t6.5 99.5t-6.5 100t-22.5 92t-43 66.5t-68 25.5q-43 0 -70.5 -24.5t-45 -65.5t-23.5 -92t-6 -104z" />
<glyph unicode="&#x2074;" horiz-adv-x="796" d="M125 838v86l352 497h101v-487h92v-96h-92v-144h-113v144h-340zM233 934h232v334z" />
<glyph unicode="&#x2075;" horiz-adv-x="796" d="M160 860h98q0 -6 4 -20.5t16.5 -29.5t35 -27.5t63.5 -12.5q68 0 104.5 40t36.5 112t-40 112.5t-93 40.5q-59 0 -90 -24.5t-45 -34.5l-66 28l13 377h387v-96h-295l-8 -211q10 14 40.5 31.5t90.5 17.5q117 0 170 -66.5t53 -170.5q0 -63 -21.5 -109.5t-57.5 -77t-83 -45 t-96 -14.5q-88 0 -151.5 48t-65.5 132z" />
<glyph unicode="&#x2076;" horiz-adv-x="796" d="M145 1044q0 68 11.5 137.5t40 126t81 92.5t134.5 36q37 0 73.5 -11.5t66.5 -33t49.5 -52t21.5 -67.5h-103q-2 6 -6 18.5t-15.5 26.5t-33 24.5t-59.5 10.5q-49 0 -80 -29t-47.5 -72t-23.5 -94t-7 -96q2 6 14 23.5t33.5 35t52.5 30.5t74 13q111 0 169 -61.5t58 -171.5 q0 -113 -65.5 -181.5t-180.5 -68.5q-80 0 -131 31.5t-78.5 84t-38 117t-10.5 131.5zM266 922q0 -66 27.5 -111t107.5 -45t107 43t27 115q0 66 -26 110.5t-106 44.5t-108.5 -43t-28.5 -114z" />
<glyph unicode="&#x2077;" horiz-adv-x="796" d="M168 1325v96h459v-90l-269 -637h-114l268 631h-344z" />
<glyph unicode="&#x2078;" horiz-adv-x="796" d="M156 891q0 59 19.5 95t45 56.5t49 27.5t29.5 9q-4 0 -23.5 7.5t-42 25.5t-40 51t-17.5 84q0 55 21.5 92t55.5 58.5t73 30t73 8.5q41 0 82 -9.5t73 -32t51.5 -58.5t19.5 -89q0 -57 -19.5 -91t-42 -50t-42 -21.5t-21.5 -5.5q8 -2 31.5 -10t48 -27.5t43 -55.5t18.5 -95 q0 -106 -69 -158.5t-173 -52.5t-173.5 52t-69.5 159zM258 895q0 -68 40 -100.5t99 -32.5t100.5 32.5t41.5 100.5q0 70 -39 104.5t-103 34.5q-59 0 -99 -35.5t-40 -103.5zM276 1239q0 -59 35 -91t88 -32t89 34t36 89q0 61 -35.5 91t-89.5 30q-53 0 -88 -31t-35 -90z" />
<glyph unicode="&#x2079;" horiz-adv-x="796" d="M152 1188q0 113 58 180.5t173 67.5q80 0 130 -29t80 -78t41 -115.5t11 -142.5q0 -78 -12 -147.5t-43 -124t-83 -86t-130 -31.5q-94 0 -150.5 50t-58.5 116h94q0 -4 5 -17.5t18.5 -28t36 -25.5t59.5 -11q51 0 81 24.5t46 61.5t21.5 81t5.5 83q-4 -6 -13.5 -18.5t-29 -24.5 t-50 -21.5t-75.5 -9.5q-109 0 -162 69.5t-53 176.5zM258 1194q0 -68 27.5 -119t99.5 -51t104.5 49t32.5 123q0 66 -32.5 111t-102.5 45t-99.5 -45t-29.5 -113z" />
<glyph unicode="&#x2080;" horiz-adv-x="796" d="M137 365q0 82 17.5 150.5t51.5 117.5t83 77t110 28q70 0 119 -30t81 -81t46 -118.5t14 -143.5q0 -82 -17 -151.5t-51 -121t-83.5 -81t-110.5 -29.5q-72 0 -122 34t-80.5 88t-44 122.5t-13.5 138.5zM256 355q0 -45 6 -93.5t21.5 -89.5t43 -67.5t70.5 -26.5t71 24.5 t44 64.5t22.5 90.5t6.5 99.5t-6.5 100t-22.5 92t-43 66.5t-68 25.5q-43 0 -70.5 -24.5t-45 -65.5t-23.5 -92t-6 -104z" />
<glyph unicode="&#x2081;" horiz-adv-x="698" d="M180 506v109l174 114h90v-727h-112v603z" />
<glyph unicode="&#x2082;" horiz-adv-x="798" d="M172 -4v27q0 59 20.5 107.5t53.5 88t73.5 74.5t79.5 72q35 33 70 75t35 95q0 109 -105 108q-41 0 -68.5 -17t-37.5 -54q-4 -8 -4 -17.5t-2 -17.5h-115q2 55 22.5 93t53.5 62.5t73.5 35t81.5 10.5q92 0 155 -51.5t63 -151.5q0 -61 -28 -110.5t-69 -91.5t-87 -80t-83 -77 q-37 -37 -51 -79h322v-101h-453z" />
<glyph unicode="&#x2083;" horiz-adv-x="796" d="M166 179h113q6 -37 29.5 -67t80.5 -30t94 32t37 93q0 39 -13 63.5t-32.5 37t-44 16.5t-47.5 4h-45v94h39q16 0 38.5 2t44 14.5t36 37t14.5 67.5q0 53 -29.5 81t-79.5 28q-33 0 -53 -13.5t-32.5 -32t-18.5 -37t-8 -28.5h-113q2 102 64.5 152.5t154.5 50.5q43 0 83 -10.5 t71 -34t50 -59t19 -85.5q0 -53 -13 -85.5t-31.5 -52t-38 -28t-33.5 -10.5q10 -2 32.5 -8t44 -25.5t38 -53.5t16.5 -91q0 -98 -68 -155.5t-172 -57.5q-51 0 -98 15.5t-80 48.5q-29 29 -39 62.5t-10 64.5z" />
<glyph unicode="&#x2084;" horiz-adv-x="796" d="M125 140v86l352 497h101v-487h92v-96h-92v-144h-113v144h-340zM233 236h232v334z" />
<glyph unicode="&#x2085;" horiz-adv-x="796" d="M160 162h98q0 -6 4 -20.5t16.5 -29.5t35 -27.5t63.5 -12.5q68 0 104.5 40t36.5 112t-40 112.5t-93 40.5q-59 0 -90 -24.5t-45 -34.5l-66 28l13 377h387v-96h-295l-8 -211q10 14 40.5 31.5t90.5 17.5q117 0 170 -66.5t53 -170.5q0 -63 -21.5 -109.5t-57.5 -77t-83 -45 t-96 -14.5q-88 0 -151.5 48t-65.5 132z" />
<glyph unicode="&#x2086;" horiz-adv-x="796" d="M145 346q0 68 11.5 137.5t40 126t81 92.5t134.5 36q37 0 73.5 -11.5t66.5 -33t49.5 -52t21.5 -67.5h-103q-2 6 -6 18.5t-15.5 26.5t-33 24.5t-59.5 10.5q-49 0 -80 -29t-47.5 -72t-23.5 -94t-7 -96q2 6 14 23.5t33.5 35t52.5 30.5t74 13q111 0 169 -61.5t58 -171.5 q0 -113 -65.5 -181.5t-180.5 -68.5q-80 0 -131 31.5t-78.5 84t-38 117t-10.5 131.5zM266 224q0 -66 27.5 -111t107.5 -45t107 43t27 115q0 66 -26 110.5t-106 44.5t-108.5 -43t-28.5 -114z" />
<glyph unicode="&#x2087;" horiz-adv-x="796" d="M168 627v96h459v-90l-269 -637h-114l268 631h-344z" />
<glyph unicode="&#x2088;" horiz-adv-x="796" d="M156 193q0 59 19.5 95t45 56.5t49 27.5t29.5 9q-4 0 -23.5 7.5t-42 25.5t-40 51t-17.5 84q0 55 21.5 92t55.5 58.5t73 30t73 8.5q41 0 82 -9.5t73 -32t51.5 -58.5t19.5 -89q0 -57 -19.5 -91t-42 -50t-42 -21.5t-21.5 -5.5q8 -2 31.5 -10t48 -27.5t43 -55.5t18.5 -95 q0 -106 -69 -158.5t-173 -52.5t-173.5 52t-69.5 159zM258 197q0 -68 40 -100.5t99 -32.5t100.5 32.5t41.5 100.5q0 70 -39 104.5t-103 34.5q-59 0 -99 -35.5t-40 -103.5zM276 541q0 -59 35 -91t88 -32t89 34t36 89q0 61 -35.5 91t-89.5 30q-53 0 -88 -31t-35 -90z" />
<glyph unicode="&#x2089;" horiz-adv-x="796" d="M152 490q0 113 58 180.5t173 67.5q80 0 130 -29t80 -78t41 -115.5t11 -142.5q0 -78 -12 -147.5t-43 -124t-83 -86t-130 -31.5q-94 0 -150.5 50t-58.5 116h94q0 -4 5 -17.5t18.5 -28t36 -25.5t59.5 -11q51 0 81 24.5t46 61.5t21.5 81t5.5 83q-4 -6 -13.5 -18.5t-29 -24.5 t-50 -21.5t-75.5 -9.5q-109 0 -162 69.5t-53 176.5zM258 496q0 -68 27.5 -119t99.5 -51t104.5 49t32.5 123q0 66 -32.5 111t-102.5 45t-99.5 -45t-29.5 -113z" />
<glyph unicode="&#x20ac;" d="M14 487v144h146q-2 12 -2 32.5v38.5v36t2 34h-146v143h160q2 18 8 65.5t23.5 107t50.5 125t87 118.5t133 88t190 35q135 0 217 -44t127 -104.5t60 -120t15 -89.5h-176q-4 18 -11 54t-31.5 73t-71.5 64.5t-129 27.5q-102 0 -162 -49t-92.5 -116t-43 -133.5t-14.5 -101.5 h369v-143h-383q-2 -16 -3 -34.5t-1 -35.5q0 -20 1 -36.5t3 -34.5h383v-144h-369q0 -23 8.5 -84t40 -125.5t95 -114.5t176.5 -50q80 0 127 25.5t73.5 60t37 67.5t14.5 49h178q0 -10 -5 -39.5t-19.5 -68.5t-42 -80t-75 -76t-118 -57.5t-170.5 -22.5q-115 0 -197 33t-138 82 t-88 110.5t-49.5 119t-23.5 103.5t-6 68h-158z" />
<glyph unicode="&#x2113;" horiz-adv-x="933" d="M61 342q39 27 76 56.5t74 62.5v434q0 145 19.5 244.5t57.5 160t92 87t126 26.5q104 0 171.5 -76.5t67.5 -218.5q0 -186 -98 -353t-278 -335v-41q0 -84 12 -136t33.5 -81t51.5 -40t64 -11q66 0 126.5 33.5t93.5 81.5q20 -20 39.5 -40t41.5 -38q-55 -82 -134 -129t-185 -47 q-143 0 -221 80.5t-78 261.5q-27 -20 -50.5 -37t-49.5 -35q-10 23 -23.5 45t-28.5 45zM369 592q111 123 175 253t64 271q0 98 -32.5 138t-77.5 40q-53 0 -91 -67.5t-38 -222.5v-412z" />
<glyph unicode="&#x2122;" horiz-adv-x="1835" d="M193 1319v108h534v-108h-207v-651h-121v651h-206zM854 668v759h166l199 -587l196 587h166v-759h-117v569l-190 -569h-115l-188 569v-569h-117z" />
<glyph unicode="&#x2126;" horiz-adv-x="1583" d="M135 0v150h320q-2 2 -27 13t-57.5 36.5t-71.5 69.5t-71.5 108.5t-54 155t-21.5 208.5q0 160 45 291t127 224.5t196.5 145.5t253.5 52t254 -52t197 -145.5t127 -224.5t45 -291q0 -162 -44 -273.5t-99.5 -180t-104.5 -101t-57 -36.5h321v-150h-495v133q4 0 51 28.5 t102 97.5t100.5 182.5t45.5 285.5q0 137 -32 244.5t-90.5 181.5t-139.5 113t-181 39t-181 -39t-139.5 -113t-90 -181.5t-31.5 -244.5q0 -119 21.5 -209t53 -155.5t69.5 -108.5t72 -69.5t56.5 -38t26.5 -13.5v-133h-496z" />
<glyph unicode="&#x212e;" horiz-adv-x="1519" d="M90 696q0 150 47 281t134 228.5t210 152.5t277 55q150 0 272.5 -53t210.5 -148.5t137 -227.5t52 -288h-1047v-471q154 -154 375 -153q162 0 281.5 72.5t217.5 238.5l91 -53q-59 -92 -121 -159t-131.5 -110t-152.5 -62t-185 -19q-154 0 -277 56t-210 152.5t-134 227.5 t-47 280zM383 791h754v374q-162 156 -381 156q-223 0 -373 -156v-374z" />
<glyph unicode="&#x2153;" horiz-adv-x="1579" d="M166 1204v109l174 114h90v-727h-112v603zM357 0l696 1466h127l-696 -1466h-127zM948 179h113q6 -37 29.5 -67t80.5 -30t94 32t37 93q0 39 -13 63.5t-32.5 37t-44 16.5t-47.5 4h-45v94h39q16 0 38.5 2t44 14.5t36 37t14.5 67.5q0 53 -29.5 81t-79.5 28q-33 0 -53 -13.5 t-32.5 -32t-18.5 -37t-8 -28.5h-113q2 102 64.5 152.5t154.5 50.5q43 0 83 -10.5t71 -34t50 -59t19 -85.5q0 -53 -13 -85.5t-31.5 -52t-38 -28t-33.5 -10.5q10 -2 32.5 -8t44 -25.5t38 -53.5t16.5 -91q0 -98 -68 -155.5t-172 -57.5q-51 0 -98 15.5t-80 48.5q-29 29 -39 62.5 t-10 64.5z" />
<glyph unicode="&#x2154;" horiz-adv-x="1617" d="M160 694v27q0 59 20.5 107.5t53.5 88t73.5 74.5t79.5 72q35 33 70 75t35 95q0 109 -105 108q-41 0 -68.5 -17t-37.5 -54q-4 -8 -4 -17.5t-2 -17.5h-115q2 55 22.5 93t53.5 62.5t73.5 35t81.5 10.5q92 0 155 -51.5t63 -151.5q0 -61 -28 -110.5t-69 -91.5t-87 -80t-83 -77 q-37 -37 -51 -79h322v-101h-453zM418 0l696 1466h127l-696 -1466h-127zM991 179h113q6 -37 29.5 -67t80.5 -30t94 32t37 93q0 39 -13 63.5t-32.5 37t-44 16.5t-47.5 4h-45v94h39q16 0 38.5 2t44 14.5t36 37t14.5 67.5q0 53 -29.5 81t-79.5 28q-33 0 -53 -13.5t-32.5 -32 t-18.5 -37t-8 -28.5h-113q2 102 64.5 152.5t154.5 50.5q43 0 83 -10.5t71 -34t50 -59t19 -85.5q0 -53 -13 -85.5t-31.5 -52t-38 -28t-33.5 -10.5q10 -2 32.5 -8t44 -25.5t38 -53.5t16.5 -91q0 -98 -68 -155.5t-172 -57.5q-51 0 -98 15.5t-80 48.5q-29 29 -39 62.5t-10 64.5z " />
<glyph unicode="&#x2155;" horiz-adv-x="1579" d="M153 1204v109l174 114h90v-727h-112v603zM344 0l696 1466h127l-696 -1466h-127zM953 162h98q0 -6 4 -20.5t16.5 -29.5t35 -27.5t63.5 -12.5q68 0 104.5 40t36.5 112t-40 112.5t-93 40.5q-59 0 -90 -24.5t-45 -34.5l-66 28l13 377h387v-96h-295l-8 -211q10 14 40.5 31.5 t90.5 17.5q117 0 170 -66.5t53 -170.5q0 -63 -21.5 -109.5t-57.5 -77t-83 -45t-96 -14.5q-88 0 -151.5 48t-65.5 132z" />
<glyph unicode="&#x2156;" horiz-adv-x="1617" d="M149 694v27q0 59 20.5 107.5t53.5 88t73.5 74.5t79.5 72q35 33 70 75t35 95q0 109 -105 108q-41 0 -68.5 -17t-37.5 -54q-4 -8 -4 -17.5t-2 -17.5h-115q2 55 22.5 93t53.5 62.5t73.5 35t81.5 10.5q92 0 155 -51.5t63 -151.5q0 -61 -28 -110.5t-69 -91.5t-87 -80t-83 -77 q-37 -37 -51 -79h322v-101h-453zM408 0l696 1466h127l-696 -1466h-127zM996 162h98q0 -6 4 -20.5t16.5 -29.5t35 -27.5t63.5 -12.5q68 0 104.5 40t36.5 112t-40 112.5t-93 40.5q-59 0 -90 -24.5t-45 -34.5l-66 28l13 377h387v-96h-295l-8 -211q10 14 40.5 31.5t90.5 17.5 q117 0 170 -66.5t53 -170.5q0 -63 -21.5 -109.5t-57.5 -77t-83 -45t-96 -14.5q-88 0 -151.5 48t-65.5 132z" />
<glyph unicode="&#x2157;" horiz-adv-x="1617" d="M148 877h113q6 -37 29.5 -67t80.5 -30t94 32t37 93q0 39 -13 63.5t-32.5 37t-44 16.5t-47.5 4h-45v94h39q16 0 38.5 2t44 14.5t36 37t14.5 67.5q0 53 -29.5 81t-79.5 28q-33 0 -53 -13.5t-32.5 -32t-18.5 -37t-8 -28.5h-113q2 102 64.5 152.5t154.5 50.5q43 0 83 -10.5 t71 -34t50 -59t19 -85.5q0 -53 -13 -85.5t-31.5 -52t-38 -28t-33.5 -10.5q10 -2 32.5 -8t44 -25.5t38 -53.5t16.5 -91q0 -98 -68 -155.5t-172 -57.5q-51 0 -98 15.5t-80 48.5q-29 29 -39 62.5t-10 64.5zM430 0l696 1466h127l-696 -1466h-127zM998 162h98q0 -6 4 -20.5 t16.5 -29.5t35 -27.5t63.5 -12.5q68 0 104.5 40t36.5 112t-40 112.5t-93 40.5q-59 0 -90 -24.5t-45 -34.5l-66 28l13 377h387v-96h-295l-8 -211q10 14 40.5 31.5t90.5 17.5q117 0 170 -66.5t53 -170.5q0 -63 -21.5 -109.5t-57.5 -77t-83 -45t-96 -14.5q-88 0 -151.5 48 t-65.5 132z" />
<glyph unicode="&#x2158;" horiz-adv-x="1617" d="M117 838v86l352 497h101v-487h92v-96h-92v-144h-113v144h-340zM225 934h232v334zM441 0l696 1466h127l-696 -1466h-127zM1028 162h98q0 -6 4 -20.5t16.5 -29.5t35 -27.5t63.5 -12.5q68 0 104.5 40t36.5 112t-40 112.5t-93 40.5q-59 0 -90 -24.5t-45 -34.5l-66 28l13 377 h387v-96h-295l-8 -211q10 14 40.5 31.5t90.5 17.5q117 0 170 -66.5t53 -170.5q0 -63 -21.5 -109.5t-57.5 -77t-83 -45t-96 -14.5q-88 0 -151.5 48t-65.5 132z" />
<glyph unicode="&#x2159;" horiz-adv-x="1579" d="M155 1204v109l174 114h90v-727h-112v603zM346 0l696 1466h127l-696 -1466h-127zM919 346q0 68 11.5 137.5t40 126t81 92.5t134.5 36q37 0 73.5 -11.5t66.5 -33t49.5 -52t21.5 -67.5h-103q-2 6 -6 18.5t-15.5 26.5t-33 24.5t-59.5 10.5q-49 0 -80 -29t-47.5 -72t-23.5 -94 t-7 -96q2 6 14 23.5t33.5 35t52.5 30.5t74 13q111 0 169 -61.5t58 -171.5q0 -113 -65.5 -181.5t-180.5 -68.5q-80 0 -131 31.5t-78.5 84t-38 117t-10.5 131.5zM1040 224q0 -66 27.5 -111t107.5 -45t107 43t27 115q0 66 -26 110.5t-106 44.5t-108.5 -43t-28.5 -114z" />
<glyph unicode="&#x215a;" horiz-adv-x="1617" d="M144 860h98q0 -6 4 -20.5t16.5 -29.5t35 -27.5t63.5 -12.5q68 0 104.5 40t36.5 112t-40 112.5t-93 40.5q-59 0 -90 -24.5t-45 -34.5l-66 28l13 377h387v-96h-295l-8 -211q10 14 40.5 31.5t90.5 17.5q117 0 170 -66.5t53 -170.5q0 -63 -21.5 -109.5t-57.5 -77t-83 -45 t-96 -14.5q-88 0 -151.5 48t-65.5 132zM412 0l696 1466h127l-696 -1466h-127zM972 346q0 68 11.5 137.5t40 126t81 92.5t134.5 36q37 0 73.5 -11.5t66.5 -33t49.5 -52t21.5 -67.5h-103q-2 6 -6 18.5t-15.5 26.5t-33 24.5t-59.5 10.5q-49 0 -80 -29t-47.5 -72t-23.5 -94 t-7 -96q2 6 14 23.5t33.5 35t52.5 30.5t74 13q111 0 169 -61.5t58 -171.5q0 -113 -65.5 -181.5t-180.5 -68.5q-80 0 -131 31.5t-78.5 84t-38 117t-10.5 131.5zM1093 224q0 -66 27.5 -111t107.5 -45t107 43t27 115q0 66 -26 110.5t-106 44.5t-108.5 -43t-28.5 -114z" />
<glyph unicode="&#x215b;" horiz-adv-x="1579" d="M162 1204v109l174 114h90v-727h-112v603zM332 0l696 1466h127l-696 -1466h-127zM932 193q0 59 19.5 95t45 56.5t49 27.5t29.5 9q-4 0 -23.5 7.5t-42 25.5t-40 51t-17.5 84q0 55 21.5 92t55.5 58.5t73 30t73 8.5q41 0 82 -9.5t73 -32t51.5 -58.5t19.5 -89q0 -57 -19.5 -91 t-42 -50t-42 -21.5t-21.5 -5.5q8 -2 31.5 -10t48 -27.5t43 -55.5t18.5 -95q0 -106 -69 -158.5t-173 -52.5t-173.5 52t-69.5 159zM1034 197q0 -68 40 -100.5t99 -32.5t100.5 32.5t41.5 100.5q0 70 -39 104.5t-103 34.5q-59 0 -99 -35.5t-40 -103.5zM1052 541q0 -59 35 -91 t88 -32t89 34t36 89q0 61 -35.5 91t-89.5 30q-53 0 -88 -31t-35 -90z" />
<glyph unicode="&#x215c;" horiz-adv-x="1617" d="M166 877h113q6 -37 29.5 -67t80.5 -30t94 32t37 93q0 39 -13 63.5t-32.5 37t-44 16.5t-47.5 4h-45v94h39q16 0 38.5 2t44 14.5t36 37t14.5 67.5q0 53 -29.5 81t-79.5 28q-33 0 -53 -13.5t-32.5 -32t-18.5 -37t-8 -28.5h-113q2 102 64.5 152.5t154.5 50.5q43 0 83 -10.5 t71 -34t50 -59t19 -85.5q0 -53 -13 -85.5t-31.5 -52t-38 -28t-33.5 -10.5q10 -2 32.5 -8t44 -25.5t38 -53.5t16.5 -91q0 -98 -68 -155.5t-172 -57.5q-51 0 -98 15.5t-80 48.5q-29 29 -39 62.5t-10 64.5zM410 0l696 1466h127l-696 -1466h-127zM967 193q0 59 19.5 95t45 56.5 t49 27.5t29.5 9q-4 0 -23.5 7.5t-42 25.5t-40 51t-17.5 84q0 55 21.5 92t55.5 58.5t73 30t73 8.5q41 0 82 -9.5t73 -32t51.5 -58.5t19.5 -89q0 -57 -19.5 -91t-42 -50t-42 -21.5t-21.5 -5.5q8 -2 31.5 -10t48 -27.5t43 -55.5t18.5 -95q0 -106 -69 -158.5t-173 -52.5 t-173.5 52t-69.5 159zM1069 197q0 -68 40 -100.5t99 -32.5t100.5 32.5t41.5 100.5q0 70 -39 104.5t-103 34.5q-59 0 -99 -35.5t-40 -103.5zM1087 541q0 -59 35 -91t88 -32t89 34t36 89q0 61 -35.5 91t-89.5 30q-53 0 -88 -31t-35 -90z" />
<glyph unicode="&#x215d;" horiz-adv-x="1617" d="M160 860h98q0 -6 4 -20.5t16.5 -29.5t35 -27.5t63.5 -12.5q68 0 104.5 40t36.5 112t-40 112.5t-93 40.5q-59 0 -90 -24.5t-45 -34.5l-66 28l13 377h387v-96h-295l-8 -211q10 14 40.5 31.5t90.5 17.5q117 0 170 -66.5t53 -170.5q0 -63 -21.5 -109.5t-57.5 -77t-83 -45 t-96 -14.5q-88 0 -151.5 48t-65.5 132zM410 0l696 1466h127l-696 -1466h-127zM973 193q0 59 19.5 95t45 56.5t49 27.5t29.5 9q-4 0 -23.5 7.5t-42 25.5t-40 51t-17.5 84q0 55 21.5 92t55.5 58.5t73 30t73 8.5q41 0 82 -9.5t73 -32t51.5 -58.5t19.5 -89q0 -57 -19.5 -91 t-42 -50t-42 -21.5t-21.5 -5.5q8 -2 31.5 -10t48 -27.5t43 -55.5t18.5 -95q0 -106 -69 -158.5t-173 -52.5t-173.5 52t-69.5 159zM1075 197q0 -68 40 -100.5t99 -32.5t100.5 32.5t41.5 100.5q0 70 -39 104.5t-103 34.5q-59 0 -99 -35.5t-40 -103.5zM1093 541q0 -59 35 -91 t88 -32t89 34t36 89q0 61 -35.5 91t-89.5 30q-53 0 -88 -31t-35 -90z" />
<glyph unicode="&#x215e;" horiz-adv-x="1617" d="M203 1325v96h459v-90l-269 -637h-114l268 631h-344zM393 0l696 1466h127l-696 -1466h-127zM930 193q0 59 19.5 95t45 56.5t49 27.5t29.5 9q-4 0 -23.5 7.5t-42 25.5t-40 51t-17.5 84q0 55 21.5 92t55.5 58.5t73 30t73 8.5q41 0 82 -9.5t73 -32t51.5 -58.5t19.5 -89 q0 -57 -19.5 -91t-42 -50t-42 -21.5t-21.5 -5.5q8 -2 31.5 -10t48 -27.5t43 -55.5t18.5 -95q0 -106 -69 -158.5t-173 -52.5t-173.5 52t-69.5 159zM1032 197q0 -68 40 -100.5t99 -32.5t100.5 32.5t41.5 100.5q0 70 -39 104.5t-103 34.5q-59 0 -99 -35.5t-40 -103.5zM1050 541 q0 -59 35 -91t88 -32t89 34t36 89q0 61 -35.5 91t-89.5 30q-53 0 -88 -31t-35 -90z" />
<glyph unicode="&#x2202;" d="M100 473q0 119 33 208t87 146.5t126 86t152 28.5q100 0 165.5 -25.5t106.5 -58.5t60.5 -65.5t27.5 -47.5q-6 111 -18.5 215.5t-45 185.5t-92 129t-161.5 48q-70 0 -110 -17.5t-60.5 -40t-28.5 -47t-12 -36.5h-189q0 12 9.5 58t48.5 96t115.5 89t215.5 39q143 0 239.5 -54 t154 -151.5t81 -230.5t23.5 -291q0 -154 -19.5 -292t-73.5 -242.5t-148.5 -167t-241.5 -62.5q-96 0 -178 33t-141.5 95.5t-92.5 155.5t-33 216zM274 461q0 -68 15.5 -129.5t48.5 -108.5t84 -74.5t123 -27.5q68 0 119 26.5t86.5 71.5t53 106.5t17.5 131.5q0 63 -15 123.5 t-49 108.5t-87.5 77t-130.5 29q-72 0 -121 -27t-82 -72t-47.5 -105.5t-14.5 -129.5z" />
<glyph unicode="&#x2206;" d="M-61 0l516 1427h184l543 -1427h-1243zM164 152h786l-401 1079z" />
<glyph unicode="&#x220f;" horiz-adv-x="1533" d="M123 1276v151h1268v-151h-209v-1276h-181v1276h-489v-1276h-180v1276h-209z" />
<glyph unicode="&#x2211;" d="M125 0v137l514 582l-498 573v135h832v-151h-629l487 -557l-514 -565h672v-154h-864z" />
<glyph unicode="&#x2212;" d="M127 586v143h864v-143h-864z" />
<glyph unicode="&#x2215;" horiz-adv-x="471" d="M-182 0l696 1466h127l-696 -1466h-127z" />
<glyph unicode="&#x2219;" horiz-adv-x="573" d="M186 557v201h201v-201h-201z" />
<glyph unicode="&#x221a;" horiz-adv-x="1419" d="M70 805l385 135l280 -776l469 1315l146 -52l-521 -1427h-192l-281 748l-243 -80z" />
<glyph unicode="&#x221e;" horiz-adv-x="1335" d="M90 621q0 66 19.5 121t54.5 96t83 64.5t107 23.5q51 0 91 -16.5t77 -45t72 -70.5t74 -92q31 39 61.5 78t66 72t80 53.5t99.5 20.5q121 0 195.5 -84t74.5 -219q0 -68 -19.5 -124.5t-55 -97.5t-85 -64.5t-108.5 -23.5q-94 0 -164 58.5t-145 150.5q-76 -92 -144.5 -149.5 t-163.5 -57.5q-59 0 -108 22.5t-85 63.5t-56.5 97.5t-20.5 122.5zM207 618q0 -72 42.5 -123t112.5 -51q33 0 67 15.5t65.5 40t59.5 55.5t48 59q-20 27 -49 59t-60.5 59.5t-66.5 46t-68 18.5q-35 0 -62.5 -15.5t-48 -41t-30.5 -57.5t-10 -65zM733 614q25 -31 51.5 -61.5 t57 -55t64.5 -40t71 -15.5q70 0 110.5 54.5t40.5 121.5q0 70 -42 124.5t-113 54.5q-35 0 -69 -17.5t-64.5 -45t-58 -59.5t-48.5 -61z" />
<glyph unicode="&#x222b;" d="M199 -236q12 -4 43.5 -9t58.5 -5q41 0 76 8.5t61 34.5q23 23 29 65t6 95v1192q0 51 2 88t9.5 64.5t20.5 50t36 45.5q72 72 227 71q51 0 95 -11t57 -15v-125q-12 4 -44 9t-59 5q-41 0 -75.5 -8t-61.5 -35q-23 -23 -29 -64.5t-6 -95.5v-1192q0 -51 -2 -88t-9 -64.5 t-20.5 -50t-35.5 -44.5q-72 -72 -228 -72q-51 0 -95 11t-56 16v124z" />
<glyph unicode="&#x2248;" d="M127 328q0 74 17.5 123t48 78.5t72.5 43t89 13.5q63 0 116.5 -17.5t100.5 -38t89 -38t79 -17.5q41 0 62.5 13.5t32 32t12.5 36.5t2 29h143q0 -41 -10 -86t-36.5 -84t-72 -63.5t-116.5 -24.5q-57 0 -112.5 17t-106 36.5t-94.5 37t-78 17.5q-33 0 -51.5 -14t-28 -32.5 t-12.5 -37t-3 -24.5h-143zM127 705q0 74 17.5 123t48 78.5t72.5 43t89 13.5q63 0 116.5 -17.5t100.5 -38t89 -38t79 -17.5q41 0 62.5 13.5t32 31.5t12.5 36.5t2 29.5h143q0 -41 -10 -86.5t-36.5 -84t-72 -63t-116.5 -24.5q-57 0 -112.5 17t-106 36.5t-94.5 37t-78 17.5 q-33 0 -51.5 -14.5t-28 -32.5t-12.5 -36.5t-3 -24.5h-143z" />
<glyph unicode="&#x2260;" d="M127 424v143h344l86 181h-430v143h498l135 283l108 -60l-112 -223h235v-143h-299l-86 -181h385v-143h-448l-135 -285l-113 51l115 234h-283z" />
<glyph unicode="&#x2264;" d="M127 0v143h864v-143h-864zM127 717v143l864 395v-151l-721 -313l721 -312v-151z" />
<glyph unicode="&#x2265;" d="M127 0v143h864v-143h-864zM127 328v151l721 312l-721 313v151l864 -395v-143z" />
<glyph unicode="&#x25ca;" d="M66 727l417 700h154l416 -700l-416 -727h-154zM233 727l328 -582l324 582l-324 555z" />
<glyph unicode="&#xe000;" horiz-adv-x="1013" d="M0 0v1014h1014v-1014h-1014z" />
<glyph unicode="&#xf010;" horiz-adv-x="1638" d="M47 629v170h1227l-664 631h242l715 -715l-715 -715h-242l664 629h-1227z" />
<glyph unicode="&#xf011;" horiz-adv-x="1638" d="M104 555v248l713 715l715 -715v-248l-627 655v-1214h-180v1214z" />
<glyph unicode="&#xf012;" horiz-adv-x="1638" d="M72 715l714 715h242l-663 -631h1226v-170h-1226l663 -629h-242z" />
<glyph unicode="&#xf013;" horiz-adv-x="1638" d="M106 627v247l621 -655v1215h180v-1215l627 655v-247l-715 -715z" />
<glyph unicode="&#xf014;" horiz-adv-x="1638" d="M203 1141l176 178h1046v-1051l-176 -176l21 946l-928 -929l-127 127l928 929z" />
<glyph unicode="&#xf015;" horiz-adv-x="1638" d="M203 287l940 -25l-928 930l127 127l928 -930l-21 946l176 -176v-1050h-1046z" />
<glyph unicode="&#xf016;" horiz-adv-x="1638" d="M211 109v1050l176 176l-20 -946l927 930l127 -127l-927 -930l940 25l-177 -178h-1046z" />
<glyph unicode="&#xf017;" horiz-adv-x="1638" d="M213 268v1051h1047l176 -178l-940 24l927 -929l-127 -127l-927 929l20 -946z" />
<glyph unicode="&#xf506;" horiz-adv-x="1579" d="M157 1204v109l174 114h90v-727h-112v603zM348 0l696 1466h127l-696 -1466h-127zM965 627v96h459v-90l-269 -637h-114l268 631h-344z" />
<glyph unicode="&#xf507;" horiz-adv-x="1617" d="M154 694v27q0 59 20.5 107.5t53.5 88t73.5 74.5t79.5 72q35 33 70 75t35 95q0 109 -105 108q-41 0 -68.5 -17t-37.5 -54q-4 -8 -4 -17.5t-2 -17.5h-115q2 55 22.5 93t53.5 62.5t73.5 35t81.5 10.5q92 0 155 -51.5t63 -151.5q0 -61 -28 -110.5t-69 -91.5t-87 -80t-83 -77 q-37 -37 -51 -79h322v-101h-453zM412 0l696 1466h127l-696 -1466h-127zM1008 627v96h459v-90l-269 -637h-114l268 631h-344z" />
<glyph unicode="&#xf508;" horiz-adv-x="1617" d="M150 877h113q6 -37 29.5 -67t80.5 -30t94 32t37 93q0 39 -13 63.5t-32.5 37t-44 16.5t-47.5 4h-45v94h39q16 0 38.5 2t44 14.5t36 37t14.5 67.5q0 53 -29.5 81t-79.5 28q-33 0 -53 -13.5t-32.5 -32t-18.5 -37t-8 -28.5h-113q2 102 64.5 152.5t154.5 50.5q43 0 83 -10.5 t71 -34t50 -59t19 -85.5q0 -53 -13 -85.5t-31.5 -52t-38 -28t-33.5 -10.5q10 -2 32.5 -8t44 -25.5t38 -53.5t16.5 -91q0 -98 -68 -155.5t-172 -57.5q-51 0 -98 15.5t-80 48.5q-29 29 -39 62.5t-10 64.5zM404 0l696 1466h127l-696 -1466h-127zM1012 627v96h459v-90l-269 -637 h-114l268 631h-344z" />
<glyph unicode="&#xf509;" horiz-adv-x="1617" d="M105 838v86l352 497h101v-487h92v-96h-92v-144h-113v144h-340zM213 934h232v334zM449 0l696 1466h127l-696 -1466h-127zM1057 627v96h459v-90l-269 -637h-114l268 631h-344z" />
<glyph unicode="&#xf50a;" horiz-adv-x="1617" d="M158 860h98q0 -6 4 -20.5t16.5 -29.5t35 -27.5t63.5 -12.5q68 0 104.5 40t36.5 112t-40 112.5t-93 40.5q-59 0 -90 -24.5t-45 -34.5l-66 28l13 377h387v-96h-295l-8 -211q10 14 40.5 31.5t90.5 17.5q117 0 170 -66.5t53 -170.5q0 -63 -21.5 -109.5t-57.5 -77t-83 -45 t-96 -14.5q-88 0 -151.5 48t-65.5 132zM406 0l696 1466h127l-696 -1466h-127zM1002 627v96h459v-90l-269 -637h-114l268 631h-344z" />
<glyph unicode="&#xf50b;" horiz-adv-x="1617" d="M149 1044q0 68 11.5 137.5t40 126t81 92.5t134.5 36q37 0 73.5 -11.5t66.5 -33t49.5 -52t21.5 -67.5h-103q-2 6 -6 18.5t-15.5 26.5t-33 24.5t-59.5 10.5q-49 0 -80 -29t-47.5 -72t-23.5 -94t-7 -96q2 6 14 23.5t33.5 35t52.5 30.5t74 13q111 0 169 -61.5t58 -171.5 q0 -113 -65.5 -181.5t-180.5 -68.5q-80 0 -131 31.5t-78.5 84t-38 117t-10.5 131.5zM270 922q0 -66 27.5 -111t107.5 -45t107 43t27 115q0 66 -26 110.5t-106 44.5t-108.5 -43t-28.5 -114zM434 0l696 1466h127l-696 -1466h-127zM1010 627v96h459v-90l-269 -637h-114l268 631 h-344z" />
<glyph unicode="&#xf50c;" horiz-adv-x="1579" d="M168 1204v109l174 114h90v-727h-112v603zM338 0l696 1466h127l-696 -1466h-127zM918 490q0 113 58 180.5t173 67.5q80 0 130 -29t80 -78t41 -115.5t11 -142.5q0 -78 -12 -147.5t-43 -124t-83 -86t-130 -31.5q-94 0 -150.5 50t-58.5 116h94q0 -4 5 -17.5t18.5 -28 t36 -25.5t59.5 -11q51 0 81 24.5t46 61.5t21.5 81t5.5 83q-4 -6 -13.5 -18.5t-29 -24.5t-50 -21.5t-75.5 -9.5q-109 0 -162 69.5t-53 176.5zM1024 496q0 -68 27.5 -119t99.5 -51t104.5 49t32.5 123q0 66 -32.5 111t-102.5 45t-99.5 -45t-29.5 -113z" />
<glyph unicode="&#xf50d;" horiz-adv-x="1617" d="M172 694v27q0 59 20.5 107.5t53.5 88t73.5 74.5t79.5 72q35 33 70 75t35 95q0 109 -105 108q-41 0 -68.5 -17t-37.5 -54q-4 -8 -4 -17.5t-2 -17.5h-115q2 55 22.5 93t53.5 62.5t73.5 35t81.5 10.5q92 0 155 -51.5t63 -151.5q0 -61 -28 -110.5t-69 -91.5t-87 -80t-83 -77 q-37 -37 -51 -79h322v-101h-453zM412 0l696 1466h127l-696 -1466h-127zM951 490q0 113 58 180.5t173 67.5q80 0 130 -29t80 -78t41 -115.5t11 -142.5q0 -78 -12 -147.5t-43 -124t-83 -86t-130 -31.5q-94 0 -150.5 50t-58.5 116h94q0 -4 5 -17.5t18.5 -28t36 -25.5t59.5 -11 q51 0 81 24.5t46 61.5t21.5 81t5.5 83q-4 -6 -13.5 -18.5t-29 -24.5t-50 -21.5t-75.5 -9.5q-109 0 -162 69.5t-53 176.5zM1057 496q0 -68 27.5 -119t99.5 -51t104.5 49t32.5 123q0 66 -32.5 111t-102.5 45t-99.5 -45t-29.5 -113z" />
<glyph unicode="&#xf50e;" horiz-adv-x="1617" d="M127 838v86l352 497h101v-487h92v-96h-92v-144h-113v144h-340zM235 934h232v334zM453 0l696 1466h127l-696 -1466h-127zM996 490q0 113 58 180.5t173 67.5q80 0 130 -29t80 -78t41 -115.5t11 -142.5q0 -78 -12 -147.5t-43 -124t-83 -86t-130 -31.5q-94 0 -150.5 50 t-58.5 116h94q0 -4 5 -17.5t18.5 -28t36 -25.5t59.5 -11q51 0 81 24.5t46 61.5t21.5 81t5.5 83q-4 -6 -13.5 -18.5t-29 -24.5t-50 -21.5t-75.5 -9.5q-109 0 -162 69.5t-53 176.5zM1102 496q0 -68 27.5 -119t99.5 -51t104.5 49t32.5 123q0 66 -32.5 111t-102.5 45t-99.5 -45 t-29.5 -113z" />
<glyph unicode="&#xf50f;" horiz-adv-x="1617" d="M168 860h98q0 -6 4 -20.5t16.5 -29.5t35 -27.5t63.5 -12.5q68 0 104.5 40t36.5 112t-40 112.5t-93 40.5q-59 0 -90 -24.5t-45 -34.5l-66 28l13 377h387v-96h-295l-8 -211q10 14 40.5 31.5t90.5 17.5q117 0 170 -66.5t53 -170.5q0 -63 -21.5 -109.5t-57.5 -77t-83 -45 t-96 -14.5q-88 0 -151.5 48t-65.5 132zM418 0l696 1466h127l-696 -1466h-127zM957 490q0 113 58 180.5t173 67.5q80 0 130 -29t80 -78t41 -115.5t11 -142.5q0 -78 -12 -147.5t-43 -124t-83 -86t-130 -31.5q-94 0 -150.5 50t-58.5 116h94q0 -4 5 -17.5t18.5 -28t36 -25.5 t59.5 -11q51 0 81 24.5t46 61.5t21.5 81t5.5 83q-4 -6 -13.5 -18.5t-29 -24.5t-50 -21.5t-75.5 -9.5q-109 0 -162 69.5t-53 176.5zM1063 496q0 -68 27.5 -119t99.5 -51t104.5 49t32.5 123q0 66 -32.5 111t-102.5 45t-99.5 -45t-29.5 -113z" />
<glyph unicode="&#xf510;" horiz-adv-x="1617" d="M195 1325v96h459v-90l-269 -637h-114l268 631h-344zM371 0l696 1466h127l-696 -1466h-127zM930 490q0 113 58 180.5t173 67.5q80 0 130 -29t80 -78t41 -115.5t11 -142.5q0 -78 -12 -147.5t-43 -124t-83 -86t-130 -31.5q-94 0 -150.5 50t-58.5 116h94q0 -4 5 -17.5 t18.5 -28t36 -25.5t59.5 -11q51 0 81 24.5t46 61.5t21.5 81t5.5 83q-4 -6 -13.5 -18.5t-29 -24.5t-50 -21.5t-75.5 -9.5q-109 0 -162 69.5t-53 176.5zM1036 496q0 -68 27.5 -119t99.5 -51t104.5 49t32.5 123q0 66 -32.5 111t-102.5 45t-99.5 -45t-29.5 -113z" />
<glyph unicode="&#xf511;" horiz-adv-x="1617" d="M148 891q0 59 19.5 95t45 56.5t49 27.5t29.5 9q-4 0 -23.5 7.5t-42 25.5t-40 51t-17.5 84q0 55 21.5 92t55.5 58.5t73 30t73 8.5q41 0 82 -9.5t73 -32t51.5 -58.5t19.5 -89q0 -57 -19.5 -91t-42 -50t-42 -21.5t-21.5 -5.5q8 -2 31.5 -10t48 -27.5t43 -55.5t18.5 -95 q0 -106 -69 -158.5t-173 -52.5t-173.5 52t-69.5 159zM250 895q0 -68 40 -100.5t99 -32.5t100.5 32.5t41.5 100.5q0 70 -39 104.5t-103 34.5q-59 0 -99 -35.5t-40 -103.5zM268 1239q0 -59 35 -91t88 -32t89 34t36 89q0 61 -35.5 91t-89.5 30q-53 0 -88 -31t-35 -90zM420 0 l696 1466h127l-696 -1466h-127zM979 490q0 113 58 180.5t173 67.5q80 0 130 -29t80 -78t41 -115.5t11 -142.5q0 -78 -12 -147.5t-43 -124t-83 -86t-130 -31.5q-94 0 -150.5 50t-58.5 116h94q0 -4 5 -17.5t18.5 -28t36 -25.5t59.5 -11q51 0 81 24.5t46 61.5t21.5 81t5.5 83 q-4 -6 -13.5 -18.5t-29 -24.5t-50 -21.5t-75.5 -9.5q-109 0 -162 69.5t-53 176.5zM1085 496q0 -68 27.5 -119t99.5 -51t104.5 49t32.5 123q0 66 -32.5 111t-102.5 45t-99.5 -45t-29.5 -113z" />
<glyph unicode="&#xf800;" d="M68 723q0 160 27.5 295t87 231.5t152.5 150.5t226 54q141 0 236.5 -58.5t152 -158.5t80 -233.5t23.5 -282.5q0 -158 -26 -295t-84 -237.5t-152.5 -158t-233.5 -57.5q-150 0 -245 65.5t-149 172t-74.5 241t-20.5 271.5zM252 700q0 -94 10 -196.5t42 -186.5t92.5 -139 t160.5 -55q102 0 163.5 51t94.5 134t43 187.5t10 209.5q0 104 -9 211.5t-41 193.5t-92 141.5t-161 55.5q-106 0 -168.5 -53.5t-94.5 -139.5t-41 -194.5t-9 -219.5z" />
<glyph unicode="&#xf801;" horiz-adv-x="827" d="M90 1067v156l346 204h156v-1427h-176v1260z" />
<glyph unicode="&#xf802;" d="M113 0v37q0 127 49 226t122.5 181t158.5 153t159 142.5t123 149.5t49 176q0 117 -57.5 181.5t-171.5 64.5q-80 0 -127 -28t-73 -64.5t-34 -72.5t-10 -50h-184q2 94 39 162.5t98 111.5t138 63.5t159 20.5q86 0 161.5 -24.5t131 -73.5t87.5 -122t32 -167q0 -72 -15.5 -129 t-44.5 -106.5t-68.5 -95.5t-89.5 -95q-55 -55 -126.5 -116.5t-136 -123t-109.5 -124t-47 -121.5h645v-156h-858z" />
<glyph unicode="&#xf803;" d="M98 309h185q2 -10 10 -40.5t31.5 -63.5t68.5 -58.5t123 -25.5q123 0 203 67.5t80 206.5q0 84 -29 136.5t-73 80t-96 36.5t-99 9h-53v152h43q35 0 84 6t93 31.5t75.5 79t31.5 147.5q0 121 -65.5 178.5t-175.5 57.5q-80 0 -125 -29t-69 -65.5t-30 -71.5t-8 -47h-184 q0 86 30.5 152.5t85 112.5t129 69.5t164.5 23.5q82 0 159 -20.5t135.5 -63.5t94 -111.5t35.5 -162.5q0 -119 -36.5 -187.5t-83 -105.5t-91.5 -49.5t-59 -16.5q12 -2 60.5 -12t100.5 -46t94 -105.5t42 -192.5q0 -92 -34 -167t-94 -129t-144.5 -83t-184.5 -29t-187 30t-149 91 q-49 49 -67.5 106.5t-20.5 108.5z" />
<glyph unicode="&#xf804;" d="M59 303v127l662 997h176v-976h188v-148h-188v-303h-170v303h-668zM244 451h483v739z" />
<glyph unicode="&#xf805;" d="M127 285h184q2 -10 9.5 -38t32 -56.5t70.5 -51t126 -22.5q78 0 130 29.5t85 76.5t46 105.5t13 117.5q0 68 -13 127.5t-44 103.5t-82 69.5t-127 25.5q-55 0 -98 -11t-75 -27.5t-52.5 -34t-32.5 -27.5l-127 53l27 702h727v-149h-580l-18 -463q10 12 33.5 30.5t59.5 35 t82 28t101 11.5q106 0 183 -35t124 -97.5t70 -147.5t23 -185q0 -127 -38 -217.5t-100.5 -149.5t-143.5 -87t-169 -28q-90 0 -167 18.5t-134 56.5t-90 96.5t-35 140.5z" />
<glyph unicode="&#xf806;" d="M106 688q0 88 9.5 179t31 176t58.5 160t93 130.5t133 88t181 32.5q70 0 139.5 -19.5t125 -58.5t91.5 -95t40 -130h-183q-4 12 -13 37.5t-32.5 53.5t-66.5 48.5t-113 20.5q-106 0 -168.5 -58.5t-95.5 -147.5t-43 -192.5t-12 -193.5q6 14 27.5 47t63.5 66.5t105.5 60.5 t153.5 27q205 0 306 -121t101 -336q0 -111 -28.5 -201t-85 -154.5t-139.5 -99.5t-189 -35q-154 0 -249 62.5t-148.5 164t-73 229.5t-19.5 259zM317 444q0 -63 14.5 -121.5t47.5 -103.5t85 -72.5t128 -27.5q74 0 126 25.5t84 69.5t46 104.5t14 130.5q0 63 -13 122.5 t-45 105.5t-83 72.5t-125 26.5q-76 0 -128 -25.5t-86 -70.5t-49.5 -105.5t-15.5 -130.5z" />
<glyph unicode="&#xf807;" horiz-adv-x="1044" d="M37 1276v151h866v-137l-506 -1290h-178l514 1276h-696z" />
<glyph unicode="&#xf808;" d="M100 387q0 115 38 185.5t85 110.5t91 54.5t57 16.5q-6 2 -44 15t-79 50t-75 100.5t-34 163.5q0 111 41 182.5t104.5 113.5t136.5 58.5t138 16.5q80 0 156 -19.5t136 -62.5t97 -113.5t37 -175.5q0 -113 -36 -177t-79 -98t-80.5 -44t-39.5 -10q16 -4 60 -18.5t90 -53.5 t82 -109.5t36 -185.5q0 -104 -35 -182t-96.5 -129t-145.5 -77t-182 -26q-96 0 -180 26t-145.5 77t-97.5 129t-36 182zM276 393q0 -141 79 -209.5t202 -68.5q59 0 111.5 17.5t90.5 51t60.5 86t22.5 123.5q0 141 -81 214t-204 73t-202 -74t-79 -213zM305 1069 q0 -125 71.5 -188.5t182.5 -63.5q113 0 186.5 67.5t73.5 184.5q0 125 -74.5 186.5t-183.5 61.5q-113 0 -184.5 -62.5t-71.5 -185.5z" />
<glyph unicode="&#xf809;" d="M80 967q0 111 27.5 199.5t83 153t137.5 99.5t190 35q150 0 245 -61.5t150.5 -160.5t77 -228.5t21.5 -264.5q0 -152 -23.5 -290t-82 -243.5t-155 -168t-243.5 -62.5q-90 0 -162 24t-124 64.5t-80.5 95t-30.5 117.5h178q2 -8 11 -34.5t33.5 -54t67.5 -49t113 -21.5 q74 0 127 28.5t90 75.5t58.5 108.5t34 127t15.5 129t5 116.5q-6 -12 -25.5 -48t-59.5 -73.5t-106.5 -66.5t-165.5 -29q-102 0 -179 37t-127 101.5t-75.5 152.5t-25.5 191zM252 981q0 -70 13.5 -133.5t44 -112.5t80.5 -77.5t126 -28.5q74 0 129 27.5t90 74.5t52.5 112.5 t17.5 141.5q0 70 -16.5 129.5t-51.5 103.5t-88 68.5t-127 24.5q-72 0 -123 -25.5t-83.5 -70t-48 -104.5t-15.5 -130z" />
<glyph unicode="&#xf80a;" horiz-adv-x="796" d="M137 1247q0 82 17.5 150.5t51.5 117.5t83 77t110 28q70 0 119 -30t81 -81t46 -118.5t14 -143.5q0 -82 -17 -151.5t-51 -121t-83.5 -81t-110.5 -29.5q-72 0 -122 34t-80.5 88t-44 122.5t-13.5 138.5zM256 1237q0 -45 6 -93.5t21.5 -89.5t43 -67.5t70.5 -26.5t71 24.5 t44 64.5t22.5 90.5t6.5 99.5t-6.5 100t-22.5 92t-43 66.5t-68 25.5q-43 0 -70.5 -24.5t-45 -65.5t-23.5 -92t-6 -104z" />
<glyph unicode="&#xf80b;" horiz-adv-x="698" d="M180 1388v109l174 114h90v-727h-112v603z" />
<glyph unicode="&#xf80c;" horiz-adv-x="798" d="M172 878v27q0 59 20.5 107.5t53.5 88t73.5 74.5t79.5 72q35 33 70 75t35 95q0 109 -105 108q-41 0 -68.5 -17t-37.5 -54q-4 -8 -4 -17.5t-2 -17.5h-115q2 55 22.5 93t53.5 62.5t73.5 35t81.5 10.5q92 0 155 -51.5t63 -151.5q0 -61 -28 -110.5t-69 -91.5t-87 -80t-83 -77 q-37 -37 -51 -79h322v-101h-453z" />
<glyph unicode="&#xf80d;" horiz-adv-x="796" d="M166 1061h113q6 -37 29.5 -67t80.5 -30t94 32t37 93q0 39 -13 63.5t-32.5 37t-44 16.5t-47.5 4h-45v94h39q16 0 38.5 2t44 14.5t36 37t14.5 67.5q0 53 -29.5 81t-79.5 28q-33 0 -53 -13.5t-32.5 -32t-18.5 -37t-8 -28.5h-113q2 102 64.5 152.5t154.5 50.5q43 0 83 -10.5 t71 -34t50 -59t19 -85.5q0 -53 -13 -85.5t-31.5 -52t-38 -28t-33.5 -10.5q10 -2 32.5 -8t44 -25.5t38 -53.5t16.5 -91q0 -98 -68 -155.5t-172 -57.5q-51 0 -98 15.5t-80 48.5q-29 29 -39 62.5t-10 64.5z" />
<glyph unicode="&#xf80e;" horiz-adv-x="796" d="M125 1022v86l352 497h101v-487h92v-96h-92v-144h-113v144h-340zM233 1118h232v334z" />
<glyph unicode="&#xf80f;" horiz-adv-x="796" d="M160 1044h98q0 -6 4 -20.5t16.5 -29.5t35 -27.5t63.5 -12.5q68 0 104.5 40t36.5 112t-40 112.5t-93 40.5q-59 0 -90 -24.5t-45 -34.5l-66 28l13 377h387v-96h-295l-8 -211q10 14 40.5 31.5t90.5 17.5q117 0 170 -66.5t53 -170.5q0 -63 -21.5 -109.5t-57.5 -77t-83 -45 t-96 -14.5q-88 0 -151.5 48t-65.5 132z" />
<glyph unicode="&#xf810;" horiz-adv-x="796" d="M145 1228q0 68 11.5 137.5t40 126t81 92.5t134.5 36q37 0 73.5 -11.5t66.5 -33t49.5 -52t21.5 -67.5h-103q-2 6 -6 18.5t-15.5 26.5t-33 24.5t-59.5 10.5q-49 0 -80 -29t-47.5 -72t-23.5 -94t-7 -96q2 6 14 23.5t33.5 35t52.5 30.5t74 13q111 0 169 -61.5t58 -171.5 q0 -113 -65.5 -181.5t-180.5 -68.5q-80 0 -131 31.5t-78.5 84t-38 117t-10.5 131.5zM266 1106q0 -66 27.5 -111t107.5 -45t107 43t27 115q0 66 -26 110.5t-106 44.5t-108.5 -43t-28.5 -114z" />
<glyph unicode="&#xf811;" horiz-adv-x="796" d="M168 1509v96h459v-90l-269 -637h-114l268 631h-344z" />
<glyph unicode="&#xf812;" horiz-adv-x="796" d="M156 1075q0 59 19.5 95t45 56.5t49 27.5t29.5 9q-4 0 -23.5 7.5t-42 25.5t-40 51t-17.5 84q0 55 21.5 92t55.5 58.5t73 30t73 8.5q41 0 82 -9.5t73 -32t51.5 -58.5t19.5 -89q0 -57 -19.5 -91t-42 -50t-42 -21.5t-21.5 -5.5q8 -2 31.5 -10t48 -27.5t43 -55.5t18.5 -95 q0 -106 -69 -158.5t-173 -52.5t-173.5 52t-69.5 159zM258 1079q0 -68 40 -100.5t99 -32.5t100.5 32.5t41.5 100.5q0 70 -39 104.5t-103 34.5q-59 0 -99 -35.5t-40 -103.5zM276 1423q0 -59 35 -91t88 -32t89 34t36 89q0 61 -35.5 91t-89.5 30q-53 0 -88 -31t-35 -90z" />
<glyph unicode="&#xf813;" horiz-adv-x="796" d="M152 1372q0 113 58 180.5t173 67.5q80 0 130 -29t80 -78t41 -115.5t11 -142.5q0 -78 -12 -147.5t-43 -124t-83 -86t-130 -31.5q-94 0 -150.5 50t-58.5 116h94q0 -4 5 -17.5t18.5 -28t36 -25.5t59.5 -11q51 0 81 24.5t46 61.5t21.5 81t5.5 83q-4 -6 -13.5 -18.5t-29 -24.5 t-50 -21.5t-75.5 -9.5q-109 0 -162 69.5t-53 176.5zM258 1378q0 -68 27.5 -119t99.5 -51t104.5 49t32.5 123q0 66 -32.5 111t-102.5 45t-99.5 -45t-29.5 -113z" />
<glyph unicode="&#xf814;" horiz-adv-x="796" d="M137 180q0 82 17.5 150.5t51.5 117.5t83 77t110 28q70 0 119 -30t81 -81t46 -118.5t14 -143.5q0 -82 -17 -151.5t-51 -121t-83.5 -81t-110.5 -29.5q-72 0 -122 34t-80.5 88t-44 122.5t-13.5 138.5zM256 170q0 -45 6 -93.5t21.5 -89.5t43 -67.5t70.5 -26.5t71 24.5 t44 64.5t22.5 90.5t6.5 99.5t-6.5 100t-22.5 92t-43 66.5t-68 25.5q-43 0 -70.5 -24.5t-45 -65.5t-23.5 -92t-6 -104z" />
<glyph unicode="&#xf815;" horiz-adv-x="698" d="M180 321v109l174 114h90v-727h-112v603z" />
<glyph unicode="&#xf816;" horiz-adv-x="798" d="M172 -162q0 59 20.5 107.5t53.5 88t73.5 74.5t79.5 72q35 33 70 75t35 95q0 109 -105 108q-41 0 -68.5 -17t-37.5 -54q-4 -8 -4 -17.5t-2 -17.5h-115q2 55 22.5 93t53.5 62.5t73.5 35t81.5 10.5q92 0 155 -51.5t63 -151.5q0 -61 -28 -110.5t-69 -91.5t-87 -80t-83 -77 q-37 -37 -51 -79h322v-101h-453v27z" />
<glyph unicode="&#xf817;" horiz-adv-x="796" d="M166 -6h113q6 -37 29.5 -67t80.5 -30t94 32t37 93q0 39 -13 63.5t-32.5 37t-44 16.5t-47.5 4h-45v94h39q16 0 38.5 2t44 14.5t36 37t14.5 67.5q0 53 -29.5 81t-79.5 28q-33 0 -53 -13.5t-32.5 -32t-18.5 -37t-8 -28.5h-113q2 102 64.5 152.5t154.5 50.5q43 0 83 -10.5 t71 -34t50 -59t19 -85.5q0 -53 -13 -85.5t-31.5 -52t-38 -28t-33.5 -10.5q10 -2 32.5 -8t44 -25.5t38 -53.5t16.5 -91q0 -98 -68 -155.5t-172 -57.5q-51 0 -98 15.5t-80 48.5q-29 29 -39 62.5t-10 64.5z" />
<glyph unicode="&#xf818;" horiz-adv-x="796" d="M125 41l352 497h101v-487h92v-96h-92v-144h-113v144h-340v86zM233 51h232v334z" />
<glyph unicode="&#xf819;" horiz-adv-x="796" d="M160 -23h98q0 -6 4 -20.5t16.5 -29.5t35 -27.5t63.5 -12.5q68 0 104.5 40t36.5 112t-40 112.5t-93 40.5q-59 0 -90 -24.5t-45 -34.5l-66 28l13 377h387v-96h-295l-8 -211q10 14 40.5 31.5t90.5 17.5q117 0 170 -66.5t53 -170.5q0 -63 -21.5 -109.5t-57.5 -77t-83 -45 t-96 -14.5q-88 0 -151.5 48t-65.5 132z" />
<glyph unicode="&#xf81a;" horiz-adv-x="796" d="M145 161q0 68 11.5 137.5t40 126t81 92.5t134.5 36q37 0 73.5 -11.5t66.5 -33t49.5 -52t21.5 -67.5h-103q-2 6 -6 18.5t-15.5 26.5t-33 24.5t-59.5 10.5q-49 0 -80 -29t-47.5 -72t-23.5 -94t-7 -96q2 6 14 23.5t33.5 35t52.5 30.5t74 13q111 0 169 -61.5t58 -171.5 q0 -113 -65.5 -181.5t-180.5 -68.5q-80 0 -131 31.5t-78.5 84t-38 117t-10.5 131.5zM266 39q0 -66 27.5 -111t107.5 -45t107 43t27 115q0 66 -26 110.5t-106 44.5t-108.5 -43t-28.5 -114z" />
<glyph unicode="&#xf81b;" horiz-adv-x="796" d="M168 442v96h459v-90l-269 -637h-114l268 631h-344z" />
<glyph unicode="&#xf81c;" horiz-adv-x="796" d="M156 8q0 59 19.5 95t45 56.5t49 27.5t29.5 9q-4 0 -23.5 7.5t-42 25.5t-40 51t-17.5 84q0 55 21.5 92t55.5 58.5t73 30t73 8.5q41 0 82 -9.5t73 -32t51.5 -58.5t19.5 -89q0 -57 -19.5 -91t-42 -50t-42 -21.5t-21.5 -5.5q8 -2 31.5 -10t48 -27.5t43 -55.5t18.5 -95 q0 -106 -69 -158.5t-173 -52.5t-173.5 52t-69.5 159zM258 12q0 -68 40 -100.5t99 -32.5t100.5 32.5t41.5 100.5q0 70 -39 104.5t-103 34.5q-59 0 -99 -35.5t-40 -103.5zM276 356q0 -59 35 -91t88 -32t89 34t36 89q0 61 -35.5 91t-89.5 30q-53 0 -88 -31t-35 -90z" />
<glyph unicode="&#xf81d;" horiz-adv-x="796" d="M152 305q0 113 58 180.5t173 67.5q80 0 130 -29t80 -78t41 -115.5t11 -142.5q0 -78 -12 -147.5t-43 -124t-83 -86t-130 -31.5q-94 0 -150.5 50t-58.5 116h94q0 -4 5 -17.5t18.5 -28t36 -25.5t59.5 -11q51 0 81 24.5t46 61.5t21.5 81t5.5 83q-4 -6 -13.5 -18.5t-29 -24.5 t-50 -21.5t-75.5 -9.5q-109 0 -162 69.5t-53 176.5zM258 311q0 -68 27.5 -119t99.5 -51t104.5 49t32.5 123q0 66 -32.5 111t-102.5 45t-99.5 -45t-29.5 -113z" />
<glyph horiz-adv-x="520" d="M106 -557l97 412h211l-164 -412h-144z" />
<glyph horiz-adv-x="778" d="M215 975v452h176l-45 -452h-131z" />
<glyph horiz-adv-x="520" d="M106 -557l97 412h211l-164 -412h-144z" />
<glyph horiz-adv-x="708" d="M223 1233l154 440h143l-98 -440h-199z" />
</font>
</defs>
</svg>
