<?xml version="1.0" standalone="no"?>
<!DOCTYPE svg PUBLIC "-//W3C//DTD SVG 1.1//EN" "http://www.w3.org/Graphics/SVG/1.1/DTD/svg11.dtd" >
<svg xmlns="http://www.w3.org/2000/svg">
<metadata></metadata>
<defs>
<font id="chsans-lightregular" horiz-adv-x="1093" >
<font-face units-per-em="2048" ascent="1638" descent="-410" />
<missing-glyph horiz-adv-x="520" />
<glyph unicode="ff" horiz-adv-x="1314" d="M35 920v98h176v141q0 53 3 89t10 62.5t20.5 47t34.5 41.5q37 37 97 51t122 14q47 0 87 -10t50 -14v-99q-6 2 -41 9.5t-68 7.5q-29 0 -71.5 -7.5t-75.5 -39.5q-25 -25 -30 -75t-5 -101v-117h291v-98h-291v-920h-133v920h-176zM692 920v98h176v141q0 53 3 89t10 62.5 t20.5 47t34.5 41.5q37 37 97 51t122 14q47 0 87 -10t50 -14v-99q-6 2 -41 9.5t-68 7.5q-29 0 -71.5 -7.5t-75.5 -39.5q-25 -25 -30 -75t-5 -101v-117h291v-98h-291v-920h-133v920h-176z" />
<glyph unicode="fi" horiz-adv-x="1048" d="M35 920v98h176v141q0 53 3 89t10 62.5t20.5 47t34.5 41.5q37 37 97 51t122 14q47 0 87 -10t50 -14v-99q-6 2 -41 9.5t-68 7.5q-29 0 -71.5 -7.5t-75.5 -39.5q-25 -25 -30 -75t-5 -101v-117h291v-98h-291v-920h-133v920h-176zM768 0v1018h134v-1018h-134zM768 1204v135 h134v-135h-134z" />
<glyph unicode="fl" horiz-adv-x="1048" d="M35 920v98h176v141q0 53 3 89t10 62.5t20.5 47t34.5 41.5q37 37 97 51t122 14q47 0 87 -10t50 -14v-99q-6 2 -41 9.5t-68 7.5q-29 0 -71.5 -7.5t-75.5 -39.5q-25 -25 -30 -75t-5 -101v-117h291v-98h-291v-920h-133v920h-176zM768 0v1444h134v-1444h-134z" />
<glyph unicode="ffi" horiz-adv-x="1742" d="M35 920v98h176v141q0 53 3 89t10 62.5t20.5 47t34.5 41.5q37 37 97 51t122 14q47 0 87 -10t50 -14v-99q-6 2 -41 9.5t-68 7.5q-29 0 -71.5 -7.5t-75.5 -39.5q-25 -25 -30 -75t-5 -101v-117h291v-98h-291v-920h-133v920h-176zM692 920v98h176v141q0 53 3 89t10 62.5 t20.5 47t34.5 41.5q37 37 97 51t122 14q47 0 87 -10t50 -14v-99q-6 2 -41 9.5t-68 7.5q-29 0 -71.5 -7.5t-75.5 -39.5q-25 -25 -30 -75t-5 -101v-117h291v-98h-291v-920h-133v920h-176zM1462 0v1018h134v-1018h-134zM1462 1204v135h134v-135h-134z" />
<glyph unicode="ffl" horiz-adv-x="1742" d="M35 920v98h176v141q0 53 3 89t10 62.5t20.5 47t34.5 41.5q37 37 97 51t122 14q47 0 87 -10t50 -14v-99q-6 2 -41 9.5t-68 7.5q-29 0 -71.5 -7.5t-75.5 -39.5q-25 -25 -30 -75t-5 -101v-117h291v-98h-291v-920h-133v920h-176zM692 920v98h176v141q0 53 3 89t10 62.5 t20.5 47t34.5 41.5q37 37 97 51t122 14q47 0 87 -10t50 -14v-99q-6 2 -41 9.5t-68 7.5q-29 0 -71.5 -7.5t-75.5 -39.5q-25 -25 -30 -75t-5 -101v-117h291v-98h-291v-920h-133v920h-176zM1462 0v1444h134v-1444h-134z" />
<glyph unicode="&#xd;" horiz-adv-x="0" />
<glyph unicode=" "  horiz-adv-x="520" />
<glyph unicode="&#x09;" horiz-adv-x="520" />
<glyph unicode="&#xa0;" horiz-adv-x="520" />
<glyph unicode="!" horiz-adv-x="561" d="M199 1427h163l-12 -978h-139zM201 0v162h161v-162h-161z" />
<glyph unicode="&#x22;" horiz-adv-x="839" d="M197 1427h137l-19 -411h-100zM506 1427h137l-18 -411h-101z" />
<glyph unicode="#" d="M70 442l18 99h184l76 399h-184l18 98h183l69 389h103l-70 -389h266l70 389h102l-69 -389h188l-18 -98h-187l-76 -399h187l-17 -99h-186l-65 -368h-103l66 368h-267l-65 -368h-103l66 368h-186zM375 541h266l76 399h-266z" />
<glyph unicode="$" d="M102 326h144q2 -10 9 -46t37 -76t87 -72t160 -32q141 0 215.5 68t74.5 184q0 74 -27.5 123t-73.5 84t-104.5 60.5t-119.5 50.5q-59 25 -123 53.5t-118 73.5t-89 111.5t-35 166.5q0 106 41 176t96.5 110t114 57.5t94.5 19.5v209h111v-209q70 -4 132.5 -23.5t110.5 -55.5 t76.5 -87t28.5 -119h-141q-2 10 -10.5 39t-34 59.5t-76.5 55t-141 24.5q-117 0 -187.5 -63.5t-70.5 -169.5q0 -74 23.5 -121t62.5 -79t90 -53.5t106 -43.5q72 -31 144.5 -61.5t131 -77t95.5 -115t37 -172.5q0 -109 -36 -180.5t-91 -116.5t-122 -65.5t-128 -24.5v-234h-111 v234q-178 10 -279.5 101t-103.5 237z" />
<glyph unicode="%" horiz-adv-x="1527" d="M111 1071q0 80 13 148.5t43 117.5t77 77t114 28q72 0 119 -31t76 -82t40 -118.5t11 -141.5q0 -80 -12 -148.5t-42 -119.5t-77 -81t-117 -30q-74 0 -122 34t-75.5 88t-37.5 123t-10 136zM211 1059q0 -41 4 -89t18.5 -89t44 -70t78.5 -29q47 0 76 24.5t45.5 63.5t21.5 89.5 t5 101.5q0 45 -3 96t-17.5 94t-43 71t-80.5 28q-53 0 -82.5 -28t-45 -71t-18.5 -94t-3 -98zM375 0l696 1466h98l-696 -1466h-98zM924 358q0 80 13 148.5t43 118t77 77t114 27.5q72 0 119 -30.5t76 -82t40 -119t11 -141.5q0 -80 -12 -148.5t-42 -119.5t-77 -81t-117 -30 q-74 0 -122 34t-75.5 88.5t-37.5 123t-10 135.5zM1024 346q0 -41 4 -89t18.5 -89t44 -69.5t78.5 -28.5q47 0 76 24.5t45.5 63.5t21.5 89t5 101q0 45 -3 96.5t-17.5 94.5t-43 70.5t-79.5 27.5q-53 0 -83 -27.5t-45.5 -70.5t-18.5 -94.5t-3 -98.5z" />
<glyph unicode="&#x26;" horiz-adv-x="1290" d="M88 387q0 123 41 197.5t95.5 116.5t105.5 58.5t73 22.5q-31 31 -64.5 66t-61 76t-46 91t-18.5 111q0 70 22.5 129.5t66.5 104.5t109.5 70.5t153.5 25.5q80 0 146.5 -18.5t116 -56.5t77 -95t27.5 -137h-135q-2 10 -8.5 43t-29 67.5t-67.5 62.5t-123 28q-111 0 -165 -61.5 t-54 -155.5q0 -47 12.5 -83t30 -62.5t37 -46t31.5 -34.5l514 -557q16 23 34.5 56.5t35 71.5t29.5 75t22 65l106 -38q-39 -135 -84 -212t-65 -106l168 -176l-97 -96l-159 172q-12 -12 -42 -44t-81 -65t-126 -58.5t-173 -25.5q-104 0 -188.5 20.5t-143.5 70t-91 129t-32 198.5 zM229 408q0 -164 80 -250t250 -86q74 0 132.5 22.5t101.5 52t69.5 58t34.5 39.5l-438 475q-10 -4 -56.5 -17.5t-87.5 -54.5q-12 -12 -27.5 -30.5t-27.5 -47t-21.5 -68.5t-9.5 -93z" />
<glyph unicode="'" horiz-adv-x="530" d="M197 1427h137l-19 -411h-100z" />
<glyph unicode="(" horiz-adv-x="856" d="M170 606q0 150 30.5 275t77 226t102.5 179t106.5 133.5t87 87t47.5 39.5l59 -59q-12 -12 -71.5 -78t-127 -178.5t-122 -270t-54.5 -354.5q0 -131 25.5 -245.5t64.5 -209t85 -169t87 -128t71 -84t36 -36.5l-60 -60q-10 8 -47 38t-87 82t-104 128t-100.5 176.5t-76 227.5 t-29.5 280z" />
<glyph unicode=")" horiz-adv-x="856" d="M176 1487l60 59q10 -8 46.5 -39.5t87 -86t106.5 -133.5t102.5 -180t77 -227t30.5 -274q0 -154 -29.5 -280.5t-75.5 -227t-100.5 -176.5t-104.5 -128t-87 -82t-47 -38l-60 60q6 6 36 36.5t71 84t87 128t85 169t64.5 209t25.5 245.5q0 197 -54.5 354.5t-122 270t-127 178.5 t-71.5 78z" />
<glyph unicode="*" horiz-adv-x="1253" d="M291 1018v102l284 -12l-167 264l86 47l133 -276l135 276l84 -47l-174 -264l291 12v-102l-285 20l168 -274l-86 -45l-133 274l-133 -274l-86 45l161 274z" />
<glyph unicode="+" d="M123 606v109h369v399h110v-399h369v-109h-369v-401h-110v401h-369z" />
<glyph unicode="," horiz-adv-x="458" d="M86 -211l90 373h168l-154 -373h-104z" />
<glyph unicode="-" horiz-adv-x="690" d="M61 606v109h568v-109h-568z" />
<glyph unicode="." horiz-adv-x="534" d="M186 0v162h162v-162h-162z" />
<glyph unicode="/" horiz-adv-x="618" d="M-33 -246l486 1690h116l-485 -1690h-117z" />
<glyph unicode="0" d="M68 723q0 166 26.5 300t85 230.5t149.5 148.5t220 52q137 0 229 -56.5t147.5 -155.5t79 -233.5t23.5 -287.5q0 -164 -25.5 -301t-82 -236.5t-148.5 -155t-227 -55.5q-143 0 -235.5 63.5t-146.5 168t-74.5 240t-20.5 278.5zM213 700q0 -88 9 -194.5t43 -198.5t99.5 -153.5 t180.5 -61.5t182.5 57.5t102 147.5t44 197.5t9.5 210.5q0 100 -8.5 210.5t-41 204.5t-99 155.5t-181.5 61.5q-121 0 -188.5 -60t-101.5 -153.5t-42 -206t-8 -217.5z" />
<glyph unicode="1" d="M225 1098v116l361 213h133v-1427h-137v1309z" />
<glyph unicode="2" d="M111 0v27q0 78 17 141t46 116.5t67 98.5t78 86q74 74 156 140.5t151.5 137t114.5 150.5t45 180q0 123 -64.5 196t-193.5 73q-236 0 -268 -222h-145q0 51 20.5 108.5t68.5 107t129 82t202 32.5q86 0 159.5 -24.5t128 -71.5t84 -117t29.5 -162q0 -117 -44 -202.5 t-113.5 -160.5t-158 -146.5t-174.5 -157.5q-66 -66 -114.5 -133.5t-55.5 -159.5h670v-119h-835z" />
<glyph unicode="3" d="M98 281h146q0 -10 9 -42t35.5 -66t77 -60.5t132.5 -26.5q135 0 225 72.5t90 226.5q0 98 -32.5 156.5t-83 88t-108 39t-106.5 9.5h-41v113h31q35 0 89 6t104.5 33.5t86 87t35.5 167.5q0 135 -73.5 198t-196.5 63q-119 0 -178 -60.5t-76 -161.5h-145q8 147 113.5 238.5 t279.5 91.5q82 0 157.5 -20.5t132 -62.5t90.5 -107.5t34 -155.5q0 -131 -40 -204t-91.5 -109.5t-99.5 -46t-66 -11.5q166 -16 245.5 -103t79.5 -263q0 -90 -32.5 -163t-92 -125t-141.5 -81t-182 -29q-102 0 -178 27t-127 71t-77 99t-26 111z" />
<glyph unicode="4" d="M61 319v103l662 1005h145v-995h189v-113h-189v-319h-135v319h-672zM193 432h540v834z" />
<glyph unicode="5" d="M133 256h146q2 -10 8 -38t30.5 -57.5t75.5 -53t142 -23.5q88 0 145 29.5t91 80t47 114t13 130.5q0 72 -12 137.5t-45 114.5t-87 78t-140 29q-61 0 -108.5 -14.5t-81 -34t-54 -38t-29.5 -26.5l-100 43l33 700h700v-112h-592l-26 -529q8 8 29.5 29t57.5 42.5t90 36.5 t128 15q102 0 174 -34.5t118 -96t66.5 -146.5t20.5 -186q0 -121 -34 -210t-92.5 -147t-137 -87t-170.5 -29q-90 0 -164 17.5t-127 53.5t-84 88t-31 124z" />
<glyph unicode="6" d="M106 688q0 88 8.5 179t30 176t57.5 160t90 130.5t130 88t178 32.5q68 0 134.5 -18.5t118.5 -53t86 -86t36 -114.5h-144q-2 6 -10 31.5t-33.5 55t-72.5 53.5t-125 24q-113 0 -180.5 -61.5t-103.5 -159t-48 -216t-14 -231.5q6 12 26.5 50t63.5 78t112.5 71.5t174.5 31.5 q199 0 296 -120.5t97 -333.5q0 -109 -28 -198t-81 -152.5t-134 -97.5t-185 -34q-147 0 -241.5 60.5t-147 161t-72 229.5t-19.5 264zM274 436q0 -68 16.5 -130t52.5 -111.5t94.5 -79t144.5 -29.5q84 0 141 27.5t91 75t48.5 113t14.5 138.5q0 68 -13.5 132.5t-47.5 114.5 t-90 81t-140 31q-78 0 -136.5 -30t-97.5 -80t-58.5 -115.5t-19.5 -137.5z" />
<glyph unicode="7" d="M106 1313v114h850v-102l-516 -1325h-145l530 1313h-719z" />
<glyph unicode="8" d="M109 377q0 123 42 196.5t95 112.5t101 52.5t61 15.5q-10 2 -53.5 13t-90.5 46t-84 100.5t-37 176.5q0 106 41 175.5t102.5 111.5t132 59.5t128.5 17.5q78 0 151.5 -20.5t131 -63.5t92 -111.5t34.5 -164.5q0 -117 -37.5 -184.5t-86 -101.5t-92.5 -43t-54 -11 q12 -2 61.5 -13.5t101.5 -50.5t94 -112.5t42 -200.5q0 -102 -31.5 -178t-89 -126t-138.5 -75t-179 -25q-96 0 -176 25t-138.5 75t-91 125.5t-32.5 178.5zM248 383q0 -158 81 -229.5t216 -71.5q66 0 121 17.5t95 54t62.5 93t22.5 136.5q0 160 -82 236.5t-219 76.5t-217 -79.5 t-80 -233.5zM272 1081q0 -141 76 -210.5t199 -69.5q125 0 202.5 74.5t77.5 205.5q0 135 -76.5 202t-201.5 67t-201 -65.5t-76 -203.5z" />
<glyph unicode="9" d="M80 975q0 68 18.5 150.5t65.5 156.5t130 123t212 49q143 0 236.5 -59.5t147.5 -158.5t75.5 -228t21.5 -269q0 -158 -23.5 -296t-81 -242.5t-152.5 -165t-236 -60.5q-70 0 -122.5 11.5t-92 31t-66.5 44t-45 51.5q-41 59 -49 137h141q2 -6 10.5 -33t34 -56.5t71.5 -52 t124 -22.5q82 0 140 32t97 84t61.5 120.5t35 142.5t16.5 147.5t6 139.5q-6 -16 -26.5 -57.5t-63.5 -84.5t-114.5 -76.5t-178.5 -33.5q-98 0 -172 35.5t-123 99t-73.5 150.5t-24.5 190zM213 989q0 -74 13.5 -142.5t45 -121.5t88 -86t142.5 -33t146.5 36t98 92.5t55 125 t17.5 133.5q0 74 -17.5 139.5t-55 112.5t-97 75t-141.5 28q-74 0 -129 -28t-92 -76t-55.5 -113.5t-18.5 -141.5z" />
<glyph unicode=":" horiz-adv-x="534" d="M186 0v162h162v-162h-162zM186 856v162h162v-162h-162z" />
<glyph unicode=";" horiz-adv-x="452" d="M86 -211l90 373h168l-154 -373h-104zM166 856v162h162v-162h-162z" />
<glyph unicode="&#x3c;" d="M123 600v107l848 399v-117l-735 -334l735 -331v-117z" />
<glyph unicode="=" d="M123 424v113h848v-113h-848zM123 778v113h848v-113h-848z" />
<glyph unicode="&#x3e;" d="M123 207v117l735 331l-735 334v117l848 -399v-107z" />
<glyph unicode="?" horiz-adv-x="964" d="M82 1124q2 51 22.5 109.5t66.5 108t123 81t191 31.5q96 0 170 -26.5t125 -73.5t77 -109.5t26 -134.5q0 -61 -11.5 -108.5t-29 -83t-39 -62.5t-43.5 -49q-61 -61 -103.5 -90t-69 -54.5t-39.5 -62.5t-18 -117l-2 -34h-147v28q0 61 3 98t10 63t20.5 43t34.5 38 q33 33 82 70.5t94 83t76.5 100.5t31.5 127q0 117 -64.5 181.5t-183.5 64.5q-115 0 -179 -57.5t-79 -164.5h-145zM373 0v162h162v-162h-162z" />
<glyph unicode="@" horiz-adv-x="1466" d="M57 641q0 197 46.5 350.5t138.5 260t229 162.5t320 56q135 0 248.5 -26.5t195.5 -89t128 -165t46 -253.5q0 -164 -37 -270.5t-92 -170t-121.5 -89t-128.5 -25.5q-47 0 -77.5 13.5t-48 31.5t-25 38.5t-9.5 33.5q-6 -10 -23.5 -29.5t-47 -39t-68.5 -34t-88 -14.5 q-117 0 -174 70.5t-57 187.5q0 88 25.5 166t69.5 136t104.5 91t127.5 33q45 0 78 -14.5t53.5 -33t31.5 -37.5t18 -30l32 99h97l-56 -322q-8 -47 -16 -93t-8 -81q0 -29 17.5 -53.5t64.5 -24.5q27 0 66.5 15.5t76.5 64.5t63.5 141t26.5 246q0 135 -38 218t-106.5 129 t-163.5 62.5t-208 16.5q-166 0 -278.5 -57.5t-180 -156.5t-97.5 -232.5t-30 -284.5q0 -295 135.5 -424t417.5 -129q125 0 256 39t242 131l61 -80q-29 -29 -78 -61.5t-119.5 -62.5t-164.5 -49t-213 -19q-68 0 -138.5 7t-137 25.5t-126 51t-106.5 84.5q-43 47 -72.5 105 t-47 122.5t-26 132.5t-8.5 131zM539 645q0 -35 6 -67.5t22.5 -58t45 -41t73.5 -15.5q53 0 92 30.5t65.5 80t39 108.5t12.5 115q0 29 -5 61.5t-19.5 61t-42 47t-70.5 18.5q-66 0 -108 -40t-66.5 -94t-34.5 -111.5t-10 -94.5z" />
<glyph unicode="A" horiz-adv-x="1144" d="M-2 0l485 1427h181l483 -1427h-166l-111 350h-610l-110 -350h-152zM297 463h539l-271 844z" />
<glyph unicode="B" horiz-adv-x="1175" d="M178 0v1427h369q150 0 243 -21.5t160 -88.5q25 -25 53.5 -81t28.5 -167q0 -117 -32.5 -183.5t-74.5 -101t-80 -45t-50 -12.5q14 -2 40.5 -7t58.5 -18.5t63.5 -36t58 -59.5t44 -91t17.5 -130q0 -98 -25.5 -160.5t-66.5 -103.5q-72 -72 -180.5 -96.5t-274.5 -24.5h-352z M311 113h246q63 0 129 6t119 32.5t88 81t35 152.5q0 94 -28 148.5t-74 83t-108.5 37t-129.5 8.5h-277v-549zM311 770h168q63 0 136 5t132.5 33t99.5 85t40 160q0 86 -26.5 139t-72 80.5t-106.5 37t-131 9.5h-240v-549z" />
<glyph unicode="C" horiz-adv-x="1212" d="M98 702q0 193 41 335.5t117 234.5t180.5 137t231.5 45q137 0 219 -37t141 -96q43 -43 66.5 -97.5t27.5 -99.5h-149q-4 10 -15.5 46t-44 74t-91 67.5t-152.5 29.5q-129 0 -212 -60t-129 -153.5t-63.5 -206t-17.5 -216.5q0 -100 18.5 -209t64.5 -200t126 -149.5t205 -58.5 q100 0 160.5 28.5t94 65.5t46 71t16.5 44h149q-4 -37 -26.5 -92t-75.5 -107.5t-141 -89.5t-223 -37q-119 0 -221.5 41t-178.5 129t-120 227.5t-44 333.5z" />
<glyph unicode="D" horiz-adv-x="1318" d="M178 0v1427h287q51 0 124 -2t151.5 -17t157.5 -50t144 -101q55 -55 89 -119.5t54.5 -134t28 -141t7.5 -137.5q0 -203 -48.5 -335t-128.5 -214q-53 -53 -115.5 -87t-139 -54.5t-168 -27.5t-199.5 -7h-244zM319 117h138q70 0 141.5 5t140 24.5t129 58.5t105.5 105.5 t71.5 165.5t26.5 241q0 150 -29.5 253t-78 169.5t-110.5 102.5t-129 52.5t-131.5 19.5t-117.5 3h-156v-1200z" />
<glyph unicode="E" horiz-adv-x="1071" d="M178 0v1427h785v-110h-644v-533h611v-110h-611v-557h662v-117h-803z" />
<glyph unicode="F" horiz-adv-x="1026" d="M178 0v1427h783v-110h-642v-535h607v-110h-607v-672h-141z" />
<glyph unicode="G" horiz-adv-x="1220" d="M98 702q0 193 41 335.5t117 234.5t180.5 137t231.5 45q135 0 217 -36t141 -95q41 -41 66.5 -93t29.5 -97h-149q-4 10 -16.5 43.5t-45 70.5t-91 65.5t-150.5 28.5q-129 0 -212 -60t-129 -153.5t-63.5 -206t-17.5 -216.5q0 -113 18.5 -223.5t69.5 -198.5t139 -142.5 t227 -54.5q61 0 109.5 8t84.5 18.5t57.5 19.5t29.5 13v441h-303v110h436v-633q-6 -4 -41 -18t-90 -30.5t-128 -30t-155 -13.5q-309 0 -456.5 185.5t-147.5 545.5z" />
<glyph unicode="H" horiz-adv-x="1390" d="M178 0v1427h141v-634h752v634h141v-1427h-141v678h-752v-678h-141z" />
<glyph unicode="I" horiz-adv-x="497" d="M178 0v1427h141v-1427h-141z" />
<glyph unicode="J" horiz-adv-x="974" d="M27 293h139q2 -14 11 -49t36 -72t73 -64.5t124 -27.5q57 0 96 15.5t72 45.5q53 53 65 128t12 173v985h142v-1013q0 -47 -2 -93.5t-12.5 -89.5t-31 -84t-57.5 -77q-45 -45 -118.5 -71t-165.5 -26q-104 0 -176 26t-117 71q-55 55 -72.5 112.5t-17.5 110.5z" />
<glyph unicode="K" horiz-adv-x="1130" d="M178 0v1427h141v-679l603 679h168l-619 -688l655 -739h-188l-619 713v-713h-141z" />
<glyph unicode="L" horiz-adv-x="1019" d="M178 0v1427h141v-1310h660v-117h-801z" />
<glyph unicode="M" horiz-adv-x="1683" d="M178 0v1427h228l438 -1284l436 1284h225v-1427h-129v1339l-458 -1339h-154l-457 1339v-1339h-129z" />
<glyph unicode="N" horiz-adv-x="1390" d="M178 0v1427h174l733 -1255v1255h127v-1427h-172l-735 1264v-1264h-127z" />
<glyph unicode="O" horiz-adv-x="1372" d="M98 709q0 164 35 301t107.5 235t184.5 153.5t263 55.5q291 0 438.5 -191.5t147.5 -553.5q0 -352 -151.5 -545t-438.5 -193t-436.5 191.5t-149.5 546.5zM248 717q0 -98 15.5 -209t62.5 -204t133 -154.5t225 -61.5q137 0 223 60.5t134.5 153.5t65.5 203.5t17 211.5 q0 106 -18.5 216.5t-67.5 201t-134 148.5t-220 58q-133 0 -218 -60t-133 -153.5t-66.5 -203t-18.5 -207.5z" />
<glyph unicode="P" horiz-adv-x="1128" d="M178 0v1427h373q55 0 110.5 -2t107.5 -11t99 -31.5t88 -61.5q47 -47 78 -119t31 -164q0 -137 -43 -221t-114.5 -130t-163 -61.5t-187.5 -15.5h-238v-610h-141zM319 725h197q115 0 195 17.5t133 70.5q71 71 71 221q0 108 -38.5 164.5t-95 82.5t-121 30t-115.5 4h-226v-590 z" />
<glyph unicode="Q" horiz-adv-x="1372" d="M98 709q0 164 35 301t107.5 235t184.5 153.5t263 55.5q291 0 438.5 -191.5t147.5 -553.5q0 -162 -31 -276t-79 -190.5t-105.5 -121.5t-110.5 -69.5t-94 -33t-57 -10.5l370 -182l-65 -113l-547 291q-63 8 -140 41t-141 96q-20 20 -49.5 62.5t-57.5 112t-48.5 167 t-20.5 226.5zM248 717q0 -98 15.5 -210t62.5 -205t133 -154.5t225 -61.5q137 0 223 60.5t134.5 153.5t65.5 204.5t17 212.5q0 106 -18.5 216.5t-67.5 201t-134 148.5t-220 58q-133 0 -218 -60t-133 -153.5t-66.5 -203t-18.5 -207.5z" />
<glyph unicode="R" horiz-adv-x="1204" d="M178 0v1427h320q98 0 193 -10t170 -48t122 -110.5t47 -197.5q0 -129 -42 -203t-98 -111.5t-115.5 -50t-94.5 -16.5q41 -4 81 -17.5t81 -54.5q18 -18 37.5 -54t38 -76t34 -78t25.5 -62l135 -338h-160l-127 338q-29 74 -52 127t-64 94q-39 39 -96.5 55.5t-143.5 16.5h-150 v-631h-141zM319 737h164q102 0 187.5 21.5t142.5 79.5q35 35 53.5 85t18.5 119q0 55 -13.5 107.5t-48.5 87.5q-61 61 -146 72.5t-179 11.5h-179v-584z" />
<glyph unicode="S" horiz-adv-x="1099" d="M98 317h150q2 -10 10 -47t38 -77.5t90 -72.5t165 -32q147 0 224 69.5t77 186.5q0 76 -29.5 126t-77 86t-109 61.5t-122.5 52.5q-61 25 -128 54.5t-122 74.5t-91 113.5t-36 170.5q0 111 44 182.5t108.5 113.5t137.5 58.5t128 16.5q88 0 164 -19.5t131 -57.5t87 -92 t34 -124h-146q-2 10 -10 40t-35.5 61.5t-81 56t-145.5 24.5q-121 0 -194.5 -64.5t-73.5 -172.5q0 -76 24.5 -124t65.5 -80t94 -53.5t111 -45.5q76 -31 150.5 -62.5t135 -79t98 -117t37.5 -175.5q0 -111 -38.5 -187t-102 -123t-144.5 -67.5t-165 -20.5q-111 0 -195 27 t-141 73t-87 109.5t-30 136.5z" />
<glyph unicode="T" horiz-adv-x="1071" d="M45 1317v110h981v-110h-420v-1317h-141v1317h-420z" />
<glyph unicode="U" horiz-adv-x="1355" d="M178 586v841h141v-847q0 -78 8.5 -164t44.5 -159t108.5 -120t199.5 -47q88 0 148.5 23.5t101.5 64.5q39 39 61.5 91.5t32.5 105.5t12 105t2 95v852h140v-841q0 -68 -3.5 -133.5t-17.5 -127t-40.5 -116.5t-76.5 -105q-23 -23 -53.5 -46t-73.5 -41.5t-100 -31t-131 -12.5 q-129 0 -218 36t-149 95q-47 49 -74.5 105.5t-42 118t-17.5 127t-3 131.5z" />
<glyph unicode="V" horiz-adv-x="1116" d="M16 1427h158l393 -1331l400 1331h145l-453 -1427h-196z" />
<glyph unicode="W" horiz-adv-x="1714" d="M16 1427h150l285 -1284l321 1284h172l328 -1284l280 1284h146l-336 -1427h-182l-324 1282l-319 -1282h-191z" />
<glyph unicode="X" horiz-adv-x="1034" d="M2 0l447 737l-404 690h154l325 -575l336 575h137l-407 -688l442 -739h-160l-356 623l-364 -623h-150z" />
<glyph unicode="Y" horiz-adv-x="954" d="M-23 1427h162l344 -749l348 749h146l-430 -870v-557h-141v557z" />
<glyph unicode="Z" horiz-adv-x="1040" d="M49 0v104l766 1213h-727v110h889v-106l-760 -1204h774v-117h-942z" />
<glyph unicode="[" horiz-adv-x="708" d="M147 -246v1690h388v-98h-256v-1493h256v-99h-388z" />
<glyph unicode="\" horiz-adv-x="618" d="M49 1444h117l485 -1690h-116z" />
<glyph unicode="]" horiz-adv-x="708" d="M174 -147h256v1493h-256v98h387v-1690h-387v99z" />
<glyph unicode="^" d="M154 670l333 757h113l340 -757h-109l-288 671l-279 -671h-110z" />
<glyph unicode="_" horiz-adv-x="925" d="M8 -141h910v-105h-910v105z" />
<glyph unicode="`" horiz-adv-x="471" d="M47 1444h148l176 -254h-121z" />
<glyph unicode="a" horiz-adv-x="993" d="M86 276q0 119 48 190t125 105.5t172 45t190 10.5h106v69q0 53 -8 101.5t-43 83.5q-23 23 -62 42t-122 19q-72 0 -113 -16.5t-62.5 -38t-27.5 -43t-8 -29.5h-142q0 16 9.5 54t44 76t106.5 67.5t199 29.5q92 0 160.5 -20.5t119.5 -71.5q55 -55 67.5 -127.5t12.5 -138.5 v-684h-113l-6 158q-4 -10 -20.5 -39t-54 -59.5t-101.5 -55t-162 -24.5q-63 0 -120.5 19t-100.5 56t-68.5 92.5t-25.5 128.5zM225 289q1 -205 224 -205q74 0 126 28.5t85.5 74.5t50 106.5t16.5 124.5v112h-115q-61 0 -128.5 -5t-125 -27.5t-95.5 -71.5t-38 -137z" />
<glyph unicode="b" horiz-adv-x="1095" d="M147 0v1444h134v-580q4 12 24.5 41t59 59.5t97 54t142.5 23.5q104 0 181 -44t126.5 -116.5t74 -169t24.5 -200.5q0 -98 -21.5 -194.5t-70 -172t-125 -123t-187.5 -47.5q-90 0 -150.5 24t-100.5 55.5t-60.5 63.5t-28.5 48l-6 -166h-113zM279 498q0 -57 11 -129t44 -135.5 t90 -106.5t147 -43q92 0 149.5 41t90.5 103.5t45 136t12 141.5q0 66 -12 141.5t-45 139t-91 105.5t-149 42q-92 0 -149 -44t-89 -109.5t-43 -141.5t-11 -141z" />
<glyph unicode="c" horiz-adv-x="978" d="M86 498q0 254 110.5 399t331.5 145q129 0 201 -37.5t107.5 -87t44 -93.5t8.5 -56h-133q0 6 -7.5 33.5t-31 58.5t-68.5 55.5t-121 24.5q-92 0 -150.5 -35t-92 -94t-46 -137t-12.5 -162q0 -70 11.5 -145.5t42 -140t88 -106.5t149.5 -42q76 0 123 21.5t72.5 50t35 55 t11.5 37.5h133q0 -10 -10.5 -52.5t-47 -90.5t-111.5 -86t-206 -38q-201 0 -316.5 128t-115.5 395z" />
<glyph unicode="d" horiz-adv-x="1095" d="M86 512q0 98 22.5 193.5t71.5 170t125 120.5t184 46q94 0 157 -25.5t99.5 -57t52 -60.5t17.5 -35v580h133v-1444h-112l-7 166q-6 -12 -25.5 -44t-57 -63.5t-98 -57.5t-148.5 -26q-111 0 -190 45.5t-129 120t-72.5 171t-22.5 200.5zM227 506q0 -68 12.5 -141.5t45 -136 t91 -103.5t148.5 -41t147.5 42t89.5 105.5t44 135t12 131.5q0 66 -11 141.5t-43 141t-89.5 109.5t-149.5 44q-90 0 -147.5 -42t-90 -105.5t-46 -138.5t-13.5 -142z" />
<glyph unicode="e" horiz-adv-x="995" d="M86 492q0 119 23.5 219t76 173.5t134 115.5t200.5 42t195 -40.5t119 -111.5t59 -166t16 -202v-53h-682q0 -80 14.5 -151.5t48.5 -127t90 -88t144 -32.5q70 0 113 16t68.5 37.5t36 44t14.5 33.5h125q0 -16 -14.5 -54t-54.5 -77t-110.5 -69t-181.5 -30q-123 0 -206 40 t-134 111t-72.5 165t-21.5 205zM227 565h549q0 70 -8 137.5t-34.5 121t-78 86t-137.5 32.5q-78 0 -133 -29.5t-89 -80t-50.5 -119t-18.5 -148.5z" />
<glyph unicode="f" horiz-adv-x="657" d="M35 920v98h176v141q0 53 3 89t10 62.5t20.5 47t34.5 41.5q37 37 97 51t122 14q47 0 87 -10t50 -14v-99q-6 2 -41 9.5t-68 7.5q-29 0 -71.5 -7.5t-75.5 -39.5q-25 -25 -30 -75t-5 -101v-117h291v-98h-291v-920h-133v920h-176z" />
<glyph unicode="g" horiz-adv-x="1091" d="M86 504q0 100 21.5 197.5t69.5 173t125 121.5t185 46q100 0 165 -26.5t102 -60t51 -64.5t18 -39l6 166h115v-903q0 -53 -2 -105.5t-12 -101.5t-31.5 -95t-60.5 -85q-14 -14 -37 -34t-61 -38t-94 -30.5t-136 -12.5q-127 0 -200.5 29.5t-111.5 68.5t-48.5 78t-10.5 59h137 q2 -10 8.5 -31.5t29 -45t68.5 -41t128 -17.5q164 0 232.5 86t68.5 260v101q-4 -8 -24.5 -35t-58.5 -54.5t-97.5 -49t-143.5 -21.5q-104 0 -180 42t-125 111.5t-72.5 161t-23.5 189.5zM227 512q0 -68 13.5 -139.5t47.5 -130t91 -96t145 -37.5q90 0 146.5 38.5t89.5 99 t44 133.5t11 140q0 63 -13.5 136t-47 134.5t-90 102.5t-142.5 41q-90 0 -147.5 -41t-90 -103.5t-45 -136t-12.5 -141.5z" />
<glyph unicode="h" horiz-adv-x="1077" d="M147 0v1444h134v-594q6 10 26.5 42t61.5 65.5t105.5 59t158.5 25.5q88 0 142 -20.5t91 -56.5q53 -53 64.5 -123t11.5 -144v-698h-133v637q0 55 -3 108.5t-23.5 93.5t-62.5 64.5t-122 24.5q-109 0 -171 -47t-95 -118t-42 -154t-9 -156v-453h-134z" />
<glyph unicode="i" horiz-adv-x="428" d="M147 0v1018h134v-1018h-134zM147 1204v135h134v-135h-134z" />
<glyph unicode="j" horiz-adv-x="520" d="M-29 -252q12 -4 37 -9t58 -5q66 0 100.5 20.5t50.5 54t19.5 74.5t3.5 84v1051h133v-1069q0 -104 -14.5 -157.5t-53.5 -92.5q-27 -27 -74 -49.5t-133 -22.5q-45 0 -80.5 9.5t-46.5 13.5v98zM240 1204v135h133v-135h-133z" />
<glyph unicode="k" horiz-adv-x="886" d="M147 0v1444h134v-905l391 479h149l-399 -486l440 -532h-170l-411 514v-514h-134z" />
<glyph unicode="l" horiz-adv-x="428" d="M147 0v1444h134v-1444h-134z" />
<glyph unicode="m" horiz-adv-x="1648" d="M147 0v1018h113l6 -191q6 16 24.5 52t57.5 72t102.5 63.5t159.5 27.5q53 0 102.5 -14t88.5 -53q20 -23 34.5 -48.5t21.5 -49t11 -43t4 -27.5q2 8 18.5 47t56.5 80t109.5 74.5t180.5 33.5q59 0 114.5 -18t90.5 -53q51 -51 61 -119t10 -154v-698h-133v629q0 55 -2 108.5 t-19.5 95t-56 68.5t-114.5 27q-98 0 -156.5 -48.5t-88.5 -119t-38 -154.5t-8 -153v-453h-133v629q0 53 -3 106t-20.5 96t-57.5 70t-114 27q-100 0 -157.5 -48.5t-87 -120t-36.5 -154.5t-7 -152v-453h-134z" />
<glyph unicode="n" horiz-adv-x="1077" d="M147 0v1018h113l6 -193q4 8 22.5 43t60.5 74t110.5 69.5t173.5 30.5q88 0 142 -20.5t91 -56.5q53 -53 64.5 -123t11.5 -144v-698h-133v637q0 57 -3 110.5t-23.5 93.5t-62.5 63.5t-122 23.5q-109 0 -171 -47t-95 -118t-42 -154t-9 -156v-453h-134z" />
<glyph unicode="o" horiz-adv-x="1064" d="M86 510q0 156 39 259t103.5 163.5t145.5 85t165 24.5t162.5 -24.5t140 -85t99.5 -162.5t38 -260t-39 -261.5t-101.5 -163.5t-143.5 -85t-165 -25t-163.5 25t-142 85t-100.5 163.5t-38 261.5zM227 510q0 -92 14.5 -172t50.5 -137.5t94 -90t144 -32.5q90 0 149.5 32.5 t94.5 90t49.5 137.5t14.5 172q0 94 -14.5 173t-50.5 136.5t-95.5 89t-147.5 31.5t-146 -31.5t-93 -89t-49.5 -136.5t-14.5 -173z" />
<glyph unicode="p" horiz-adv-x="1095" d="M147 -377v1395h113l6 -162q4 8 20.5 38t53.5 62.5t99.5 59t158.5 26.5q92 0 157.5 -29.5t111.5 -76.5t74 -105.5t43 -116t20.5 -108.5t5.5 -84q0 -74 -16.5 -169t-62.5 -179t-127 -141.5t-210 -57.5q-82 0 -139.5 22.5t-95 52.5t-56 56.5t-22.5 34.5v-518h-134zM283 528 q0 -90 10 -154.5t26.5 -108.5t35 -70.5t34.5 -42.5q35 -37 83 -54.5t97 -17.5q88 0 146.5 45t92.5 110.5t47 142.5t13 138q0 47 -9 119t-40 139.5t-90 116.5t-160 49q-53 0 -104 -18.5t-92 -64.5t-65.5 -126t-24.5 -203z" />
<glyph unicode="q" horiz-adv-x="1095" d="M86 504q0 98 21.5 194.5t70.5 173t127 123.5t193 47q98 0 159.5 -23.5t98.5 -55t52 -61.5l21 -42l7 158h112v-1395h-133v518q-4 -10 -19.5 -36.5t-51 -55.5t-95 -51.5t-149.5 -22.5q-111 0 -189 46.5t-128 121t-73.5 170t-23.5 191.5zM227 504q0 -49 13.5 -121 t47.5 -139.5t91 -115.5t147 -48q70 0 115 21.5t72 48.5q14 14 32.5 41.5t33 73.5t24.5 111.5t10 158.5q0 129 -26.5 208.5t-69.5 123.5t-95.5 58.5t-103.5 14.5q-94 0 -151.5 -40t-88 -103.5t-41 -140t-10.5 -152.5z" />
<glyph unicode="r" horiz-adv-x="681" d="M147 0v1018h113l6 -240q2 8 17.5 50t52.5 88.5t103.5 83t170.5 36.5q16 0 33 -4q8 -2 14 -2v-133q-4 0 -14 1t-22 1q-121 0 -190 -48t-102.5 -127t-40.5 -178.5t-7 -203.5v-342h-134z" />
<glyph unicode="s" horiz-adv-x="876" d="M86 219h145q2 -6 7.5 -29.5t26 -49t61.5 -46t114 -20.5q201 0 201 164q0 41 -18.5 70.5t-54.5 55t-86 49t-111 52.5q-33 14 -76 34.5t-82 54.5t-65.5 86t-26.5 130q0 59 22.5 105.5t49.5 72.5q39 39 97 66.5t150 27.5q86 0 155 -18t116 -66q41 -41 54 -79.5t13 -65.5 h-133q0 4 -6 24.5t-26.5 44t-60.5 43t-110 19.5q-78 0 -129 -41t-51 -119q0 -45 15.5 -75.5t41 -52t58.5 -36t65 -28.5q72 -31 135.5 -58.5t110.5 -64.5t75 -86t28 -119q0 -82 -28 -137t-75 -89t-110.5 -48.5t-135.5 -14.5q-92 0 -153.5 16.5t-101.5 42t-60.5 55.5 t-29.5 57.5t-10 47t-1 25.5z" />
<glyph unicode="t" horiz-adv-x="671" d="M27 920v98h182v293h133v-293h285v-98h-285v-637q0 -45 4 -81t21.5 -61.5t53.5 -40t99 -14.5q41 0 72 5t35 7v-100q-4 -2 -18.5 -5t-35 -7t-44.5 -7.5t-44 -3.5q-145 0 -211 66q-47 47 -56 100.5t-9 124.5v654h-182z" />
<glyph unicode="u" horiz-adv-x="1067" d="M135 352v666h133v-645q0 -45 4 -95.5t24.5 -91.5t63.5 -68.5t119 -27.5q106 0 168 48t92.5 120t38.5 155t8 154v451h134v-1018h-113l-6 174q-6 -14 -24.5 -47t-57.5 -65.5t-102.5 -57t-159.5 -24.5q-74 0 -134.5 20t-103.5 63q-31 31 -48 66t-25.5 72t-9.5 74.5t-1 76.5z " />
<glyph unicode="v" horiz-adv-x="911" d="M10 1018h142l307 -916l309 916h133l-371 -1018h-149z" />
<glyph unicode="w" horiz-adv-x="1370" d="M23 1018h135l219 -926l239 926h138l252 -926l208 926h134l-252 -1018h-178l-236 864l-221 -864h-178z" />
<glyph unicode="x" horiz-adv-x="829" d="M10 0l338 526l-313 492h147l240 -389l235 389h134l-308 -488l336 -530h-147l-260 422l-267 -422h-135z" />
<glyph unicode="y" horiz-adv-x="901" d="M8 1018h144l307 -850l301 850h133l-438 -1165q-27 -68 -49.5 -107t-47.5 -63q-18 -18 -63 -44t-123 -26q-33 0 -60.5 4t-45.5 8v99q14 -2 32.5 -5.5t40.5 -3.5q45 0 77 12.5t55.5 36t40 54t28.5 67.5l51 142z" />
<glyph unicode="z" horiz-adv-x="866" d="M68 0v92l573 828h-551v98h701v-84l-572 -832h584v-102h-735z" />
<glyph unicode="{" horiz-adv-x="708" d="M55 602v98q37 4 58.5 17.5t31 41t11.5 70.5t2 105v172q0 102 12 164.5t59 109.5t108.5 55.5t135.5 8.5h62v-98h-121q-47 0 -74 -16.5t-39 -48.5t-14 -78t-2 -107v-236q0 -72 -14.5 -112.5t-34 -62t-39 -28t-29.5 -6.5q14 -2 33.5 -8t38 -22.5t32 -49t13.5 -86.5v-460 q0 -45 6 -77t24.5 -53.5t51 -31.5t88.5 -10h80v-99h-58q-102 0 -158.5 15.5t-95.5 54.5q-23 23 -36 47.5t-19 57t-8 76.5t-2 108v272q0 63 -3 104t-14.5 63.5t-32 33t-53.5 16.5z" />
<glyph unicode="|" horiz-adv-x="419" d="M143 -246v1690h133v-1690h-133z" />
<glyph unicode="}" horiz-adv-x="708" d="M174 -147h80q55 0 88 10t51.5 31.5t24.5 53.5t6 77v460q0 53 13.5 86t31.5 49.5t37.5 22.5t34.5 8q-10 0 -29.5 6.5t-39 28t-34 62t-14.5 112.5v236q0 61 -2 107t-14.5 78t-39 48.5t-73.5 16.5h-121v98h62q74 0 135 -8.5t108 -55.5t59.5 -109.5t12.5 -164.5v-172 q0 -61 2 -104.5t11 -71t30.5 -40.5t58.5 -18v-98q-35 -6 -54 -16.5t-30.5 -33t-14.5 -63t-3 -104.5v-272q0 -63 -2 -107.5t-8 -77t-19.5 -57.5t-36.5 -47q-39 -39 -95 -54.5t-159 -15.5h-57v99z" />
<glyph unicode="~" d="M125 512q0 68 16.5 114t46 72.5t68.5 38t84 11.5q66 0 120 -19.5t102 -42t92 -42t87 -19.5q45 0 70 16t36 37.5t14 42t3 27.5h107q-2 -104 -55.5 -170t-167.5 -66q-59 0 -116 19.5t-107 42t-95 42t-82 19.5q-39 0 -61.5 -15.5t-34.5 -35t-16.5 -40t-4.5 -32.5h-106z" />
<glyph unicode="&#xa1;" horiz-adv-x="561" d="M199 -410l12 979h139l12 -979h-163zM201 856v162h161v-162h-161z" />
<glyph unicode="&#xa2;" d="M143 522q0 254 102.5 389.5t274.5 151.5v229h103v-227q117 -6 182 -45t96 -87t38 -90t7 -50h-133q0 6 -7 33.5t-30.5 58t-68.5 55.5t-121 25q-92 0 -150.5 -35t-92.5 -94.5t-46 -137t-12 -161.5q0 -70 11 -146t42 -140.5t88 -106.5t149 -42q76 0 123 21.5t73 50.5 t35 55.5t11 36.5h133q0 -12 -10 -52t-43 -85t-98.5 -83t-175.5 -44v-248h-103v248q-82 8 -150.5 41t-118.5 95.5t-79 156.5t-29 227z" />
<glyph unicode="&#xa3;" d="M88 649v101h170q-16 59 -31.5 126.5t-15.5 170.5q0 92 29.5 167.5t83 129t130 82t173.5 28.5q86 0 158.5 -25.5t126 -69.5t83 -104.5t31.5 -130.5h-143q-4 20 -14.5 57.5t-37 74t-74.5 64.5t-130 28q-78 0 -129.5 -30t-82 -75t-44 -100.5t-13.5 -106.5q0 -76 12.5 -144.5 t28.5 -141.5h381v-101h-366q2 -16 4 -39q2 -18 3 -41.5t1 -50.5q0 -88 -25.5 -158.5t-57.5 -121t-62.5 -81t-40.5 -38.5h772v-119h-902v104q6 4 34 29t59.5 74t56.5 126t25 185q0 43 -3.5 69.5t-7.5 61.5h-182z" />
<glyph unicode="&#xa4;" d="M123 1098l78 78l149 -150q45 35 111.5 64.5t159.5 29.5q92 0 159.5 -30.5t110.5 -65.5l151 152l74 -78l-151 -150q41 -55 64.5 -114.5t23.5 -147.5q0 -90 -29 -156.5t-61 -111.5l155 -156l-76 -76l-155 156q-49 -39 -113.5 -66.5t-155.5 -27.5q-88 0 -150 25.5t-114 62.5 l-151 -150l-78 76l154 150q-35 43 -66 110.5t-31 159.5q0 90 28 154.5t62 111.5zM322 682q0 -61 23.5 -116.5t65.5 -96.5t97.5 -64.5t118.5 -23.5q59 0 111.5 23.5t91 64.5t61 96.5t22.5 116.5t-21.5 116.5t-60 97.5t-90 66.5t-110.5 24.5q-63 0 -119.5 -23.5t-98.5 -65.5 t-66.5 -97.5t-24.5 -118.5z" />
<glyph unicode="&#xa5;" d="M70 1427h141l342 -722l348 722h121l-268 -530h221v-104h-273l-94 -185h342v-104h-346v-504h-123v504h-344v104h340l-94 185h-274v104h225z" />
<glyph unicode="&#xa6;" horiz-adv-x="419" d="M143 -246v654h133v-654h-133zM143 788v656h133v-656h-133z" />
<glyph unicode="&#xa7;" d="M176 10h146q2 -10 9 -35.5t28.5 -51t64.5 -45t119 -19.5q115 0 162 56t47 130q0 66 -41 108t-103.5 73.5t-135.5 60t-135.5 68.5t-103 97.5t-40.5 145.5q0 94 34.5 152.5t78.5 91t85 45t51 14.5l-51 25.5t-69.5 49.5t-61.5 80t-27 115q0 76 28 130.5t73 88t103.5 49 t119.5 15.5q115 0 180.5 -30.5t99 -69.5t42 -77t8.5 -52h-133q-2 10 -9.5 30.5t-27 41t-58 36t-102.5 15.5q-104 0 -149.5 -50.5t-45.5 -115.5q0 -61 41 -102.5t102.5 -75t134.5 -63.5t134.5 -70t102.5 -93t41 -133q0 -100 -36 -161.5t-81 -96.5t-85 -48t-46 -15 q12 -6 47 -22.5t71.5 -48.5t65.5 -83t29 -125q0 -53 -17.5 -105.5t-57.5 -93.5t-104.5 -65.5t-160.5 -24.5q-72 0 -138.5 15.5t-116.5 46t-81 79t-31 113.5zM313 616q0 -55 28 -95t68 -69.5t82.5 -49t73.5 -33.5q33 6 72 22.5t72.5 44t56 70.5t22.5 102q0 57 -25.5 97 t-62 68t-78.5 46.5t-77 34.5q-10 -2 -47 -11t-78 -35t-74 -71t-33 -121z" />
<glyph unicode="&#xa8;" horiz-adv-x="702" d="M49 1233v151h152v-151h-152zM467 1233v151h151v-151h-151z" />
<glyph unicode="&#xa9;" horiz-adv-x="1589" d="M61 725q0 156 57.5 292t157 237.5t232.5 161t287 59.5t286.5 -58.5t232 -160t157 -238.5t57.5 -293t-57.5 -293t-157 -238.5t-233 -160t-285.5 -58.5t-286 59.5t-233.5 161t-157 237.5t-57.5 292zM180 725q0 -129 48 -244.5t131 -203t196 -137.5t240 -50t238.5 51.5 t195.5 137.5t132 201.5t48 244.5t-48 244.5t-131 201.5t-195.5 137.5t-239.5 51.5q-129 0 -241 -50t-195 -137.5t-131 -203t-48 -244.5zM485 705q0 170 84 267t240 97q86 0 137 -23.5t78 -55.5t35 -64.5t10 -53.5h-115q-2 8 -7 27t-19.5 37t-44 32.5t-80.5 14.5 q-63 0 -100 -27.5t-56.5 -68.5t-26 -87t-6.5 -85q0 -35 6.5 -82t25 -89t55 -72t98.5 -30q47 0 75.5 12.5t44 30t21.5 35t10 27.5h121q-2 -14 -14.5 -46t-42 -63.5t-79.5 -56.5t-130 -25q-154 0 -237 89.5t-83 259.5z" />
<glyph unicode="&#xaa;" horiz-adv-x="714" d="M70 885q0 90 35.5 142t93 80t128 35t140.5 7h72v45q0 41 -5.5 75t-29.5 58q-16 16 -44 29.5t-87 13.5q-49 0 -79 -12t-45.5 -27.5t-20.5 -32t-7 -22.5h-112q0 14 7 44t33.5 59.5t80 52t147.5 22.5q68 0 119 -15.5t90 -54.5q41 -41 50 -96t9 -104v-506h-92l-4 100 q-37 -66 -104.5 -91t-139.5 -25q-47 0 -90 14t-74.5 41.5t-51 69.5t-19.5 98zM182 895q0 -147 158 -147q51 0 89 20t62.5 54t36 77t11.5 90v78h-78q-45 0 -94.5 -3t-90 -19.5t-67.5 -51.5t-27 -98z" />
<glyph unicode="&#xab;" horiz-adv-x="851" d="M80 526l231 369h133l-237 -369l237 -372h-133zM408 526l231 369h133l-237 -369l237 -372h-133z" />
<glyph unicode="&#xac;" d="M135 700v109h821v-483h-110v374h-711z" />
<glyph unicode="&#xad;" horiz-adv-x="690" d="M61 606v109h568v-109h-568z" />
<glyph unicode="&#xae;" horiz-adv-x="1589" d="M61 725q0 156 57.5 292t157 237.5t232.5 161t287 59.5t286.5 -58.5t232 -160t157 -238.5t57.5 -293t-57.5 -293t-157 -238.5t-233 -160t-285.5 -58.5t-286 59.5t-233.5 161t-157 237.5t-57.5 292zM180 725q0 -129 48 -244.5t131 -203t196 -137.5t240 -50t238.5 51.5 t195.5 137.5t132 201.5t48 244.5t-48 244.5t-131 201.5t-195.5 137.5t-239.5 51.5q-129 0 -241 -50t-195 -137.5t-131 -203t-48 -244.5zM571 387v682h166q39 0 87 -4t90 -22.5t70 -55.5t28 -102q0 -59 -23.5 -92t-53.5 -50.5t-57.5 -21.5t-35.5 -6q57 -8 86.5 -51t50.5 -91 l78 -186h-115l-72 180q-23 55 -49 79t-86 24h-55v-283h-109zM680 760h59q31 0 59.5 3t52 15.5t38 36t14.5 62.5q0 31 -9 46t-20 25q-25 25 -59.5 31t-69.5 6h-65v-225z" />
<glyph unicode="&#xaf;" horiz-adv-x="753" d="M49 1290v94h635v-94h-635z" />
<glyph unicode="&#xb0;" d="M246 1155q0 61 23.5 116.5t63.5 95.5t95 63.5t117 23.5q61 0 116.5 -23.5t96.5 -63.5t64.5 -95t23.5 -117q0 -61 -23.5 -116.5t-64.5 -96.5t-96.5 -64.5t-116.5 -23.5t-116.5 23.5t-95.5 64.5t-63.5 96.5t-23.5 116.5zM346 1155q0 -43 15.5 -82t43 -67.5t63.5 -45 t77 -16.5t76.5 16.5t63.5 45t43 67.5t15 82t-15 82t-43 68.5t-63.5 46t-76.5 16.5t-77 -16.5t-63.5 -46t-43 -68.5t-15.5 -82z" />
<glyph unicode="&#xb1;" d="M123 0v109h848v-109h-848zM123 737v109h369v399h110v-399h369v-109h-369v-401h-110v401h-369z" />
<glyph unicode="&#xb2;" horiz-adv-x="772" d="M172 694v25q0 98 49 161.5t115 123.5q43 37 86 79q33 33 54.5 71t21.5 85q0 55 -28 87t-85 32q-53 0 -82 -24.5t-39 -84.5h-90q0 33 10.5 66t35 59.5t65.5 44t102 17.5q88 0 147.5 -49.5t59.5 -147.5q0 -57 -19.5 -100t-54.5 -80q-16 -18 -34.5 -36.5t-41.5 -37.5 q-43 -37 -90 -84q-29 -29 -50 -58.5t-28 -66.5h322v-82h-426z" />
<glyph unicode="&#xb3;" horiz-adv-x="768" d="M166 862h92q0 -8 4 -24.5t16.5 -31.5t34 -27.5t58.5 -12.5q61 0 101 31.5t40 103.5q0 45 -14.5 70.5t-36 40t-47 18.5t-49.5 4h-31v80h24q16 0 41 3t47.5 15.5t38 39t15.5 75.5q0 61 -32 89t-87 28q-53 0 -79 -27.5t-34 -81.5h-92q4 88 59.5 137.5t143.5 49.5 q41 0 79 -10.5t67.5 -33t47 -56t17.5 -82.5q0 -59 -22.5 -109.5t-78.5 -73.5q115 -37 115 -182q0 -94 -64.5 -151.5t-164.5 -57.5q-102 0 -155.5 52.5t-53.5 123.5z" />
<glyph unicode="&#xb4;" horiz-adv-x="468" d="M18 1190l177 254h147l-203 -254h-121z" />
<glyph unicode="&#xb5;" horiz-adv-x="1067" d="M135 -246v1264h133v-645q0 -45 4 -95.5t24.5 -91.5t63.5 -68.5t119 -27.5q106 0 168 48t92.5 120t38.5 155t8 154v451h134v-1018h-113l-6 174q-6 -14 -24.5 -47t-56.5 -65.5t-99.5 -57t-153.5 -24.5t-140 24.5t-69 50.5v-301h-123z" />
<glyph unicode="&#xb6;" d="M96 1040q0 94 34 165t81 118q35 35 75 55.5t87 31.5t102 14t123 3h397v-1673h-110v1569h-193v-1569h-110v873q-111 2 -201 21.5t-153.5 66.5t-97.5 126t-34 199z" />
<glyph unicode="&#xb7;" horiz-adv-x="534" d="M186 578v161h162v-161h-162z" />
<glyph unicode="&#xb8;" horiz-adv-x="411" d="M41 -377l31 60q12 -6 40.5 -17.5t63.5 -11.5q14 0 32.5 3t33 13.5t24.5 27.5t10 46q0 37 -19 57.5t-47 30.5t-55.5 12t-43.5 4l26 154h70l-21 -100q14 -2 43 -6.5t58.5 -18.5t52 -43t22.5 -80q0 -86 -52 -129t-126 -43q-57 0 -97 18.5t-46 22.5z" />
<glyph unicode="&#xb9;" horiz-adv-x="686" d="M180 1221v96l172 110h80v-727h-94v623z" />
<glyph unicode="&#xba;" horiz-adv-x="802" d="M70 1059q0 117 28.5 192.5t76.5 121.5t108.5 64.5t122.5 18.5q61 0 120.5 -18.5t105.5 -63.5t73.5 -121.5t27.5 -193.5t-28.5 -194t-75.5 -123t-107 -64.5t-123 -18.5t-122.5 18.5t-105.5 64.5t-73.5 123t-27.5 194zM182 1059q0 -68 10.5 -126.5t36 -99t67.5 -64.5 t103 -24q63 0 106.5 24t69 64.5t36 99t10.5 126.5q0 70 -10.5 127t-36 98t-68.5 63.5t-107 22.5q-63 0 -105 -22.5t-66.5 -63.5t-35 -98.5t-10.5 -126.5z" />
<glyph unicode="&#xbb;" horiz-adv-x="851" d="M80 154l237 372l-237 369h133l231 -369l-231 -372h-133zM408 154l237 372l-237 369h133l231 -369l-231 -372h-133z" />
<glyph unicode="&#xbc;" horiz-adv-x="1484" d="M180 1221v96l172 110h80v-727h-94v623zM295 0l696 1466h98l-696 -1466h-98zM770 168v82l344 481h94v-485h98v-78h-98v-164h-92v164h-346zM850 246h266v373z" />
<glyph unicode="&#xbd;" horiz-adv-x="1538" d="M180 1221v96l172 110h80v-727h-94v623zM297 0l696 1466h98l-696 -1466h-98zM948 -2v25q0 98 49 161.5t115 123.5q43 37 86 79q33 33 54.5 71t21.5 85q0 55 -28 87t-85 32q-53 0 -82 -24.5t-39 -84.5h-90q0 33 10.5 66t35 59.5t65.5 44t102 17.5q88 0 147.5 -49.5 t59.5 -147.5q0 -57 -19.5 -100t-54.5 -80q-16 -18 -34.5 -36.5t-41.5 -37.5q-43 -37 -90 -84q-29 -29 -50 -58.5t-28 -66.5h322v-82h-426z" />
<glyph unicode="&#xbe;" horiz-adv-x="1583" d="M166 862h92q0 -8 4 -24.5t16.5 -31.5t34 -27.5t58.5 -12.5q61 0 101 31.5t40 103.5q0 45 -14.5 70.5t-36 40t-47 18.5t-49.5 4h-31v80h24q16 0 41 3t47.5 15.5t38 39t15.5 75.5q0 61 -32 89t-87 28q-53 0 -79 -27.5t-34 -81.5h-92q4 88 59.5 137.5t143.5 49.5 q41 0 79 -10.5t67.5 -33t47 -56t17.5 -82.5q0 -59 -22.5 -109.5t-78.5 -73.5q115 -37 115 -182q0 -94 -64.5 -151.5t-164.5 -57.5q-102 0 -155.5 52.5t-53.5 123.5zM391 0l696 1466h98l-696 -1466h-98zM862 168v82l344 481h94v-485h98v-78h-98v-164h-92v164h-346zM942 246 h266v373z" />
<glyph unicode="&#xbf;" horiz-adv-x="964" d="M82 -92q0 61 11 108t28.5 83t39 62.5t44.5 49.5q61 61 103 90t68.5 54.5t40 62.5t17.5 117l2 34h148v-28q0 -61 -3 -98t-10.5 -63t-20.5 -43.5t-34 -37.5q-35 -35 -83 -72t-93 -82t-77 -101t-32 -126q0 -117 64.5 -181.5t183.5 -64.5q115 0 179.5 57.5t78.5 164.5h146 q-2 -53 -22.5 -110.5t-66.5 -107t-123 -81t-192 -31.5q-96 0 -169.5 26.5t-125 73.5t-77 109.5t-25.5 134.5zM430 856v162h162v-162h-162z" />
<glyph unicode="&#xc0;" horiz-adv-x="1144" d="M-2 0l485 1427h181l483 -1427h-166l-111 350h-610l-110 -350h-152zM297 463h539l-271 844zM354 1833h148l176 -254h-121z" />
<glyph unicode="&#xc1;" horiz-adv-x="1144" d="M-2 0l485 1427h181l483 -1427h-166l-111 350h-610l-110 -350h-152zM297 463h539l-271 844zM450 1579l177 254h147l-203 -254h-121z" />
<glyph unicode="&#xc2;" horiz-adv-x="1144" d="M-2 0l485 1427h181l483 -1427h-166l-111 350h-610l-110 -350h-152zM258 1579l230 254h164l227 -254h-137l-174 199l-176 -199h-134zM297 463h539l-271 844z" />
<glyph unicode="&#xc3;" horiz-adv-x="1144" d="M-2 0l485 1427h181l483 -1427h-166l-111 350h-610l-110 -350h-152zM254 1601q0 100 41 154.5t121 54.5q49 0 92 -16.5t84 -35.5t80 -35.5t76 -16.5q35 0 53 14t27.5 34.5t11.5 39t4 29.5h82q0 -18 -3 -54.5t-19.5 -72t-51.5 -62t-98 -26.5q-49 0 -96 16t-90.5 35.5 t-80 36t-67.5 16.5q-29 0 -45 -13.5t-24.5 -32t-10.5 -36.5t-4 -29h-82zM297 463h539l-271 844z" />
<glyph unicode="&#xc4;" horiz-adv-x="1144" d="M-2 0l485 1427h181l483 -1427h-166l-111 350h-610l-110 -350h-152zM278 1622v151h152v-151h-152zM297 463h539l-271 844zM696 1622v151h151v-151h-151z" />
<glyph unicode="&#xc5;" horiz-adv-x="1144" d="M-2 0l485 1427h181l483 -1427h-166l-111 350h-610l-110 -350h-152zM297 463h539l-271 844zM365 1747q0 43 16.5 79t44 62.5t63.5 42t77 15.5q82 0 140 -56.5t58 -142.5q0 -43 -15 -80t-42 -63.5t-63.5 -42t-77.5 -15.5q-84 0 -142.5 57.5t-58.5 143.5zM445 1747 q0 -53 36 -88t85 -35t85 34t36 89q0 53 -36 88t-85 35t-85 -35t-36 -88z" />
<glyph unicode="&#xc6;" horiz-adv-x="1941" d="M160 0l796 1427h877v-110h-643v-533h610v-110h-610v-557h661v-117h-802v362h-535l-197 -362h-157zM571 469h478v872z" />
<glyph unicode="&#xc7;" horiz-adv-x="1212" d="M98 702q0 193 41 335.5t117 234.5t180.5 137t231.5 45q137 0 219 -37t141 -96q43 -43 66.5 -97.5t27.5 -99.5h-149q-4 10 -15.5 46t-44 74t-91 67.5t-152.5 29.5q-129 0 -212 -60t-129 -153.5t-63.5 -206t-17.5 -216.5q0 -100 18.5 -209t64.5 -200t126 -149.5t205 -58.5 q100 0 160.5 28.5t94 65.5t46 71t16.5 44h149q-4 -37 -26.5 -92t-75.5 -107.5t-141 -89.5t-223 -37q-119 0 -221.5 41t-178.5 129t-120 227.5t-44 333.5zM492 -377l31 60q12 -6 40.5 -17.5t63.5 -11.5q14 0 32.5 3t33 13.5t24.5 27.5t10 46q0 37 -19 57.5t-47 30.5t-55.5 12 t-43.5 4l26 154h70l-21 -100q14 -2 43 -6.5t58.5 -18.5t52 -43t22.5 -80q0 -86 -52 -129t-126 -43q-57 0 -97 18.5t-46 22.5z" />
<glyph unicode="&#xc8;" horiz-adv-x="1071" d="M178 0v1427h785v-110h-644v-533h611v-110h-611v-557h662v-117h-803zM356 1833h148l176 -254h-121z" />
<glyph unicode="&#xc9;" horiz-adv-x="1071" d="M178 0v1427h785v-110h-644v-533h611v-110h-611v-557h662v-117h-803zM444 1579l177 254h147l-203 -254h-121z" />
<glyph unicode="&#xca;" horiz-adv-x="1071" d="M178 0v1427h785v-110h-644v-533h611v-110h-611v-557h662v-117h-803zM223 1579l230 254h164l227 -254h-137l-174 199l-176 -199h-134z" />
<glyph unicode="&#xcb;" horiz-adv-x="1071" d="M178 0v1427h785v-110h-644v-533h611v-110h-611v-557h662v-117h-803zM254 1624v151h152v-151h-152zM672 1624v151h151v-151h-151z" />
<glyph unicode="&#xcc;" horiz-adv-x="497" d="M31 1833h148l176 -254h-121zM178 0v1427h141v-1427h-141z" />
<glyph unicode="&#xcd;" horiz-adv-x="497" d="M147 1579l177 254h147l-203 -254h-121zM178 0v1427h141v-1427h-141z" />
<glyph unicode="&#xce;" horiz-adv-x="497" d="M-58 1579l230 254h164l227 -254h-137l-174 199l-176 -199h-134zM178 0v1427h141v-1427h-141z" />
<glyph unicode="&#xcf;" horiz-adv-x="497" d="M-33 1622v151h152v-151h-152zM178 0v1427h141v-1427h-141zM385 1622v151h151v-151h-151z" />
<glyph unicode="&#xd0;" horiz-adv-x="1325" d="M-16 684v109h200v634h287q51 0 124 -2t151.5 -17t157.5 -50t145 -101q55 -55 88.5 -119.5t54 -134t28 -141t7.5 -137.5q0 -203 -48.5 -335t-127.5 -214q-53 -53 -116 -87t-139.5 -54.5t-167.5 -27.5t-200 -7h-244v684h-200zM326 117h137q70 0 141.5 5t140 24.5t129 58.5 t105.5 105.5t71.5 165.5t26.5 241q0 150 -29.5 253t-77.5 169.5t-110.5 102.5t-129 52.5t-131 19.5t-118.5 3h-155v-524h340v-109h-340v-567z" />
<glyph unicode="&#xd1;" horiz-adv-x="1390" d="M178 0v1427h174l733 -1255v1255h127v-1427h-172l-735 1264v-1264h-127zM332 1607q0 100 41 154.5t121 54.5q49 0 92 -16.5t84 -35.5t80 -35.5t76 -16.5q35 0 53 14t27.5 34.5t11.5 39t4 29.5h82q0 -18 -3 -54.5t-19.5 -72t-51.5 -62t-98 -26.5q-49 0 -96 16t-90.5 35.5 t-80 36t-67.5 16.5q-29 0 -45 -13.5t-24.5 -32t-10.5 -36.5t-4 -29h-82z" />
<glyph unicode="&#xd2;" horiz-adv-x="1372" d="M98 709q0 164 35 301t107.5 235t184.5 153.5t263 55.5q291 0 438.5 -191.5t147.5 -553.5q0 -352 -151.5 -545t-438.5 -193t-436.5 191.5t-149.5 546.5zM248 717q0 -98 15.5 -209t62.5 -204t133 -154.5t225 -61.5q137 0 223 60.5t134.5 153.5t65.5 203.5t17 211.5 q0 106 -18.5 216.5t-67.5 201t-134 148.5t-220 58q-133 0 -218 -60t-133 -153.5t-66.5 -203t-18.5 -207.5zM477 1833h148l176 -254h-121z" />
<glyph unicode="&#xd3;" horiz-adv-x="1372" d="M98 709q0 164 35 301t107.5 235t184.5 153.5t263 55.5q291 0 438.5 -191.5t147.5 -553.5q0 -352 -151.5 -545t-438.5 -193t-436.5 191.5t-149.5 546.5zM248 717q0 -98 15.5 -209t62.5 -204t133 -154.5t225 -61.5q137 0 223 60.5t134.5 153.5t65.5 203.5t17 211.5 q0 106 -18.5 216.5t-67.5 201t-134 148.5t-220 58q-133 0 -218 -60t-133 -153.5t-66.5 -203t-18.5 -207.5zM548 1579l177 254h147l-203 -254h-121z" />
<glyph unicode="&#xd4;" horiz-adv-x="1372" d="M98 709q0 164 35 301t107.5 235t184.5 153.5t263 55.5q291 0 438.5 -191.5t147.5 -553.5q0 -352 -151.5 -545t-438.5 -193t-436.5 191.5t-149.5 546.5zM248 717q0 -98 15.5 -209t62.5 -204t133 -154.5t225 -61.5q137 0 223 60.5t134.5 153.5t65.5 203.5t17 211.5 q0 106 -18.5 216.5t-67.5 201t-134 148.5t-220 58q-133 0 -218 -60t-133 -153.5t-66.5 -203t-18.5 -207.5zM368 1579l230 254h164l227 -254h-137l-174 199l-176 -199h-134z" />
<glyph unicode="&#xd5;" horiz-adv-x="1372" d="M98 709q0 164 35 301t107.5 235t184.5 153.5t263 55.5q291 0 438.5 -191.5t147.5 -553.5q0 -352 -151.5 -545t-438.5 -193t-436.5 191.5t-149.5 546.5zM248 717q0 -98 15.5 -209t62.5 -204t133 -154.5t225 -61.5q137 0 223 60.5t134.5 153.5t65.5 203.5t17 211.5 q0 106 -18.5 216.5t-67.5 201t-134 148.5t-220 58q-133 0 -218 -60t-133 -153.5t-66.5 -203t-18.5 -207.5zM330 1601q0 100 41 154.5t121 54.5q49 0 92 -16.5t84 -35.5t80 -35.5t76 -16.5q35 0 53 14t27.5 34.5t11.5 39t4 29.5h82q0 -18 -3 -54.5t-19.5 -72t-51.5 -62 t-98 -26.5q-49 0 -96 16t-90.5 35.5t-80 36t-67.5 16.5q-29 0 -45 -13.5t-24.5 -32t-10.5 -36.5t-4 -29h-82z" />
<glyph unicode="&#xd6;" horiz-adv-x="1372" d="M98 709q0 164 35 301t107.5 235t184.5 153.5t263 55.5q291 0 438.5 -191.5t147.5 -553.5q0 -352 -151.5 -545t-438.5 -193t-436.5 191.5t-149.5 546.5zM248 717q0 -98 15.5 -209t62.5 -204t133 -154.5t225 -61.5q137 0 223 60.5t134.5 153.5t65.5 203.5t17 211.5 q0 106 -18.5 216.5t-67.5 201t-134 148.5t-220 58q-133 0 -218 -60t-133 -153.5t-66.5 -203t-18.5 -207.5zM389 1624v151h152v-151h-152zM807 1624v151h151v-151h-151z" />
<glyph unicode="&#xd7;" d="M129 272l342 344l-342 342l78 78l340 -342l340 342l78 -78l-342 -342l342 -344l-78 -77l-340 344l-340 -344z" />
<glyph unicode="&#xd8;" horiz-adv-x="1372" d="M98 709q0 164 35 301t107.5 235t184.5 153.5t263 55.5q72 0 127 -11t92 -24q43 -16 74 -35l80 144l86 -49l-84 -152q104 -92 157.5 -246.5t53.5 -371.5q0 -352 -151.5 -545t-438.5 -193q-59 0 -109.5 8.5t-90.5 20.5t-68.5 26.5t-42.5 26.5l-90 -166l-90 50l98 180 q-12 12 -44 49t-64.5 107.5t-58.5 177t-26 258.5zM248 717q0 -123 15.5 -210t34.5 -143.5t37.5 -85t24.5 -34.5l562 1030q-25 18 -60 33q-29 12 -74 23t-104 11q-133 0 -218 -60t-133 -153.5t-66.5 -203t-18.5 -207.5zM434 166q8 -6 26.5 -19.5t48.5 -25.5t73 -22.5 t102 -10.5q137 0 223 60.5t134.5 153.5t65.5 203.5t17 211.5q0 135 -20.5 226t-44.5 151q-29 68 -66 110z" />
<glyph unicode="&#xd9;" horiz-adv-x="1355" d="M178 586v841h141v-847q0 -78 8.5 -164t44.5 -159t108.5 -120t199.5 -47q88 0 148.5 23.5t101.5 64.5q39 39 61.5 91.5t32.5 105.5t12 105t2 95v852h140v-841q0 -68 -3.5 -133.5t-17.5 -127t-40.5 -116.5t-76.5 -105q-23 -23 -53.5 -46t-73.5 -41.5t-100 -31t-131 -12.5 q-129 0 -218 36t-149 95q-47 49 -74.5 105.5t-42 118t-17.5 127t-3 131.5zM434 1833h148l176 -254h-121z" />
<glyph unicode="&#xda;" horiz-adv-x="1355" d="M178 586v841h141v-847q0 -78 8.5 -164t44.5 -159t108.5 -120t199.5 -47q88 0 148.5 23.5t101.5 64.5q39 39 61.5 91.5t32.5 105.5t12 105t2 95v852h140v-841q0 -68 -3.5 -133.5t-17.5 -127t-40.5 -116.5t-76.5 -105q-23 -23 -53.5 -46t-73.5 -41.5t-100 -31t-131 -12.5 q-129 0 -218 36t-149 95q-47 49 -74.5 105.5t-42 118t-17.5 127t-3 131.5zM510 1579l177 254h147l-203 -254h-121z" />
<glyph unicode="&#xdb;" horiz-adv-x="1355" d="M178 586v841h141v-847q0 -78 8.5 -164t44.5 -159t108.5 -120t199.5 -47q88 0 148.5 23.5t101.5 64.5q39 39 61.5 91.5t32.5 105.5t12 105t2 95v852h140v-841q0 -68 -3.5 -133.5t-17.5 -127t-40.5 -116.5t-76.5 -105q-23 -23 -53.5 -46t-73.5 -41.5t-100 -31t-131 -12.5 q-129 0 -218 36t-149 95q-47 49 -74.5 105.5t-42 118t-17.5 127t-3 131.5zM333 1579l230 254h164l227 -254h-137l-174 199l-176 -199h-134z" />
<glyph unicode="&#xdc;" horiz-adv-x="1355" d="M178 586v841h141v-847q0 -78 8.5 -164t44.5 -159t108.5 -120t199.5 -47q88 0 148.5 23.5t101.5 64.5q39 39 61.5 91.5t32.5 105.5t12 105t2 95v852h140v-841q0 -68 -3.5 -133.5t-17.5 -127t-40.5 -116.5t-76.5 -105q-23 -23 -53.5 -46t-73.5 -41.5t-100 -31t-131 -12.5 q-129 0 -218 36t-149 95q-47 49 -74.5 105.5t-42 118t-17.5 127t-3 131.5zM395 1624v151h152v-151h-152zM813 1624v151h151v-151h-151z" />
<glyph unicode="&#xdd;" horiz-adv-x="954" d="M-23 1427h162l344 -749l348 749h146l-430 -870v-557h-141v557zM368 1579l177 254h147l-203 -254h-121z" />
<glyph unicode="&#xde;" horiz-adv-x="1128" d="M178 0v1427h141v-286h232q55 0 110.5 -2t107.5 -11.5t99 -32t88 -61.5q47 -47 78 -118.5t31 -163.5q0 -137 -43 -221.5t-114.5 -130.5t-163 -61t-187.5 -15h-238v-324h-141zM319 438h197q115 0 195 17.5t133 70.5q72 72 71 226q0 104 -38.5 160.5t-95 82t-121 29.5 t-115.5 4h-226v-590z" />
<glyph unicode="&#xdf;" horiz-adv-x="1138" d="M147 0v1016q0 82 12.5 163t51.5 144t112.5 102t196.5 39q96 0 158.5 -26.5t98.5 -66.5t50.5 -87t14.5 -90q0 -80 -29 -131t-62.5 -91t-61 -77t-27.5 -86t28.5 -85t72.5 -68.5t94 -66.5t94 -76t73 -99.5t29 -134.5q0 -78 -28 -135.5t-73 -94.5t-101.5 -54.5t-113.5 -17.5 q-88 0 -142 23t-89 57q-35 35 -44 67t-9 66h129q2 -10 8 -28.5t21.5 -38t45 -33.5t80.5 -14q74 0 122 49t48 143q0 66 -28.5 111t-71.5 80t-94 64.5t-94.5 64.5t-72 81t-28.5 113q0 66 27.5 108t61.5 81t61.5 84t27.5 119q0 31 -7 64.5t-26.5 62t-56.5 47t-94 18.5 q-80 0 -126 -34t-69.5 -87t-29.5 -117.5t-6 -123.5v-1004h-134z" />
<glyph unicode="&#xe0;" horiz-adv-x="993" d="M86 276q0 119 48 190t125 105.5t172 45t190 10.5h106v69q0 53 -8 101.5t-43 83.5q-23 23 -62 42t-122 19q-72 0 -113 -16.5t-62.5 -38t-27.5 -43t-8 -29.5h-142q0 16 9.5 54t44 76t106.5 67.5t199 29.5q92 0 160.5 -20.5t119.5 -71.5q55 -55 67.5 -127.5t12.5 -138.5 v-684h-113l-6 158q-4 -10 -20.5 -39t-54 -59.5t-101.5 -55t-162 -24.5q-63 0 -120.5 19t-100.5 56t-68.5 92.5t-25.5 128.5zM225 289q1 -205 224 -205q74 0 126 28.5t85.5 74.5t50 106.5t16.5 124.5v112h-115q-61 0 -128.5 -5t-125 -27.5t-95.5 -71.5t-38 -137zM262 1444 h148l176 -254h-121z" />
<glyph unicode="&#xe1;" horiz-adv-x="993" d="M86 276q0 119 48 190t125 105.5t172 45t190 10.5h106v69q0 53 -8 101.5t-43 83.5q-23 23 -62 42t-122 19q-72 0 -113 -16.5t-62.5 -38t-27.5 -43t-8 -29.5h-142q0 16 9.5 54t44 76t106.5 67.5t199 29.5q92 0 160.5 -20.5t119.5 -71.5q55 -55 67.5 -127.5t12.5 -138.5 v-684h-113l-6 158q-4 -10 -20.5 -39t-54 -59.5t-101.5 -55t-162 -24.5q-63 0 -120.5 19t-100.5 56t-68.5 92.5t-25.5 128.5zM225 289q1 -205 224 -205q74 0 126 28.5t85.5 74.5t50 106.5t16.5 124.5v112h-115q-61 0 -128.5 -5t-125 -27.5t-95.5 -71.5t-38 -137zM378 1190 l177 254h147l-203 -254h-121z" />
<glyph unicode="&#xe2;" horiz-adv-x="993" d="M86 276q0 119 48 190t125 105.5t172 45t190 10.5h106v69q0 53 -8 101.5t-43 83.5q-23 23 -62 42t-122 19q-72 0 -113 -16.5t-62.5 -38t-27.5 -43t-8 -29.5h-142q0 16 9.5 54t44 76t106.5 67.5t199 29.5q92 0 160.5 -20.5t119.5 -71.5q55 -55 67.5 -127.5t12.5 -138.5 v-684h-113l-6 158q-4 -10 -20.5 -39t-54 -59.5t-101.5 -55t-162 -24.5q-63 0 -120.5 19t-100.5 56t-68.5 92.5t-25.5 128.5zM163 1190l230 254h164l227 -254h-137l-174 199l-176 -199h-134zM225 289q1 -205 224 -205q74 0 126 28.5t85.5 74.5t50 106.5t16.5 124.5v112h-115 q-61 0 -128.5 -5t-125 -27.5t-95.5 -71.5t-38 -137z" />
<glyph unicode="&#xe3;" horiz-adv-x="993" d="M86 276q0 119 48 190t125 105.5t172 45t190 10.5h106v69q0 53 -8 101.5t-43 83.5q-23 23 -62 42t-122 19q-72 0 -113 -16.5t-62.5 -38t-27.5 -43t-8 -29.5h-142q0 16 9.5 54t44 76t106.5 67.5t199 29.5q92 0 160.5 -20.5t119.5 -71.5q55 -55 67.5 -127.5t12.5 -138.5 v-684h-113l-6 158q-4 -10 -20.5 -39t-54 -59.5t-101.5 -55t-162 -24.5q-63 0 -120.5 19t-100.5 56t-68.5 92.5t-25.5 128.5zM153 1210q0 100 41 154.5t121 54.5q49 0 92 -16.5t84 -35.5t80 -35.5t76 -16.5q35 0 53 14t27.5 34.5t11.5 39t4 29.5h82q0 -18 -3 -54.5t-19.5 -72 t-51.5 -62t-98 -26.5q-49 0 -96 16t-90.5 35.5t-80 36t-67.5 16.5q-29 0 -45 -13.5t-24.5 -32t-10.5 -36.5t-4 -29h-82zM225 289q1 -205 224 -205q74 0 126 28.5t85.5 74.5t50 106.5t16.5 124.5v112h-115q-61 0 -128.5 -5t-125 -27.5t-95.5 -71.5t-38 -137z" />
<glyph unicode="&#xe4;" horiz-adv-x="993" d="M86 276q0 119 48 190t125 105.5t172 45t190 10.5h106v69q0 53 -8 101.5t-43 83.5q-23 23 -62 42t-122 19q-72 0 -113 -16.5t-62.5 -38t-27.5 -43t-8 -29.5h-142q0 16 9.5 54t44 76t106.5 67.5t199 29.5q92 0 160.5 -20.5t119.5 -71.5q55 -55 67.5 -127.5t12.5 -138.5 v-684h-113l-6 158q-4 -10 -20.5 -39t-54 -59.5t-101.5 -55t-162 -24.5q-63 0 -120.5 19t-100.5 56t-68.5 92.5t-25.5 128.5zM211 1233v151h152v-151h-152zM225 289q1 -205 224 -205q74 0 126 28.5t85.5 74.5t50 106.5t16.5 124.5v112h-115q-61 0 -128.5 -5t-125 -27.5 t-95.5 -71.5t-38 -137zM629 1233v151h151v-151h-151z" />
<glyph unicode="&#xe5;" horiz-adv-x="993" d="M86 276q0 119 48 190t125 105.5t172 45t190 10.5h106v69q0 53 -8 101.5t-43 83.5q-23 23 -62 42t-122 19q-72 0 -113 -16.5t-62.5 -38t-27.5 -43t-8 -29.5h-142q0 16 9.5 54t44 76t106.5 67.5t199 29.5q92 0 160.5 -20.5t119.5 -71.5q55 -55 67.5 -127.5t12.5 -138.5 v-684h-113l-6 158q-4 -10 -20.5 -39t-54 -59.5t-101.5 -55t-162 -24.5q-63 0 -120.5 19t-100.5 56t-68.5 92.5t-25.5 128.5zM225 289q1 -205 224 -205q74 0 126 28.5t85.5 74.5t50 106.5t16.5 124.5v112h-115q-61 0 -128.5 -5t-125 -27.5t-95.5 -71.5t-38 -137zM287 1366 q0 43 16.5 79t44 62.5t63.5 42t77 15.5q82 0 140 -56.5t58 -142.5q0 -43 -15 -80t-42 -63.5t-63.5 -42t-77.5 -15.5q-84 0 -142.5 57.5t-58.5 143.5zM367 1366q0 -53 36 -88t85 -35t85 34t36 89q0 53 -36 88t-85 35t-85 -35t-36 -88z" />
<glyph unicode="&#xe6;" horiz-adv-x="1609" d="M86 256q0 119 48 185.5t125 99t172 39t190 6.5h106v110q0 55 -12.5 100.5t-40 77t-72.5 50t-110 18.5q-72 0 -113 -16.5t-62.5 -38t-27.5 -43t-8 -29.5h-142q0 16 9.5 54t44 76t106.5 67.5t199 29.5q88 0 146 -18t93 -43t51.5 -50.5t24.5 -37.5q8 16 30.5 42t61.5 49.5 t96.5 40.5t137.5 17q119 0 193.5 -40.5t117.5 -111.5t58.5 -166t15.5 -202v-53h-674q0 -80 13.5 -151.5t46 -127t89 -88t144.5 -32.5q70 0 111.5 16t66.5 37.5t35 44t14 33.5h125q0 -16 -13.5 -54t-52 -77t-109 -69t-181.5 -30q-96 0 -162 24.5t-107 57.5t-62.5 66t-27.5 47 q-4 -8 -24.5 -39t-61.5 -63.5t-107.5 -58t-164.5 -25.5q-63 0 -123.5 15t-108 49t-76 86t-28.5 126zM225 268q0 -51 17.5 -87t48.5 -57.5t72 -30.5t86 -9q74 0 126 28.5t85.5 74.5t50 106.5t16.5 124.5v71h-115q-61 0 -128.5 -1t-125 -20t-95.5 -65.5t-38 -134.5zM850 565 h541q0 70 -7.5 137.5t-34 121t-76.5 86t-136 32.5q-78 0 -132.5 -29.5t-88 -80t-49 -119t-17.5 -148.5z" />
<glyph unicode="&#xe7;" horiz-adv-x="978" d="M86 498q0 254 110.5 399t331.5 145q129 0 201 -37.5t107.5 -87t44 -93.5t8.5 -56h-133q0 6 -7.5 33.5t-31 58.5t-68.5 55.5t-121 24.5q-92 0 -150.5 -35t-92 -94t-46 -137t-12.5 -162q0 -70 11.5 -145.5t42 -140t88 -106.5t149.5 -42q76 0 123 21.5t72.5 50t35 55 t11.5 37.5h133q0 -10 -10.5 -52.5t-47 -90.5t-111.5 -86t-206 -38q-201 0 -316.5 128t-115.5 395zM348 -377l31 60q12 -6 40.5 -17.5t63.5 -11.5q14 0 32.5 3t33 13.5t24.5 27.5t10 46q0 37 -19 57.5t-47 30.5t-55.5 12t-43.5 4l26 154h70l-21 -100q14 -2 43 -6.5 t58.5 -18.5t52 -43t22.5 -80q0 -86 -52 -129t-126 -43q-57 0 -97 18.5t-46 22.5z" />
<glyph unicode="&#xe8;" horiz-adv-x="995" d="M86 492q0 119 23.5 219t76 173.5t134 115.5t200.5 42t195 -40.5t119 -111.5t59 -166t16 -202v-53h-682q0 -80 14.5 -151.5t48.5 -127t90 -88t144 -32.5q70 0 113 16t68.5 37.5t36 44t14.5 33.5h125q0 -16 -14.5 -54t-54.5 -77t-110.5 -69t-181.5 -30q-123 0 -206 40 t-134 111t-72.5 165t-21.5 205zM227 565h549q0 70 -8 137.5t-34.5 121t-78 86t-137.5 32.5q-78 0 -133 -29.5t-89 -80t-50.5 -119t-18.5 -148.5zM309 1444h148l176 -254h-121z" />
<glyph unicode="&#xe9;" horiz-adv-x="995" d="M86 492q0 119 23.5 219t76 173.5t134 115.5t200.5 42t195 -40.5t119 -111.5t59 -166t16 -202v-53h-682q0 -80 14.5 -151.5t48.5 -127t90 -88t144 -32.5q70 0 113 16t68.5 37.5t36 44t14.5 33.5h125q0 -16 -14.5 -54t-54.5 -77t-110.5 -69t-181.5 -30q-123 0 -206 40 t-134 111t-72.5 165t-21.5 205zM227 565h549q0 70 -8 137.5t-34.5 121t-78 86t-137.5 32.5q-78 0 -133 -29.5t-89 -80t-50.5 -119t-18.5 -148.5zM413 1190l177 254h147l-203 -254h-121z" />
<glyph unicode="&#xea;" horiz-adv-x="995" d="M86 492q0 119 23.5 219t76 173.5t134 115.5t200.5 42t195 -40.5t119 -111.5t59 -166t16 -202v-53h-682q0 -80 14.5 -151.5t48.5 -127t90 -88t144 -32.5q70 0 113 16t68.5 37.5t36 44t14.5 33.5h125q0 -16 -14.5 -54t-54.5 -77t-110.5 -69t-181.5 -30q-123 0 -206 40 t-134 111t-72.5 165t-21.5 205zM225 1190l230 254h164l227 -254h-137l-174 199l-176 -199h-134zM227 565h549q0 70 -8 137.5t-34.5 121t-78 86t-137.5 32.5q-78 0 -133 -29.5t-89 -80t-50.5 -119t-18.5 -148.5z" />
<glyph unicode="&#xeb;" horiz-adv-x="995" d="M86 492q0 119 23.5 219t76 173.5t134 115.5t200.5 42t195 -40.5t119 -111.5t59 -166t16 -202v-53h-682q0 -80 14.5 -151.5t48.5 -127t90 -88t144 -32.5q70 0 113 16t68.5 37.5t36 44t14.5 33.5h125q0 -16 -14.5 -54t-54.5 -77t-110.5 -69t-181.5 -30q-123 0 -206 40 t-134 111t-72.5 165t-21.5 205zM227 565h549q0 70 -8 137.5t-34.5 121t-78 86t-137.5 32.5q-78 0 -133 -29.5t-89 -80t-50.5 -119t-18.5 -148.5zM229 1233v151h152v-151h-152zM647 1233v151h151v-151h-151z" />
<glyph unicode="&#xec;" horiz-adv-x="428" d="M-6 1444h148l176 -254h-121zM147 0v1018h134v-1018h-134z" />
<glyph unicode="&#xed;" horiz-adv-x="428" d="M112 1190l177 254h147l-203 -254h-121zM147 0v1018h134v-1018h-134z" />
<glyph unicode="&#xee;" horiz-adv-x="428" d="M-93 1190l230 254h164l227 -254h-137l-174 199l-176 -199h-134zM147 0v1018h134v-1018h-134z" />
<glyph unicode="&#xef;" horiz-adv-x="428" d="M-68 1233v151h152v-151h-152zM147 0v1018h134v-1018h-134zM350 1233v151h151v-151h-151z" />
<glyph unicode="&#xf0;" horiz-adv-x="1015" d="M86 473q0 102 29.5 191.5t82 155t124 102t155.5 36.5q63 0 110.5 -14t80 -32.5t51 -38t26.5 -29.5q-25 80 -64.5 146.5t-82.5 117.5t-83 87t-60 52l-107 -121l-61 58l104 116q-10 8 -27.5 20.5t-36 25t-36 23.5t-29.5 17l57 84q39 -16 81 -44.5t63 -45.5l86 97l61 -54 l-80 -90q35 -27 56.5 -47t54.5 -51q72 -72 126 -146.5t90 -158.5t54.5 -183.5t18.5 -220.5q0 -117 -29 -217t-83 -174t-133 -117t-181 -43q-98 0 -175 37t-131.5 102.5t-83 156.5t-28.5 202zM227 473q0 -80 12.5 -151.5t44 -125t86 -84t138.5 -30.5q90 0 145.5 41t85 99.5 t39.5 124t10 114.5q0 55 -8 123.5t-37.5 128t-85 99.5t-147.5 40q-86 0 -141.5 -39t-87 -97.5t-43 -124t-11.5 -118.5z" />
<glyph unicode="&#xf1;" horiz-adv-x="1077" d="M147 0v1018h113l6 -193q4 8 22.5 43t60.5 74t110.5 69.5t173.5 30.5q88 0 142 -20.5t91 -56.5q53 -53 64.5 -123t11.5 -144v-698h-133v637q0 57 -3 110.5t-23.5 93.5t-62.5 63.5t-122 23.5q-109 0 -171 -47t-95 -118t-42 -154t-9 -156v-453h-134zM211 1210 q0 100 41 154.5t121 54.5q49 0 92 -16.5t84 -35.5t80 -35.5t76 -16.5q35 0 53 14t27.5 34.5t11.5 39t4 29.5h82q0 -18 -3 -54.5t-19.5 -72t-51.5 -62t-98 -26.5q-49 0 -96 16t-90.5 35.5t-80 36t-67.5 16.5q-29 0 -45 -13.5t-24.5 -32t-10.5 -36.5t-4 -29h-82z" />
<glyph unicode="&#xf2;" horiz-adv-x="1064" d="M86 510q0 156 39 259t103.5 163.5t145.5 85t165 24.5t162.5 -24.5t140 -85t99.5 -162.5t38 -260t-39 -261.5t-101.5 -163.5t-143.5 -85t-165 -25t-163.5 25t-142 85t-100.5 163.5t-38 261.5zM227 510q0 -92 14.5 -172t50.5 -137.5t94 -90t144 -32.5q90 0 149.5 32.5 t94.5 90t49.5 137.5t14.5 172q0 94 -14.5 173t-50.5 136.5t-95.5 89t-147.5 31.5t-146 -31.5t-93 -89t-49.5 -136.5t-14.5 -173zM334 1444h148l176 -254h-121z" />
<glyph unicode="&#xf3;" horiz-adv-x="1064" d="M86 510q0 156 39 259t103.5 163.5t145.5 85t165 24.5t162.5 -24.5t140 -85t99.5 -162.5t38 -260t-39 -261.5t-101.5 -163.5t-143.5 -85t-165 -25t-163.5 25t-142 85t-100.5 163.5t-38 261.5zM227 510q0 -92 14.5 -172t50.5 -137.5t94 -90t144 -32.5q90 0 149.5 32.5 t94.5 90t49.5 137.5t14.5 172q0 94 -14.5 173t-50.5 136.5t-95.5 89t-147.5 31.5t-146 -31.5t-93 -89t-49.5 -136.5t-14.5 -173zM448 1190l177 254h147l-203 -254h-121z" />
<glyph unicode="&#xf4;" horiz-adv-x="1064" d="M86 510q0 156 39 259t103.5 163.5t145.5 85t165 24.5t162.5 -24.5t140 -85t99.5 -162.5t38 -260t-39 -261.5t-101.5 -163.5t-143.5 -85t-165 -25t-163.5 25t-142 85t-100.5 163.5t-38 261.5zM223 1190l230 254h164l227 -254h-137l-174 199l-176 -199h-134zM227 510 q0 -92 14.5 -172t50.5 -137.5t94 -90t144 -32.5q90 0 149.5 32.5t94.5 90t49.5 137.5t14.5 172q0 94 -14.5 173t-50.5 136.5t-95.5 89t-147.5 31.5t-146 -31.5t-93 -89t-49.5 -136.5t-14.5 -173z" />
<glyph unicode="&#xf5;" horiz-adv-x="1064" d="M86 510q0 156 39 259t103.5 163.5t145.5 85t165 24.5t162.5 -24.5t140 -85t99.5 -162.5t38 -260t-39 -261.5t-101.5 -163.5t-143.5 -85t-165 -25t-163.5 25t-142 85t-100.5 163.5t-38 261.5zM180 1210q0 100 41 154.5t121 54.5q49 0 92 -16.5t84 -35.5t80 -35.5t76 -16.5 q35 0 53 14t27.5 34.5t11.5 39t4 29.5h82q0 -18 -3 -54.5t-19.5 -72t-51.5 -62t-98 -26.5q-49 0 -96 16t-90.5 35.5t-80 36t-67.5 16.5q-29 0 -45 -13.5t-24.5 -32t-10.5 -36.5t-4 -29h-82zM227 510q0 -92 14.5 -172t50.5 -137.5t94 -90t144 -32.5q90 0 149.5 32.5t94.5 90 t49.5 137.5t14.5 172q0 94 -14.5 173t-50.5 136.5t-95.5 89t-147.5 31.5t-146 -31.5t-93 -89t-49.5 -136.5t-14.5 -173z" />
<glyph unicode="&#xf6;" horiz-adv-x="1064" d="M86 510q0 156 39 259t103.5 163.5t145.5 85t165 24.5t162.5 -24.5t140 -85t99.5 -162.5t38 -260t-39 -261.5t-101.5 -163.5t-143.5 -85t-165 -25t-163.5 25t-142 85t-100.5 163.5t-38 261.5zM227 510q0 -92 14.5 -172t50.5 -137.5t94 -90t144 -32.5q90 0 149.5 32.5 t94.5 90t49.5 137.5t14.5 172q0 94 -14.5 173t-50.5 136.5t-95.5 89t-147.5 31.5t-146 -31.5t-93 -89t-49.5 -136.5t-14.5 -173zM264 1233v151h152v-151h-152zM682 1233v151h151v-151h-151z" />
<glyph unicode="&#xf7;" d="M123 604v113h848v-113h-848zM481 213v127h131v-127h-131zM485 975v117h123v-117h-123z" />
<glyph unicode="&#xf8;" horiz-adv-x="1064" d="M86 510q0 156 39 259t103.5 163.5t145.5 85t165 24.5q41 0 74.5 -5t56.5 -9q27 -8 47 -14l63 129l80 -41l-65 -129q12 -10 42.5 -35t61.5 -77t55.5 -137t24.5 -214q0 -158 -39 -261.5t-101.5 -163.5t-143.5 -85t-165 -25q-86 0 -141 17.5t-65 23.5l-62 -129l-82 41 l68 138q-4 2 -31 25.5t-55.5 73.5t-52 134t-23.5 211zM227 510q0 -84 9.5 -142.5t22.5 -98.5t26.5 -61.5t19.5 -27.5l363 733q-6 4 -40 15.5t-98 11.5q-88 0 -146 -31.5t-93 -89t-49.5 -136.5t-14.5 -173zM375 117q12 -12 55 -25.5t100 -13.5q90 0 149.5 32.5t94.5 90 t49.5 137.5t14.5 172q0 100 -13.5 166.5t-31 106.5t-33 56.5t-19.5 20.5z" />
<glyph unicode="&#xf9;" horiz-adv-x="1067" d="M135 352v666h133v-645q0 -45 4 -95.5t24.5 -91.5t63.5 -68.5t119 -27.5q106 0 168 48t92.5 120t38.5 155t8 154v451h134v-1018h-113l-6 174q-6 -14 -24.5 -47t-57.5 -65.5t-102.5 -57t-159.5 -24.5q-74 0 -134.5 20t-103.5 63q-31 31 -48 66t-25.5 72t-9.5 74.5t-1 76.5z M315 1444h148l176 -254h-121z" />
<glyph unicode="&#xfa;" horiz-adv-x="1067" d="M135 352v666h133v-645q0 -45 4 -95.5t24.5 -91.5t63.5 -68.5t119 -27.5q106 0 168 48t92.5 120t38.5 155t8 154v451h134v-1018h-113l-6 174q-6 -14 -24.5 -47t-57.5 -65.5t-102.5 -57t-159.5 -24.5q-74 0 -134.5 20t-103.5 63q-31 31 -48 66t-25.5 72t-9.5 74.5t-1 76.5z M395 1190l177 254h147l-203 -254h-121z" />
<glyph unicode="&#xfb;" horiz-adv-x="1067" d="M135 352v666h133v-645q0 -45 4 -95.5t24.5 -91.5t63.5 -68.5t119 -27.5q106 0 168 48t92.5 120t38.5 155t8 154v451h134v-1018h-113l-6 174q-6 -14 -24.5 -47t-57.5 -65.5t-102.5 -57t-159.5 -24.5q-74 0 -134.5 20t-103.5 63q-31 31 -48 66t-25.5 72t-9.5 74.5t-1 76.5z M221 1190l230 254h164l227 -254h-137l-174 199l-176 -199h-134z" />
<glyph unicode="&#xfc;" horiz-adv-x="1067" d="M135 352v666h133v-645q0 -45 4 -95.5t24.5 -91.5t63.5 -68.5t119 -27.5q106 0 168 48t92.5 120t38.5 155t8 154v451h134v-1018h-113l-6 174q-6 -14 -24.5 -47t-57.5 -65.5t-102.5 -57t-159.5 -24.5q-74 0 -134.5 20t-103.5 63q-31 31 -48 66t-25.5 72t-9.5 74.5t-1 76.5z M233 1233v151h152v-151h-152zM651 1233v151h151v-151h-151z" />
<glyph unicode="&#xfd;" horiz-adv-x="901" d="M8 1018h144l307 -850l301 850h133l-438 -1165q-27 -68 -49.5 -107t-47.5 -63q-18 -18 -63 -44t-123 -26q-33 0 -60.5 4t-45.5 8v99q14 -2 32.5 -5.5t40.5 -3.5q45 0 77 12.5t55.5 36t40 54t28.5 67.5l51 142zM342 1190l177 254h147l-203 -254h-121z" />
<glyph unicode="&#xfe;" horiz-adv-x="1095" d="M147 -377v1821h134v-559q4 8 21 33.5t54 53t95.5 49t146.5 21.5q92 0 157.5 -29.5t111.5 -76.5t74 -105.5t43 -116t20.5 -108.5t5.5 -84q0 -74 -16.5 -169t-62.5 -179t-127 -141.5t-210 -57.5q-82 0 -139.5 22.5t-95 52.5t-56 56.5t-22.5 34.5v-518h-134zM283 528 q0 -90 10 -154.5t26.5 -108.5t35 -70.5t34.5 -42.5q35 -37 83 -54.5t97 -17.5q88 0 146.5 45t92.5 110.5t47 142.5t13 138q0 47 -9 119t-40 139.5t-90 116.5t-160 49q-53 0 -104 -18.5t-92 -64.5t-65.5 -126t-24.5 -203z" />
<glyph unicode="&#xff;" horiz-adv-x="901" d="M8 1018h144l307 -850l301 850h133l-438 -1165q-27 -68 -49.5 -107t-47.5 -63q-18 -18 -63 -44t-123 -26q-33 0 -60.5 4t-45.5 8v99q14 -2 32.5 -5.5t40.5 -3.5q45 0 77 12.5t55.5 36t40 54t28.5 67.5l51 142zM182 1233v151h152v-151h-152zM600 1233v151h151v-151h-151z " />
<glyph unicode="&#x100;" horiz-adv-x="1144" d="M-2 0l485 1427h181l483 -1427h-166l-111 350h-610l-110 -350h-152zM244 1679v94h635v-94h-635zM297 463h539l-271 844z" />
<glyph unicode="&#x101;" horiz-adv-x="993" d="M86 276q0 119 48 190t125 105.5t172 45t190 10.5h106v69q0 53 -8 101.5t-43 83.5q-23 23 -62 42t-122 19q-72 0 -113 -16.5t-62.5 -38t-27.5 -43t-8 -29.5h-142q0 16 9.5 54t44 76t106.5 67.5t199 29.5q92 0 160.5 -20.5t119.5 -71.5q55 -55 67.5 -127.5t12.5 -138.5 v-684h-113l-6 158q-4 -10 -20.5 -39t-54 -59.5t-101.5 -55t-162 -24.5q-63 0 -120.5 19t-100.5 56t-68.5 92.5t-25.5 128.5zM168 1290v94h635v-94h-635zM225 289q1 -205 224 -205q74 0 126 28.5t85.5 74.5t50 106.5t16.5 124.5v112h-115q-61 0 -128.5 -5t-125 -27.5 t-95.5 -71.5t-38 -137z" />
<glyph unicode="&#x102;" horiz-adv-x="1144" d="M-2 0l485 1427h181l483 -1427h-166l-111 350h-610l-110 -350h-152zM248 1833h103q0 -10 5 -43t26.5 -69t64.5 -64.5t123 -28.5t123 28.5t64.5 65.5t26.5 70t5 41h102q0 -141 -80.5 -220t-240.5 -79t-241 79t-81 220zM297 463h539l-271 844z" />
<glyph unicode="&#x103;" horiz-adv-x="993" d="M86 276q0 119 48 190t125 105.5t172 45t190 10.5h106v69q0 53 -8 101.5t-43 83.5q-23 23 -62 42t-122 19q-72 0 -113 -16.5t-62.5 -38t-27.5 -43t-8 -29.5h-142q0 16 9.5 54t44 76t106.5 67.5t199 29.5q92 0 160.5 -20.5t119.5 -71.5q55 -55 67.5 -127.5t12.5 -138.5 v-684h-113l-6 158q-4 -10 -20.5 -39t-54 -59.5t-101.5 -55t-162 -24.5q-63 0 -120.5 19t-100.5 56t-68.5 92.5t-25.5 128.5zM192 1444h103q0 -10 5 -43t26.5 -69t64.5 -64.5t123 -28.5t123 28.5t64.5 65.5t26.5 70t5 41h102q0 -141 -80.5 -220t-240.5 -79t-241 79t-81 220z M225 289q1 -205 224 -205q74 0 126 28.5t85.5 74.5t50 106.5t16.5 124.5v112h-115q-61 0 -128.5 -5t-125 -27.5t-95.5 -71.5t-38 -137z" />
<glyph unicode="&#x104;" horiz-adv-x="1144" d="M-2 0l485 1427h181l483 -1427h-166l-111 350h-610l-110 -350h-152zM297 463h539l-271 844zM846 -213q0 37 13.5 68.5t33 59.5t43 50.5t45.5 38.5h98q-14 -10 -38.5 -31.5t-49 -51.5t-42 -63.5t-17.5 -68.5q0 -41 13.5 -66.5t33 -40t44 -19.5t46.5 -5q43 0 72 14.5 t41 22.5l39 -64q-16 -10 -54 -29.5t-116 -19.5q-88 0 -146.5 56.5t-58.5 148.5z" />
<glyph unicode="&#x105;" horiz-adv-x="993" d="M86 276q0 119 48 190t125 105.5t172 45t190 10.5h106v69q0 53 -8 101.5t-43 83.5q-23 23 -62 42t-122 19q-72 0 -113 -16.5t-62.5 -38t-27.5 -43t-8 -29.5h-142q0 16 9.5 54t44 76t106.5 67.5t199 29.5q92 0 160.5 -20.5t119.5 -71.5q55 -55 67.5 -127.5t12.5 -138.5 v-684h-113l-6 158q-4 -10 -20.5 -39t-54 -59.5t-101.5 -55t-162 -24.5q-63 0 -120.5 19t-100.5 56t-68.5 92.5t-25.5 128.5zM225 289q1 -205 224 -205q74 0 126 28.5t85.5 74.5t50 106.5t16.5 124.5v112h-115q-61 0 -128.5 -5t-125 -27.5t-95.5 -71.5t-38 -137zM616 -213 q0 37 13.5 68.5t33 59.5t43 50.5t45.5 38.5h98q-14 -10 -38.5 -31.5t-49 -51.5t-42 -63.5t-17.5 -68.5q0 -41 13.5 -66.5t33 -40t44 -19.5t46.5 -5q43 0 72 14.5t41 22.5l39 -64q-16 -10 -54 -29.5t-116 -19.5q-88 0 -146.5 56.5t-58.5 148.5z" />
<glyph unicode="&#x106;" horiz-adv-x="1212" d="M98 702q0 193 41 335.5t117 234.5t180.5 137t231.5 45q137 0 219 -37t141 -96q43 -43 66.5 -97.5t27.5 -99.5h-149q-4 10 -15.5 46t-44 74t-91 67.5t-152.5 29.5q-129 0 -212 -60t-129 -153.5t-63.5 -206t-17.5 -216.5q0 -100 18.5 -209t64.5 -200t126 -149.5t205 -58.5 q100 0 160.5 28.5t94 65.5t46 71t16.5 44h149q-4 -37 -26.5 -92t-75.5 -107.5t-141 -89.5t-223 -37q-119 0 -221.5 41t-178.5 129t-120 227.5t-44 333.5zM555 1579l177 254h147l-203 -254h-121z" />
<glyph unicode="&#x107;" horiz-adv-x="978" d="M86 498q0 254 110.5 399t331.5 145q129 0 201 -37.5t107.5 -87t44 -93.5t8.5 -56h-133q0 6 -7.5 33.5t-31 58.5t-68.5 55.5t-121 24.5q-92 0 -150.5 -35t-92 -94t-46 -137t-12.5 -162q0 -70 11.5 -145.5t42 -140t88 -106.5t149.5 -42q76 0 123 21.5t72.5 50t35 55 t11.5 37.5h133q0 -10 -10.5 -52.5t-47 -90.5t-111.5 -86t-206 -38q-201 0 -316.5 128t-115.5 395zM397 1190l177 254h147l-203 -254h-121z" />
<glyph unicode="&#x108;" horiz-adv-x="1212" d="M98 702q0 193 41 335.5t117 234.5t180.5 137t231.5 45q137 0 219 -37t141 -96q43 -43 66.5 -97.5t27.5 -99.5h-149q-4 10 -15.5 46t-44 74t-91 67.5t-152.5 29.5q-129 0 -212 -60t-129 -153.5t-63.5 -206t-17.5 -216.5q0 -100 18.5 -209t64.5 -200t126 -149.5t205 -58.5 q100 0 160.5 28.5t94 65.5t46 71t16.5 44h149q-4 -37 -26.5 -92t-75.5 -107.5t-141 -89.5t-223 -37q-119 0 -221.5 41t-178.5 129t-120 227.5t-44 333.5zM356 1579l230 254h164l227 -254h-137l-174 199l-176 -199h-134z" />
<glyph unicode="&#x109;" horiz-adv-x="978" d="M86 498q0 254 110.5 399t331.5 145q129 0 201 -37.5t107.5 -87t44 -93.5t8.5 -56h-133q0 6 -7.5 33.5t-31 58.5t-68.5 55.5t-121 24.5q-92 0 -150.5 -35t-92 -94t-46 -137t-12.5 -162q0 -70 11.5 -145.5t42 -140t88 -106.5t149.5 -42q76 0 123 21.5t72.5 50t35 55 t11.5 37.5h133q0 -10 -10.5 -52.5t-47 -90.5t-111.5 -86t-206 -38q-201 0 -316.5 128t-115.5 395zM200 1190l230 254h164l227 -254h-137l-174 199l-176 -199h-134z" />
<glyph unicode="&#x10a;" horiz-adv-x="1212" d="M98 702q0 193 41 335.5t117 234.5t180.5 137t231.5 45q137 0 219 -37t141 -96q43 -43 66.5 -97.5t27.5 -99.5h-149q-4 10 -15.5 46t-44 74t-91 67.5t-152.5 29.5q-129 0 -212 -60t-129 -153.5t-63.5 -206t-17.5 -216.5q0 -100 18.5 -209t64.5 -200t126 -149.5t205 -58.5 q100 0 160.5 28.5t94 65.5t46 71t16.5 44h149q-4 -37 -26.5 -92t-75.5 -107.5t-141 -89.5t-223 -37q-119 0 -221.5 41t-178.5 129t-120 227.5t-44 333.5zM587 1622v151h152v-151h-152z" />
<glyph unicode="&#x10b;" horiz-adv-x="978" d="M86 498q0 254 110.5 399t331.5 145q129 0 201 -37.5t107.5 -87t44 -93.5t8.5 -56h-133q0 6 -7.5 33.5t-31 58.5t-68.5 55.5t-121 24.5q-92 0 -150.5 -35t-92 -94t-46 -137t-12.5 -162q0 -70 11.5 -145.5t42 -140t88 -106.5t149.5 -42q76 0 123 21.5t72.5 50t35 55 t11.5 37.5h133q0 -10 -10.5 -52.5t-47 -90.5t-111.5 -86t-206 -38q-201 0 -316.5 128t-115.5 395zM442 1233v151h152v-151h-152z" />
<glyph unicode="&#x10c;" horiz-adv-x="1212" d="M98 702q0 193 41 335.5t117 234.5t180.5 137t231.5 45q137 0 219 -37t141 -96q43 -43 66.5 -97.5t27.5 -99.5h-149q-4 10 -15.5 46t-44 74t-91 67.5t-152.5 29.5q-129 0 -212 -60t-129 -153.5t-63.5 -206t-17.5 -216.5q0 -100 18.5 -209t64.5 -200t126 -149.5t205 -58.5 q100 0 160.5 28.5t94 65.5t46 71t16.5 44h149q-4 -37 -26.5 -92t-75.5 -107.5t-141 -89.5t-223 -37q-119 0 -221.5 41t-178.5 129t-120 227.5t-44 333.5zM356 1833h138l174 -199l176 199h133l-229 -254h-164z" />
<glyph unicode="&#x10d;" horiz-adv-x="978" d="M86 498q0 254 110.5 399t331.5 145q129 0 201 -37.5t107.5 -87t44 -93.5t8.5 -56h-133q0 6 -7.5 33.5t-31 58.5t-68.5 55.5t-121 24.5q-92 0 -150.5 -35t-92 -94t-46 -137t-12.5 -162q0 -70 11.5 -145.5t42 -140t88 -106.5t149.5 -42q76 0 123 21.5t72.5 50t35 55 t11.5 37.5h133q0 -10 -10.5 -52.5t-47 -90.5t-111.5 -86t-206 -38q-201 0 -316.5 128t-115.5 395zM219 1444h138l174 -199l176 199h133l-229 -254h-164z" />
<glyph unicode="&#x10e;" horiz-adv-x="1318" d="M178 0v1427h287q51 0 124 -2t151.5 -17t157.5 -50t144 -101q55 -55 89 -119.5t54.5 -134t28 -141t7.5 -137.5q0 -203 -48.5 -335t-128.5 -214q-53 -53 -115.5 -87t-139 -54.5t-168 -27.5t-199.5 -7h-244zM266 1833h138l174 -199l176 199h133l-229 -254h-164zM319 117h138 q70 0 141.5 5t140 24.5t129 58.5t105.5 105.5t71.5 165.5t26.5 241q0 150 -29.5 253t-78 169.5t-110.5 102.5t-129 52.5t-131.5 19.5t-117.5 3h-156v-1200z" />
<glyph unicode="&#x10f;" horiz-adv-x="1212" d="M86 512q0 98 22.5 193.5t71.5 170t125 120.5t184 46q94 0 157 -25.5t99.5 -57t52 -60.5t17.5 -35v580h133v-1444h-112l-7 166q-6 -12 -25.5 -44t-57 -63.5t-98 -57.5t-148.5 -26q-111 0 -190 45.5t-129 120t-72.5 171t-22.5 200.5zM227 506q0 -68 12.5 -141.5t45 -136 t91 -103.5t148.5 -41t147.5 42t89.5 105.5t44 135t12 131.5q0 66 -11 141.5t-43 141t-89.5 109.5t-149.5 44q-90 0 -147.5 -42t-90 -105.5t-46 -138.5t-13.5 -142zM1085 1032v412h138l-37 -412h-101z" />
<glyph unicode="&#x110;" horiz-adv-x="1325" d="M-16 684v109h200v634h287q51 0 124 -2t151.5 -17t157.5 -50t145 -101q55 -55 88.5 -119.5t54 -134t28 -141t7.5 -137.5q0 -203 -48.5 -335t-127.5 -214q-53 -53 -116 -87t-139.5 -54.5t-167.5 -27.5t-200 -7h-244v684h-200zM326 117h137q70 0 141.5 5t140 24.5t129 58.5 t105.5 105.5t71.5 165.5t26.5 241q0 150 -29.5 253t-77.5 169.5t-110.5 102.5t-129 52.5t-131 19.5t-118.5 3h-155v-524h340v-109h-340v-567z" />
<glyph unicode="&#x111;" horiz-adv-x="1095" d="M86 512q0 98 22.5 193.5t71.5 170t125 120.5t184 46q94 0 157 -25.5t99.5 -57t52 -60.5t17.5 -35v314h-414v94h414v172h133v-172h88v-94h-88v-1178h-112l-7 166q-6 -12 -25.5 -44t-57 -63.5t-98 -57.5t-148.5 -26q-111 0 -190 45.5t-129 120t-72.5 171t-22.5 200.5z M227 506q0 -68 12.5 -141.5t45 -136t91 -103.5t148.5 -41t147.5 42t89.5 105.5t44 135t12 131.5q0 66 -11 141.5t-43 141t-89.5 109.5t-149.5 44q-90 0 -147.5 -42t-90 -105.5t-46 -138.5t-13.5 -142z" />
<glyph unicode="&#x112;" horiz-adv-x="1071" d="M178 0v1427h785v-110h-644v-533h611v-110h-611v-557h662v-117h-803zM227 1679v94h635v-94h-635z" />
<glyph unicode="&#x113;" horiz-adv-x="995" d="M86 492q0 119 23.5 219t76 173.5t134 115.5t200.5 42t195 -40.5t119 -111.5t59 -166t16 -202v-53h-682q0 -80 14.5 -151.5t48.5 -127t90 -88t144 -32.5q70 0 113 16t68.5 37.5t36 44t14.5 33.5h125q0 -16 -14.5 -54t-54.5 -77t-110.5 -69t-181.5 -30q-123 0 -206 40 t-134 111t-72.5 165t-21.5 205zM205 1290v94h635v-94h-635zM227 565h549q0 70 -8 137.5t-34.5 121t-78 86t-137.5 32.5q-78 0 -133 -29.5t-89 -80t-50.5 -119t-18.5 -148.5z" />
<glyph unicode="&#x114;" horiz-adv-x="1071" d="M178 0v1427h785v-110h-644v-533h611v-110h-611v-557h662v-117h-803zM252 1833h103q0 -10 5 -43t26.5 -69t64.5 -64.5t123 -28.5t123 28.5t64.5 65.5t26.5 70t5 41h102q0 -141 -80.5 -220t-240.5 -79t-241 79t-81 220z" />
<glyph unicode="&#x115;" horiz-adv-x="995" d="M86 492q0 119 23.5 219t76 173.5t134 115.5t200.5 42t195 -40.5t119 -111.5t59 -166t16 -202v-53h-682q0 -80 14.5 -151.5t48.5 -127t90 -88t144 -32.5q70 0 113 16t68.5 37.5t36 44t14.5 33.5h125q0 -16 -14.5 -54t-54.5 -77t-110.5 -69t-181.5 -30q-123 0 -206 40 t-134 111t-72.5 165t-21.5 205zM190 1444h103q0 -10 5 -43t26.5 -69t64.5 -64.5t123 -28.5t123 28.5t64.5 65.5t26.5 70t5 41h102q0 -141 -80.5 -220t-240.5 -79t-241 79t-81 220zM227 565h549q0 70 -8 137.5t-34.5 121t-78 86t-137.5 32.5q-78 0 -133 -29.5t-89 -80 t-50.5 -119t-18.5 -148.5z" />
<glyph unicode="&#x116;" horiz-adv-x="1071" d="M178 0v1427h785v-110h-644v-533h611v-110h-611v-557h662v-117h-803zM507 1622v151h152v-151h-152z" />
<glyph unicode="&#x117;" horiz-adv-x="995" d="M86 492q0 119 23.5 219t76 173.5t134 115.5t200.5 42t195 -40.5t119 -111.5t59 -166t16 -202v-53h-682q0 -80 14.5 -151.5t48.5 -127t90 -88t144 -32.5q70 0 113 16t68.5 37.5t36 44t14.5 33.5h125q0 -16 -14.5 -54t-54.5 -77t-110.5 -69t-181.5 -30q-123 0 -206 40 t-134 111t-72.5 165t-21.5 205zM227 565h549q0 70 -8 137.5t-34.5 121t-78 86t-137.5 32.5q-78 0 -133 -29.5t-89 -80t-50.5 -119t-18.5 -148.5zM430 1233v151h152v-151h-152z" />
<glyph unicode="&#x118;" horiz-adv-x="1071" d="M178 0v1427h785v-110h-644v-533h611v-110h-611v-557h662v-117h-803zM657 -213q0 37 13.5 68.5t33 59.5t43 50.5t45.5 38.5h98q-14 -10 -38.5 -31.5t-49 -51.5t-42 -63.5t-17.5 -68.5q0 -41 13.5 -66.5t33 -40t44 -19.5t46.5 -5q43 0 72 14.5t41 22.5l39 -64 q-16 -10 -54 -29.5t-116 -19.5q-88 0 -146.5 56.5t-58.5 148.5z" />
<glyph unicode="&#x119;" horiz-adv-x="995" d="M86 492q0 119 23.5 219t76 173.5t134 115.5t200.5 42t195 -40.5t119 -111.5t59 -166t16 -202v-53h-682q0 -80 14.5 -151.5t48.5 -127t90 -88t144 -32.5q70 0 113 16t68.5 37.5t36 44t14.5 33.5h125q0 -16 -14.5 -54t-54.5 -77t-110.5 -69t-181.5 -30q-123 0 -206 40 t-134 111t-72.5 165t-21.5 205zM227 565h549q0 70 -8 137.5t-34.5 121t-78 86t-137.5 32.5q-78 0 -133 -29.5t-89 -80t-50.5 -119t-18.5 -148.5zM453 -213q0 37 13.5 68.5t33 59.5t43 50.5t45.5 38.5h98q-14 -10 -38.5 -31.5t-49 -51.5t-42 -63.5t-17.5 -68.5 q0 -41 13.5 -66.5t33 -40t44 -19.5t46.5 -5q43 0 72 14.5t41 22.5l39 -64q-16 -10 -54 -29.5t-116 -19.5q-88 0 -146.5 56.5t-58.5 148.5z" />
<glyph unicode="&#x11a;" horiz-adv-x="1071" d="M178 0v1427h785v-110h-644v-533h611v-110h-611v-557h662v-117h-803zM264 1833h138l174 -199l176 199h133l-229 -254h-164z" />
<glyph unicode="&#x11b;" horiz-adv-x="995" d="M86 492q0 119 23.5 219t76 173.5t134 115.5t200.5 42t195 -40.5t119 -111.5t59 -166t16 -202v-53h-682q0 -80 14.5 -151.5t48.5 -127t90 -88t144 -32.5q70 0 113 16t68.5 37.5t36 44t14.5 33.5h125q0 -16 -14.5 -54t-54.5 -77t-110.5 -69t-181.5 -30q-123 0 -206 40 t-134 111t-72.5 165t-21.5 205zM213 1444h138l174 -199l176 199h133l-229 -254h-164zM227 565h549q0 70 -8 137.5t-34.5 121t-78 86t-137.5 32.5q-78 0 -133 -29.5t-89 -80t-50.5 -119t-18.5 -148.5z" />
<glyph unicode="&#x11c;" horiz-adv-x="1220" d="M98 702q0 193 41 335.5t117 234.5t180.5 137t231.5 45q135 0 217 -36t141 -95q41 -41 66.5 -93t29.5 -97h-149q-4 10 -16.5 43.5t-45 70.5t-91 65.5t-150.5 28.5q-129 0 -212 -60t-129 -153.5t-63.5 -206t-17.5 -216.5q0 -113 18.5 -223.5t69.5 -198.5t139 -142.5 t227 -54.5q61 0 109.5 8t84.5 18.5t57.5 19.5t29.5 13v441h-303v110h436v-633q-6 -4 -41 -18t-90 -30.5t-128 -30t-155 -13.5q-309 0 -456.5 185.5t-147.5 545.5zM331 1579l230 254h164l227 -254h-137l-174 199l-176 -199h-134z" />
<glyph unicode="&#x11d;" horiz-adv-x="1091" d="M86 504q0 100 21.5 197.5t69.5 173t125 121.5t185 46q100 0 165 -26.5t102 -60t51 -64.5t18 -39l6 166h115v-903q0 -53 -2 -105.5t-12 -101.5t-31.5 -95t-60.5 -85q-14 -14 -37 -34t-61 -38t-94 -30.5t-136 -12.5q-127 0 -200.5 29.5t-111.5 68.5t-48.5 78t-10.5 59h137 q2 -10 8.5 -31.5t29 -45t68.5 -41t128 -17.5q164 0 232.5 86t68.5 260v101q-4 -8 -24.5 -35t-58.5 -54.5t-97.5 -49t-143.5 -21.5q-104 0 -180 42t-125 111.5t-72.5 161t-23.5 189.5zM227 512q0 -68 13.5 -139.5t47.5 -130t91 -96t145 -37.5q90 0 146.5 38.5t89.5 99 t44 133.5t11 140q0 63 -13.5 136t-47 134.5t-90 102.5t-142.5 41q-90 0 -147.5 -41t-90 -103.5t-45 -136t-12.5 -141.5zM233 1190l230 254h164l227 -254h-137l-174 199l-176 -199h-134z" />
<glyph unicode="&#x11e;" horiz-adv-x="1220" d="M98 702q0 193 41 335.5t117 234.5t180.5 137t231.5 45q135 0 217 -36t141 -95q41 -41 66.5 -93t29.5 -97h-149q-4 10 -16.5 43.5t-45 70.5t-91 65.5t-150.5 28.5q-129 0 -212 -60t-129 -153.5t-63.5 -206t-17.5 -216.5q0 -113 18.5 -223.5t69.5 -198.5t139 -142.5 t227 -54.5q61 0 109.5 8t84.5 18.5t57.5 19.5t29.5 13v441h-303v110h436v-633q-6 -4 -41 -18t-90 -30.5t-128 -30t-155 -13.5q-309 0 -456.5 185.5t-147.5 545.5zM334 1833h103q0 -10 5 -43t26.5 -69t64.5 -64.5t123 -28.5t123 28.5t64.5 65.5t26.5 70t5 41h102 q0 -141 -80.5 -220t-240.5 -79t-241 79t-81 220z" />
<glyph unicode="&#x11f;" horiz-adv-x="1091" d="M86 504q0 100 21.5 197.5t69.5 173t125 121.5t185 46q100 0 165 -26.5t102 -60t51 -64.5t18 -39l6 166h115v-903q0 -53 -2 -105.5t-12 -101.5t-31.5 -95t-60.5 -85q-14 -14 -37 -34t-61 -38t-94 -30.5t-136 -12.5q-127 0 -200.5 29.5t-111.5 68.5t-48.5 78t-10.5 59h137 q2 -10 8.5 -31.5t29 -45t68.5 -41t128 -17.5q164 0 232.5 86t68.5 260v101q-4 -8 -24.5 -35t-58.5 -54.5t-97.5 -49t-143.5 -21.5q-104 0 -180 42t-125 111.5t-72.5 161t-23.5 189.5zM217 1444h103q0 -10 5 -43t26.5 -69t64.5 -64.5t123 -28.5t123 28.5t64.5 65.5t26.5 70 t5 41h102q0 -141 -80.5 -220t-240.5 -79t-241 79t-81 220zM227 512q0 -68 13.5 -139.5t47.5 -130t91 -96t145 -37.5q90 0 146.5 38.5t89.5 99t44 133.5t11 140q0 63 -13.5 136t-47 134.5t-90 102.5t-142.5 41q-90 0 -147.5 -41t-90 -103.5t-45 -136t-12.5 -141.5z" />
<glyph unicode="&#x120;" horiz-adv-x="1220" d="M98 702q0 193 41 335.5t117 234.5t180.5 137t231.5 45q135 0 217 -36t141 -95q41 -41 66.5 -93t29.5 -97h-149q-4 10 -16.5 43.5t-45 70.5t-91 65.5t-150.5 28.5q-129 0 -212 -60t-129 -153.5t-63.5 -206t-17.5 -216.5q0 -113 18.5 -223.5t69.5 -198.5t139 -142.5 t227 -54.5q61 0 109.5 8t84.5 18.5t57.5 19.5t29.5 13v441h-303v110h436v-633q-6 -4 -41 -18t-90 -30.5t-128 -30t-155 -13.5q-309 0 -456.5 185.5t-147.5 545.5zM602 1622v151h152v-151h-152z" />
<glyph unicode="&#x121;" horiz-adv-x="1091" d="M86 504q0 100 21.5 197.5t69.5 173t125 121.5t185 46q100 0 165 -26.5t102 -60t51 -64.5t18 -39l6 166h115v-903q0 -53 -2 -105.5t-12 -101.5t-31.5 -95t-60.5 -85q-14 -14 -37 -34t-61 -38t-94 -30.5t-136 -12.5q-127 0 -200.5 29.5t-111.5 68.5t-48.5 78t-10.5 59h137 q2 -10 8.5 -31.5t29 -45t68.5 -41t128 -17.5q164 0 232.5 86t68.5 260v101q-4 -8 -24.5 -35t-58.5 -54.5t-97.5 -49t-143.5 -21.5q-104 0 -180 42t-125 111.5t-72.5 161t-23.5 189.5zM227 512q0 -68 13.5 -139.5t47.5 -130t91 -96t145 -37.5q90 0 146.5 38.5t89.5 99 t44 133.5t11 140q0 63 -13.5 136t-47 134.5t-90 102.5t-142.5 41q-90 0 -147.5 -41t-90 -103.5t-45 -136t-12.5 -141.5zM417 1233v151h152v-151h-152z" />
<glyph unicode="&#x122;" horiz-adv-x="1220" d="M98 702q0 193 41 335.5t117 234.5t180.5 137t231.5 45q135 0 217 -36t141 -95q41 -41 66.5 -93t29.5 -97h-149q-4 10 -16.5 43.5t-45 70.5t-91 65.5t-150.5 28.5q-129 0 -212 -60t-129 -153.5t-63.5 -206t-17.5 -216.5q0 -113 18.5 -223.5t69.5 -198.5t139 -142.5 t227 -54.5q61 0 109.5 8t84.5 18.5t57.5 19.5t29.5 13v441h-303v110h436v-633q-6 -4 -41 -18t-90 -30.5t-128 -30t-155 -13.5q-309 0 -456.5 185.5t-147.5 545.5zM541 -412l68 283h147l-117 -283h-98z" />
<glyph unicode="&#x123;" horiz-adv-x="1091" d="M86 504q0 100 21.5 197.5t69.5 173t125 121.5t185 46q100 0 165 -26.5t102 -60t51 -64.5t18 -39l6 166h115v-903q0 -53 -2 -105.5t-12 -101.5t-31.5 -95t-60.5 -85q-14 -14 -37 -34t-61 -38t-94 -30.5t-136 -12.5q-127 0 -200.5 29.5t-111.5 68.5t-48.5 78t-10.5 59h137 q2 -10 8.5 -31.5t29 -45t68.5 -41t128 -17.5q164 0 232.5 86t68.5 260v101q-4 -8 -24.5 -35t-58.5 -54.5t-97.5 -49t-143.5 -21.5q-104 0 -180 42t-125 111.5t-72.5 161t-23.5 189.5zM227 512q0 -68 13.5 -139.5t47.5 -130t91 -96t145 -37.5q90 0 146.5 38.5t89.5 99 t44 133.5t11 140q0 63 -13.5 136t-47 134.5t-90 102.5t-142.5 41q-90 0 -147.5 -41t-90 -103.5t-45 -136t-12.5 -141.5zM465 1198l116 350h105l-74 -350h-147z" />
<glyph unicode="&#x124;" horiz-adv-x="1390" d="M178 0v1427h141v-634h752v634h141v-1427h-141v678h-752v-678h-141zM383 1579l230 254h164l227 -254h-137l-174 199l-176 -199h-134z" />
<glyph unicode="&#x125;" horiz-adv-x="1077" d="M-89 1579l230 254h164l227 -254h-137l-174 199l-176 -199h-134zM147 0v1444h134v-594q6 10 26.5 42t61.5 65.5t105.5 59t158.5 25.5q88 0 142 -20.5t91 -56.5q53 -53 64.5 -123t11.5 -144v-698h-133v637q0 55 -3 108.5t-23.5 93.5t-62.5 64.5t-122 24.5q-109 0 -171 -47 t-95 -118t-42 -154t-9 -156v-453h-134z" />
<glyph unicode="&#x126;" horiz-adv-x="1390" d="M57 1075v94h121v258h141v-258h752v258h141v-258h121v-94h-121v-1075h-141v678h-752v-678h-141v1075h-121zM319 793h752v282h-752v-282z" />
<glyph unicode="&#x127;" horiz-adv-x="1077" d="M43 1178v94h104v172h134v-172h397v-94h-397v-328q6 10 26.5 42t61.5 65.5t105.5 59t158.5 25.5q88 0 142 -20.5t91 -56.5q53 -53 64.5 -123t11.5 -144v-698h-133v637q0 55 -3 108.5t-23.5 93.5t-62.5 64.5t-122 24.5q-109 0 -171 -47t-95 -118t-42 -154t-9 -156v-453 h-134v1178h-104z" />
<glyph unicode="&#x128;" horiz-adv-x="497" d="M-84 1599q0 100 41 154.5t121 54.5q49 0 92 -16.5t84 -35.5t80 -35.5t76 -16.5q35 0 53 14t27.5 34.5t11.5 39t4 29.5h82q0 -18 -3 -54.5t-19.5 -72t-51.5 -62t-98 -26.5q-49 0 -96 16t-90.5 35.5t-80 36t-67.5 16.5q-29 0 -45 -13.5t-24.5 -32t-10.5 -36.5t-4 -29h-82z M178 0v1427h141v-1427h-141z" />
<glyph unicode="&#x129;" horiz-adv-x="428" d="M-119 1210q0 100 41 154.5t121 54.5q49 0 92 -16.5t84 -35.5t80 -35.5t76 -16.5q35 0 53 14t27.5 34.5t11.5 39t4 29.5h82q0 -18 -3 -54.5t-19.5 -72t-51.5 -62t-98 -26.5q-49 0 -96 16t-90.5 35.5t-80 36t-67.5 16.5q-29 0 -45 -13.5t-24.5 -32t-10.5 -36.5t-4 -29h-82z M147 0v1018h134v-1018h-134z" />
<glyph unicode="&#x12a;" horiz-adv-x="497" d="M-76 1679v94h635v-94h-635zM178 0v1427h141v-1427h-141z" />
<glyph unicode="&#x12b;" horiz-adv-x="428" d="M-111 1290v94h635v-94h-635zM147 0v1018h134v-1018h-134z" />
<glyph unicode="&#x12c;" horiz-adv-x="497" d="M-72 1833h103q0 -10 5 -43t26.5 -69t64.5 -64.5t123 -28.5t123 28.5t64.5 65.5t26.5 70t5 41h102q0 -141 -80.5 -220t-240.5 -79t-241 79t-81 220zM178 0v1427h141v-1427h-141z" />
<glyph unicode="&#x12d;" horiz-adv-x="428" d="M-107 1444h103q0 -10 5 -43t26.5 -69t64.5 -64.5t123 -28.5t123 28.5t64.5 65.5t26.5 70t5 41h102q0 -141 -80.5 -220t-240.5 -79t-241 79t-81 220zM147 0v1018h134v-1018h-134z" />
<glyph unicode="&#x12e;" horiz-adv-x="497" d="M64 -213q0 37 13.5 68.5t33 59.5t43 50.5t45.5 38.5h98q-14 -10 -38.5 -31.5t-49 -51.5t-42 -63.5t-17.5 -68.5q0 -41 13.5 -66.5t33 -40t44 -19.5t46.5 -5q43 0 72 14.5t41 22.5l39 -64q-16 -10 -54 -29.5t-116 -19.5q-88 0 -146.5 56.5t-58.5 148.5zM178 0v1427h141 v-1427h-141z" />
<glyph unicode="&#x12f;" horiz-adv-x="428" d="M29 -213q0 37 13.5 68.5t33 59.5t43 50.5t45.5 38.5h98q-14 -10 -38.5 -31.5t-49 -51.5t-42 -63.5t-17.5 -68.5q0 -41 13.5 -66.5t33 -40t44 -19.5t46.5 -5q43 0 72 14.5t41 22.5l39 -64q-16 -10 -54 -29.5t-116 -19.5q-88 0 -146.5 56.5t-58.5 148.5zM147 0v1018h134 v-1018h-134zM147 1204v135h134v-135h-134z" />
<glyph unicode="&#x130;" horiz-adv-x="497" d="M178 0v1427h141v-1427h-141zM180 1622v151h152v-151h-152z" />
<glyph unicode="&#x131;" horiz-adv-x="428" d="M147 0v1018h134v-1018h-134z" />
<glyph unicode="&#x132;" horiz-adv-x="1472" d="M178 0v1427h141v-1427h-141zM525 293h139q2 -14 11 -49t36 -72t73 -64.5t124 -27.5q57 0 96 15.5t72 45.5q53 53 65 128t12 173v985h142v-1013q0 -47 -2 -93.5t-12.5 -89.5t-31 -84t-57.5 -77q-45 -45 -118.5 -71t-165.5 -26q-104 0 -176 26t-117 71q-55 55 -72.5 112.5 t-17.5 110.5z" />
<glyph unicode="&#x133;" horiz-adv-x="948" d="M147 0v1018h134v-1018h-134zM147 1204v135h134v-135h-134zM399 -252q12 -4 37 -9t58 -5q66 0 100.5 20.5t50.5 54t19.5 74.5t3.5 84v1051h133v-1069q0 -104 -14.5 -157.5t-53.5 -92.5q-27 -27 -74 -49.5t-133 -22.5q-45 0 -80.5 9.5t-46.5 13.5v98zM668 1204v135h133 v-135h-133z" />
<glyph unicode="&#x134;" horiz-adv-x="974" d="M27 293h139q2 -14 11 -49t36 -72t73 -64.5t124 -27.5q57 0 96 15.5t72 45.5q53 53 65 128t12 173v985h142v-1013q0 -47 -2 -93.5t-12.5 -89.5t-31 -84t-57.5 -77q-45 -45 -118.5 -71t-165.5 -26q-104 0 -176 26t-117 71q-55 55 -72.5 112.5t-17.5 110.5zM419 1579 l230 254h164l227 -254h-137l-174 199l-176 -199h-134z" />
<glyph unicode="&#x135;" horiz-adv-x="520" d="M-29 -252q12 -4 37 -9t58 -5q66 0 100.5 20.5t50.5 54t19.5 74.5t3.5 84v1051h133v-1069q0 -104 -14.5 -157.5t-53.5 -92.5q-27 -27 -74 -49.5t-133 -22.5q-45 0 -80.5 9.5t-46.5 13.5v98zM-7 1190l230 254h164l227 -254h-137l-174 199l-176 -199h-134z" />
<glyph unicode="&#x136;" horiz-adv-x="1130" d="M178 0v1427h141v-679l603 679h168l-619 -688l655 -739h-188l-619 713v-713h-141zM434 -412l68 283h147l-117 -283h-98z" />
<glyph unicode="&#x137;" horiz-adv-x="886" d="M147 0v1444h134v-905l391 479h149l-399 -486l440 -532h-170l-411 514v-514h-134zM311 -412l68 283h147l-117 -283h-98z" />
<glyph unicode="&#x138;" horiz-adv-x="886" d="M147 0v1018h134v-479l391 479h149l-399 -486l440 -532h-170l-411 514v-514h-134z" />
<glyph unicode="&#x139;" horiz-adv-x="1019" d="M172 1579l177 254h147l-203 -254h-121zM178 0v1427h141v-1310h660v-117h-801z" />
<glyph unicode="&#x13a;" horiz-adv-x="428" d="M141 1579l177 254h147l-203 -254h-121zM147 0v1444h134v-1444h-134z" />
<glyph unicode="&#x13b;" horiz-adv-x="1019" d="M178 0v1427h141v-1310h660v-117h-801zM420 -412l68 283h147l-117 -283h-98z" />
<glyph unicode="&#x13c;" horiz-adv-x="428" d="M78 -412l68 283h147l-117 -283h-98zM147 0v1444h134v-1444h-134z" />
<glyph unicode="&#x13d;" horiz-adv-x="1019" d="M178 0v1427h141v-1310h660v-117h-801zM532 1020v412h138l-37 -412h-101z" />
<glyph unicode="&#x13e;" horiz-adv-x="569" d="M147 0v1444h134v-1444h-134zM423 1032v412h138l-37 -412h-101z" />
<glyph unicode="&#x13f;" horiz-adv-x="1019" d="M178 0v1427h141v-1310h660v-117h-801zM675 701v161h162v-161h-162z" />
<glyph unicode="&#x140;" horiz-adv-x="569" d="M147 0v1444h134v-1444h-134zM419 680v161h162v-161h-162z" />
<glyph unicode="&#x141;" horiz-adv-x="1048" d="M-33 446l240 246v735h141v-602l250 265l68 -70l-318 -334v-569h660v-117h-801v555l-170 -178z" />
<glyph unicode="&#x142;" horiz-adv-x="571" d="M-33 463l246 246v735h133v-608l197 200l61 -65l-258 -260v-711h-133v582l-182 -185z" />
<glyph unicode="&#x143;" horiz-adv-x="1390" d="M178 0v1427h174l733 -1255v1255h127v-1427h-172l-735 1264v-1264h-127zM602 1579l177 254h147l-203 -254h-121z" />
<glyph unicode="&#x144;" horiz-adv-x="1077" d="M147 0v1018h113l6 -193q4 8 22.5 43t60.5 74t110.5 69.5t173.5 30.5q88 0 142 -20.5t91 -56.5q53 -53 64.5 -123t11.5 -144v-698h-133v637q0 57 -3 110.5t-23.5 93.5t-62.5 63.5t-122 23.5q-109 0 -171 -47t-95 -118t-42 -154t-9 -156v-453h-134zM467 1190l177 254h147 l-203 -254h-121z" />
<glyph unicode="&#x145;" horiz-adv-x="1390" d="M178 0v1427h174l733 -1255v1255h127v-1427h-172l-735 1264v-1264h-127zM563 -412l68 283h147l-117 -283h-98z" />
<glyph unicode="&#x146;" horiz-adv-x="1077" d="M147 0v1018h113l6 -193q4 8 22.5 43t60.5 74t110.5 69.5t173.5 30.5q88 0 142 -20.5t91 -56.5q53 -53 64.5 -123t11.5 -144v-698h-133v637q0 57 -3 110.5t-23.5 93.5t-62.5 63.5t-122 23.5q-109 0 -171 -47t-95 -118t-42 -154t-9 -156v-453h-134zM408 -412l68 283h147 l-117 -283h-98z" />
<glyph unicode="&#x147;" horiz-adv-x="1390" d="M178 0v1427h174l733 -1255v1255h127v-1427h-172l-735 1264v-1264h-127zM383 1833h138l174 -199l176 199h133l-229 -254h-164z" />
<glyph unicode="&#x148;" horiz-adv-x="1077" d="M147 0v1018h113l6 -193q4 8 22.5 43t60.5 74t110.5 69.5t173.5 30.5q88 0 142 -20.5t91 -56.5q53 -53 64.5 -123t11.5 -144v-698h-133v637q0 57 -3 110.5t-23.5 93.5t-62.5 63.5t-122 23.5q-109 0 -171 -47t-95 -118t-42 -154t-9 -156v-453h-134zM247 1444h138l174 -199 l176 199h133l-229 -254h-164z" />
<glyph unicode="&#x149;" horiz-adv-x="1433" d="M78 1034l92 393h158l-146 -393h-104zM475 0v1018h113l6 -193q4 8 22.5 43t60.5 74t110.5 69.5t173.5 30.5q88 0 142 -20.5t91 -56.5q53 -53 64.5 -123t11.5 -144v-698h-133v637q0 57 -3 110.5t-23.5 93.5t-62.5 63.5t-122 23.5q-109 0 -171 -47t-95 -118t-42 -154 t-9 -156v-453h-134z" />
<glyph unicode="&#x14a;" horiz-adv-x="1390" d="M178 0v1427h174l733 -1255v1255h127v-1402q0 -94 -21.5 -175t-68.5 -139.5t-121 -92.5t-176 -34q-23 0 -51.5 3t-56 8.5t-51 12.5t-37.5 13l8 109q12 -8 34.5 -15.5t49.5 -12.5t54.5 -8t49.5 -3q119 0 182.5 75.5t63.5 192.5l-766 1305v-1264h-127z" />
<glyph unicode="&#x14b;" horiz-adv-x="1077" d="M147 0v1018h113l6 -193q4 8 22.5 43t60.5 74t110.5 69.5t173.5 30.5q88 0 142 -20.5t91 -56.5q53 -53 64.5 -123t11.5 -144v-749q0 -104 -14.5 -157.5t-53.5 -92.5q-27 -27 -73.5 -49.5t-132.5 -22.5q-45 0 -81 9.5t-46 13.5v98q12 -4 36.5 -9t57.5 -5q66 0 100.5 20.5 t51 54t19.5 74.5t3 84v670q0 57 -3 110.5t-23.5 93.5t-62.5 63.5t-122 23.5q-109 0 -171 -47t-95 -118t-42 -154t-9 -156v-453h-134z" />
<glyph unicode="&#x14c;" horiz-adv-x="1372" d="M98 709q0 164 35 301t107.5 235t184.5 153.5t263 55.5q291 0 438.5 -191.5t147.5 -553.5q0 -352 -151.5 -545t-438.5 -193t-436.5 191.5t-149.5 546.5zM248 717q0 -98 15.5 -209t62.5 -204t133 -154.5t225 -61.5q137 0 223 60.5t134.5 153.5t65.5 203.5t17 211.5 q0 106 -18.5 216.5t-67.5 201t-134 148.5t-220 58q-133 0 -218 -60t-133 -153.5t-66.5 -203t-18.5 -207.5zM358 1679v94h635v-94h-635z" />
<glyph unicode="&#x14d;" horiz-adv-x="1064" d="M86 510q0 156 39 259t103.5 163.5t145.5 85t165 24.5t162.5 -24.5t140 -85t99.5 -162.5t38 -260t-39 -261.5t-101.5 -163.5t-143.5 -85t-165 -25t-163.5 25t-142 85t-100.5 163.5t-38 261.5zM205 1290v94h635v-94h-635zM227 510q0 -92 14.5 -172t50.5 -137.5t94 -90 t144 -32.5q90 0 149.5 32.5t94.5 90t49.5 137.5t14.5 172q0 94 -14.5 173t-50.5 136.5t-95.5 89t-147.5 31.5t-146 -31.5t-93 -89t-49.5 -136.5t-14.5 -173z" />
<glyph unicode="&#x14e;" horiz-adv-x="1372" d="M98 709q0 164 35 301t107.5 235t184.5 153.5t263 55.5q291 0 438.5 -191.5t147.5 -553.5q0 -352 -151.5 -545t-438.5 -193t-436.5 191.5t-149.5 546.5zM248 717q0 -98 15.5 -209t62.5 -204t133 -154.5t225 -61.5q137 0 223 60.5t134.5 153.5t65.5 203.5t17 211.5 q0 106 -18.5 216.5t-67.5 201t-134 148.5t-220 58q-133 0 -218 -60t-133 -153.5t-66.5 -203t-18.5 -207.5zM362 1833h103q0 -10 5 -43t26.5 -69t64.5 -64.5t123 -28.5t123 28.5t64.5 65.5t26.5 70t5 41h102q0 -141 -80.5 -220t-240.5 -79t-241 79t-81 220z" />
<glyph unicode="&#x14f;" horiz-adv-x="1064" d="M86 510q0 156 39 259t103.5 163.5t145.5 85t165 24.5t162.5 -24.5t140 -85t99.5 -162.5t38 -260t-39 -261.5t-101.5 -163.5t-143.5 -85t-165 -25t-163.5 25t-142 85t-100.5 163.5t-38 261.5zM209 1444h103q0 -10 5 -43t26.5 -69t64.5 -64.5t123 -28.5t123 28.5t64.5 65.5 t26.5 70t5 41h102q0 -141 -80.5 -220t-240.5 -79t-241 79t-81 220zM227 510q0 -92 14.5 -172t50.5 -137.5t94 -90t144 -32.5q90 0 149.5 32.5t94.5 90t49.5 137.5t14.5 172q0 94 -14.5 173t-50.5 136.5t-95.5 89t-147.5 31.5t-146 -31.5t-93 -89t-49.5 -136.5t-14.5 -173z " />
<glyph unicode="&#x150;" horiz-adv-x="1372" d="M98 709q0 164 35 301t107.5 235t184.5 153.5t263 55.5q291 0 438.5 -191.5t147.5 -553.5q0 -352 -151.5 -545t-438.5 -193t-436.5 191.5t-149.5 546.5zM248 717q0 -98 15.5 -209t62.5 -204t133 -154.5t225 -61.5q137 0 223 60.5t134.5 153.5t65.5 203.5t17 211.5 q0 106 -18.5 216.5t-67.5 201t-134 148.5t-220 58q-133 0 -218 -60t-133 -153.5t-66.5 -203t-18.5 -207.5zM414 1610l158 256h133l-193 -256h-98zM697 1610l157 256h133l-192 -256h-98z" />
<glyph unicode="&#x151;" horiz-adv-x="1064" d="M86 510q0 156 39 259t103.5 163.5t145.5 85t165 24.5t162.5 -24.5t140 -85t99.5 -162.5t38 -260t-39 -261.5t-101.5 -163.5t-143.5 -85t-165 -25t-163.5 25t-142 85t-100.5 163.5t-38 261.5zM227 510q0 -92 14.5 -172t50.5 -137.5t94 -90t144 -32.5q90 0 149.5 32.5 t94.5 90t49.5 137.5t14.5 172q0 94 -14.5 173t-50.5 136.5t-95.5 89t-147.5 31.5t-146 -31.5t-93 -89t-49.5 -136.5t-14.5 -173zM260 1221l158 256h133l-193 -256h-98zM543 1221l157 256h133l-192 -256h-98z" />
<glyph unicode="&#x152;" horiz-adv-x="1869" d="M94 702q0 203 48 335t128 214q53 53 116 87t139.5 54.5t167.5 27.5t200 7h868v-110h-643v-533h611v-110h-611v-557h662v-117h-930q-53 0 -125 2t-150.5 17.5t-157.5 50t-145 100.5q-55 55 -88.5 119.5t-54 134.5t-28 141.5t-7.5 136.5zM244 717q0 -150 29.5 -253.5 t77.5 -170t109.5 -102t127 -52t128 -19.5t111.5 -3h150v1200h-119q-104 0 -212.5 -14.5t-198 -74t-146.5 -180t-57 -331.5z" />
<glyph unicode="&#x153;" horiz-adv-x="1746" d="M86 510q0 156 39 259t103.5 163.5t145.5 85t165 24.5q102 0 170.5 -27.5t111.5 -62t62.5 -67.5t25.5 -43q6 10 25.5 43t61.5 67.5t108.5 62t167.5 27.5q119 0 194.5 -40.5t118.5 -111.5t59.5 -166t16.5 -202v-53h-682q0 -80 14.5 -151.5t48 -127t90 -88t144.5 -32.5 q70 0 113 16t68.5 37.5t35.5 44t14 33.5h125q0 -16 -14 -54t-54 -77t-110.5 -69t-181.5 -30q-104 0 -174 28t-112 62.5t-60.5 66.5t-20.5 40q-6 -10 -27.5 -41t-65.5 -64.5t-112.5 -60.5t-169.5 -27q-84 0 -163.5 25t-142 85t-100.5 163.5t-38 261.5zM227 510 q0 -92 14.5 -172t50.5 -137.5t94 -90t144 -32.5q90 0 149.5 32.5t94.5 90t49.5 137.5t14.5 172q0 94 -14.5 173t-50.5 136.5t-95.5 89t-147.5 31.5t-146 -31.5t-93 -89t-49.5 -136.5t-14.5 -173zM979 565h549q0 70 -8.5 137.5t-35 121t-77.5 86t-137 32.5 q-78 0 -133.5 -29.5t-89 -80t-50 -119t-18.5 -148.5z" />
<glyph unicode="&#x154;" horiz-adv-x="1204" d="M178 0v1427h320q98 0 193 -10t170 -48t122 -110.5t47 -197.5q0 -129 -42 -203t-98 -111.5t-115.5 -50t-94.5 -16.5q41 -4 81 -17.5t81 -54.5q18 -18 37.5 -54t38 -76t34 -78t25.5 -62l135 -338h-160l-127 338q-29 74 -52 127t-64 94q-39 39 -96.5 55.5t-143.5 16.5h-150 v-631h-141zM319 737h164q102 0 187.5 21.5t142.5 79.5q35 35 53.5 85t18.5 119q0 55 -13.5 107.5t-48.5 87.5q-61 61 -146 72.5t-179 11.5h-179v-584zM387 1579l177 254h147l-203 -254h-121z" />
<glyph unicode="&#x155;" horiz-adv-x="681" d="M147 0v1018h113l6 -240q2 8 17.5 50t52.5 88.5t103.5 83t170.5 36.5q16 0 33 -4q8 -2 14 -2v-133q-4 0 -14 1t-22 1q-121 0 -190 -48t-102.5 -127t-40.5 -178.5t-7 -203.5v-342h-134zM268 1190l177 254h147l-203 -254h-121z" />
<glyph unicode="&#x156;" horiz-adv-x="1204" d="M178 0v1427h320q98 0 193 -10t170 -48t122 -110.5t47 -197.5q0 -129 -42 -203t-98 -111.5t-115.5 -50t-94.5 -16.5q41 -4 81 -17.5t81 -54.5q18 -18 37.5 -54t38 -76t34 -78t25.5 -62l135 -338h-160l-127 338q-29 74 -52 127t-64 94q-39 39 -96.5 55.5t-143.5 16.5h-150 v-631h-141zM319 737h164q102 0 187.5 21.5t142.5 79.5q35 35 53.5 85t18.5 119q0 55 -13.5 107.5t-48.5 87.5q-61 61 -146 72.5t-179 11.5h-179v-584zM471 -412l68 283h147l-117 -283h-98z" />
<glyph unicode="&#x157;" horiz-adv-x="681" d="M88 -412l68 283h147l-117 -283h-98zM147 0v1018h113l6 -240q2 8 17.5 50t52.5 88.5t103.5 83t170.5 36.5q16 0 33 -4q8 -2 14 -2v-133q-4 0 -14 1t-22 1q-121 0 -190 -48t-102.5 -127t-40.5 -178.5t-7 -203.5v-342h-134z" />
<glyph unicode="&#x158;" horiz-adv-x="1204" d="M178 0v1427h320q98 0 193 -10t170 -48t122 -110.5t47 -197.5q0 -129 -42 -203t-98 -111.5t-115.5 -50t-94.5 -16.5q41 -4 81 -17.5t81 -54.5q18 -18 37.5 -54t38 -76t34 -78t25.5 -62l135 -338h-160l-127 338q-29 74 -52 127t-64 94q-39 39 -96.5 55.5t-143.5 16.5h-150 v-631h-141zM290 1833h138l174 -199l176 199h133l-229 -254h-164zM319 737h164q102 0 187.5 21.5t142.5 79.5q35 35 53.5 85t18.5 119q0 55 -13.5 107.5t-48.5 87.5q-61 61 -146 72.5t-179 11.5h-179v-584z" />
<glyph unicode="&#x159;" horiz-adv-x="681" d="M32 1444h138l174 -199l176 199h133l-229 -254h-164zM147 0v1018h113l6 -240q2 8 17.5 50t52.5 88.5t103.5 83t170.5 36.5q16 0 33 -4q8 -2 14 -2v-133q-4 0 -14 1t-22 1q-121 0 -190 -48t-102.5 -127t-40.5 -178.5t-7 -203.5v-342h-134z" />
<glyph unicode="&#x15a;" horiz-adv-x="1099" d="M98 317h150q2 -10 10 -47t38 -77.5t90 -72.5t165 -32q147 0 224 69.5t77 186.5q0 76 -29.5 126t-77 86t-109 61.5t-122.5 52.5q-61 25 -128 54.5t-122 74.5t-91 113.5t-36 170.5q0 111 44 182.5t108.5 113.5t137.5 58.5t128 16.5q88 0 164 -19.5t131 -57.5t87 -92 t34 -124h-146q-2 10 -10 40t-35.5 61.5t-81 56t-145.5 24.5q-121 0 -194.5 -64.5t-73.5 -172.5q0 -76 24.5 -124t65.5 -80t94 -53.5t111 -45.5q76 -31 150.5 -62.5t135 -79t98 -117t37.5 -175.5q0 -111 -38.5 -187t-102 -123t-144.5 -67.5t-165 -20.5q-111 0 -195 27 t-141 73t-87 109.5t-30 136.5zM415 1579l177 254h147l-203 -254h-121z" />
<glyph unicode="&#x15b;" horiz-adv-x="876" d="M86 219h145q2 -6 7.5 -29.5t26 -49t61.5 -46t114 -20.5q201 0 201 164q0 41 -18.5 70.5t-54.5 55t-86 49t-111 52.5q-33 14 -76 34.5t-82 54.5t-65.5 86t-26.5 130q0 59 22.5 105.5t49.5 72.5q39 39 97 66.5t150 27.5q86 0 155 -18t116 -66q41 -41 54 -79.5t13 -65.5 h-133q0 4 -6 24.5t-26.5 44t-60.5 43t-110 19.5q-78 0 -129 -41t-51 -119q0 -45 15.5 -75.5t41 -52t58.5 -36t65 -28.5q72 -31 135.5 -58.5t110.5 -64.5t75 -86t28 -119q0 -82 -28 -137t-75 -89t-110.5 -48.5t-135.5 -14.5q-92 0 -153.5 16.5t-101.5 42t-60.5 55.5 t-29.5 57.5t-10 47t-1 25.5zM305 1190l177 254h147l-203 -254h-121z" />
<glyph unicode="&#x15c;" horiz-adv-x="1099" d="M98 317h150q2 -10 10 -47t38 -77.5t90 -72.5t165 -32q147 0 224 69.5t77 186.5q0 76 -29.5 126t-77 86t-109 61.5t-122.5 52.5q-61 25 -128 54.5t-122 74.5t-91 113.5t-36 170.5q0 111 44 182.5t108.5 113.5t137.5 58.5t128 16.5q88 0 164 -19.5t131 -57.5t87 -92 t34 -124h-146q-2 10 -10 40t-35.5 61.5t-81 56t-145.5 24.5q-121 0 -194.5 -64.5t-73.5 -172.5q0 -76 24.5 -124t65.5 -80t94 -53.5t111 -45.5q76 -31 150.5 -62.5t135 -79t98 -117t37.5 -175.5q0 -111 -38.5 -187t-102 -123t-144.5 -67.5t-165 -20.5q-111 0 -195 27 t-141 73t-87 109.5t-30 136.5zM237 1579l230 254h164l227 -254h-137l-174 199l-176 -199h-134z" />
<glyph unicode="&#x15d;" horiz-adv-x="876" d="M86 219h145q2 -6 7.5 -29.5t26 -49t61.5 -46t114 -20.5q201 0 201 164q0 41 -18.5 70.5t-54.5 55t-86 49t-111 52.5q-33 14 -76 34.5t-82 54.5t-65.5 86t-26.5 130q0 59 22.5 105.5t49.5 72.5q39 39 97 66.5t150 27.5q86 0 155 -18t116 -66q41 -41 54 -79.5t13 -65.5 h-133q0 4 -6 24.5t-26.5 44t-60.5 43t-110 19.5q-78 0 -129 -41t-51 -119q0 -45 15.5 -75.5t41 -52t58.5 -36t65 -28.5q72 -31 135.5 -58.5t110.5 -64.5t75 -86t28 -119q0 -82 -28 -137t-75 -89t-110.5 -48.5t-135.5 -14.5q-92 0 -153.5 16.5t-101.5 42t-60.5 55.5 t-29.5 57.5t-10 47t-1 25.5zM127 1190l230 254h164l227 -254h-137l-174 199l-176 -199h-134z" />
<glyph unicode="&#x15e;" horiz-adv-x="1099" d="M98 317h150q2 -10 10 -47t38 -77.5t90 -72.5t165 -32q147 0 224 69.5t77 186.5q0 76 -29.5 126t-77 86t-109 61.5t-122.5 52.5q-61 25 -128 54.5t-122 74.5t-91 113.5t-36 170.5q0 111 44 182.5t108.5 113.5t137.5 58.5t128 16.5q88 0 164 -19.5t131 -57.5t87 -92 t34 -124h-146q-2 10 -10 40t-35.5 61.5t-81 56t-145.5 24.5q-121 0 -194.5 -64.5t-73.5 -172.5q0 -76 24.5 -124t65.5 -80t94 -53.5t111 -45.5q76 -31 150.5 -62.5t135 -79t98 -117t37.5 -175.5q0 -111 -38.5 -187t-102 -123t-144.5 -67.5t-165 -20.5q-111 0 -195 27 t-141 73t-87 109.5t-30 136.5zM428 -377l31 60q12 -6 40.5 -17.5t63.5 -11.5q14 0 32.5 3t33 13.5t24.5 27.5t10 46q0 37 -19 57.5t-47 30.5t-55.5 12t-43.5 4l26 154h70l-21 -100q14 -2 43 -6.5t58.5 -18.5t52 -43t22.5 -80q0 -86 -52 -129t-126 -43q-57 0 -97 18.5 t-46 22.5z" />
<glyph unicode="&#x15f;" horiz-adv-x="876" d="M86 219h145q2 -6 7.5 -29.5t26 -49t61.5 -46t114 -20.5q201 0 201 164q0 41 -18.5 70.5t-54.5 55t-86 49t-111 52.5q-33 14 -76 34.5t-82 54.5t-65.5 86t-26.5 130q0 59 22.5 105.5t49.5 72.5q39 39 97 66.5t150 27.5q86 0 155 -18t116 -66q41 -41 54 -79.5t13 -65.5 h-133q0 4 -6 24.5t-26.5 44t-60.5 43t-110 19.5q-78 0 -129 -41t-51 -119q0 -45 15.5 -75.5t41 -52t58.5 -36t65 -28.5q72 -31 135.5 -58.5t110.5 -64.5t75 -86t28 -119q0 -82 -28 -137t-75 -89t-110.5 -48.5t-135.5 -14.5q-92 0 -153.5 16.5t-101.5 42t-60.5 55.5 t-29.5 57.5t-10 47t-1 25.5zM297 -377l31 60q12 -6 40.5 -17.5t63.5 -11.5q14 0 32.5 3t33 13.5t24.5 27.5t10 46q0 37 -19 57.5t-47 30.5t-55.5 12t-43.5 4l26 154h70l-21 -100q14 -2 43 -6.5t58.5 -18.5t52 -43t22.5 -80q0 -86 -52 -129t-126 -43q-57 0 -97 18.5t-46 22.5 z" />
<glyph unicode="&#x160;" horiz-adv-x="1099" d="M90 317h150q2 -10 10 -47t38 -77.5t90 -72.5t165 -32q147 0 224 69.5t77 186.5q0 76 -29.5 126t-77 86t-109 61.5t-122.5 52.5q-61 25 -128 54.5t-122 74.5t-91 113.5t-36 170.5q0 111 44 182.5t108.5 113.5t137.5 58.5t128 16.5q88 0 164 -19.5t131 -57.5t87 -92 t34 -124h-146q-2 10 -10 40t-35.5 61.5t-81 56t-145.5 24.5q-121 0 -194.5 -64.5t-73.5 -172.5q0 -76 24.5 -124t65.5 -80t94 -53.5t111 -45.5q76 -31 150.5 -62.5t135 -79t98 -117t37.5 -175.5q0 -111 -38.5 -187t-102 -123t-144.5 -67.5t-165 -20.5q-111 0 -195 27 t-141 73t-87 109.5t-30 136.5zM229 1833h138l174 -199l176 199h133l-229 -254h-164z" />
<glyph unicode="&#x161;" horiz-adv-x="876" d="M80 219h145q2 -6 7.5 -29.5t26 -49t61.5 -46t114 -20.5q201 0 201 164q0 41 -18.5 70.5t-54.5 55t-86 49t-111 52.5q-33 14 -76 34.5t-82 54.5t-65.5 86t-26.5 130q0 59 22.5 105.5t49.5 72.5q39 39 97 66.5t150 27.5q86 0 155 -18t116 -66q41 -41 54 -79.5t13 -65.5 h-133q0 4 -6 24.5t-26.5 44t-60.5 43t-110 19.5q-78 0 -129 -41t-51 -119q0 -45 15.5 -75.5t41 -52t58.5 -36t65 -28.5q72 -31 135.5 -58.5t110.5 -64.5t75 -86t28 -119q0 -82 -28 -137t-75 -89t-110.5 -48.5t-135.5 -14.5q-92 0 -153.5 16.5t-101.5 42t-60.5 55.5 t-29.5 57.5t-10 47t-1 25.5zM151 1444h138l174 -199l176 199h133l-229 -254h-164z" />
<glyph unicode="&#x162;" horiz-adv-x="1071" d="M45 1317v110h981v-110h-420v-1317h-141v1317h-420zM403 -412l68 283h147l-117 -283h-98z" />
<glyph unicode="&#x163;" horiz-adv-x="671" d="M27 920v98h182v293h133v-293h285v-98h-285v-637q0 -45 4 -81t21.5 -61.5t53.5 -40t99 -14.5q41 0 72 5t35 7v-100q-4 -2 -18.5 -5t-35 -7t-44.5 -7.5t-44 -3.5q-145 0 -211 66q-47 47 -56 100.5t-9 124.5v654h-182zM287 -412l68 283h147l-117 -283h-98z" />
<glyph unicode="&#x164;" horiz-adv-x="1071" d="M45 1317v110h981v-110h-420v-1317h-141v1317h-420zM223 1833h138l174 -199l176 199h133l-229 -254h-164z" />
<glyph unicode="&#x165;" horiz-adv-x="671" d="M27 920v98h182v293h133v-293h285v-98h-285v-637q0 -45 4 -81t21.5 -61.5t53.5 -40t99 -14.5q41 0 72 5t35 7v-100q-4 -2 -18.5 -5t-35 -7t-44.5 -7.5t-44 -3.5q-145 0 -211 66q-47 47 -56 100.5t-9 124.5v654h-182zM526 1175v412h138l-37 -412h-101z" />
<glyph unicode="&#x166;" horiz-adv-x="1071" d="M45 1317v110h981v-110h-420v-445h297v-94h-297v-778h-141v778h-297v94h297v445h-420z" />
<glyph unicode="&#x167;" horiz-adv-x="671" d="M27 920v98h182v293h133v-293h285v-98h-285v-252h199v-95h-199v-290q0 -45 4 -81t21.5 -61.5t53.5 -40t99 -14.5q41 0 72 5t35 7v-100q-4 -2 -18.5 -5t-35 -7t-44.5 -7.5t-44 -3.5q-145 0 -211 66q-47 47 -56 100.5t-9 124.5v307h-160v95h160v252h-182z" />
<glyph unicode="&#x168;" horiz-adv-x="1355" d="M178 586v841h141v-847q0 -78 8.5 -164t44.5 -159t108.5 -120t199.5 -47q88 0 148.5 23.5t101.5 64.5q39 39 61.5 91.5t32.5 105.5t12 105t2 95v852h140v-841q0 -68 -3.5 -133.5t-17.5 -127t-40.5 -116.5t-76.5 -105q-23 -23 -53.5 -46t-73.5 -41.5t-100 -31t-131 -12.5 q-129 0 -218 36t-149 95q-47 49 -74.5 105.5t-42 118t-17.5 127t-3 131.5zM342 1599q0 100 41 154.5t121 54.5q49 0 92 -16.5t84 -35.5t80 -35.5t76 -16.5q35 0 53 14t27.5 34.5t11.5 39t4 29.5h82q0 -18 -3 -54.5t-19.5 -72t-51.5 -62t-98 -26.5q-49 0 -96 16t-90.5 35.5 t-80 36t-67.5 16.5q-29 0 -45 -13.5t-24.5 -32t-10.5 -36.5t-4 -29h-82z" />
<glyph unicode="&#x169;" horiz-adv-x="1067" d="M135 352v666h133v-645q0 -45 4 -95.5t24.5 -91.5t63.5 -68.5t119 -27.5q106 0 168 48t92.5 120t38.5 155t8 154v451h134v-1018h-113l-6 174q-6 -14 -24.5 -47t-57.5 -65.5t-102.5 -57t-159.5 -24.5q-74 0 -134.5 20t-103.5 63q-31 31 -48 66t-25.5 72t-9.5 74.5t-1 76.5z M196 1210q0 100 41 154.5t121 54.5q49 0 92 -16.5t84 -35.5t80 -35.5t76 -16.5q35 0 53 14t27.5 34.5t11.5 39t4 29.5h82q0 -18 -3 -54.5t-19.5 -72t-51.5 -62t-98 -26.5q-49 0 -96 16t-90.5 35.5t-80 36t-67.5 16.5q-29 0 -45 -13.5t-24.5 -32t-10.5 -36.5t-4 -29h-82z" />
<glyph unicode="&#x16a;" horiz-adv-x="1355" d="M178 586v841h141v-847q0 -78 8.5 -164t44.5 -159t108.5 -120t199.5 -47q88 0 148.5 23.5t101.5 64.5q39 39 61.5 91.5t32.5 105.5t12 105t2 95v852h140v-841q0 -68 -3.5 -133.5t-17.5 -127t-40.5 -116.5t-76.5 -105q-23 -23 -53.5 -46t-73.5 -41.5t-100 -31t-131 -12.5 q-129 0 -218 36t-149 95q-47 49 -74.5 105.5t-42 118t-17.5 127t-3 131.5zM350 1679v94h635v-94h-635z" />
<glyph unicode="&#x16b;" horiz-adv-x="1067" d="M135 352v666h133v-645q0 -45 4 -95.5t24.5 -91.5t63.5 -68.5t119 -27.5q106 0 168 48t92.5 120t38.5 155t8 154v451h134v-1018h-113l-6 174q-6 -14 -24.5 -47t-57.5 -65.5t-102.5 -57t-159.5 -24.5q-74 0 -134.5 20t-103.5 63q-31 31 -48 66t-25.5 72t-9.5 74.5t-1 76.5z M205 1290v94h635v-94h-635z" />
<glyph unicode="&#x16c;" horiz-adv-x="1355" d="M178 586v841h141v-847q0 -78 8.5 -164t44.5 -159t108.5 -120t199.5 -47q88 0 148.5 23.5t101.5 64.5q39 39 61.5 91.5t32.5 105.5t12 105t2 95v852h140v-841q0 -68 -3.5 -133.5t-17.5 -127t-40.5 -116.5t-76.5 -105q-23 -23 -53.5 -46t-73.5 -41.5t-100 -31t-131 -12.5 q-129 0 -218 36t-149 95q-47 49 -74.5 105.5t-42 118t-17.5 127t-3 131.5zM354 1833h103q0 -10 5 -43t26.5 -69t64.5 -64.5t123 -28.5t123 28.5t64.5 65.5t26.5 70t5 41h102q0 -141 -80.5 -220t-240.5 -79t-241 79t-81 220z" />
<glyph unicode="&#x16d;" horiz-adv-x="1067" d="M135 352v666h133v-645q0 -45 4 -95.5t24.5 -91.5t63.5 -68.5t119 -27.5q106 0 168 48t92.5 120t38.5 155t8 154v451h134v-1018h-113l-6 174q-6 -14 -24.5 -47t-57.5 -65.5t-102.5 -57t-159.5 -24.5q-74 0 -134.5 20t-103.5 63q-31 31 -48 66t-25.5 72t-9.5 74.5t-1 76.5z M209 1444h103q0 -10 5 -43t26.5 -69t64.5 -64.5t123 -28.5t123 28.5t64.5 65.5t26.5 70t5 41h102q0 -141 -80.5 -220t-240.5 -79t-241 79t-81 220z" />
<glyph unicode="&#x16e;" horiz-adv-x="1355" d="M178 586v841h141v-847q0 -78 8.5 -164t44.5 -159t108.5 -120t199.5 -47q88 0 148.5 23.5t101.5 64.5q39 39 61.5 91.5t32.5 105.5t12 105t2 95v852h140v-841q0 -68 -3.5 -133.5t-17.5 -127t-40.5 -116.5t-76.5 -105q-23 -23 -53.5 -46t-73.5 -41.5t-100 -31t-131 -12.5 q-129 0 -218 36t-149 95q-47 49 -74.5 105.5t-42 118t-17.5 127t-3 131.5zM471 1755q0 43 16.5 79t44 62.5t63.5 42t77 15.5q82 0 140 -56.5t58 -142.5q0 -43 -15 -80t-42 -63.5t-63.5 -42t-77.5 -15.5q-84 0 -142.5 57.5t-58.5 143.5zM551 1755q0 -53 36 -88t85 -35t85 34 t36 89q0 53 -36 88t-85 35t-85 -35t-36 -88z" />
<glyph unicode="&#x16f;" horiz-adv-x="1067" d="M135 352v666h133v-645q0 -45 4 -95.5t24.5 -91.5t63.5 -68.5t119 -27.5q106 0 168 48t92.5 120t38.5 155t8 154v451h134v-1018h-113l-6 174q-6 -14 -24.5 -47t-57.5 -65.5t-102.5 -57t-159.5 -24.5q-74 0 -134.5 20t-103.5 63q-31 31 -48 66t-25.5 72t-9.5 74.5t-1 76.5z M326 1366q0 43 16.5 79t44 62.5t63.5 42t77 15.5q82 0 140 -56.5t58 -142.5q0 -43 -15 -80t-42 -63.5t-63.5 -42t-77.5 -15.5q-84 0 -142.5 57.5t-58.5 143.5zM406 1366q0 -53 36 -88t85 -35t85 34t36 89q0 53 -36 88t-85 35t-85 -35t-36 -88z" />
<glyph unicode="&#x170;" horiz-adv-x="1355" d="M178 586v841h141v-847q0 -78 8.5 -164t44.5 -159t108.5 -120t199.5 -47q88 0 148.5 23.5t101.5 64.5q39 39 61.5 91.5t32.5 105.5t12 105t2 95v852h140v-841q0 -68 -3.5 -133.5t-17.5 -127t-40.5 -116.5t-76.5 -105q-23 -23 -53.5 -46t-73.5 -41.5t-100 -31t-131 -12.5 q-129 0 -218 36t-149 95q-47 49 -74.5 105.5t-42 118t-17.5 127t-3 131.5zM405 1610l158 256h133l-193 -256h-98zM688 1610l157 256h133l-192 -256h-98z" />
<glyph unicode="&#x171;" horiz-adv-x="1067" d="M135 352v666h133v-645q0 -45 4 -95.5t24.5 -91.5t63.5 -68.5t119 -27.5q106 0 168 48t92.5 120t38.5 155t8 154v451h134v-1018h-113l-6 174q-6 -14 -24.5 -47t-57.5 -65.5t-102.5 -57t-159.5 -24.5q-74 0 -134.5 20t-103.5 63q-31 31 -48 66t-25.5 72t-9.5 74.5t-1 76.5z M260 1221l158 256h133l-193 -256h-98zM543 1221l157 256h133l-192 -256h-98z" />
<glyph unicode="&#x172;" horiz-adv-x="1355" d="M178 586v841h141v-847q0 -78 8.5 -164t44.5 -159t108.5 -120t199.5 -47q88 0 148.5 23.5t101.5 64.5q39 39 61.5 91.5t32.5 105.5t12 105t2 95v852h140v-841q0 -68 -3.5 -133.5t-17.5 -127t-40.5 -116.5t-76.5 -105q-23 -23 -53.5 -46t-73.5 -41.5t-100 -31t-131 -12.5 q-129 0 -218 36t-149 95q-47 49 -74.5 105.5t-42 118t-17.5 127t-3 131.5zM635 -213q0 37 13.5 68.5t33 59.5t43 50.5t45.5 38.5h98q-14 -10 -38.5 -31.5t-49 -51.5t-42 -63.5t-17.5 -68.5q0 -41 13.5 -66.5t33 -40t44 -19.5t46.5 -5q43 0 72 14.5t41 22.5l39 -64 q-16 -10 -54 -29.5t-116 -19.5q-88 0 -146.5 56.5t-58.5 148.5z" />
<glyph unicode="&#x173;" horiz-adv-x="1067" d="M135 352v666h133v-645q0 -45 4 -95.5t24.5 -91.5t63.5 -68.5t119 -27.5q106 0 168 48t92.5 120t38.5 155t8 154v451h134v-1018h-113l-6 174q-6 -14 -24.5 -47t-57.5 -65.5t-102.5 -57t-159.5 -24.5q-74 0 -134.5 20t-103.5 63q-31 31 -48 66t-25.5 72t-9.5 74.5t-1 76.5z M678 -213q0 37 13.5 68.5t33 59.5t43 50.5t45.5 38.5h98q-14 -10 -38.5 -31.5t-49 -51.5t-42 -63.5t-17.5 -68.5q0 -41 13.5 -66.5t33 -40t44 -19.5t46.5 -5q43 0 72 14.5t41 22.5l39 -64q-16 -10 -54 -29.5t-116 -19.5q-88 0 -146.5 56.5t-58.5 148.5z" />
<glyph unicode="&#x174;" horiz-adv-x="1714" d="M16 1427h150l285 -1284l321 1284h172l328 -1284l280 1284h146l-336 -1427h-182l-324 1282l-319 -1282h-191zM544 1579l230 254h164l227 -254h-137l-174 199l-176 -199h-134z" />
<glyph unicode="&#x175;" horiz-adv-x="1370" d="M23 1018h135l219 -926l239 926h138l252 -926l208 926h134l-252 -1018h-178l-236 864l-221 -864h-178zM372 1190l230 254h164l227 -254h-137l-174 199l-176 -199h-134z" />
<glyph unicode="&#x176;" horiz-adv-x="954" d="M-23 1427h162l344 -749l348 749h146l-430 -870v-557h-141v557zM165 1579l230 254h164l227 -254h-137l-174 199l-176 -199h-134z" />
<glyph unicode="&#x177;" horiz-adv-x="901" d="M8 1018h144l307 -850l301 850h133l-438 -1165q-27 -68 -49.5 -107t-47.5 -63q-18 -18 -63 -44t-123 -26q-33 0 -60.5 4t-45.5 8v99q14 -2 32.5 -5.5t40.5 -3.5q45 0 77 12.5t55.5 36t40 54t28.5 67.5l51 142zM139 1190l230 254h164l227 -254h-137l-174 199l-176 -199 h-134z" />
<glyph unicode="&#x178;" horiz-adv-x="954" d="M-23 1427h162l344 -749l348 749h146l-430 -870v-557h-141v557zM223 1626v151h152v-151h-152zM641 1626v151h151v-151h-151z" />
<glyph unicode="&#x179;" horiz-adv-x="1040" d="M49 0v104l766 1213h-727v110h889v-106l-760 -1204h774v-117h-942zM305 1579l177 254h147l-203 -254h-121z" />
<glyph unicode="&#x17a;" horiz-adv-x="866" d="M68 0v92l573 828h-551v98h701v-84l-572 -832h584v-102h-735zM299 1190l177 254h147l-203 -254h-121z" />
<glyph unicode="&#x17b;" horiz-adv-x="1040" d="M49 0v104l766 1213h-727v110h889v-106l-760 -1204h774v-117h-942zM452 1622v151h152v-151h-152z" />
<glyph unicode="&#x17c;" horiz-adv-x="866" d="M68 0v92l573 828h-551v98h701v-84l-572 -832h584v-102h-735zM364 1233v151h152v-151h-152z" />
<glyph unicode="&#x17d;" horiz-adv-x="1040" d="M49 0v104l766 1213h-727v110h889v-106l-760 -1204h774v-117h-942zM208 1833h138l174 -199l176 199h133l-229 -254h-164z" />
<glyph unicode="&#x17e;" horiz-adv-x="866" d="M68 0v92l573 828h-551v98h701v-84l-572 -832h584v-102h-735zM120 1444h138l174 -199l176 199h133l-229 -254h-164z" />
<glyph unicode="&#x17f;" horiz-adv-x="657" d="M211 0v1159q0 53 3 89t10 62.5t20.5 47t34.5 41.5q37 37 97 51t122 14q47 0 87 -10t50 -14v-99q-6 2 -41 9.5t-68 7.5q-29 0 -71.5 -7.5t-75.5 -39.5q-25 -25 -30 -75t-5 -101v-1135h-133z" />
<glyph unicode="&#x192;" d="M123 -389l16 96q4 0 14.5 -1t14.5 -1q31 0 66.5 10.5t68.5 42.5q27 27 44.5 64t27.5 77t16 75.5t10 58.5l117 735h-199v98h216l36 219q12 68 22.5 115t22 80t25.5 55.5t35 42.5q37 37 89 56.5t112 19.5q37 0 59 -6t35 -10l-23 -97q-4 0 -12 2.5t-18 2.5 q-59 0 -95.5 -15.5t-58 -43t-32.5 -64.5t-17 -80l-47 -277h202v-98h-215l-118 -719q-6 -33 -14.5 -81t-23 -100t-38 -101.5t-55.5 -81.5q-25 -25 -73.5 -53.5t-142.5 -28.5q-14 0 -25 1t-22 3z" />
<glyph unicode="&#x218;" horiz-adv-x="1099" d="M98 317h150q2 -10 10 -47t38 -77.5t90 -72.5t165 -32q147 0 224 69.5t77 186.5q0 76 -29.5 126t-77 86t-109 61.5t-122.5 52.5q-61 25 -128 54.5t-122 74.5t-91 113.5t-36 170.5q0 111 44 182.5t108.5 113.5t137.5 58.5t128 16.5q88 0 164 -19.5t131 -57.5t87 -92 t34 -124h-146q-2 10 -10 40t-35.5 61.5t-81 56t-145.5 24.5q-121 0 -194.5 -64.5t-73.5 -172.5q0 -76 24.5 -124t65.5 -80t94 -53.5t111 -45.5q76 -31 150.5 -62.5t135 -79t98 -117t37.5 -175.5q0 -111 -38.5 -187t-102 -123t-144.5 -67.5t-165 -20.5q-111 0 -195 27 t-141 73t-87 109.5t-30 136.5zM418 -412l68 283h147l-117 -283h-98z" />
<glyph unicode="&#x219;" horiz-adv-x="876" d="M86 219h145q2 -6 7.5 -29.5t26 -49t61.5 -46t114 -20.5q201 0 201 164q0 41 -18.5 70.5t-54.5 55t-86 49t-111 52.5q-33 14 -76 34.5t-82 54.5t-65.5 86t-26.5 130q0 59 22.5 105.5t49.5 72.5q39 39 97 66.5t150 27.5q86 0 155 -18t116 -66q41 -41 54 -79.5t13 -65.5 h-133q0 4 -6 24.5t-26.5 44t-60.5 43t-110 19.5q-78 0 -129 -41t-51 -119q0 -45 15.5 -75.5t41 -52t58.5 -36t65 -28.5q72 -31 135.5 -58.5t110.5 -64.5t75 -86t28 -119q0 -82 -28 -137t-75 -89t-110.5 -48.5t-135.5 -14.5q-92 0 -153.5 16.5t-101.5 42t-60.5 55.5 t-29.5 57.5t-10 47t-1 25.5zM307 -412l68 283h147l-117 -283h-98z" />
<glyph unicode="&#x21a;" horiz-adv-x="1071" d="M45 1317v110h981v-110h-420v-1317h-141v1317h-420zM403 -412l68 283h147l-117 -283h-98z" />
<glyph unicode="&#x21b;" horiz-adv-x="671" d="M27 920v98h182v293h133v-293h285v-98h-285v-637q0 -45 4 -81t21.5 -61.5t53.5 -40t99 -14.5q41 0 72 5t35 7v-100q-4 -2 -18.5 -5t-35 -7t-44.5 -7.5t-44 -3.5q-145 0 -211 66q-47 47 -56 100.5t-9 124.5v654h-182zM287 -412l68 283h147l-117 -283h-98z" />
<glyph unicode="&#x237;" horiz-adv-x="520" d="M-29 -252q12 -4 37 -9t58 -5q66 0 100.5 20.5t50.5 54t19.5 74.5t3.5 84v1051h133v-1069q0 -104 -14.5 -157.5t-53.5 -92.5q-27 -27 -74 -49.5t-133 -22.5q-45 0 -80.5 9.5t-46.5 13.5v98z" />
<glyph unicode="&#x2bc;" horiz-adv-x="546" d="M115 1034l92 393h158l-146 -393h-104z" />
<glyph unicode="&#x2c6;" horiz-adv-x="745" d="M61 1190l230 254h164l227 -254h-137l-174 199l-176 -199h-134z" />
<glyph unicode="&#x2c7;" horiz-adv-x="745" d="M61 1444h138l174 -199l176 199h133l-229 -254h-164z" />
<glyph unicode="&#x2c9;" horiz-adv-x="753" d="M49 1290v94h635v-94h-635z" />
<glyph unicode="&#x2d8;" horiz-adv-x="759" d="M55 1444h103q0 -10 5 -43t26.5 -69t64.5 -64.5t123 -28.5t123 28.5t64.5 65.5t26.5 70t5 41h102q0 -141 -80.5 -220t-240.5 -79t-241 79t-81 220z" />
<glyph unicode="&#x2d9;" horiz-adv-x="262" d="M63 1233v151h152v-151h-152z" />
<glyph unicode="&#x2da;" horiz-adv-x="583" d="M84 1366q0 43 16.5 79t44 62.5t63.5 42t77 15.5q82 0 140 -56.5t58 -142.5q0 -43 -15 -80t-42 -63.5t-63.5 -42t-77.5 -15.5q-84 0 -142.5 57.5t-58.5 143.5zM164 1366q0 -53 36 -88t85 -35t85 34t36 89q0 53 -36 88t-85 35t-85 -35t-36 -88z" />
<glyph unicode="&#x2db;" horiz-adv-x="540" d="M84 -213q0 37 13.5 68.5t33 59.5t43 50.5t45.5 38.5h98q-14 -10 -38.5 -31.5t-49 -51.5t-42 -63.5t-17.5 -68.5q0 -41 13.5 -66.5t33 -40t44 -19.5t46.5 -5q43 0 72 14.5t41 22.5l39 -64q-16 -10 -54 -29.5t-116 -19.5q-88 0 -146.5 56.5t-58.5 148.5z" />
<glyph unicode="&#x2dc;" horiz-adv-x="770" d="M49 1210q0 100 41 154.5t121 54.5q49 0 92 -16.5t84 -35.5t80 -35.5t76 -16.5q35 0 53 14t27.5 34.5t11.5 39t4 29.5h82q0 -18 -3 -54.5t-19.5 -72t-51.5 -62t-98 -26.5q-49 0 -96 16t-90.5 35.5t-80 36t-67.5 16.5q-29 0 -45 -13.5t-24.5 -32t-10.5 -36.5t-4 -29h-82z " />
<glyph unicode="&#x2dd;" horiz-adv-x="634" d="M45 1221l158 256h133l-193 -256h-98zM328 1221l157 256h133l-192 -256h-98z" />
<glyph unicode="&#x3c0;" horiz-adv-x="1069" d="M31 920v98h997v-98h-162v-689q0 -29 2 -53t13.5 -42.5t32 -30t57.5 -11.5q10 0 29.5 2t27.5 4v-92q-14 -6 -31 -10q-34 -10 -79 -10q-61 0 -98.5 20.5t-57 53t-24.5 70.5t-5 75v713h-407v-920h-133v920h-162z" />
<glyph unicode="&#x1e80;" horiz-adv-x="1714" d="M16 1427h150l285 -1284l321 1284h172l328 -1284l280 1284h146l-336 -1427h-182l-324 1282l-319 -1282h-191zM668 1833h148l176 -254h-121z" />
<glyph unicode="&#x1e81;" horiz-adv-x="1370" d="M23 1018h135l219 -926l239 926h138l252 -926l208 926h134l-252 -1018h-178l-236 864l-221 -864h-178zM496 1444h148l176 -254h-121z" />
<glyph unicode="&#x1e82;" horiz-adv-x="1714" d="M16 1427h150l285 -1284l321 1284h172l328 -1284l280 1284h146l-336 -1427h-182l-324 1282l-319 -1282h-191zM641 1579l177 254h147l-203 -254h-121z" />
<glyph unicode="&#x1e83;" horiz-adv-x="1370" d="M23 1018h135l219 -926l239 926h138l252 -926l208 926h134l-252 -1018h-178l-236 864l-221 -864h-178zM469 1190l177 254h147l-203 -254h-121z" />
<glyph unicode="&#x1e84;" horiz-adv-x="1714" d="M16 1427h150l285 -1284l321 1284h172l328 -1284l280 1284h146l-336 -1427h-182l-324 1282l-319 -1282h-191zM555 1622v151h152v-151h-152zM973 1622v151h151v-151h-151z" />
<glyph unicode="&#x1e85;" horiz-adv-x="1370" d="M23 1018h135l219 -926l239 926h138l252 -926l208 926h134l-252 -1018h-178l-236 864l-221 -864h-178zM383 1233v151h152v-151h-152zM801 1233v151h151v-151h-151z" />
<glyph unicode="&#x1ef2;" horiz-adv-x="954" d="M-23 1427h162l344 -749l348 749h146l-430 -870v-557h-141v557zM289 1833h148l176 -254h-121z" />
<glyph unicode="&#x1ef3;" horiz-adv-x="901" d="M8 1018h144l307 -850l301 850h133l-438 -1165q-27 -68 -49.5 -107t-47.5 -63q-18 -18 -63 -44t-123 -26q-33 0 -60.5 4t-45.5 8v99q14 -2 32.5 -5.5t40.5 -3.5q45 0 77 12.5t55.5 36t40 54t28.5 67.5l51 142zM262 1444h148l176 -254h-121z" />
<glyph unicode="&#x2013;" horiz-adv-x="933" d="M39 604v113h856v-113h-856z" />
<glyph unicode="&#x2014;" horiz-adv-x="1683" d="M39 604v113h1606v-113h-1606z" />
<glyph unicode="&#x2018;" horiz-adv-x="546" d="M182 1034l146 393h104l-92 -393h-158z" />
<glyph unicode="&#x2019;" horiz-adv-x="546" d="M115 1034l92 393h158l-146 -393h-104z" />
<glyph unicode="&#x201a;" horiz-adv-x="546" d="M115 -154l92 394h158l-146 -394h-104z" />
<glyph unicode="&#x201c;" horiz-adv-x="858" d="M182 1034l146 393h104l-92 -393h-158zM494 1034l145 393h104l-92 -393h-157z" />
<glyph unicode="&#x201d;" horiz-adv-x="858" d="M115 1034l92 393h158l-146 -393h-104zM426 1034l92 393h158l-146 -393h-104z" />
<glyph unicode="&#x201e;" horiz-adv-x="858" d="M115 -154l92 394h158l-146 -394h-104zM426 -154l92 394h158l-146 -394h-104z" />
<glyph unicode="&#x2020;" d="M123 909v109h358l-10 448h150l-11 -448h359v-109h-363l-8 -1155h-104l-9 1155h-362z" />
<glyph unicode="&#x2021;" d="M125 909v109h358l-10 448h150l-11 -448h359v-109h-363l-2 -389h344v-108h-346l-4 -658h-104l-4 658h-345v108h342l-2 389h-362z" />
<glyph unicode="&#x2022;" d="M324 741q0 45 17 86t48 72t72 48.5t88 17.5q45 0 86 -17.5t71.5 -48.5t48 -72t17.5 -86q0 -47 -17.5 -88t-48 -71.5t-71.5 -48t-86 -17.5q-47 0 -88 17.5t-72 48t-48 71.5t-17 88z" />
<glyph unicode="&#x2026;" horiz-adv-x="1789" d="M186 0v162h162v-162h-162zM815 0v162h162v-162h-162zM1441 0v162h162v-162h-162z" />
<glyph unicode="&#x2030;" horiz-adv-x="2158" d="M111 1071q0 80 13 148.5t43 117.5t77 77t114 28q72 0 119 -31t76 -82t40 -118.5t11 -141.5q0 -80 -12 -148.5t-42 -119.5t-77 -81t-117 -30q-74 0 -122 34t-75.5 88t-37.5 123t-10 136zM211 1059q0 -41 4 -89t18.5 -89t44 -70t78.5 -29q47 0 76 24.5t45.5 63.5t21.5 89.5 t5 101.5q0 45 -3 96t-17.5 94t-43 71t-80.5 28q-53 0 -82.5 -28t-45 -71t-18.5 -94t-3 -98zM375 0l696 1466h98l-696 -1466h-98zM924 358q0 80 13 148.5t43 118t77 77t114 27.5q72 0 119 -30.5t76 -82t40 -119t11 -141.5q0 -80 -12 -148.5t-42 -119.5t-77 -81t-117 -30 q-74 0 -122 34t-75.5 88.5t-37.5 123t-10 135.5zM1024 346q0 -41 4 -89t18.5 -89t44 -69.5t78.5 -28.5q47 0 76 24.5t45.5 63.5t21.5 89t5 101q0 45 -3 96.5t-17.5 94.5t-43 70.5t-79.5 27.5q-53 0 -83 -27.5t-45.5 -70.5t-18.5 -94.5t-3 -98.5zM1554 358q0 80 13.5 148.5 t43 118t77 77t114.5 27.5q72 0 119 -30.5t75.5 -82t40 -119t11.5 -141.5q0 -80 -12.5 -148.5t-42 -119.5t-76.5 -81t-117 -30q-74 0 -122 34t-75.5 88.5t-38 123t-10.5 135.5zM1655 346q0 -41 4 -89t18.5 -89t44 -69.5t78.5 -28.5q47 0 76 24.5t45 63.5t21.5 89t5.5 101 q0 45 -3 96.5t-17.5 94.5t-43.5 70.5t-80 27.5q-53 0 -82.5 -27.5t-45 -70.5t-18.5 -94.5t-3 -98.5z" />
<glyph unicode="&#x2039;" horiz-adv-x="524" d="M80 526l231 369h133l-237 -369l237 -372h-133z" />
<glyph unicode="&#x203a;" horiz-adv-x="524" d="M80 154l237 372l-237 369h133l231 -369l-231 -372h-133z" />
<glyph unicode="&#x2044;" horiz-adv-x="442" d="M-182 0l696 1466h98l-696 -1466h-98z" />
<glyph unicode="&#x2070;" horiz-adv-x="768" d="M127 1069q0 170 61.5 271.5t196.5 101.5q74 0 123 -29t78.5 -79t42 -118.5t12.5 -146.5q0 -84 -13.5 -154.5t-44 -121t-79.5 -79t-121 -28.5q-76 0 -125 33t-78.5 86t-41 121.5t-11.5 142.5zM219 1059q0 -41 4 -92.5t20.5 -96.5t49.5 -75.5t90 -30.5t90 28.5t49.5 72.5 t21.5 96.5t5 99.5q0 45 -4 98t-19.5 99.5t-48.5 76t-90 29.5q-59 0 -93 -29.5t-50.5 -75t-20.5 -98.5t-4 -102z" />
<glyph unicode="&#x2074;" horiz-adv-x="768" d="M121 864v82l344 481h94v-485h98v-78h-98v-164h-92v164h-346zM201 942h266v373z" />
<glyph unicode="&#x2075;" horiz-adv-x="768" d="M160 848h78q0 -4 8 -18.5t24.5 -30t41 -27.5t61.5 -12q70 0 108.5 46t38.5 112q0 78 -35.5 125t-105.5 47q-66 0 -100.5 -16.5t-42.5 -24.5l-66 22l31 356h379v-73h-306l-18 -226q10 10 47 22.5t103 12.5q98 0 153 -65.5t55 -169.5q0 -61 -20.5 -106.5t-54 -76t-76.5 -45 t-88 -14.5q-41 0 -80 11.5t-68.5 33t-48 51t-18.5 66.5z" />
<glyph unicode="&#x2076;" horiz-adv-x="768" d="M133 1051q0 68 16.5 137t49 125.5t84 92.5t120.5 36q37 0 72 -12.5t62.5 -34t46 -51t18.5 -62.5h-86q0 2 -6 16.5t-19.5 28.5t-36 26.5t-55.5 12.5q-41 0 -70.5 -24.5t-51 -64.5t-33 -93.5t-13.5 -110.5q2 6 15.5 20.5t36 30t55.5 27.5t78 12q98 0 157.5 -60.5 t59.5 -170.5q0 -111 -62.5 -178.5t-173.5 -67.5q-80 0 -131 31t-80.5 82t-41 116.5t-11.5 135.5zM242 924q0 -70 40.5 -115t112.5 -45q57 0 101.5 42t44.5 120q0 70 -31 115.5t-113 45.5q-70 0 -112.5 -45t-42.5 -118z" />
<glyph unicode="&#x2077;" horiz-adv-x="768" d="M158 1354v73h450v-71l-264 -656h-88l276 654h-374z" />
<glyph unicode="&#x2078;" horiz-adv-x="768" d="M152 893q0 61 22.5 99t50 57.5t53 26.5t31.5 9q-6 0 -28.5 6.5t-47 24t-44 51t-19.5 88.5q0 49 22.5 84t54.5 58.5t69.5 34t68.5 10.5q41 0 80 -10.5t69.5 -33t49 -57t18.5 -84.5q0 -59 -20.5 -93t-46 -51t-48 -22.5t-28.5 -5.5q6 0 31.5 -6t53 -26.5t50 -58.5t22.5 -101 q0 -104 -63.5 -155.5t-167.5 -51.5q-102 0 -167.5 51t-65.5 156zM242 895q0 -72 37.5 -104.5t103.5 -32.5q63 0 103 32.5t40 104.5q0 74 -38.5 108.5t-104.5 34.5t-103.5 -35.5t-37.5 -107.5zM250 1253q0 -66 39 -97.5t98 -31.5t98 35t39 94q0 61 -37.5 92t-99.5 31 q-61 0 -99 -38t-38 -85z" />
<glyph unicode="&#x2079;" horiz-adv-x="768" d="M139 1198q0 35 12.5 77t40 79t70.5 62.5t107 25.5q76 0 125 -30t77.5 -81t40 -116.5t11.5 -137.5q0 -80 -14.5 -150.5t-46.5 -123.5t-81 -84t-119 -31q-74 0 -114.5 24.5t-59.5 53.5q-23 35 -24 80h86q0 -4 3 -16.5t14.5 -27t34 -26.5t63.5 -12q55 -2 88.5 25.5t51 71.5 t24 96.5t8.5 99.5q-4 -8 -15.5 -25.5t-34 -34t-56.5 -30t-81 -13.5q-104 0 -157.5 69t-53.5 175zM231 1204q0 -35 5.5 -65.5t19.5 -55t38.5 -39t63.5 -14.5q45 0 77 16.5t51.5 41t27.5 56.5t8 62q0 27 -8 55.5t-26.5 52t-46 38t-64.5 14.5q-63 0 -104.5 -45t-41.5 -117z" />
<glyph unicode="&#x2080;" horiz-adv-x="768" d="M127 373q0 170 61.5 271.5t196.5 101.5q74 0 123 -29t78.5 -79t42 -118.5t12.5 -146.5q0 -84 -13.5 -154.5t-44 -121t-79.5 -79t-121 -28.5q-76 0 -125 33t-78.5 86t-41 121.5t-11.5 142.5zM219 363q0 -41 4 -92.5t20.5 -96.5t49.5 -75.5t90 -30.5t90 28.5t49.5 72.5 t21.5 96.5t5 99.5q0 45 -4 98t-19.5 99.5t-48.5 76t-90 29.5q-59 0 -93 -29.5t-50.5 -75t-20.5 -98.5t-4 -102z" />
<glyph unicode="&#x2081;" horiz-adv-x="686" d="M180 525v96l172 110h80v-727h-94v623z" />
<glyph unicode="&#x2082;" horiz-adv-x="772" d="M172 -2v25q0 98 49 161.5t115 123.5q43 37 86 79q33 33 54.5 71t21.5 85q0 55 -28 87t-85 32q-53 0 -82 -24.5t-39 -84.5h-90q0 33 10.5 66t35 59.5t65.5 44t102 17.5q88 0 147.5 -49.5t59.5 -147.5q0 -57 -19.5 -100t-54.5 -80q-16 -18 -34.5 -36.5t-41.5 -37.5 q-43 -37 -90 -84q-29 -29 -50 -58.5t-28 -66.5h322v-82h-426z" />
<glyph unicode="&#x2083;" horiz-adv-x="768" d="M166 166h92q0 -8 4 -24.5t16.5 -31.5t34 -27.5t58.5 -12.5q61 0 101 31.5t40 103.5q0 45 -14.5 70.5t-36 40t-47 18.5t-49.5 4h-31v80h24q16 0 41 3t47.5 15.5t38 39t15.5 75.5q0 61 -32 89t-87 28q-53 0 -79 -27.5t-34 -81.5h-92q4 88 59.5 137.5t143.5 49.5 q41 0 79 -10.5t67.5 -33t47 -56t17.5 -82.5q0 -59 -22.5 -109.5t-78.5 -73.5q115 -37 115 -182q0 -94 -64.5 -151.5t-164.5 -57.5q-102 0 -155.5 52.5t-53.5 123.5z" />
<glyph unicode="&#x2084;" horiz-adv-x="768" d="M121 168v82l344 481h94v-485h98v-78h-98v-164h-92v164h-346zM201 246h266v373z" />
<glyph unicode="&#x2085;" horiz-adv-x="768" d="M160 152h78q0 -4 8 -18.5t24.5 -30t41 -27.5t61.5 -12q70 0 108.5 46t38.5 112q0 78 -35.5 125t-105.5 47q-66 0 -100.5 -16.5t-42.5 -24.5l-66 22l31 356h379v-73h-306l-18 -226q10 10 47 22.5t103 12.5q98 0 153 -65.5t55 -169.5q0 -61 -20.5 -106.5t-54 -76t-76.5 -45 t-88 -14.5q-41 0 -80 11.5t-68.5 33t-48 51t-18.5 66.5z" />
<glyph unicode="&#x2086;" horiz-adv-x="768" d="M133 355q0 68 16.5 137t49 125.5t84 92.5t120.5 36q37 0 72 -12.5t62.5 -34t46 -51t18.5 -62.5h-86q0 2 -6 16.5t-19.5 28.5t-36 26.5t-55.5 12.5q-41 0 -70.5 -24.5t-51 -64.5t-33 -93.5t-13.5 -110.5q2 6 15.5 20.5t36 30t55.5 27.5t78 12q98 0 157.5 -60.5 t59.5 -170.5q0 -111 -62.5 -178.5t-173.5 -67.5q-80 0 -131 31t-80.5 82t-41 116.5t-11.5 135.5zM242 228q0 -70 40.5 -115t112.5 -45q57 0 101.5 42t44.5 120q0 70 -31 115.5t-113 45.5q-70 0 -112.5 -45t-42.5 -118z" />
<glyph unicode="&#x2087;" horiz-adv-x="768" d="M158 658v73h450v-71l-264 -656h-88l276 654h-374z" />
<glyph unicode="&#x2088;" horiz-adv-x="768" d="M152 197q0 61 22.5 99t50 57.5t53 26.5t31.5 9q-6 0 -28.5 6.5t-47 24t-44 51t-19.5 88.5q0 49 22.5 84t54.5 58.5t69.5 34t68.5 10.5q41 0 80 -10.5t69.5 -33t49 -57t18.5 -84.5q0 -59 -20.5 -93t-46 -51t-48 -22.5t-28.5 -5.5q6 0 31.5 -6t53 -26.5t50 -58.5t22.5 -101 q0 -104 -63.5 -155.5t-167.5 -51.5q-102 0 -167.5 51t-65.5 156zM242 199q0 -72 37.5 -104.5t103.5 -32.5q63 0 103 32.5t40 104.5q0 74 -38.5 108.5t-104.5 34.5t-103.5 -35.5t-37.5 -107.5zM250 557q0 -66 39 -97.5t98 -31.5t98 35t39 94q0 61 -37.5 92t-99.5 31 q-61 0 -99 -38t-38 -85z" />
<glyph unicode="&#x2089;" horiz-adv-x="768" d="M139 502q0 35 12.5 77t40 79t70.5 62.5t107 25.5q76 0 125 -30t77.5 -81t40 -116.5t11.5 -137.5q0 -80 -14.5 -150.5t-46.5 -123.5t-81 -84t-119 -31q-74 0 -114.5 24.5t-59.5 53.5q-23 35 -24 80h86q0 -4 3 -16.5t14.5 -27t34 -26.5t63.5 -12q55 -2 88.5 25.5t51 71.5 t24 96.5t8.5 99.5q-4 -8 -15.5 -25.5t-34 -34t-56.5 -30t-81 -13.5q-104 0 -157.5 69t-53.5 175zM231 508q0 -35 5.5 -65.5t19.5 -55t38.5 -39t63.5 -14.5q45 0 77 16.5t51.5 41t27.5 56.5t8 62q0 27 -8 55.5t-26.5 52t-46 38t-64.5 14.5q-63 0 -104.5 -45t-41.5 -117z" />
<glyph unicode="&#x20ac;" d="M18 504v104h152q-4 33 -4 49.5v44.5v45.5t4 45.5h-152v104h162q8 100 37 200.5t84 179.5t143 128t218 49q92 0 157.5 -20.5t110.5 -53t71.5 -71.5t42 -76t19.5 -66.5t4 -42.5h-137q-4 14 -12.5 50t-36 75t-79.5 69t-140 30q-78 0 -132.5 -28t-91.5 -70t-59.5 -94 t-34.5 -102t-17 -92t-8 -65h388v-104h-396q-2 -20 -3 -41t-1 -50q0 -39 1 -58t3 -36h396v-104h-383q0 -16 4 -55t15 -85.5t33.5 -96.5t60.5 -91t94.5 -67.5t138.5 -26.5t133 25.5t79.5 59.5t40 66.5t15.5 45.5h139q0 -18 -15 -68.5t-59.5 -104t-124 -94.5t-208.5 -41 q-111 0 -190 31t-133 79t-87 108.5t-50 120t-23.5 110.5t-6.5 84h-162z" />
<glyph unicode="&#x2113;" horiz-adv-x="1024" d="M174 416l168 172v540q0 172 70.5 260.5t171.5 88.5q92 0 147 -64.5t55 -187.5q0 -150 -87 -313.5t-253 -344.5v-325q0 -55 15.5 -92t38 -58.5t51.5 -30t55 -8.5q43 0 89 19.5t91 60.5l45 -55q-106 -107 -245 -107q-104 0 -174 59.5t-70 194.5v267l-121 -132zM446 666 q123 141 187.5 283.5t64.5 264.5q0 86 -34.5 136.5t-81.5 50.5q-53 0 -94.5 -61.5t-41.5 -196.5v-477z" />
<glyph unicode="&#x2122;" horiz-adv-x="1839" d="M193 1339v88h522v-88h-211v-671h-101v671h-210zM877 668v759h143l211 -622l211 622h143v-759h-98v604l-207 -604h-100l-205 604v-604h-98z" />
<glyph unicode="&#x2126;" horiz-adv-x="1558" d="M135 0v113h348q-10 6 -63 36.5t-112.5 101.5t-107.5 189.5t-48 300.5q0 160 44 292t124.5 225.5t193.5 144.5t248 51t247.5 -51t193.5 -144.5t125 -225.5t44 -292q0 -119 -23.5 -211t-58.5 -160.5t-78 -115.5t-79.5 -78t-64.5 -45t-34 -18h355v-113h-471v104q8 4 57 37 t106.5 105.5t103.5 189.5t46 291q0 145 -33 260t-93.5 194t-147.5 120.5t-195 41.5q-109 0 -196 -41.5t-147.5 -120.5t-93 -194t-32.5 -260q0 -113 21.5 -202t55 -157.5t72.5 -116.5t74 -80t59.5 -48.5t30.5 -18.5v-104h-471z" />
<glyph unicode="&#x212e;" horiz-adv-x="1228" d="M90 530q0 119 37 222.5t106.5 179.5t167 120t217.5 44q119 0 216.5 -42t167 -117t108.5 -178.5t39 -228.5h-827v-370q121 -121 296 -121q129 0 223.5 58.5t172.5 187.5l71 -43q-47 -74 -95 -126.5t-104.5 -86t-122 -49t-145.5 -15.5q-121 0 -218 44t-166.5 121 t-106.5 179.5t-37 220.5zM322 604h596v297q-129 123 -302 123q-172 0 -294 -123v-297z" />
<glyph unicode="&#x2153;" horiz-adv-x="1896" d="M332 1221v96l172 110h80v-727h-94v623zM504 0l696 1466h98l-696 -1466h-98zM1090 166h92q0 -8 4 -24.5t16.5 -31.5t34 -27.5t58.5 -12.5q61 0 101 31.5t40 103.5q0 45 -14.5 70.5t-36 40t-47 18.5t-49.5 4h-31v80h24q16 0 41 3t47.5 15.5t38 39t15.5 75.5q0 61 -32 89 t-87 28q-53 0 -79 -27.5t-34 -81.5h-92q4 88 59.5 137.5t143.5 49.5q41 0 79 -10.5t67.5 -33t47 -56t17.5 -82.5q0 -59 -22.5 -109.5t-78.5 -73.5q115 -37 115 -182q0 -94 -64.5 -151.5t-164.5 -57.5q-102 0 -155.5 52.5t-53.5 123.5z" />
<glyph unicode="&#x2154;" horiz-adv-x="1982" d="M356 694v25q0 98 49 161.5t115 123.5q43 37 86 79q33 33 54.5 71t21.5 85q0 55 -28 87t-85 32q-53 0 -82 -24.5t-39 -84.5h-90q0 33 10.5 66t35 59.5t65.5 44t102 17.5q88 0 147.5 -49.5t59.5 -147.5q0 -57 -19.5 -100t-54.5 -80q-16 -18 -34.5 -36.5t-41.5 -37.5 q-43 -37 -90 -84q-29 -29 -50 -58.5t-28 -66.5h322v-82h-426zM602 0l696 1466h98l-696 -1466h-98zM1135 166h92q0 -8 4 -24.5t16.5 -31.5t34 -27.5t58.5 -12.5q61 0 101 31.5t40 103.5q0 45 -14.5 70.5t-36 40t-47 18.5t-49.5 4h-31v80h24q16 0 41 3t47.5 15.5t38 39 t15.5 75.5q0 61 -32 89t-87 28q-53 0 -79 -27.5t-34 -81.5h-92q4 88 59.5 137.5t143.5 49.5q41 0 79 -10.5t67.5 -33t47 -56t17.5 -82.5q0 -59 -22.5 -109.5t-78.5 -73.5q115 -37 115 -182q0 -94 -64.5 -151.5t-164.5 -57.5q-102 0 -155.5 52.5t-53.5 123.5z" />
<glyph unicode="&#x2155;" horiz-adv-x="1896" d="M323 1221v96l172 110h80v-727h-94v623zM504 0l696 1466h98l-696 -1466h-98zM1063 152h78q0 -4 8 -18.5t24.5 -30t41 -27.5t61.5 -12q70 0 108.5 46t38.5 112q0 78 -35.5 125t-105.5 47q-66 0 -100.5 -16.5t-42.5 -24.5l-66 22l31 356h379v-73h-306l-18 -226 q10 10 47 22.5t103 12.5q98 0 153 -65.5t55 -169.5q0 -61 -20.5 -106.5t-54 -76t-76.5 -45t-88 -14.5q-41 0 -80 11.5t-68.5 33t-48 51t-18.5 66.5z" />
<glyph unicode="&#x2156;" horiz-adv-x="1982" d="M336 694v25q0 98 49 161.5t115 123.5q43 37 86 79q33 33 54.5 71t21.5 85q0 55 -28 87t-85 32q-53 0 -82 -24.5t-39 -84.5h-90q0 33 10.5 66t35 59.5t65.5 44t102 17.5q88 0 147.5 -49.5t59.5 -147.5q0 -57 -19.5 -100t-54.5 -80q-16 -18 -34.5 -36.5t-41.5 -37.5 q-43 -37 -90 -84q-29 -29 -50 -58.5t-28 -66.5h322v-82h-426zM590 0l696 1466h98l-696 -1466h-98zM1149 152h78q0 -4 8 -18.5t24.5 -30t41 -27.5t61.5 -12q70 0 108.5 46t38.5 112q0 78 -35.5 125t-105.5 47q-66 0 -100.5 -16.5t-42.5 -24.5l-66 22l31 356h379v-73h-306 l-18 -226q10 10 47 22.5t103 12.5q98 0 153 -65.5t55 -169.5q0 -61 -20.5 -106.5t-54 -76t-76.5 -45t-88 -14.5q-41 0 -80 11.5t-68.5 33t-48 51t-18.5 66.5z" />
<glyph unicode="&#x2157;" horiz-adv-x="1978" d="M342 862h92q0 -8 4 -24.5t16.5 -31.5t34 -27.5t58.5 -12.5q61 0 101 31.5t40 103.5q0 45 -14.5 70.5t-36 40t-47 18.5t-49.5 4h-31v80h24q16 0 41 3t47.5 15.5t38 39t15.5 75.5q0 61 -32 89t-87 28q-53 0 -79 -27.5t-34 -81.5h-92q4 88 59.5 137.5t143.5 49.5 q41 0 79 -10.5t67.5 -33t47 -56t17.5 -82.5q0 -59 -22.5 -109.5t-78.5 -73.5q115 -37 115 -182q0 -94 -64.5 -151.5t-164.5 -57.5q-102 0 -155.5 52.5t-53.5 123.5zM586 0l696 1466h98l-696 -1466h-98zM1161 152h78q0 -4 8 -18.5t24.5 -30t41 -27.5t61.5 -12q70 0 108.5 46 t38.5 112q0 78 -35.5 125t-105.5 47q-66 0 -100.5 -16.5t-42.5 -24.5l-66 22l31 356h379v-73h-306l-18 -226q10 10 47 22.5t103 12.5q98 0 153 -65.5t55 -169.5q0 -61 -20.5 -106.5t-54 -76t-76.5 -45t-88 -14.5q-41 0 -80 11.5t-68.5 33t-48 51t-18.5 66.5z" />
<glyph unicode="&#x2158;" horiz-adv-x="1978" d="M248 864v82l344 481h94v-485h98v-78h-98v-164h-92v164h-346zM328 942h266v373zM586 0l696 1466h98l-696 -1466h-98zM1145 152h78q0 -4 8 -18.5t24.5 -30t41 -27.5t61.5 -12q70 0 108.5 46t38.5 112q0 78 -35.5 125t-105.5 47q-66 0 -100.5 -16.5t-42.5 -24.5l-66 22 l31 356h379v-73h-306l-18 -226q10 10 47 22.5t103 12.5q98 0 153 -65.5t55 -169.5q0 -61 -20.5 -106.5t-54 -76t-76.5 -45t-88 -14.5q-41 0 -80 11.5t-68.5 33t-48 51t-18.5 66.5z" />
<glyph unicode="&#x2159;" horiz-adv-x="1896" d="M323 1221v96l172 110h80v-727h-94v623zM504 0l696 1466h98l-696 -1466h-98zM1048 355q0 68 16.5 137t49 125.5t84 92.5t120.5 36q37 0 72 -12.5t62.5 -34t46 -51t18.5 -62.5h-86q0 2 -6 16.5t-19.5 28.5t-36 26.5t-55.5 12.5q-41 0 -70.5 -24.5t-51 -64.5t-33 -93.5 t-13.5 -110.5q2 6 15.5 20.5t36 30t55.5 27.5t78 12q98 0 157.5 -60.5t59.5 -170.5q0 -111 -62.5 -178.5t-173.5 -67.5q-80 0 -131 31t-80.5 82t-41 116.5t-11.5 135.5zM1157 228q0 -70 40.5 -115t112.5 -45q57 0 101.5 42t44.5 120q0 70 -31 115.5t-113 45.5 q-70 0 -112.5 -45t-42.5 -118z" />
<glyph unicode="&#x215a;" horiz-adv-x="1978" d="M363 848h78q0 -4 8 -18.5t24.5 -30t41 -27.5t61.5 -12q70 0 108.5 46t38.5 112q0 78 -35.5 125t-105.5 47q-66 0 -100.5 -16.5t-42.5 -24.5l-66 22l31 356h379v-73h-306l-18 -226q10 10 47 22.5t103 12.5q98 0 153 -65.5t55 -169.5q0 -61 -20.5 -106.5t-54 -76t-76.5 -45 t-88 -14.5q-41 0 -80 11.5t-68.5 33t-48 51t-18.5 66.5zM586 0l696 1466h98l-696 -1466h-98zM1118 355q0 68 16.5 137t49 125.5t84 92.5t120.5 36q37 0 72 -12.5t62.5 -34t46 -51t18.5 -62.5h-86q0 2 -6 16.5t-19.5 28.5t-36 26.5t-55.5 12.5q-41 0 -70.5 -24.5t-51 -64.5 t-33 -93.5t-13.5 -110.5q2 6 15.5 20.5t36 30t55.5 27.5t78 12q98 0 157.5 -60.5t59.5 -170.5q0 -111 -62.5 -178.5t-173.5 -67.5q-80 0 -131 31t-80.5 82t-41 116.5t-11.5 135.5zM1227 228q0 -70 40.5 -115t112.5 -45q57 0 101.5 42t44.5 120q0 70 -31 115.5t-113 45.5 q-70 0 -112.5 -45t-42.5 -118z" />
<glyph unicode="&#x215b;" horiz-adv-x="1896" d="M323 1221v96l172 110h80v-727h-94v623zM504 0l696 1466h98l-696 -1466h-98zM1076 197q0 61 22.5 99t50 57.5t53 26.5t31.5 9q-6 0 -28.5 6.5t-47 24t-44 51t-19.5 88.5q0 49 22.5 84t54.5 58.5t69.5 34t68.5 10.5q41 0 80 -10.5t69.5 -33t49 -57t18.5 -84.5 q0 -59 -20.5 -93t-46 -51t-48 -22.5t-28.5 -5.5q6 0 31.5 -6t53 -26.5t50 -58.5t22.5 -101q0 -104 -63.5 -155.5t-167.5 -51.5q-102 0 -167.5 51t-65.5 156zM1166 199q0 -72 37.5 -104.5t103.5 -32.5q63 0 103 32.5t40 104.5q0 74 -38.5 108.5t-104.5 34.5t-103.5 -35.5 t-37.5 -107.5zM1174 557q0 -66 39 -97.5t98 -31.5t98 35t39 94q0 61 -37.5 92t-99.5 31q-61 0 -99 -38t-38 -85z" />
<glyph unicode="&#x215c;" horiz-adv-x="1978" d="M350 862h92q0 -8 4 -24.5t16.5 -31.5t34 -27.5t58.5 -12.5q61 0 101 31.5t40 103.5q0 45 -14.5 70.5t-36 40t-47 18.5t-49.5 4h-31v80h24q16 0 41 3t47.5 15.5t38 39t15.5 75.5q0 61 -32 89t-87 28q-53 0 -79 -27.5t-34 -81.5h-92q4 88 59.5 137.5t143.5 49.5 q41 0 79 -10.5t67.5 -33t47 -56t17.5 -82.5q0 -59 -22.5 -109.5t-78.5 -73.5q115 -37 115 -182q0 -94 -64.5 -151.5t-164.5 -57.5q-102 0 -155.5 52.5t-53.5 123.5zM586 0l696 1466h98l-696 -1466h-98zM1117 197q0 61 22.5 99t50 57.5t53 26.5t31.5 9q-6 0 -28.5 6.5t-47 24 t-44 51t-19.5 88.5q0 49 22.5 84t54.5 58.5t69.5 34t68.5 10.5q41 0 80 -10.5t69.5 -33t49 -57t18.5 -84.5q0 -59 -20.5 -93t-46 -51t-48 -22.5t-28.5 -5.5q6 0 31.5 -6t53 -26.5t50 -58.5t22.5 -101q0 -104 -63.5 -155.5t-167.5 -51.5q-102 0 -167.5 51t-65.5 156z M1207 199q0 -72 37.5 -104.5t103.5 -32.5q63 0 103 32.5t40 104.5q0 74 -38.5 108.5t-104.5 34.5t-103.5 -35.5t-37.5 -107.5zM1215 557q0 -66 39 -97.5t98 -31.5t98 35t39 94q0 61 -37.5 92t-99.5 31q-61 0 -99 -38t-38 -85z" />
<glyph unicode="&#x215d;" horiz-adv-x="1978" d="M344 848h78q0 -4 8 -18.5t24.5 -30t41 -27.5t61.5 -12q70 0 108.5 46t38.5 112q0 78 -35.5 125t-105.5 47q-66 0 -100.5 -16.5t-42.5 -24.5l-66 22l31 356h379v-73h-306l-18 -226q10 10 47 22.5t103 12.5q98 0 153 -65.5t55 -169.5q0 -61 -20.5 -106.5t-54 -76t-76.5 -45 t-88 -14.5q-41 0 -80 11.5t-68.5 33t-48 51t-18.5 66.5zM586 0l696 1466h98l-696 -1466h-98zM1131 197q0 61 22.5 99t50 57.5t53 26.5t31.5 9q-6 0 -28.5 6.5t-47 24t-44 51t-19.5 88.5q0 49 22.5 84t54.5 58.5t69.5 34t68.5 10.5q41 0 80 -10.5t69.5 -33t49 -57t18.5 -84.5 q0 -59 -20.5 -93t-46 -51t-48 -22.5t-28.5 -5.5q6 0 31.5 -6t53 -26.5t50 -58.5t22.5 -101q0 -104 -63.5 -155.5t-167.5 -51.5q-102 0 -167.5 51t-65.5 156zM1221 199q0 -72 37.5 -104.5t103.5 -32.5q63 0 103 32.5t40 104.5q0 74 -38.5 108.5t-104.5 34.5t-103.5 -35.5 t-37.5 -107.5zM1229 557q0 -66 39 -97.5t98 -31.5t98 35t39 94q0 61 -37.5 92t-99.5 31q-61 0 -99 -38t-38 -85z" />
<glyph unicode="&#x215e;" horiz-adv-x="1978" d="M383 1354v73h450v-71l-264 -656h-88l276 654h-374zM586 0l696 1466h98l-696 -1466h-98zM1137 197q0 61 22.5 99t50 57.5t53 26.5t31.5 9q-6 0 -28.5 6.5t-47 24t-44 51t-19.5 88.5q0 49 22.5 84t54.5 58.5t69.5 34t68.5 10.5q41 0 80 -10.5t69.5 -33t49 -57t18.5 -84.5 q0 -59 -20.5 -93t-46 -51t-48 -22.5t-28.5 -5.5q6 0 31.5 -6t53 -26.5t50 -58.5t22.5 -101q0 -104 -63.5 -155.5t-167.5 -51.5q-102 0 -167.5 51t-65.5 156zM1227 199q0 -72 37.5 -104.5t103.5 -32.5q63 0 103 32.5t40 104.5q0 74 -38.5 108.5t-104.5 34.5t-103.5 -35.5 t-37.5 -107.5zM1235 557q0 -66 39 -97.5t98 -31.5t98 35t39 94q0 61 -37.5 92t-99.5 31q-61 0 -99 -38t-38 -85z" />
<glyph unicode="&#x2202;" d="M96 473q0 121 32 210t86 146.5t127 85t157 27.5q113 0 183.5 -32.5t111.5 -72.5t56 -74t17 -38q0 113 -10 226.5t-45 205.5t-102.5 149.5t-184.5 57.5q-78 0 -123 -20.5t-68.5 -47t-31.5 -51t-10 -33.5h-148q0 27 14.5 70t54.5 84t112.5 69.5t189.5 28.5q139 0 233.5 -52 t150.5 -149.5t81 -235.5t25 -310q0 -160 -21.5 -295t-76 -235.5t-146 -157t-230.5 -56.5q-94 0 -174 32t-137 94.5t-90 156.5t-33 217zM229 461q0 -74 16.5 -141.5t52.5 -121t93 -85t139 -31.5q76 0 134.5 29.5t96.5 81t57.5 120t19.5 144.5q0 70 -16.5 137.5t-53.5 120.5 t-96.5 86t-147.5 33q-80 0 -136 -31t-92 -82t-51.5 -118.5t-15.5 -141.5z" />
<glyph unicode="&#x2206;" d="M-51 0l512 1427h145l541 -1427h-1198zM119 113h852l-434 1169z" />
<glyph unicode="&#x220f;" horiz-adv-x="1509" d="M123 1317v110h1243v-110h-213v-1317h-141v1317h-535v-1317h-141v1317h-213z" />
<glyph unicode="&#x2211;" d="M123 0v104l541 615l-525 606v102h815v-110h-661l524 -598l-553 -604h707v-115h-848z" />
<glyph unicode="&#x2212;" d="M123 604v113h848v-113h-848z" />
<glyph unicode="&#x2215;" horiz-adv-x="442" d="M-182 0l696 1466h98l-696 -1466h-98z" />
<glyph unicode="&#x2219;" horiz-adv-x="534" d="M186 578v161h162v-161h-162z" />
<glyph unicode="&#x221a;" horiz-adv-x="1378" d="M70 793l348 122l295 -817l487 1377l109 -39l-523 -1436h-149l-289 774l-246 -82z" />
<glyph unicode="&#x221e;" horiz-adv-x="1314" d="M90 621q0 66 18.5 120t51.5 93.5t78 62.5t98 23q55 0 99 -19.5t82 -52.5t72 -76t68 -92q20 27 49 67.5t67 79.5t87 66t111 27q111 0 182.5 -81t71.5 -216t-70.5 -219.5t-181.5 -84.5q-59 0 -105.5 20.5t-84.5 53.5t-68.5 73t-57.5 79q-18 -29 -47.5 -67t-69.5 -72.5 t-89.5 -59t-104.5 -24.5t-102 21.5t-81 61t-53.5 95t-19.5 121.5zM180 618q0 -84 40 -143t126 -59q41 0 79 19.5t70.5 49t61.5 64.5t51 65q-25 33 -52.5 70t-60 68.5t-70.5 52t-83 20.5q-43 0 -72.5 -18.5t-50 -47t-30 -66.5t-9.5 -75zM709 614q27 -35 54.5 -69.5t60 -63 t69.5 -47t80 -18.5t72.5 17.5t50 45t30 64.5t9.5 75q0 82 -41 144.5t-125 62.5q-41 0 -77 -18.5t-68.5 -49t-60.5 -68.5t-54 -75z" />
<glyph unicode="&#x222b;" d="M190 -264q6 -2 41 -9.5t68 -7.5q29 0 72 7.5t75 40.5q25 25 30 74.5t5 101.5v1216q0 53 3 89t10.5 62.5t20.5 47t34 41.5q37 37 97.5 51t121.5 14q47 0 87 -10t50 -14v-99q-6 2 -41 9.5t-67 7.5q-29 0 -72 -7.5t-76 -39.5q-25 -25 -30 -75t-5 -101v-1217q0 -53 -3 -89 t-10 -62.5t-20.5 -47t-33.5 -41.5q-37 -37 -97.5 -51t-121.5 -14q-47 0 -87 10t-51 15v98z" />
<glyph unicode="&#x2248;" d="M125 330q0 68 16.5 114t46 72.5t68.5 38t84 11.5q66 0 120 -19.5t102 -42t92 -42t87 -19.5q45 0 70 16t36 37.5t14 42t3 27.5h107q-2 -104 -55.5 -170t-167.5 -66q-59 0 -116 19.5t-107 42t-95 42t-82 19.5q-39 0 -61.5 -15.5t-34.5 -35t-16.5 -40t-4.5 -32.5h-106z M125 727q0 68 16.5 114t46 72.5t68.5 38t84 11.5q66 0 120 -19.5t102 -42t92 -42t87 -19.5q45 0 70 16t36 37.5t14 42t3 27.5h107q-2 -104 -55.5 -170t-167.5 -66q-59 0 -116 19.5t-107 42t-95 42t-82 19.5q-39 0 -61.5 -15.5t-34.5 -35t-16.5 -40t-4.5 -32.5h-106z" />
<glyph unicode="&#x2260;" d="M123 426v109h330l120 245h-450v109h495l136 268l86 -45l-115 -223h246v-109h-289l-121 -245h410v-109h-453l-133 -272l-92 43l117 229h-287z" />
<glyph unicode="&#x2264;" d="M123 0v109h848v-109h-848zM123 737v107l848 399v-117l-735 -333l735 -332v-117z" />
<glyph unicode="&#x2265;" d="M123 0v109h848v-109h-848zM123 344v117l735 332l-735 333v117l848 -399v-107z" />
<glyph unicode="&#x25ca;" d="M68 727l415 700h129l414 -700l-414 -727h-129zM197 727l352 -625l348 625l-348 598z" />
<glyph unicode="&#xe000;" horiz-adv-x="1013" d="M0 0v1014h1014v-1014h-1014z" />
<glyph unicode="&#xf010;" horiz-adv-x="1638" d="M47 647v133h1274l-680 650h211l715 -715l-715 -715h-211l680 647h-1274z" />
<glyph unicode="&#xf011;" horiz-adv-x="1638" d="M104 594v209l713 715l715 -715v-209l-643 676v-1274h-141v1274z" />
<glyph unicode="&#xf012;" horiz-adv-x="1638" d="M72 715l714 715h211l-680 -650h1274v-133h-1274l680 -647h-211z" />
<glyph unicode="&#xf013;" horiz-adv-x="1638" d="M104 627v209l644 -676v1274h141v-1274l643 676v-209l-715 -715z" />
<glyph unicode="&#xf014;" horiz-adv-x="1638" d="M227 221l973 973l-969 -23l148 148h1046v-1051l-147 -147l22 973l-972 -973z" />
<glyph unicode="&#xf015;" horiz-adv-x="1638" d="M227 1206l101 101l972 -973l-22 973l147 -148v-1050h-1046l-148 147l969 -23z" />
<glyph unicode="&#xf016;" horiz-adv-x="1638" d="M211 109v1050l147 148l-22 -973l973 973l100 -101l-973 -973l969 23l-148 -147h-1046z" />
<glyph unicode="&#xf017;" horiz-adv-x="1638" d="M213 268v1051h1047l147 -148l-969 23l973 -973l-100 -100l-973 973l22 -973z" />
<glyph unicode="&#xf506;" horiz-adv-x="1896" d="M323 1221v96l172 110h80v-727h-94v623zM504 0l696 1466h98l-696 -1466h-98zM1082 658v73h450v-71l-264 -656h-88l276 654h-374z" />
<glyph unicode="&#xf507;" horiz-adv-x="1982" d="M356 694v25q0 98 49 161.5t115 123.5q43 37 86 79q33 33 54.5 71t21.5 85q0 55 -28 87t-85 32q-53 0 -82 -24.5t-39 -84.5h-90q0 33 10.5 66t35 59.5t65.5 44t102 17.5q88 0 147.5 -49.5t59.5 -147.5q0 -57 -19.5 -100t-54.5 -80q-16 -18 -34.5 -36.5t-41.5 -37.5 q-43 -37 -90 -84q-29 -29 -50 -58.5t-28 -66.5h322v-82h-426zM590 0l696 1466h98l-696 -1466h-98zM1168 658v73h450v-71l-264 -656h-88l276 654h-374z" />
<glyph unicode="&#xf508;" horiz-adv-x="1978" d="M371 862h92q0 -8 4 -24.5t16.5 -31.5t34 -27.5t58.5 -12.5q61 0 101 31.5t40 103.5q0 45 -14.5 70.5t-36 40t-47 18.5t-49.5 4h-31v80h24q16 0 41 3t47.5 15.5t38 39t15.5 75.5q0 61 -32 89t-87 28q-53 0 -79 -27.5t-34 -81.5h-92q4 88 59.5 137.5t143.5 49.5 q41 0 79 -10.5t67.5 -33t47 -56t17.5 -82.5q0 -59 -22.5 -109.5t-78.5 -73.5q115 -37 115 -182q0 -94 -64.5 -151.5t-164.5 -57.5q-102 0 -155.5 52.5t-53.5 123.5zM586 0l696 1466h98l-696 -1466h-98zM1123 658v73h450v-71l-264 -656h-88l276 654h-374z" />
<glyph unicode="&#xf509;" horiz-adv-x="1978" d="M285 864v82l344 481h94v-485h98v-78h-98v-164h-92v164h-346zM365 942h266v373zM586 0l696 1466h98l-696 -1466h-98zM1143 658v73h450v-71l-264 -656h-88l276 654h-374z" />
<glyph unicode="&#xf50a;" horiz-adv-x="1978" d="M365 848h78q0 -4 8 -18.5t24.5 -30t41 -27.5t61.5 -12q70 0 108.5 46t38.5 112q0 78 -35.5 125t-105.5 47q-66 0 -100.5 -16.5t-42.5 -24.5l-66 22l31 356h379v-73h-306l-18 -226q10 10 47 22.5t103 12.5q98 0 153 -65.5t55 -169.5q0 -61 -20.5 -106.5t-54 -76t-76.5 -45 t-88 -14.5q-41 0 -80 11.5t-68.5 33t-48 51t-18.5 66.5zM586 0l696 1466h98l-696 -1466h-98zM1143 658v73h450v-71l-264 -656h-88l276 654h-374z" />
<glyph unicode="&#xf50b;" horiz-adv-x="1978" d="M338 1051q0 68 16.5 137t49 125.5t84 92.5t120.5 36q37 0 72 -12.5t62.5 -34t46 -51t18.5 -62.5h-86q0 2 -6 16.5t-19.5 28.5t-36 26.5t-55.5 12.5q-41 0 -70.5 -24.5t-51 -64.5t-33 -93.5t-13.5 -110.5q2 6 15.5 20.5t36 30t55.5 27.5t78 12q98 0 157.5 -60.5 t59.5 -170.5q0 -111 -62.5 -178.5t-173.5 -67.5q-80 0 -131 31t-80.5 82t-41 116.5t-11.5 135.5zM447 924q0 -70 40.5 -115t112.5 -45q57 0 101.5 42t44.5 120q0 70 -31 115.5t-113 45.5q-70 0 -112.5 -45t-42.5 -118zM586 0l696 1466h98l-696 -1466h-98zM1145 658v73h450 v-71l-264 -656h-88l276 654h-374z" />
<glyph unicode="&#xf50c;" horiz-adv-x="1896" d="M344 1221v96l172 110h80v-727h-94v623zM504 0l696 1466h98l-696 -1466h-98zM1022 502q0 35 12.5 77t40 79t70.5 62.5t107 25.5q76 0 125 -30t77.5 -81t40 -116.5t11.5 -137.5q0 -80 -14.5 -150.5t-46.5 -123.5t-81 -84t-119 -31q-74 0 -114.5 24.5t-59.5 53.5 q-23 35 -24 80h86q0 -4 3 -16.5t14.5 -27t34 -26.5t63.5 -12q55 -2 88.5 25.5t51 71.5t24 96.5t8.5 99.5q-4 -8 -15.5 -25.5t-34 -34t-56.5 -30t-81 -13.5q-104 0 -157.5 69t-53.5 175zM1114 508q0 -35 5.5 -65.5t19.5 -55t38.5 -39t63.5 -14.5q45 0 77 16.5t51.5 41 t27.5 56.5t8 62q0 27 -8 55.5t-26.5 52t-46 38t-64.5 14.5q-63 0 -104.5 -45t-41.5 -117z" />
<glyph unicode="&#xf50d;" horiz-adv-x="1982" d="M336 694v25q0 98 49 161.5t115 123.5q43 37 86 79q33 33 54.5 71t21.5 85q0 55 -28 87t-85 32q-53 0 -82 -24.5t-39 -84.5h-90q0 33 10.5 66t35 59.5t65.5 44t102 17.5q88 0 147.5 -49.5t59.5 -147.5q0 -57 -19.5 -100t-54.5 -80q-16 -18 -34.5 -36.5t-41.5 -37.5 q-43 -37 -90 -84q-29 -29 -50 -58.5t-28 -66.5h322v-82h-426zM590 0l696 1466h98l-696 -1466h-98zM1128 502q0 35 12.5 77t40 79t70.5 62.5t107 25.5q76 0 125 -30t77.5 -81t40 -116.5t11.5 -137.5q0 -80 -14.5 -150.5t-46.5 -123.5t-81 -84t-119 -31q-74 0 -114.5 24.5 t-59.5 53.5q-23 35 -24 80h86q0 -4 3 -16.5t14.5 -27t34 -26.5t63.5 -12q55 -2 88.5 25.5t51 71.5t24 96.5t8.5 99.5q-4 -8 -15.5 -25.5t-34 -34t-56.5 -30t-81 -13.5q-104 0 -157.5 69t-53.5 175zM1220 508q0 -35 5.5 -65.5t19.5 -55t38.5 -39t63.5 -14.5q45 0 77 16.5 t51.5 41t27.5 56.5t8 62q0 27 -8 55.5t-26.5 52t-46 38t-64.5 14.5q-63 0 -104.5 -45t-41.5 -117z" />
<glyph unicode="&#xf50e;" horiz-adv-x="1978" d="M244 864v82l344 481h94v-485h98v-78h-98v-164h-92v164h-346zM324 942h266v373zM586 0l696 1466h98l-696 -1466h-98zM1104 502q0 35 12.5 77t40 79t70.5 62.5t107 25.5q76 0 125 -30t77.5 -81t40 -116.5t11.5 -137.5q0 -80 -14.5 -150.5t-46.5 -123.5t-81 -84t-119 -31 q-74 0 -114.5 24.5t-59.5 53.5q-23 35 -24 80h86q0 -4 3 -16.5t14.5 -27t34 -26.5t63.5 -12q55 -2 88.5 25.5t51 71.5t24 96.5t8.5 99.5q-4 -8 -15.5 -25.5t-34 -34t-56.5 -30t-81 -13.5q-104 0 -157.5 69t-53.5 175zM1196 508q0 -35 5.5 -65.5t19.5 -55t38.5 -39 t63.5 -14.5q45 0 77 16.5t51.5 41t27.5 56.5t8 62q0 27 -8 55.5t-26.5 52t-46 38t-64.5 14.5q-63 0 -104.5 -45t-41.5 -117z" />
<glyph unicode="&#xf50f;" horiz-adv-x="1978" d="M344 848h78q0 -4 8 -18.5t24.5 -30t41 -27.5t61.5 -12q70 0 108.5 46t38.5 112q0 78 -35.5 125t-105.5 47q-66 0 -100.5 -16.5t-42.5 -24.5l-66 22l31 356h379v-73h-306l-18 -226q10 10 47 22.5t103 12.5q98 0 153 -65.5t55 -169.5q0 -61 -20.5 -106.5t-54 -76t-76.5 -45 t-88 -14.5q-41 0 -80 11.5t-68.5 33t-48 51t-18.5 66.5zM586 0l696 1466h98l-696 -1466h-98zM1104 502q0 35 12.5 77t40 79t70.5 62.5t107 25.5q76 0 125 -30t77.5 -81t40 -116.5t11.5 -137.5q0 -80 -14.5 -150.5t-46.5 -123.5t-81 -84t-119 -31q-74 0 -114.5 24.5 t-59.5 53.5q-23 35 -24 80h86q0 -4 3 -16.5t14.5 -27t34 -26.5t63.5 -12q55 -2 88.5 25.5t51 71.5t24 96.5t8.5 99.5q-4 -8 -15.5 -25.5t-34 -34t-56.5 -30t-81 -13.5q-104 0 -157.5 69t-53.5 175zM1196 508q0 -35 5.5 -65.5t19.5 -55t38.5 -39t63.5 -14.5q45 0 77 16.5 t51.5 41t27.5 56.5t8 62q0 27 -8 55.5t-26.5 52t-46 38t-64.5 14.5q-63 0 -104.5 -45t-41.5 -117z" />
<glyph unicode="&#xf510;" horiz-adv-x="1978" d="M404 1354v73h450v-71l-264 -656h-88l276 654h-374zM586 0l696 1466h98l-696 -1466h-98zM1124 502q0 35 12.5 77t40 79t70.5 62.5t107 25.5q76 0 125 -30t77.5 -81t40 -116.5t11.5 -137.5q0 -80 -14.5 -150.5t-46.5 -123.5t-81 -84t-119 -31q-74 0 -114.5 24.5t-59.5 53.5 q-23 35 -24 80h86q0 -4 3 -16.5t14.5 -27t34 -26.5t63.5 -12q55 -2 88.5 25.5t51 71.5t24 96.5t8.5 99.5q-4 -8 -15.5 -25.5t-34 -34t-56.5 -30t-81 -13.5q-104 0 -157.5 69t-53.5 175zM1216 508q0 -35 5.5 -65.5t19.5 -55t38.5 -39t63.5 -14.5q45 0 77 16.5t51.5 41 t27.5 56.5t8 62q0 27 -8 55.5t-26.5 52t-46 38t-64.5 14.5q-63 0 -104.5 -45t-41.5 -117z" />
<glyph unicode="&#xf511;" horiz-adv-x="1978" d="M316 893q0 61 22.5 99t50 57.5t53 26.5t31.5 9q-6 0 -28.5 6.5t-47 24t-44 51t-19.5 88.5q0 49 22.5 84t54.5 58.5t69.5 34t68.5 10.5q41 0 80 -10.5t69.5 -33t49 -57t18.5 -84.5q0 -59 -20.5 -93t-46 -51t-48 -22.5t-28.5 -5.5q6 0 31.5 -6t53 -26.5t50 -58.5t22.5 -101 q0 -104 -63.5 -155.5t-167.5 -51.5q-102 0 -167.5 51t-65.5 156zM406 895q0 -72 37.5 -104.5t103.5 -32.5q63 0 103 32.5t40 104.5q0 74 -38.5 108.5t-104.5 34.5t-103.5 -35.5t-37.5 -107.5zM414 1253q0 -66 39 -97.5t98 -31.5t98 35t39 94q0 61 -37.5 92t-99.5 31 q-61 0 -99 -38t-38 -85zM586 0l696 1466h98l-696 -1466h-98zM1104 502q0 35 12.5 77t40 79t70.5 62.5t107 25.5q76 0 125 -30t77.5 -81t40 -116.5t11.5 -137.5q0 -80 -14.5 -150.5t-46.5 -123.5t-81 -84t-119 -31q-74 0 -114.5 24.5t-59.5 53.5q-23 35 -24 80h86 q0 -4 3 -16.5t14.5 -27t34 -26.5t63.5 -12q55 -2 88.5 25.5t51 71.5t24 96.5t8.5 99.5q-4 -8 -15.5 -25.5t-34 -34t-56.5 -30t-81 -13.5q-104 0 -157.5 69t-53.5 175zM1196 508q0 -35 5.5 -65.5t19.5 -55t38.5 -39t63.5 -14.5q45 0 77 16.5t51.5 41t27.5 56.5t8 62 q0 27 -8 55.5t-26.5 52t-46 38t-64.5 14.5q-63 0 -104.5 -45t-41.5 -117z" />
<glyph unicode="&#xf800;" d="M68 723q0 166 26.5 300t85 230.5t149.5 148.5t220 52q137 0 229 -56.5t147.5 -155.5t79 -233.5t23.5 -287.5q0 -164 -25.5 -301t-82 -236.5t-148.5 -155t-227 -55.5q-143 0 -235.5 63.5t-146.5 168t-74.5 240t-20.5 278.5zM213 700q0 -88 9 -194.5t43 -198.5t99.5 -153.5 t180.5 -61.5t182.5 57.5t102 147.5t44 197.5t9.5 210.5q0 100 -8.5 210.5t-41 204.5t-99 155.5t-181.5 61.5q-121 0 -188.5 -60t-101.5 -153.5t-42 -206t-8 -217.5z" />
<glyph unicode="&#xf801;" horiz-adv-x="864" d="M94 1098v116l361 213h133v-1427h-137v1309z" />
<glyph unicode="&#xf802;" d="M111 0v27q0 78 17 141t46 116.5t67 98.5t78 86q74 74 156 140.5t151.5 137t114.5 150.5t45 180q0 123 -64.5 196t-193.5 73q-236 0 -268 -222h-145q0 51 20.5 108.5t68.5 107t129 82t202 32.5q86 0 159.5 -24.5t128 -71.5t84 -117t29.5 -162q0 -117 -44 -202.5 t-113.5 -160.5t-158 -146.5t-174.5 -157.5q-66 -66 -114.5 -133.5t-55.5 -159.5h670v-119h-835z" />
<glyph unicode="&#xf803;" d="M98 281h146q0 -10 9 -42t35.5 -66t77 -60.5t132.5 -26.5q135 0 225 72.5t90 226.5q0 98 -32.5 156.5t-83 88t-108 39t-106.5 9.5h-41v113h31q35 0 89 6t104.5 33.5t86 87t35.5 167.5q0 135 -73.5 198t-196.5 63q-119 0 -178 -60.5t-76 -161.5h-145q8 147 113.5 238.5 t279.5 91.5q82 0 157.5 -20.5t132 -62.5t90.5 -107.5t34 -155.5q0 -131 -40 -204t-91.5 -109.5t-99.5 -46t-66 -11.5q166 -16 245.5 -103t79.5 -263q0 -90 -32.5 -163t-92 -125t-141.5 -81t-182 -29q-102 0 -178 27t-127 71t-77 99t-26 111z" />
<glyph unicode="&#xf804;" d="M61 319v103l662 1005h145v-995h189v-113h-189v-319h-135v319h-672zM193 432h540v834z" />
<glyph unicode="&#xf805;" d="M133 256h146q2 -10 8 -38t30.5 -57.5t75.5 -53t142 -23.5q88 0 145 29.5t91 80t47 114t13 130.5q0 72 -12 137.5t-45 114.5t-87 78t-140 29q-61 0 -108.5 -14.5t-81 -34t-54 -38t-29.5 -26.5l-100 43l33 700h700v-112h-592l-26 -529q8 8 29.5 29t57.5 42.5t90 36.5 t128 15q102 0 174 -34.5t118 -96t66.5 -146.5t20.5 -186q0 -121 -34 -210t-92.5 -147t-137 -87t-170.5 -29q-90 0 -164 17.5t-127 53.5t-84 88t-31 124z" />
<glyph unicode="&#xf806;" d="M106 688q0 88 8.5 179t30 176t57.5 160t90 130.5t130 88t178 32.5q68 0 134.5 -18.5t118.5 -53t86 -86t36 -114.5h-144q-2 6 -10 31.5t-33.5 55t-72.5 53.5t-125 24q-113 0 -180.5 -61.5t-103.5 -159t-48 -216t-14 -231.5q6 12 26.5 50t63.5 78t112.5 71.5t174.5 31.5 q199 0 296 -120.5t97 -333.5q0 -109 -28 -198t-81 -152.5t-134 -97.5t-185 -34q-147 0 -241.5 60.5t-147 161t-72 229.5t-19.5 264zM274 436q0 -68 16.5 -130t52.5 -111.5t94.5 -79t144.5 -29.5q84 0 141 27.5t91 75t48.5 113t14.5 138.5q0 68 -13.5 132.5t-47.5 114.5 t-90 81t-140 31q-78 0 -136.5 -30t-97.5 -80t-58.5 -115.5t-19.5 -137.5z" />
<glyph unicode="&#xf807;" horiz-adv-x="935" d="M26 1313v114h850v-102l-516 -1325h-145l530 1313h-719z" />
<glyph unicode="&#xf808;" d="M109 377q0 123 42 196.5t95 112.5t101 52.5t61 15.5q-10 2 -53.5 13t-90.5 46t-84 100.5t-37 176.5q0 106 41 175.5t102.5 111.5t132 59.5t128.5 17.5q78 0 151.5 -20.5t131 -63.5t92 -111.5t34.5 -164.5q0 -117 -37.5 -184.5t-86 -101.5t-92.5 -43t-54 -11 q12 -2 61.5 -13.5t101.5 -50.5t94 -112.5t42 -200.5q0 -102 -31.5 -178t-89 -126t-138.5 -75t-179 -25q-96 0 -176 25t-138.5 75t-91 125.5t-32.5 178.5zM248 383q0 -158 81 -229.5t216 -71.5q66 0 121 17.5t95 54t62.5 93t22.5 136.5q0 160 -82 236.5t-219 76.5t-217 -79.5 t-80 -233.5zM272 1081q0 -141 76 -210.5t199 -69.5q125 0 202.5 74.5t77.5 205.5q0 135 -76.5 202t-201.5 67t-201 -65.5t-76 -203.5z" />
<glyph unicode="&#xf809;" d="M80 975q0 68 18.5 150.5t65.5 156.5t130 123t212 49q143 0 236.5 -59.5t147.5 -158.5t75.5 -228t21.5 -269q0 -158 -23.5 -296t-81 -242.5t-152.5 -165t-236 -60.5q-70 0 -122.5 11.5t-92 31t-66.5 44t-45 51.5q-41 59 -49 137h141q2 -6 10.5 -33t34 -56.5t71.5 -52 t124 -22.5q82 0 140 32t97 84t61.5 120.5t35 142.5t16.5 147.5t6 139.5q-6 -16 -26.5 -57.5t-63.5 -84.5t-114.5 -76.5t-178.5 -33.5q-98 0 -172 35.5t-123 99t-73.5 150.5t-24.5 190zM213 989q0 -74 13.5 -142.5t45 -121.5t88 -86t142.5 -33t146.5 36t98 92.5t55 125 t17.5 133.5q0 74 -17.5 139.5t-55 112.5t-97 75t-141.5 28q-74 0 -129 -28t-92 -76t-55.5 -113.5t-18.5 -141.5z" />
<glyph unicode="&#xf80a;" horiz-adv-x="768" d="M127 1253q0 170 61.5 271.5t196.5 101.5q74 0 123 -29t78.5 -79t42 -118.5t12.5 -146.5q0 -84 -13.5 -154.5t-44 -121t-79.5 -79t-121 -28.5q-76 0 -125 33t-78.5 86t-41 121.5t-11.5 142.5zM219 1243q0 -41 4 -92.5t20.5 -96.5t49.5 -75.5t90 -30.5t90 28.5t49.5 72.5 t21.5 96.5t5 99.5q0 45 -4 98t-19.5 99.5t-48.5 76t-90 29.5q-59 0 -93 -29.5t-50.5 -75t-20.5 -98.5t-4 -102z" />
<glyph unicode="&#xf80b;" horiz-adv-x="686" d="M180 1405v96l172 110h80v-727h-94v623z" />
<glyph unicode="&#xf80c;" horiz-adv-x="772" d="M172 878v25q0 98 49 161.5t115 123.5q43 37 86 79q33 33 54.5 71t21.5 85q0 55 -28 87t-85 32q-53 0 -82 -24.5t-39 -84.5h-90q0 33 10.5 66t35 59.5t65.5 44t102 17.5q88 0 147.5 -49.5t59.5 -147.5q0 -57 -19.5 -100t-54.5 -80q-16 -18 -34.5 -36.5t-41.5 -37.5 q-43 -37 -90 -84q-29 -29 -50 -58.5t-28 -66.5h322v-82h-426z" />
<glyph unicode="&#xf80d;" horiz-adv-x="768" d="M166 1046h92q0 -8 4 -24.5t16.5 -31.5t34 -27.5t58.5 -12.5q61 0 101 31.5t40 103.5q0 45 -14.5 70.5t-36 40t-47 18.5t-49.5 4h-31v80h24q16 0 41 3t47.5 15.5t38 39t15.5 75.5q0 61 -32 89t-87 28q-53 0 -79 -27.5t-34 -81.5h-92q4 88 59.5 137.5t143.5 49.5 q41 0 79 -10.5t67.5 -33t47 -56t17.5 -82.5q0 -59 -22.5 -109.5t-78.5 -73.5q115 -37 115 -182q0 -94 -64.5 -151.5t-164.5 -57.5q-102 0 -155.5 52.5t-53.5 123.5z" />
<glyph unicode="&#xf80e;" horiz-adv-x="768" d="M121 1048v82l344 481h94v-485h98v-78h-98v-164h-92v164h-346zM201 1126h266v373z" />
<glyph unicode="&#xf80f;" horiz-adv-x="768" d="M160 1032h78q0 -4 8 -18.5t24.5 -30t41 -27.5t61.5 -12q70 0 108.5 46t38.5 112q0 78 -35.5 125t-105.5 47q-66 0 -100.5 -16.5t-42.5 -24.5l-66 22l31 356h379v-73h-306l-18 -226q10 10 47 22.5t103 12.5q98 0 153 -65.5t55 -169.5q0 -61 -20.5 -106.5t-54 -76 t-76.5 -45t-88 -14.5q-41 0 -80 11.5t-68.5 33t-48 51t-18.5 66.5z" />
<glyph unicode="&#xf810;" horiz-adv-x="768" d="M133 1235q0 68 16.5 137t49 125.5t84 92.5t120.5 36q37 0 72 -12.5t62.5 -34t46 -51t18.5 -62.5h-86q0 2 -6 16.5t-19.5 28.5t-36 26.5t-55.5 12.5q-41 0 -70.5 -24.5t-51 -64.5t-33 -93.5t-13.5 -110.5q2 6 15.5 20.5t36 30t55.5 27.5t78 12q98 0 157.5 -60.5 t59.5 -170.5q0 -111 -62.5 -178.5t-173.5 -67.5q-80 0 -131 31t-80.5 82t-41 116.5t-11.5 135.5zM242 1108q0 -70 40.5 -115t112.5 -45q57 0 101.5 42t44.5 120q0 70 -31 115.5t-113 45.5q-70 0 -112.5 -45t-42.5 -118z" />
<glyph unicode="&#xf811;" horiz-adv-x="768" d="M158 1538v73h450v-71l-264 -656h-88l276 654h-374z" />
<glyph unicode="&#xf812;" horiz-adv-x="768" d="M152 1077q0 61 22.5 99t50 57.5t53 26.5t31.5 9q-6 0 -28.5 6.5t-47 24t-44 51t-19.5 88.5q0 49 22.5 84t54.5 58.5t69.5 34t68.5 10.5q41 0 80 -10.5t69.5 -33t49 -57t18.5 -84.5q0 -59 -20.5 -93t-46 -51t-48 -22.5t-28.5 -5.5q6 0 31.5 -6t53 -26.5t50 -58.5 t22.5 -101q0 -104 -63.5 -155.5t-167.5 -51.5q-102 0 -167.5 51t-65.5 156zM242 1079q0 -72 37.5 -104.5t103.5 -32.5q63 0 103 32.5t40 104.5q0 74 -38.5 108.5t-104.5 34.5t-103.5 -35.5t-37.5 -107.5zM250 1437q0 -66 39 -97.5t98 -31.5t98 35t39 94q0 61 -37.5 92 t-99.5 31q-61 0 -99 -38t-38 -85z" />
<glyph unicode="&#xf813;" horiz-adv-x="768" d="M139 1382q0 35 12.5 77t40 79t70.5 62.5t107 25.5q76 0 125 -30t77.5 -81t40 -116.5t11.5 -137.5q0 -80 -14.5 -150.5t-46.5 -123.5t-81 -84t-119 -31q-74 0 -114.5 24.5t-59.5 53.5q-23 35 -24 80h86q0 -4 3 -16.5t14.5 -27t34 -26.5t63.5 -12q55 -2 88.5 25.5t51 71.5 t24 96.5t8.5 99.5q-4 -8 -15.5 -25.5t-34 -34t-56.5 -30t-81 -13.5q-104 0 -157.5 69t-53.5 175zM231 1388q0 -35 5.5 -65.5t19.5 -55t38.5 -39t63.5 -14.5q45 0 77 16.5t51.5 41t27.5 56.5t8 62q0 27 -8 55.5t-26.5 52t-46 38t-64.5 14.5q-63 0 -104.5 -45t-41.5 -117z" />
<glyph unicode="&#xf814;" horiz-adv-x="768" d="M127 188q0 170 61.5 271.5t196.5 101.5q74 0 123 -29t78.5 -79t42 -118.5t12.5 -146.5q0 -84 -13.5 -154.5t-44 -121t-79.5 -79t-121 -28.5q-76 0 -125 33t-78.5 86t-41 121.5t-11.5 142.5zM219 178q0 -41 4 -92.5t20.5 -96.5t49.5 -75.5t90 -30.5t90 28.5t49.5 72.5 t21.5 96.5t5 99.5q0 45 -4 98t-19.5 99.5t-48.5 76t-90 29.5q-59 0 -93 -29.5t-50.5 -75t-20.5 -98.5t-4 -102z" />
<glyph unicode="&#xf815;" horiz-adv-x="686" d="M180 340v96l172 110h80v-727h-94v623z" />
<glyph unicode="&#xf816;" horiz-adv-x="772" d="M172 -162q0 98 49 161.5t115 123.5q43 37 86 79q33 33 54.5 71t21.5 85q0 55 -28 87t-85 32q-53 0 -82 -24.5t-39 -84.5h-90q0 33 10.5 66t35 59.5t65.5 44t102 17.5q88 0 147.5 -49.5t59.5 -147.5q0 -57 -19.5 -100t-54.5 -80q-16 -18 -34.5 -36.5t-41.5 -37.5 q-43 -37 -90 -84q-29 -29 -50 -58.5t-28 -66.5h322v-82h-426v25z" />
<glyph unicode="&#xf817;" horiz-adv-x="768" d="M166 -19h92q0 -8 4 -24.5t16.5 -31.5t34 -27.5t58.5 -12.5q61 0 101 31.5t40 103.5q0 45 -14.5 70.5t-36 40t-47 18.5t-49.5 4h-31v80h24q16 0 41 3t47.5 15.5t38 39t15.5 75.5q0 61 -32 89t-87 28q-53 0 -79 -27.5t-34 -81.5h-92q4 88 59.5 137.5t143.5 49.5 q41 0 79 -10.5t67.5 -33t47 -56t17.5 -82.5q0 -59 -22.5 -109.5t-78.5 -73.5q115 -37 115 -182q0 -94 -64.5 -151.5t-164.5 -57.5q-102 0 -155.5 52.5t-53.5 123.5z" />
<glyph unicode="&#xf818;" horiz-adv-x="768" d="M121 -17v82l344 481h94v-485h98v-78h-98v-164h-92v164h-346zM201 61h266v373z" />
<glyph unicode="&#xf819;" horiz-adv-x="768" d="M160 -33h78q0 -4 8 -18.5t24.5 -30t41 -27.5t61.5 -12q70 0 108.5 46t38.5 112q0 78 -35.5 125t-105.5 47q-66 0 -100.5 -16.5t-42.5 -24.5l-66 22l31 356h379v-73h-306l-18 -226q10 10 47 22.5t103 12.5q98 0 153 -65.5t55 -169.5q0 -61 -20.5 -106.5t-54 -76t-76.5 -45 t-88 -14.5q-41 0 -80 11.5t-68.5 33t-48 51t-18.5 66.5z" />
<glyph unicode="&#xf81a;" horiz-adv-x="768" d="M133 170q0 68 16.5 137t49 125.5t84 92.5t120.5 36q37 0 72 -12.5t62.5 -34t46 -51t18.5 -62.5h-86q0 2 -6 16.5t-19.5 28.5t-36 26.5t-55.5 12.5q-41 0 -70.5 -24.5t-51 -64.5t-33 -93.5t-13.5 -110.5q2 6 15.5 20.5t36 30t55.5 27.5t78 12q98 0 157.5 -60.5 t59.5 -170.5q0 -111 -62.5 -178.5t-173.5 -67.5q-80 0 -131 31t-80.5 82t-41 116.5t-11.5 135.5zM242 43q0 -70 40.5 -115t112.5 -45q57 0 101.5 42t44.5 120q0 70 -31 115.5t-113 45.5q-70 0 -112.5 -45t-42.5 -118z" />
<glyph unicode="&#xf81b;" horiz-adv-x="768" d="M158 473v73h450v-71l-264 -656h-88l276 654h-374z" />
<glyph unicode="&#xf81c;" horiz-adv-x="768" d="M152 12q0 61 22.5 99t50 57.5t53 26.5t31.5 9q-6 0 -28.5 6.5t-47 24t-44 51t-19.5 88.5q0 49 22.5 84t54.5 58.5t69.5 34t68.5 10.5q41 0 80 -10.5t69.5 -33t49 -57t18.5 -84.5q0 -59 -20.5 -93t-46 -51t-48 -22.5t-28.5 -5.5q6 0 31.5 -6t53 -26.5t50 -58.5t22.5 -101 q0 -104 -63.5 -155.5t-167.5 -51.5q-102 0 -167.5 51t-65.5 156zM242 14q0 -72 37.5 -104.5t103.5 -32.5q63 0 103 32.5t40 104.5q0 74 -38.5 108.5t-104.5 34.5t-103.5 -35.5t-37.5 -107.5zM250 372q0 -66 39 -97.5t98 -31.5t98 35t39 94q0 61 -37.5 92t-99.5 31 q-61 0 -99 -38t-38 -85z" />
<glyph unicode="&#xf81d;" horiz-adv-x="768" d="M139 317q0 35 12.5 77t40 79t70.5 62.5t107 25.5q76 0 125 -30t77.5 -81t40 -116.5t11.5 -137.5q0 -80 -14.5 -150.5t-46.5 -123.5t-81 -84t-119 -31q-74 0 -114.5 24.5t-59.5 53.5q-23 35 -24 80h86q0 -4 3 -16.5t14.5 -27t34 -26.5t63.5 -12q55 -2 88.5 25.5t51 71.5 t24 96.5t8.5 99.5q-4 -8 -15.5 -25.5t-34 -34t-56.5 -30t-81 -13.5q-104 0 -157.5 69t-53.5 175zM231 323q0 -35 5.5 -65.5t19.5 -55t38.5 -39t63.5 -14.5q45 0 77 16.5t51.5 41t27.5 56.5t8 62q0 27 -8 55.5t-26.5 52t-46 38t-64.5 14.5q-63 0 -104.5 -45t-41.5 -117z" />
<glyph horiz-adv-x="546" d="M193 1198l116 350h105l-74 -350h-147z" />
<glyph horiz-adv-x="520" d="M129 -412l68 283h147l-117 -283h-98z" />
<glyph horiz-adv-x="745" d="M276 1032v412h138l-37 -412h-101z" />
</font>
</defs>
</svg>
